<svg width="964" height="185" viewBox="0 0 964 185" fill="none" xmlns="http://www.w3.org/2000/svg">
<path d="M144.4 7H158.95V81H143.35L113.65 31.95V81H99.05V7H114.65L144.4 56.15V7ZM186.873 81.95C181.706 81.95 177.606 80.35 174.573 77.15C171.539 73.9167 170.023 68.7833 170.023 61.75V26.3H185.323V60.55C185.323 63.3833 185.889 65.4167 187.023 66.65C188.189 67.8833 189.823 68.5 191.923 68.5C193.456 68.5 195.023 68.15 196.623 67.45C198.256 66.7167 199.589 65.7 200.623 64.4V26.3H215.923V81H203.223L202.123 75.35H201.423C197.589 79.75 192.739 81.95 186.873 81.95ZM270.37 58.25H239.87C240.004 61.2167 240.554 63.55 241.52 65.25C242.52 66.9167 244.054 68.1333 246.12 68.9C248.187 69.6333 250.987 70 254.52 70C258.254 70 262.604 69.4 267.57 68.2V80.15C264.837 80.8167 262.254 81.3 259.82 81.6C257.42 81.9 254.987 82.05 252.52 82.05C245.987 82.05 240.654 81.0667 236.52 79.1C232.42 77.1333 229.37 74.05 227.37 69.85C225.404 65.65 224.42 60.2 224.42 53.5C224.42 44.4 226.47 37.45 230.57 32.65C234.704 27.8167 240.587 25.4 248.22 25.4C255.487 25.4 260.987 27.8333 264.72 32.7C268.487 37.5333 270.37 44.6167 270.37 53.95V58.25ZM248.12 35.4C246.287 35.4 244.77 35.8167 243.57 36.65C242.404 37.4833 241.487 38.9 240.82 40.9C240.187 42.9 239.854 45.6333 239.82 49.1H256.07C256.037 45.6333 255.72 42.9 255.12 40.9C254.52 38.9 253.654 37.4833 252.52 36.65C251.387 35.8167 249.92 35.4 248.12 35.4ZM292.783 82.05C286.983 82.05 281.716 81.2667 276.983 79.7V67.9C281.883 69.4667 287.066 70.25 292.533 70.25C295.699 70.25 297.983 69.8 299.383 68.9C300.816 67.9667 301.533 66.6333 301.533 64.9C301.533 63.5667 301.183 62.55 300.483 61.85C299.783 61.1167 298.599 60.5667 296.933 60.2L288.933 58.5C284.399 57.5333 281.016 55.7667 278.783 53.2C276.583 50.6333 275.483 47.1667 275.483 42.8C275.483 39.3 276.366 36.25 278.133 33.65C279.933 31.0167 282.616 28.9833 286.183 27.55C289.749 26.1167 294.133 25.4 299.333 25.4C304.066 25.4 308.483 25.9333 312.583 27V38.8C308.716 37.7333 304.533 37.2 300.033 37.2C292.999 37.2 289.483 39.0167 289.483 42.65C289.483 43.85 289.833 44.8167 290.533 45.55C291.266 46.25 292.449 46.7833 294.083 47.15L302.083 48.85C306.649 49.85 310.033 51.5833 312.233 54.05C314.466 56.5167 315.583 59.9833 315.583 64.45C315.583 68.05 314.666 71.1833 312.833 73.85C311.033 76.4833 308.416 78.5167 304.983 79.95C301.583 81.35 297.516 82.05 292.783 82.05ZM349.426 69.05C350.792 69.05 352.609 68.8667 354.876 68.5V80.85C353.509 81.2167 351.976 81.5 350.276 81.7C348.609 81.9 346.976 82 345.376 82C338.909 82 333.992 80.35 330.626 77.05C327.292 73.7167 325.626 68.5 325.626 61.4V38.35H317.276V26.3H325.626L328.426 7H340.926V26.3H354.576V38.35H340.926V59.4C340.926 61.8333 341.209 63.75 341.776 65.15C342.342 66.55 343.242 67.55 344.476 68.15C345.709 68.75 347.359 69.05 349.426 69.05ZM361.681 26.3H374.231L375.431 33.7H376.131C377.498 30.9 379.365 28.8333 381.731 27.5C384.131 26.1667 386.865 25.5 389.931 25.5C391.165 25.5 392.548 25.6333 394.081 25.9V40C392.848 39.7333 391.131 39.6 388.931 39.6C386.598 39.6 384.315 40.0667 382.081 41C379.881 41.9 378.181 43.15 376.981 44.75V81H361.681V26.3ZM421.922 82.05C414.022 82.05 407.939 79.7167 403.672 75.05C399.405 70.3833 397.272 63.3333 397.272 53.9C397.272 44.3 399.389 37.15 403.622 32.45C407.889 27.75 413.989 25.4 421.922 25.4C429.822 25.4 435.905 27.7833 440.172 32.55C444.439 37.2833 446.572 44.35 446.572 53.75C446.572 63.2167 444.439 70.3 440.172 75C435.905 79.7 429.822 82.05 421.922 82.05ZM421.922 70.5C423.989 70.5 425.672 70.0167 426.972 69.05C428.272 68.0833 429.272 66.4 429.972 64C430.672 61.5667 431.022 58.2 431.022 53.9C431.022 49.5 430.672 46.0667 429.972 43.6C429.272 41.1333 428.255 39.4167 426.922 38.45C425.622 37.45 423.955 36.95 421.922 36.95C419.889 36.95 418.205 37.45 416.872 38.45C415.572 39.4167 414.572 41.1167 413.872 43.55C413.172 45.9833 412.822 49.3667 412.822 53.7C412.822 58.0667 413.172 61.4833 413.872 63.95C414.572 66.3833 415.572 68.0833 416.872 69.05C418.172 70.0167 419.855 70.5 421.922 70.5ZM469.541 82.05C463.741 82.05 458.474 81.2667 453.741 79.7V67.9C458.641 69.4667 463.824 70.25 469.291 70.25C472.457 70.25 474.741 69.8 476.141 68.9C477.574 67.9667 478.291 66.6333 478.291 64.9C478.291 63.5667 477.941 62.55 477.241 61.85C476.541 61.1167 475.357 60.5667 473.691 60.2L465.691 58.5C461.157 57.5333 457.774 55.7667 455.541 53.2C453.341 50.6333 452.241 47.1667 452.241 42.8C452.241 39.3 453.124 36.25 454.891 33.65C456.691 31.0167 459.374 28.9833 462.941 27.55C466.507 26.1167 470.891 25.4 476.091 25.4C480.824 25.4 485.241 25.9333 489.341 27V38.8C485.474 37.7333 481.291 37.2 476.791 37.2C469.757 37.2 466.241 39.0167 466.241 42.65C466.241 43.85 466.591 44.8167 467.291 45.55C468.024 46.25 469.207 46.7833 470.841 47.15L478.841 48.85C483.407 49.85 486.791 51.5833 488.991 54.05C491.224 56.5167 492.341 59.9833 492.341 64.45C492.341 68.05 491.424 71.1833 489.591 73.85C487.791 76.4833 485.174 78.5167 481.741 79.95C478.341 81.35 474.274 82.05 469.541 82.05ZM557.109 81.95C545.476 81.95 536.609 78.9333 530.509 72.9C524.409 66.8667 521.359 57.2833 521.359 44.15C521.359 31.3833 524.526 21.85 530.859 15.55C537.193 9.21666 546.259 6.05 558.059 6.05C563.393 6.05 568.343 6.61666 572.909 7.75V20.8C568.376 19.6667 563.843 19.1 559.309 19.1C554.409 19.1 550.376 19.9167 547.209 21.55C544.043 23.1833 541.659 25.8333 540.059 29.5C538.459 33.1333 537.659 37.95 537.659 43.95C537.659 50.15 538.443 55.0833 540.009 58.75C541.609 62.3833 543.959 64.9833 547.059 66.55C550.159 68.1167 554.143 68.9 559.009 68.9C563.176 68.9 567.809 68.0833 572.909 66.45V79.5C570.743 80.2667 568.276 80.8667 565.509 81.3C562.743 81.7333 559.943 81.95 557.109 81.95ZM580.627 81V0.199997H595.927V81H580.627ZM606.701 81V26.3H622.051V81H606.701ZM614.401 18.4C611.201 18.4 608.801 17.6833 607.201 16.25C605.634 14.7833 604.851 12.7167 604.851 10.05C604.851 7.35 605.634 5.28333 607.201 3.84999C608.801 2.38333 611.201 1.64999 614.401 1.64999C617.567 1.64999 619.934 2.38333 621.501 3.84999C623.101 5.31666 623.901 7.38333 623.901 10.05C623.901 12.7167 623.101 14.7833 621.501 16.25C619.934 17.6833 617.567 18.4 614.401 18.4ZM676.523 58.25H646.023C646.156 61.2167 646.706 63.55 647.673 65.25C648.673 66.9167 650.206 68.1333 652.273 68.9C654.339 69.6333 657.139 70 660.673 70C664.406 70 668.756 69.4 673.723 68.2V80.15C670.989 80.8167 668.406 81.3 665.973 81.6C663.573 81.9 661.139 82.05 658.673 82.05C652.139 82.05 646.806 81.0667 642.673 79.1C638.573 77.1333 635.523 74.05 633.523 69.85C631.556 65.65 630.573 60.2 630.573 53.5C630.573 44.4 632.623 37.45 636.723 32.65C640.856 27.8167 646.739 25.4 654.373 25.4C661.639 25.4 667.139 27.8333 670.873 32.7C674.639 37.5333 676.523 44.6167 676.523 53.95V58.25ZM654.273 35.4C652.439 35.4 650.923 35.8167 649.723 36.65C648.556 37.4833 647.639 38.9 646.973 40.9C646.339 42.9 646.006 45.6333 645.973 49.1H662.223C662.189 45.6333 661.873 42.9 661.273 40.9C660.673 38.9 659.806 37.4833 658.673 36.65C657.539 35.8167 656.073 35.4 654.273 35.4ZM684.435 26.3H697.135L698.235 32H698.935C700.802 29.8333 702.985 28.2 705.485 27.1C708.018 25.9667 710.802 25.4 713.835 25.4C719.035 25.4 723.152 27.0333 726.185 30.3C729.252 33.5333 730.785 38.6833 730.785 45.75V81H715.485V46.8C715.485 43.9333 714.885 41.9 713.685 40.7C712.518 39.5 710.818 38.9 708.585 38.9C706.918 38.9 705.285 39.25 703.685 39.95C702.085 40.6167 700.768 41.6167 699.735 42.95V81H684.435V26.3ZM768.273 69.05C769.64 69.05 771.457 68.8667 773.723 68.5V80.85C772.357 81.2167 770.823 81.5 769.123 81.7C767.457 81.9 765.823 82 764.223 82C757.757 82 752.84 80.35 749.473 77.05C746.14 73.7167 744.473 68.5 744.473 61.4V38.35H736.123V26.3H744.473L747.273 7H759.773V26.3H773.423V38.35H759.773V59.4C759.773 61.8333 760.057 63.75 760.623 65.15C761.19 66.55 762.09 67.55 763.323 68.15C764.557 68.75 766.207 69.05 768.273 69.05ZM823.593 58.25H793.093C793.226 61.2167 793.776 63.55 794.743 65.25C795.743 66.9167 797.276 68.1333 799.343 68.9C801.41 69.6333 804.21 70 807.743 70C811.476 70 815.826 69.4 820.793 68.2V80.15C818.06 80.8167 815.476 81.3 813.043 81.6C810.643 81.9 808.21 82.05 805.743 82.05C799.21 82.05 793.876 81.0667 789.743 79.1C785.643 77.1333 782.593 74.05 780.593 69.85C778.626 65.65 777.643 60.2 777.643 53.5C777.643 44.4 779.693 37.45 783.793 32.65C787.926 27.8167 793.81 25.4 801.443 25.4C808.71 25.4 814.21 27.8333 817.943 32.7C821.71 37.5333 823.593 44.6167 823.593 53.95V58.25ZM801.343 35.4C799.51 35.4 797.993 35.8167 796.793 36.65C795.626 37.4833 794.71 38.9 794.043 40.9C793.41 42.9 793.076 45.6333 793.043 49.1H809.293C809.26 45.6333 808.943 42.9 808.343 40.9C807.743 38.9 806.876 37.4833 805.743 36.65C804.61 35.8167 803.143 35.4 801.343 35.4ZM846.005 82.05C840.205 82.05 834.939 81.2667 830.205 79.7V67.9C835.105 69.4667 840.289 70.25 845.755 70.25C848.922 70.25 851.205 69.8 852.605 68.9C854.039 67.9667 854.755 66.6333 854.755 64.9C854.755 63.5667 854.405 62.55 853.705 61.85C853.005 61.1167 851.822 60.5667 850.155 60.2L842.155 58.5C837.622 57.5333 834.239 55.7667 832.005 53.2C829.805 50.6333 828.705 47.1667 828.705 42.8C828.705 39.3 829.589 36.25 831.355 33.65C833.155 31.0167 835.839 28.9833 839.405 27.55C842.972 26.1167 847.355 25.4 852.555 25.4C857.289 25.4 861.705 25.9333 865.805 27V38.8C861.939 37.7333 857.755 37.2 853.255 37.2C846.222 37.2 842.705 39.0167 842.705 42.65C842.705 43.85 843.055 44.8167 843.755 45.55C844.489 46.25 845.672 46.7833 847.305 47.15L855.305 48.85C859.872 49.85 863.255 51.5833 865.455 54.05C867.689 56.5167 868.805 59.9833 868.805 64.45C868.805 68.05 867.889 71.1833 866.055 73.85C864.255 76.4833 861.639 78.5167 858.205 79.95C854.805 81.35 850.739 82.05 846.005 82.05Z" fill="#001B71"/>
<path d="M19.75 171.54C13.61 171.54 8.93 169.78 5.71 166.26C2.49 162.72 0.88 156.92 0.88 148.86C0.88 140.94 2.52 135.16 5.8 131.52C9.08 127.88 13.88 126.06 20.2 126.06C23.22 126.06 26.14 126.45 28.96 127.23V131.37C26.32 130.57 23.45 130.17 20.35 130.17C17.11 130.17 14.43 130.77 12.31 131.97C10.19 133.15 8.58 135.1 7.48 137.82C6.4 140.54 5.86 144.18 5.86 148.74C5.86 153.4 6.41 157.1 7.51 159.84C8.61 162.58 10.19 164.53 12.25 165.69C14.33 166.85 16.94 167.43 20.08 167.43C21.58 167.43 23.03 167.31 24.43 167.07C25.85 166.81 27.36 166.41 28.96 165.87V170.04C26.06 171.04 22.99 171.54 19.75 171.54ZM34.5138 171V122.52H39.1938V171H34.5138ZM47.5216 171V138.45H52.2016V171H47.5216ZM49.8616 131.34C48.8016 131.34 47.9816 131.08 47.4016 130.56C46.8416 130.04 46.5616 129.31 46.5616 128.37C46.5616 127.43 46.8416 126.7 47.4016 126.18C47.9816 125.64 48.8016 125.37 49.8616 125.37C50.9016 125.37 51.7016 125.64 52.2616 126.18C52.8416 126.7 53.1316 127.43 53.1316 128.37C53.1316 129.31 52.8416 130.04 52.2616 130.56C51.7016 131.08 50.9016 131.34 49.8616 131.34ZM82.9994 156.3H63.6494C63.7094 159.14 64.1094 161.39 64.8494 163.05C65.6094 164.71 66.7194 165.91 68.1794 166.65C69.6594 167.37 71.5794 167.73 73.9394 167.73C76.1194 167.73 78.6194 167.32 81.4394 166.5V170.37C78.6994 171.17 76.0194 171.57 73.3994 171.57C70.1394 171.57 67.4394 171.01 65.2994 169.89C63.1794 168.75 61.5794 166.94 60.4994 164.46C59.4194 161.98 58.8794 158.73 58.8794 154.71C58.8794 149.03 59.9694 144.82 62.1494 142.08C64.3294 139.34 67.3694 137.97 71.2694 137.97C75.0694 137.97 77.9694 139.33 79.9694 142.05C81.9894 144.77 82.9994 149.03 82.9994 154.83V156.3ZM71.2394 141.39C68.8794 141.39 67.0394 142.28 65.7194 144.06C64.4194 145.84 63.7294 148.84 63.6494 153.06H78.4694C78.4294 150.16 78.1094 147.85 77.5094 146.13C76.9294 144.41 76.1194 143.19 75.0794 142.47C74.0394 141.75 72.7594 141.39 71.2394 141.39ZM89.3575 138.45H93.2875L93.6475 142.08H93.9475C95.1275 140.76 96.5275 139.75 98.1475 139.05C99.7675 138.33 101.508 137.97 103.368 137.97C106.368 137.97 108.718 138.83 110.418 140.55C112.138 142.25 112.998 145.03 112.998 148.89V171H108.318V149.13C108.318 146.61 107.788 144.82 106.728 143.76C105.688 142.68 104.188 142.14 102.228 142.14C100.728 142.14 99.2275 142.5 97.7275 143.22C96.2275 143.92 94.9975 145.03 94.0375 146.55V171H89.3575V138.45ZM133.717 167.49C134.777 167.49 135.977 167.34 137.317 167.04V171.03C135.777 171.39 134.247 171.57 132.727 171.57C129.547 171.57 127.117 170.74 125.437 169.08C123.777 167.42 122.947 164.82 122.947 161.28V142.35H117.097V138.45H122.947L123.697 126.6H127.627V138.45H136.837V142.35H127.627V160.56C127.627 163.1 128.107 164.89 129.067 165.93C130.047 166.97 131.597 167.49 133.717 167.49ZM164.035 156.3H144.685C144.745 159.14 145.145 161.39 145.885 163.05C146.645 164.71 147.755 165.91 149.215 166.65C150.695 167.37 152.615 167.73 154.975 167.73C157.155 167.73 159.655 167.32 162.475 166.5V170.37C159.735 171.17 157.055 171.57 154.435 171.57C151.175 171.57 148.475 171.01 146.335 169.89C144.215 168.75 142.615 166.94 141.535 164.46C140.455 161.98 139.915 158.73 139.915 154.71C139.915 149.03 141.005 144.82 143.185 142.08C145.365 139.34 148.405 137.97 152.305 137.97C156.105 137.97 159.005 139.33 161.005 142.05C163.025 144.77 164.035 149.03 164.035 154.83V156.3ZM152.275 141.39C149.915 141.39 148.075 142.28 146.755 144.06C145.455 145.84 144.765 148.84 144.685 153.06H159.505C159.465 150.16 159.145 147.85 158.545 146.13C157.965 144.41 157.155 143.19 156.115 142.47C155.075 141.75 153.795 141.39 152.275 141.39ZM177.413 171.57C174.413 171.57 171.653 171.15 169.133 170.31V166.5C171.973 167.38 174.723 167.82 177.383 167.82C179.863 167.82 181.733 167.35 182.993 166.41C184.253 165.45 184.883 164.08 184.883 162.3C184.883 160.8 184.503 159.65 183.743 158.85C183.003 158.03 181.813 157.41 180.173 156.99L176.363 156.12C173.563 155.44 171.543 154.39 170.303 152.97C169.083 151.53 168.473 149.64 168.473 147.3C168.473 145.46 168.933 143.84 169.853 142.44C170.773 141.04 172.143 139.95 173.963 139.17C175.803 138.37 178.043 137.97 180.683 137.97C183.163 137.97 185.513 138.24 187.733 138.78V142.59C185.533 142.01 183.223 141.72 180.803 141.72C178.123 141.72 176.143 142.22 174.863 143.22C173.603 144.22 172.973 145.53 172.973 147.15C172.973 148.53 173.333 149.63 174.053 150.45C174.773 151.27 175.933 151.88 177.533 152.28L181.343 153.12C184.203 153.82 186.253 154.89 187.493 156.33C188.733 157.75 189.353 159.67 189.353 162.09C189.353 164.05 188.883 165.74 187.943 167.16C187.023 168.58 185.663 169.67 183.863 170.43C182.083 171.19 179.933 171.57 177.413 171.57ZM227.426 167.88H227.156C226.236 169 225.076 169.9 223.676 170.58C222.296 171.24 220.726 171.57 218.966 171.57C216.746 171.57 214.766 171.04 213.026 169.98C211.306 168.9 209.926 167.16 208.886 164.76C207.866 162.36 207.356 159.24 207.356 155.4C207.356 143.78 212.566 137.97 222.986 137.97C224.526 137.97 226.116 138.09 227.756 138.33C229.416 138.57 230.866 138.9 232.106 139.32V184.2H227.426V167.88ZM220.346 167.52C221.726 167.52 223.056 167.2 224.336 166.56C225.636 165.92 226.666 165 227.426 163.8V142.35C225.866 141.97 224.276 141.78 222.656 141.78C219.176 141.78 216.556 142.82 214.796 144.9C213.036 146.98 212.156 150.34 212.156 154.98C212.156 159.66 212.876 162.92 214.316 164.76C215.756 166.6 217.766 167.52 220.346 167.52ZM249.801 171.54C246.821 171.54 244.471 170.68 242.751 168.96C241.031 167.24 240.171 164.44 240.171 160.56V138.45H244.851V160.38C244.851 162.88 245.371 164.67 246.411 165.75C247.451 166.83 248.921 167.37 250.821 167.37C252.261 167.37 253.721 167.01 255.201 166.29C256.681 165.57 257.891 164.47 258.831 162.99V138.45H263.511V171H259.581L259.221 167.49H258.921C257.721 168.83 256.331 169.84 254.751 170.52C253.191 171.2 251.541 171.54 249.801 171.54ZM294.347 156.3H274.997C275.057 159.14 275.457 161.39 276.197 163.05C276.957 164.71 278.067 165.91 279.527 166.65C281.007 167.37 282.927 167.73 285.287 167.73C287.467 167.73 289.967 167.32 292.787 166.5V170.37C290.047 171.17 287.367 171.57 284.747 171.57C281.487 171.57 278.787 171.01 276.647 169.89C274.527 168.75 272.927 166.94 271.847 164.46C270.767 161.98 270.227 158.73 270.227 154.71C270.227 149.03 271.317 144.82 273.497 142.08C275.677 139.34 278.717 137.97 282.617 137.97C286.417 137.97 289.317 139.33 291.317 142.05C293.337 144.77 294.347 149.03 294.347 154.83V156.3ZM282.587 141.39C280.227 141.39 278.387 142.28 277.067 144.06C275.767 145.84 275.077 148.84 274.997 153.06H289.817C289.777 150.16 289.457 147.85 288.857 146.13C288.277 144.41 287.467 143.19 286.427 142.47C285.387 141.75 284.107 141.39 282.587 141.39ZM326.298 171.57C321.798 171.57 318.408 170.23 316.128 167.55C313.848 164.87 312.708 160.6 312.708 154.74C312.708 148.86 313.948 144.6 316.428 141.96C318.908 139.3 322.608 137.97 327.528 137.97C329.748 137.97 331.778 138.21 333.618 138.69V142.68C331.718 142.2 329.878 141.96 328.098 141.96C325.638 141.96 323.648 142.36 322.128 143.16C320.608 143.96 319.468 145.28 318.708 147.12C317.968 148.96 317.598 151.46 317.598 154.62C317.598 157.82 317.948 160.37 318.648 162.27C319.348 164.17 320.378 165.53 321.738 166.35C323.098 167.17 324.848 167.58 326.988 167.58C328.928 167.58 331.138 167.17 333.618 166.35V170.31C331.218 171.15 328.778 171.57 326.298 171.57ZM349.692 171.57C345.572 171.57 342.372 170.21 340.092 167.49C337.812 164.75 336.672 160.51 336.672 154.77C336.672 148.99 337.802 144.75 340.062 142.05C342.322 139.33 345.532 137.97 349.692 137.97C353.832 137.97 357.032 139.33 359.292 142.05C361.552 144.77 362.682 149 362.682 154.74C362.682 160.48 361.542 164.72 359.262 167.46C357.002 170.2 353.812 171.57 349.692 171.57ZM349.692 167.76C351.452 167.76 352.932 167.36 354.132 166.56C355.352 165.74 356.282 164.38 356.922 162.48C357.582 160.58 357.912 158.03 357.912 154.83C357.912 151.57 357.582 148.98 356.922 147.06C356.282 145.14 355.362 143.78 354.162 142.98C352.962 142.18 351.472 141.78 349.692 141.78C347.912 141.78 346.422 142.18 345.222 142.98C344.022 143.78 343.092 145.13 342.432 147.03C341.792 148.91 341.472 151.45 341.472 154.65C341.472 157.91 341.792 160.51 342.432 162.45C343.092 164.37 344.022 165.74 345.222 166.56C346.422 167.36 347.912 167.76 349.692 167.76ZM369.377 138.45H373.307L373.667 142.08H373.967C375.147 140.76 376.547 139.75 378.167 139.05C379.787 138.33 381.527 137.97 383.387 137.97C386.387 137.97 388.737 138.83 390.437 140.55C392.157 142.25 393.017 145.03 393.017 148.89V171H388.337V149.13C388.337 146.61 387.807 144.82 386.747 143.76C385.707 142.68 384.207 142.14 382.247 142.14C380.747 142.14 379.247 142.5 377.747 143.22C376.247 143.92 375.017 145.03 374.057 146.55V171H369.377V138.45ZM403.206 132.51C403.206 129.09 404.116 126.47 405.936 124.65C407.756 122.83 410.386 121.92 413.826 121.92C415.346 121.92 416.696 122.04 417.876 122.28V126.24C416.656 126 415.456 125.88 414.276 125.88C412.116 125.88 410.506 126.4 409.446 127.44C408.386 128.46 407.856 130.09 407.856 132.33V138.45H417.066V142.35H407.856V171H403.206V142.35H397.356V138.45H403.206V132.51ZM423.276 125.37C424.316 125.37 425.116 125.64 425.676 126.18C426.256 126.7 426.546 127.43 426.546 128.37C426.546 129.31 426.256 130.04 425.676 130.56C425.116 131.08 424.316 131.34 423.276 131.34C422.216 131.34 421.396 131.08 420.816 130.56C420.256 130.04 419.976 129.31 419.976 128.37C419.976 127.43 420.256 126.7 420.816 126.18C421.396 125.64 422.216 125.37 423.276 125.37ZM420.936 171V138.45H425.616V171H420.936ZM442.977 137.97C445.677 137.97 447.887 138.34 449.607 139.08C451.347 139.8 452.647 141 453.507 142.68C454.387 144.36 454.827 146.63 454.827 149.49V171H450.897L450.537 167.43H450.237C449.257 168.77 448.017 169.79 446.517 170.49C445.017 171.17 443.357 171.51 441.537 171.51C439.637 171.51 437.977 171.16 436.557 170.46C435.137 169.76 434.047 168.75 433.287 167.43C432.527 166.11 432.147 164.53 432.147 162.69C432.147 159.79 433.057 157.55 434.877 155.97C436.717 154.37 439.577 153.39 443.457 153.03L450.207 152.31V149.25C450.207 147.33 449.917 145.83 449.337 144.75C448.777 143.67 447.927 142.91 446.787 142.47C445.667 142.03 444.187 141.81 442.347 141.81C441.127 141.81 439.797 141.93 438.357 142.17C436.917 142.39 435.517 142.73 434.157 143.19V139.32C435.417 138.9 436.837 138.57 438.417 138.33C440.017 138.09 441.537 137.97 442.977 137.97ZM442.737 167.88C444.137 167.88 445.487 167.56 446.787 166.92C448.087 166.28 449.227 165.25 450.207 163.83V155.52L443.757 156.18C441.397 156.42 439.667 157.04 438.567 158.04C437.467 159.02 436.917 160.41 436.917 162.21C436.917 164.09 437.407 165.51 438.387 166.47C439.387 167.41 440.837 167.88 442.737 167.88ZM462.893 138.45H466.823L467.183 142.08H467.483C468.663 140.76 470.063 139.75 471.683 139.05C473.303 138.33 475.043 137.97 476.903 137.97C479.903 137.97 482.253 138.83 483.953 140.55C485.673 142.25 486.533 145.03 486.533 148.89V171H481.853V149.13C481.853 146.61 481.323 144.82 480.263 143.76C479.223 142.68 477.723 142.14 475.763 142.14C474.263 142.14 472.763 142.5 471.263 143.22C469.763 143.92 468.533 145.03 467.573 146.55V171H462.893V138.45ZM530.714 156.3H511.364C511.424 159.14 511.824 161.39 512.564 163.05C513.324 164.71 514.434 165.91 515.894 166.65C517.374 167.37 519.294 167.73 521.654 167.73C523.834 167.73 526.334 167.32 529.154 166.5V170.37C526.414 171.17 523.734 171.57 521.114 171.57C517.854 171.57 515.154 171.01 513.014 169.89C510.894 168.75 509.294 166.94 508.214 164.46C507.134 161.98 506.594 158.73 506.594 154.71C506.594 149.03 507.684 144.82 509.864 142.08C512.044 139.34 515.084 137.97 518.984 137.97C522.784 137.97 525.684 139.33 527.684 142.05C529.704 144.77 530.714 149.03 530.714 154.83V156.3ZM518.954 141.39C516.594 141.39 514.754 142.28 513.434 144.06C512.134 145.84 511.444 148.84 511.364 153.06H526.184C526.144 150.16 525.824 147.85 525.224 146.13C524.644 144.41 523.834 143.19 522.794 142.47C521.754 141.75 520.474 141.39 518.954 141.39ZM537.072 138.45H541.002L541.362 142.08H541.662C542.842 140.76 544.242 139.75 545.862 139.05C547.482 138.33 549.222 137.97 551.082 137.97C554.082 137.97 556.432 138.83 558.132 140.55C559.852 142.25 560.712 145.03 560.712 148.89V171H556.032V149.13C556.032 146.61 555.502 144.82 554.442 143.76C553.402 142.68 551.902 142.14 549.942 142.14C548.442 142.14 546.942 142.5 545.442 143.22C543.942 143.92 542.712 145.03 541.752 146.55V171H537.072V138.45ZM582.424 138.45H586.354L586.714 142.08H587.014C588.194 140.76 589.594 139.75 591.214 139.05C592.834 138.33 594.574 137.97 596.434 137.97C599.434 137.97 601.784 138.83 603.484 140.55C605.204 142.25 606.064 145.03 606.064 148.89V171H601.384V149.13C601.384 146.61 600.854 144.82 599.794 143.76C598.754 142.68 597.254 142.14 595.294 142.14C593.794 142.14 592.294 142.5 590.794 143.22C589.294 143.92 588.064 145.03 587.104 146.55V171H582.424V138.45ZM623.453 171.54C620.473 171.54 618.123 170.68 616.403 168.96C614.683 167.24 613.823 164.44 613.823 160.56V138.45H618.503V160.38C618.503 162.88 619.023 164.67 620.063 165.75C621.103 166.83 622.573 167.37 624.473 167.37C625.913 167.37 627.373 167.01 628.853 166.29C630.333 165.57 631.543 164.47 632.483 162.99V138.45H637.163V171H633.233L632.873 167.49H632.573C631.373 168.83 629.983 169.84 628.403 170.52C626.843 171.2 625.193 171.54 623.453 171.54ZM667.999 156.3H648.649C648.709 159.14 649.109 161.39 649.849 163.05C650.609 164.71 651.719 165.91 653.179 166.65C654.659 167.37 656.579 167.73 658.939 167.73C661.119 167.73 663.619 167.32 666.439 166.5V170.37C663.699 171.17 661.019 171.57 658.399 171.57C655.139 171.57 652.439 171.01 650.299 169.89C648.179 168.75 646.579 166.94 645.499 164.46C644.419 161.98 643.879 158.73 643.879 154.71C643.879 149.03 644.969 144.82 647.149 142.08C649.329 139.34 652.369 137.97 656.269 137.97C660.069 137.97 662.969 139.33 664.969 142.05C666.989 144.77 667.999 149.03 667.999 154.83V156.3ZM656.239 141.39C653.879 141.39 652.039 142.28 650.719 144.06C649.419 145.84 648.729 148.84 648.649 153.06H663.469C663.429 150.16 663.109 147.85 662.509 146.13C661.929 144.41 661.119 143.19 660.079 142.47C659.039 141.75 657.759 141.39 656.239 141.39ZM681.378 171.57C678.378 171.57 675.618 171.15 673.098 170.31V166.5C675.938 167.38 678.688 167.82 681.348 167.82C683.828 167.82 685.698 167.35 686.958 166.41C688.218 165.45 688.848 164.08 688.848 162.3C688.848 160.8 688.468 159.65 687.708 158.85C686.968 158.03 685.778 157.41 684.138 156.99L680.328 156.12C677.528 155.44 675.508 154.39 674.268 152.97C673.048 151.53 672.438 149.64 672.438 147.3C672.438 145.46 672.898 143.84 673.818 142.44C674.738 141.04 676.108 139.95 677.928 139.17C679.768 138.37 682.008 137.97 684.648 137.97C687.128 137.97 689.478 138.24 691.698 138.78V142.59C689.498 142.01 687.188 141.72 684.768 141.72C682.088 141.72 680.108 142.22 678.828 143.22C677.568 144.22 676.938 145.53 676.938 147.15C676.938 148.53 677.298 149.63 678.018 150.45C678.738 151.27 679.898 151.88 681.498 152.28L685.308 153.12C688.168 153.82 690.218 154.89 691.458 156.33C692.698 157.75 693.318 159.67 693.318 162.09C693.318 164.05 692.848 165.74 691.908 167.16C690.988 168.58 689.628 169.67 687.827 170.43C686.048 171.19 683.898 171.57 681.378 171.57ZM711.627 167.49C712.687 167.49 713.887 167.34 715.227 167.04V171.03C713.687 171.39 712.157 171.57 710.637 171.57C707.457 171.57 705.027 170.74 703.347 169.08C701.687 167.42 700.857 164.82 700.857 161.28V142.35H695.007V138.45H700.857L701.607 126.6H705.537V138.45H714.747V142.35H705.537V160.56C705.537 163.1 706.017 164.89 706.977 165.93C707.957 166.97 709.507 167.49 711.627 167.49ZM719.826 138.45H723.756L724.116 142.8H724.446C725.446 141.28 726.716 140.13 728.256 139.35C729.796 138.55 731.456 138.15 733.236 138.15C734.016 138.15 734.736 138.2 735.396 138.3V142.68C734.716 142.58 733.916 142.53 732.996 142.53C731.356 142.53 729.746 142.95 728.166 143.79C726.606 144.61 725.386 145.78 724.506 147.3V171H719.826V138.45ZM750.591 171.57C746.471 171.57 743.271 170.21 740.991 167.49C738.711 164.75 737.571 160.51 737.571 154.77C737.571 148.99 738.701 144.75 740.961 142.05C743.221 139.33 746.431 137.97 750.591 137.97C754.731 137.97 757.931 139.33 760.191 142.05C762.451 144.77 763.581 149 763.581 154.74C763.581 160.48 762.441 164.72 760.161 167.46C757.901 170.2 754.711 171.57 750.591 171.57ZM750.591 167.76C752.351 167.76 753.831 167.36 755.031 166.56C756.251 165.74 757.181 164.38 757.821 162.48C758.481 160.58 758.811 158.03 758.811 154.83C758.811 151.57 758.481 148.98 757.821 147.06C757.181 145.14 756.261 143.78 755.061 142.98C753.861 142.18 752.371 141.78 750.591 141.78C748.811 141.78 747.321 142.18 746.121 142.98C744.921 143.78 743.991 145.13 743.331 147.03C742.691 148.91 742.371 151.45 742.371 154.65C742.371 157.91 742.691 160.51 743.331 162.45C743.991 164.37 744.921 165.74 746.121 166.56C747.321 167.36 748.811 167.76 750.591 167.76ZM790.948 171.57C787.948 171.57 785.188 171.15 782.668 170.31V166.5C785.508 167.38 788.258 167.82 790.918 167.82C793.398 167.82 795.268 167.35 796.528 166.41C797.788 165.45 798.418 164.08 798.418 162.3C798.418 160.8 798.038 159.65 797.278 158.85C796.538 158.03 795.348 157.41 793.708 156.99L789.898 156.12C787.098 155.44 785.078 154.39 783.838 152.97C782.618 151.53 782.008 149.64 782.008 147.3C782.008 145.46 782.468 143.84 783.388 142.44C784.308 141.04 785.678 139.95 787.498 139.17C789.338 138.37 791.578 137.97 794.218 137.97C796.698 137.97 799.048 138.24 801.268 138.78V142.59C799.068 142.01 796.758 141.72 794.338 141.72C791.658 141.72 789.678 142.22 788.398 143.22C787.138 144.22 786.508 145.53 786.508 147.15C786.508 148.53 786.868 149.63 787.588 150.45C788.308 151.27 789.468 151.88 791.068 152.28L794.878 153.12C797.738 153.82 799.788 154.89 801.028 156.33C802.268 157.75 802.888 159.67 802.888 162.09C802.888 164.05 802.418 165.74 801.478 167.16C800.558 168.58 799.198 169.67 797.398 170.43C795.618 171.19 793.468 171.57 790.948 171.57ZM831.359 156.3H812.009C812.069 159.14 812.469 161.39 813.209 163.05C813.969 164.71 815.079 165.91 816.539 166.65C818.019 167.37 819.939 167.73 822.299 167.73C824.479 167.73 826.979 167.32 829.799 166.5V170.37C827.059 171.17 824.379 171.57 821.759 171.57C818.499 171.57 815.799 171.01 813.659 169.89C811.539 168.75 809.939 166.94 808.859 164.46C807.779 161.98 807.239 158.73 807.239 154.71C807.239 149.03 808.329 144.82 810.509 142.08C812.689 139.34 815.729 137.97 819.629 137.97C823.429 137.97 826.329 139.33 828.329 142.05C830.349 144.77 831.359 149.03 831.359 154.83V156.3ZM819.599 141.39C817.239 141.39 815.399 142.28 814.079 144.06C812.779 145.84 812.089 148.84 812.009 153.06H826.829C826.789 150.16 826.469 147.85 825.869 146.13C825.289 144.41 824.479 143.19 823.439 142.47C822.399 141.75 821.119 141.39 819.599 141.39ZM837.717 138.45H841.647L842.007 142.8H842.337C843.337 141.28 844.607 140.13 846.147 139.35C847.687 138.55 849.347 138.15 851.127 138.15C851.907 138.15 852.627 138.2 853.287 138.3V142.68C852.607 142.58 851.807 142.53 850.887 142.53C849.247 142.53 847.637 142.95 846.057 143.79C844.497 144.61 843.277 145.78 842.397 147.3V171H837.717V138.45ZM879.209 138.45H883.979L872.519 171H866.459L854.999 138.45H859.979L869.579 166.71L879.209 138.45ZM888.459 171V138.45H893.139V171H888.459ZM890.799 131.34C889.739 131.34 888.919 131.08 888.339 130.56C887.779 130.04 887.499 129.31 887.499 128.37C887.499 127.43 887.779 126.7 888.339 126.18C888.919 125.64 889.739 125.37 890.799 125.37C891.839 125.37 892.639 125.64 893.199 126.18C893.779 126.7 894.069 127.43 894.069 128.37C894.069 129.31 893.779 130.04 893.199 130.56C892.639 131.08 891.839 131.34 890.799 131.34ZM913.407 171.57C908.907 171.57 905.517 170.23 903.237 167.55C900.957 164.87 899.817 160.6 899.817 154.74C899.817 148.86 901.057 144.6 903.537 141.96C906.017 139.3 909.717 137.97 914.637 137.97C916.857 137.97 918.887 138.21 920.727 138.69V142.68C918.827 142.2 916.987 141.96 915.207 141.96C912.747 141.96 910.757 142.36 909.237 143.16C907.717 143.96 906.577 145.28 905.817 147.12C905.077 148.96 904.707 151.46 904.707 154.62C904.707 157.82 905.057 160.37 905.757 162.27C906.457 164.17 907.487 165.53 908.847 166.35C910.207 167.17 911.957 167.58 914.097 167.58C916.037 167.58 918.247 167.17 920.727 166.35V170.31C918.327 171.15 915.887 171.57 913.407 171.57ZM925.959 171V138.45H930.639V171H925.959ZM928.299 131.34C927.239 131.34 926.419 131.08 925.839 130.56C925.279 130.04 924.999 129.31 924.999 128.37C924.999 127.43 925.279 126.7 925.839 126.18C926.419 125.64 927.239 125.37 928.299 125.37C929.339 125.37 930.139 125.64 930.699 126.18C931.279 126.7 931.569 127.43 931.569 128.37C931.569 129.31 931.279 130.04 930.699 130.56C930.139 131.08 929.339 131.34 928.299 131.34ZM950.337 171.57C946.217 171.57 943.017 170.21 940.737 167.49C938.457 164.75 937.317 160.51 937.317 154.77C937.317 148.99 938.447 144.75 940.707 142.05C942.967 139.33 946.177 137.97 950.337 137.97C954.477 137.97 957.677 139.33 959.937 142.05C962.197 144.77 963.327 149 963.327 154.74C963.327 160.48 962.187 164.72 959.907 167.46C957.647 170.2 954.457 171.57 950.337 171.57ZM950.337 167.76C952.097 167.76 953.577 167.36 954.777 166.56C955.997 165.74 956.927 164.38 957.567 162.48C958.227 160.58 958.557 158.03 958.557 154.83C958.557 151.57 958.227 148.98 957.567 147.06C956.927 145.14 956.007 143.78 954.807 142.98C953.607 142.18 952.117 141.78 950.337 141.78C948.557 141.78 947.067 142.18 945.867 142.98C944.667 143.78 943.737 145.13 943.077 147.03C942.437 148.91 942.117 151.45 942.117 154.65C942.117 157.91 942.437 160.51 943.077 162.45C943.737 164.37 944.667 165.74 945.867 166.56C947.067 167.36 948.557 167.76 950.337 167.76Z" fill="#009EFF"/>
</svg>
