<?xml version="1.0" encoding="utf-8"?>
<!-- Generator: Adobe Illustrator 23.0.3, SVG Export Plug-In . SVG Version: 6.00 Build 0)  -->
<svg version="1.1" id="Capa_1" xmlns="http://www.w3.org/2000/svg" xmlns:xlink="http://www.w3.org/1999/xlink" x="0px" y="0px"
	 viewBox="0 0 1232 1636.5" style="enable-background:new 0 0 1232 1636.5;" xml:space="preserve">
<style type="text/css">
	.st0{fill:#001B71;}
	.st1{fill:#FFFFFF;}
</style>
<rect y="229" class="st0" width="1232" height="1407.5"/>
<path class="st0" d="M444.9,104.7c-8,0-13.9-2.2-17.7-6.5c-3.7-4.3-5.6-11-5.6-20.1c0-14.5,2.7-25.5,8-33.2
	c5.3-7.7,13-11.6,23.1-11.6c3.1,0,6.1,0.4,9.1,1.3c1.7,0.5,2.5,1.8,2.2,3.8c-0.3,2.2-0.9,4.2-1.9,5.9c-0.9,1.7-2,2.4-3.2,1.9
	c-2.2-0.9-4.5-1.4-6.9-1.4c-5.2,0-9.3,2.8-12.2,8.4c-2.9,5.5-4.4,13.2-4.4,23.1c0,5.7,1,9.9,2.9,12.7c1.9,2.7,4.9,4.1,8.9,4.1
	c1.4,0,2.7-0.1,3.8-0.4s2.4-0.7,3.9-1.2c0.4-0.1,0.7-0.2,0.9-0.2c0.9,0,1.6,0.5,2.1,1.6c0.5,1.1,0.8,2.5,0.8,4.2
	c0,1.8-0.2,3.1-0.7,4c-0.5,0.8-1.3,1.4-2.6,1.9c-1.2,0.5-2.8,0.9-4.7,1.2C448.8,104.5,446.9,104.7,444.9,104.7z M481.5,104.7
	c-5.8,0-10.3-1.9-13.4-5.7c-3.1-3.8-4.7-9.5-4.7-17c0-9,1.9-16.4,5.6-22.2c3.7-5.9,9.4-8.8,17-8.8c5.9,0,10.3,1.9,13.4,5.8
	c3.1,3.8,4.7,9.4,4.7,16.9c0,9-1.9,16.4-5.6,22.3C494.8,101.8,489.2,104.7,481.5,104.7z M483,94.6c2.9,0,5-2.1,6.3-6.2
	c1.3-4.2,2-9.7,2-16.5c0-3.6-0.5-6.3-1.6-8.1c-1.1-1.8-2.8-2.7-5.1-2.7c-3,0-5.2,2.1-6.5,6.3c-1.3,4.1-1.9,9.6-1.9,16.4
	c0,3.7,0.5,6.4,1.6,8.2C478.9,93.7,480.6,94.6,483,94.6z M521.7,104.7c-7.6,0-11.4-3.9-11.4-11.7c0-1.2,0-2.1,0.1-2.7l2.8-28.4h-2.1
	c-1.6,0-2.4-1-2.4-3l0.1-1.2L509,56c0.1-1.5,0.4-2.6,0.9-3.3c0.5-0.7,1.3-1,2.3-1h2.3l2.1-9.8c0.3-1.9,1.9-2.9,5-2.9h1.8
	c3.3,0,4.8,1.1,4.5,3.4l-1,9.3h4.4c1.6,0,2.4,1,2.4,2.9c0,0.6,0,1.1-0.1,1.4l-0.1,1.6c-0.2,1.5-0.6,2.6-1.1,3.3c-0.5,0.7-1.1,1-2,1
	h-4.6l-2.9,28.4l-0.1,1.1c0,1.3,0.3,2.1,0.8,2.6c0.5,0.4,1.3,0.6,2.4,0.6c0.8,0,1.5-0.1,2.2-0.3c0.7-0.2,1.3-0.3,1.6-0.3
	c0.5,0,0.7,0.4,0.7,1.2c0,0.5,0,1-0.1,1.4c-0.3,2.3-0.5,3.8-0.8,4.5c-0.4,1.1-1.4,2-2.9,2.7C525.2,104.4,523.5,104.7,521.7,104.7z
	 M544.3,104.7c-2.5,0-4.7-0.8-6.4-2.3c-1.7-1.5-2.5-4.1-2.5-7.7c0-1.1,0-1.9,0.1-2.4l3.8-37.9c0.2-1.9,2.1-2.9,5.6-2.9h2
	c1.9,0,3.3,0.3,4,0.8c0.8,0.5,1.1,1.3,1,2.3L548,91.7c-0.1,0.3-0.1,0.6-0.1,1c0,0.7,0.1,1.2,0.4,1.5c0.3,0.3,0.8,0.4,1.5,0.4
	c0.5,0,1.1-0.1,1.6-0.3c0.5-0.2,0.9-0.3,1.2-0.3c0.5,0,0.8,0.4,0.8,1.2c0,0.5,0,1-0.1,1.4c-0.1,0.4-0.2,1.1-0.4,2.2
	c-0.1,1.1-0.3,1.9-0.6,2.5c-0.3,1-1.3,1.8-2.9,2.5C547.9,104.4,546.2,104.7,544.3,104.7z M546.7,45.9c-4.3,0-6.3-1-6.1-2.9l0.7-7.2
	c0.2-1.9,2.4-2.8,6.7-2.8c4.2,0,6.2,0.9,6.1,2.8l-0.8,7.2C553.2,44.9,551,45.9,546.7,45.9z M556.9,104c-0.8,0-1.4-0.7-1.9-2.1
	c-0.4-1.4-0.6-2.8-0.6-4.2c0-0.8,0.2-1.4,0.5-1.9l22.4-33.9H562c-0.9,0-1.5-0.3-1.9-1c-0.3-0.7-0.4-1.8-0.3-3.3L560,56
	c0.2-1.5,0.5-2.6,1-3.3c0.5-0.7,1.1-1,2-1h27.8c0.6,0,1.2,0.8,1.7,2.4c0.5,1.6,0.7,3,0.6,4.3c0,0.5-0.2,1.2-0.7,1.9l-22.1,33.5h17
	c1.5,0,2.2,1,2.2,3.1l-0.1,1.2l-0.2,1.6c-0.1,1.5-0.5,2.6-1,3.3c-0.5,0.7-1.1,1-2,1H556.9z M606.4,104.8c-4.5,0-7.7-2-9.8-5.9
	c-2-3.9-3-9-3-15.1c0-5.5,0.7-10.8,2.1-15.8c1.4-5,3.5-9.1,6.4-12.2c2.9-3.2,6.5-4.8,10.8-4.8c2.4,0,4.4,0.5,5.9,1.5
	c1.6,0.9,3,2.2,4.3,3.7c0.6-1.8,1.2-3,1.9-3.7c0.7-0.7,2-1,3.9-1h1c3.3,0,4.9,0.8,4.8,2.4l-4.2,37.4c-0.1,0.3-0.1,0.6-0.1,1.1
	c0,1.5,0.6,2.2,1.9,2.2c0.4,0,0.9-0.1,1.5-0.3c0.6-0.2,1-0.3,1.2-0.3c0.5,0,0.8,0.4,0.8,1.2c0,0.5,0,1-0.1,1.4
	c-0.3,2.1-0.6,3.6-0.9,4.7c-0.3,1-1.3,1.8-2.8,2.5c-1.5,0.6-3.2,0.9-5,0.9c-5.2,0-8.1-2.7-8.6-8
	C615.5,102.1,611.5,104.8,606.4,104.8z M611.4,94.4c1.5,0,2.8-0.7,4.1-2.1c1.3-1.4,2.3-3.4,3.1-6l1.7-16.2l0.3-2.2l0.7-4.1
	c-1.6-1.7-3.4-2.6-5.4-2.6c-3.4,0-5.9,2.3-7.4,6.8c-1.5,4.5-2.2,9.7-2.2,15.7c0,3.3,0.4,5.9,1.2,7.8S609.6,94.4,611.4,94.4z
	 M662.2,104.8c-4.5,0-7.7-2-9.8-5.9c-2-3.9-3-9-3-15.1c0-5.5,0.7-10.8,2.1-15.8c1.4-5,3.5-9.1,6.4-12.2c2.9-3.2,6.5-4.8,10.8-4.8
	c2.4,0,4.4,0.5,5.9,1.5c1.6,0.9,3,2.2,4.3,3.7c0.6-1.8,1.2-3,1.9-3.7c0.7-0.7,2-1,3.9-1h1c3.3,0,4.9,0.8,4.8,2.4l-4.2,37.4
	c-0.1,0.3-0.1,0.6-0.1,1.1c0,1.5,0.6,2.2,1.9,2.2c0.4,0,0.9-0.1,1.5-0.3c0.6-0.2,1-0.3,1.2-0.3c0.5,0,0.8,0.4,0.8,1.2
	c0,0.5,0,1-0.1,1.4c-0.3,2.1-0.6,3.6-0.9,4.7c-0.3,1-1.3,1.8-2.8,2.5c-1.5,0.6-3.2,0.9-5,0.9c-5.2,0-8.1-2.7-8.6-8
	C671.3,102.1,667.3,104.8,662.2,104.8z M667.2,94.4c1.5,0,2.8-0.7,4.1-2.1c1.3-1.4,2.3-3.4,3.1-6l1.7-16.2l0.3-2.2l0.7-4.1
	c-1.6-1.7-3.4-2.6-5.4-2.6c-3.4,0-5.9,2.3-7.4,6.8c-1.5,4.5-2.2,9.7-2.2,15.7c0,3.3,0.4,5.9,1.2,7.8
	C664.1,93.4,665.4,94.4,667.2,94.4z M728.1,104.7c-2.5,0-4.7-0.8-6.4-2.3c-1.7-1.6-2.5-4.2-2.5-7.9c0-0.9,0-1.7,0.1-2.2l2.4-24.3
	c0.1-0.4,0.1-1,0.1-1.7c0-1.7-0.3-3-1-3.7c-0.6-0.8-1.6-1.2-3.1-1.2c-1.5,0-2.9,0.5-4.2,1.4c-1.2,0.9-2.2,2-3,3.2l-3.7,35.3
	c-0.1,1-0.7,1.7-1.6,2.2c-0.9,0.5-2.2,0.7-3.9,0.7h-2.6c-3.5,0-5-1-4.7-2.9l7.2-69.8c0.3-1.9,2.2-2.8,5.5-2.8h2.7
	c3.3,0,4.9,0.9,4.7,2.8l-2.8,26.2c1.7-2,3.6-3.6,5.8-4.8c2.3-1.3,4.7-1.9,7.3-1.9c3.3,0,5.9,1,7.7,3c1.9,2,2.8,5,2.8,9
	c0,0.6-0.1,1.6-0.2,3.1L732,91.8v0.8c0,0.7,0.1,1.3,0.4,1.6c0.3,0.3,0.7,0.4,1.2,0.4c0.5,0,1-0.1,1.5-0.3c0.5-0.2,0.9-0.3,1.2-0.3
	c0.5,0,0.8,0.4,0.8,1.2c0,0.5,0,1-0.1,1.4c-0.1,0.4-0.2,1.1-0.4,2.2c-0.1,1.1-0.3,1.9-0.6,2.5c-0.3,1-1.3,1.8-2.8,2.5
	C731.7,104.4,730,104.7,728.1,104.7z M758.4,104.7c-5.8,0-10.3-1.9-13.4-5.7c-3.1-3.8-4.7-9.5-4.7-17c0-9,1.9-16.4,5.6-22.2
	c3.7-5.9,9.4-8.8,17-8.8c5.9,0,10.3,1.9,13.4,5.8c3.1,3.8,4.7,9.4,4.7,16.9c0,9-1.9,16.4-5.6,22.3
	C771.7,101.8,766,104.7,758.4,104.7z M759.9,94.6c2.9,0,5-2.1,6.3-6.2c1.3-4.2,2-9.7,2-16.5c0-3.6-0.5-6.3-1.6-8.1
	c-1.1-1.8-2.8-2.7-5.1-2.7c-3,0-5.2,2.1-6.5,6.3c-1.3,4.1-1.9,9.6-1.9,16.4c0,3.7,0.5,6.4,1.6,8.2C755.7,93.7,757.5,94.6,759.9,94.6
	z M790.3,104.2c-1.9,0-3.2-0.2-4-0.7s-1.2-1.2-1.1-2.2l3.6-33c0.3-2.5,0.4-4.8,0.4-6.9c0-1.5-0.1-2.8-0.2-3.9
	c-0.1-1.1-0.2-1.9-0.2-2.4c0-1.1,1-2,3-2.5c2-0.5,4.2-0.8,6.7-0.8c1.1,0,1.8,0.5,2.2,1.5c0.4,0.9,0.6,2,0.7,3.1
	c0.1,1.1,0.1,1.8,0.2,2.1c1.4-2.3,2.9-4.2,4.4-5.5c1.6-1.3,3.4-2,5.3-2c1.9,0,3.1,0.5,3.8,1.5c0.7,0.9,0.9,2.1,0.8,3.4
	c-0.1,1.2-0.6,2.8-1.3,4.8c-0.7,1.9-1.3,2.9-1.9,2.9c-0.3,0-0.9-0.1-1.8-0.4c-0.9-0.3-1.9-0.5-2.8-0.5c-1.5,0-2.8,0.6-4.1,1.7
	c-1.2,1.1-2.1,2.4-2.7,3.7l-3.5,33.2c-0.1,1.9-2,2.9-5.5,2.9H790.3z M826.3,104.8c-4.5,0-7.7-2-9.8-5.9c-2-3.9-3-9-3-15.1
	c0-5.5,0.7-10.8,2.1-15.8c1.4-5,3.5-9.1,6.4-12.2c2.9-3.2,6.5-4.8,10.8-4.8c2.4,0,4.4,0.5,5.9,1.5c1.6,0.9,3,2.2,4.3,3.7
	c0.6-1.8,1.2-3,1.9-3.7c0.7-0.7,2-1,3.9-1h1c3.3,0,4.9,0.8,4.8,2.4l-4.2,37.4c-0.1,0.3-0.1,0.6-0.1,1.1c0,1.5,0.6,2.2,1.9,2.2
	c0.4,0,0.9-0.1,1.5-0.3c0.6-0.2,1-0.3,1.2-0.3c0.5,0,0.8,0.4,0.8,1.2c0,0.5,0,1-0.1,1.4c-0.3,2.1-0.6,3.6-0.9,4.7
	c-0.3,1-1.3,1.8-2.8,2.5c-1.5,0.6-3.2,0.9-5,0.9c-5.2,0-8.1-2.7-8.6-8C835.4,102.1,831.4,104.8,826.3,104.8z M831.3,94.4
	c1.5,0,2.8-0.7,4.1-2.1c1.3-1.4,2.3-3.4,3.1-6l1.7-16.2l0.3-2.2l0.7-4.1c-1.6-1.7-3.4-2.6-5.4-2.6c-3.4,0-5.9,2.3-7.4,6.8
	c-1.5,4.5-2.2,9.7-2.2,15.7c0,3.3,0.4,5.9,1.2,7.8S829.5,94.4,831.3,94.4z"/>
<path class="st1" d="M311.6,329.2c-2.6,0-3.8-0.8-3.7-2.3l5.2-48.5c0.1-1.5,1.5-2.3,4-2.3h2.5c2.5,0,3.7,0.8,3.5,2.3L318,327
	c-0.1,1.5-1.4,2.3-3.9,2.3H311.6z M356.3,321.5c0.4,0,0.6,0.3,0.6,0.9c0,0.4,0,0.8-0.1,1.1c-0.2,1.6-0.4,2.8-0.7,3.5s-1,1.4-2.2,1.9
	c-1.2,0.4-2.4,0.7-3.8,0.7c-2,0-3.6-0.6-4.9-1.8c-1.3-1.2-1.9-3.2-1.9-6c0-0.4,0-1,0.1-2l1.8-17.7c0.1-0.3,0.1-0.6,0.1-1.1
	c0-1.3-0.3-2.2-0.8-2.8c-0.5-0.6-1.3-1-2.5-1c-1,0-1.9,0.3-2.8,1c-0.9,0.6-1.6,1.4-2.3,2.4l-2.9,26.5c0,1.4-1.4,2.2-4,2.2h-2
	c-2.5,0-3.7-0.7-3.5-2.2l2.6-24.6c0.3-2.6,0.4-4.9,0.4-6.7c0-0.9,0-1.6-0.1-2.2c0-0.6,0-1,0-1.4c0.1-0.8,1-1.4,2.8-1.7
	c1.8-0.4,3.4-0.6,4.7-0.6c0.7,0,1.2,0.3,1.5,0.8c0.3,0.4,0.5,1.3,0.5,2.5c0,0.8,0,1.5-0.1,2c1.3-1.8,2.8-3.2,4.6-4.3
	c1.8-1.1,3.8-1.6,5.9-1.6c2.5,0,4.5,0.7,5.8,2.2c1.3,1.5,1.9,3.6,1.9,6.4c0,0.5,0,1.3-0.1,2.3l-2.1,19.8v0.5c0,0.6,0.1,1,0.3,1.3
	c0.2,0.2,0.5,0.3,1,0.3c0.3,0,0.6-0.1,1-0.2C355.8,321.6,356.1,321.5,356.3,321.5z M363.7,329.1c-1.4,0-2.4-0.2-3-0.5
	c-0.6-0.4-0.9-0.9-0.8-1.6l3.1-29.6h-1.4c-1.1,0-1.7-0.8-1.7-2.3l0.1-0.9l0.1-1.2c0.1-1.1,0.3-2,0.7-2.5c0.4-0.5,0.9-0.8,1.6-0.8
	h1.4l0.7-6.4c0.5-3.9,1.6-6.8,3.6-8.6c2-1.8,4.4-2.7,7.4-2.7c1.5,0,3,0.3,4.4,0.8c1.4,0.5,2.1,1.3,2,2.5c-0.1,0.6-0.4,1.5-1,2.9
	c-0.5,1.3-1,1.9-1.6,1.9c-0.2,0-0.6-0.1-1.1-0.1c-0.4-0.2-0.8-0.2-1.2-0.2c-0.9,0-1.6,0.3-2.1,0.8c-0.5,0.6-0.8,1.5-0.9,2.9
	l-0.7,6.3h3.3c1.2,0,1.8,0.8,1.8,2.3l-0.1,0.9l-0.2,1.2c-0.1,1.1-0.3,2-0.8,2.5c-0.3,0.5-0.9,0.8-1.6,0.8h-3.4l-3.1,29.6
	c-0.1,1.4-1.5,2.2-4.1,2.2H363.7z M391.7,329.5c-4.4,0-7.7-1.4-10.1-4.3c-2.3-2.9-3.5-7.1-3.5-12.8c0-6.8,1.4-12.3,4.2-16.6
	c2.8-4.4,7-6.6,12.8-6.6c4.4,0,7.8,1.5,10,4.4c2.4,2.9,3.5,7.1,3.5,12.7c0,6.8-1.4,12.3-4.2,16.7
	C401.7,327.3,397.5,329.5,391.7,329.5z M392.8,321.9c2.2,0,3.8-1.6,4.7-4.7c1-3.1,1.5-7.3,1.5-12.4c0-2.7-0.4-4.7-1.2-6.1
	s-2.1-2-3.8-2c-2.3,0-3.9,1.6-4.9,4.7c-0.9,3.1-1.4,7.2-1.4,12.3c0,2.8,0.4,4.8,1.2,6.1C389.7,321.3,391,321.9,392.8,321.9z
	 M415.7,329.1c-1.4,0-2.4-0.2-3-0.5c-0.6-0.4-0.9-0.9-0.8-1.6l2.7-24.8c0.2-1.9,0.3-3.6,0.3-5.2c0-1.1-0.1-2.1-0.1-2.9
	c-0.1-0.9-0.2-1.5-0.2-1.8c0-0.9,0.8-1.5,2.3-1.9c1.5-0.4,3.2-0.6,5-0.6c0.8,0,1.3,0.4,1.6,1.1c0.3,0.7,0.5,1.5,0.5,2.3
	c0,0.8,0.1,1.3,0.1,1.6c1.1-1.8,2.1-3.1,3.3-4.1c1.2-1,2.5-1.5,4-1.5c1.4,0,2.4,0.4,2.9,1.1c0.5,0.7,0.7,1.5,0.6,2.5
	c-0.1,0.9-0.4,2.1-1,3.6c-0.5,1.5-1,2.2-1.4,2.2c-0.2,0-0.6-0.1-1.4-0.3c-0.7-0.3-1.4-0.4-2.1-0.4c-1.1,0-2.1,0.4-3.1,1.3
	c-0.9,0.9-1.6,1.8-2,2.8l-2.6,24.9c-0.1,1.4-1.5,2.2-4.1,2.2H415.7z M483.4,321.5c0.4,0,0.5,0.3,0.5,0.9c0,0.4,0,0.8-0.1,1.1
	c-0.2,1.6-0.4,2.8-0.7,3.5s-1,1.4-2.1,1.9c-1.1,0.4-2.4,0.7-3.8,0.7c-1.9,0-3.5-0.6-4.8-1.8c-1.3-1.2-1.9-3.2-1.9-6.1
	c0-0.9,0-1.5,0.1-1.9l1.8-17.6c0.1-0.3,0.1-0.7,0.1-1.3c0-2.5-1-3.8-3.1-3.8c-0.9,0-1.8,0.3-2.7,0.9c-0.9,0.6-1.6,1.3-2.3,2.1
	l-2.9,26.9c-0.1,0.8-0.5,1.3-1.1,1.6c-0.6,0.4-1.6,0.5-2.9,0.5h-2c-2.6,0-3.8-0.7-3.6-2.2l2.6-24.8c0-0.3,0.1-0.8,0.1-1.4
	c0-1.3-0.3-2.2-0.8-2.8s-1.3-0.9-2.4-0.9c-1,0-2,0.4-2.9,1c-0.9,0.7-1.6,1.5-2.1,2.3l-2.9,26.5c0,1.4-1.4,2.2-4,2.2h-2
	c-2.5,0-3.7-0.7-3.5-2.2c0.1-1.8,0.8-8.3,2-19.7c0.4-2.9,0.6-5.2,0.8-7c0.2-1.8,0.2-3.3,0.2-4.6c0-0.9,0-1.6-0.1-2.1
	c-0.1-0.6-0.1-1,0-1.4c0-0.8,1-1.4,2.8-1.7c1.8-0.4,3.4-0.6,4.6-0.6c1.4,0,2.1,1.3,2.1,3.8c0,0.6,0,1.1-0.1,1.4
	c1.3-1.7,2.8-3.1,4.6-4.1c1.8-1.1,3.7-1.6,5.8-1.6c4,0,6.5,1.8,7.4,5.4c1.3-1.6,2.8-2.9,4.6-3.9c1.9-1,3.8-1.5,5.9-1.5
	c2.4,0,4.3,0.8,5.5,2.3c1.3,1.5,2,3.6,2,6.6c0,0.4-0.1,1.3-0.1,2.6l-2,19.1l-0.1,0.7c0,1,0.5,1.4,1.4,1.4c0.3,0,0.6-0.1,1.1-0.2
	C483,321.6,483.3,321.5,483.4,321.5z M495.8,329.6c-3.3,0-5.8-1.5-7.3-4.4c-1.5-2.9-2.3-6.7-2.3-11.3c0-4.1,0.5-8.1,1.6-11.9
	c1.1-3.8,2.7-6.8,4.8-9.1c2.2-2.4,4.9-3.6,8.1-3.6c1.8,0,3.3,0.4,4.4,1.1c1.2,0.7,2.3,1.6,3.2,2.8c0.4-1.4,0.9-2.3,1.4-2.8
	c0.5-0.5,1.5-0.8,2.9-0.8h0.8c2.5,0,3.7,0.6,3.6,1.8l-3.1,28.1c0,0.2-0.1,0.5-0.1,0.8c0,1.1,0.5,1.7,1.4,1.7c0.3,0,0.7-0.1,1.1-0.2
	s0.8-0.2,0.9-0.2c0.4,0,0.6,0.3,0.6,0.9c0,0.4,0,0.8-0.1,1.1c-0.2,1.5-0.4,2.7-0.7,3.5c-0.3,0.8-1,1.4-2.1,1.9
	c-1.2,0.4-2.4,0.7-3.8,0.7c-3.9,0-6-2-6.5-6C502.7,327.6,499.7,329.6,495.8,329.6z M499.6,321.8c1.1,0,2.1-0.5,3.1-1.6
	c1-1.1,1.7-2.6,2.3-4.5l1.3-12.1l0.2-1.7l0.5-3.1c-1.2-1.3-2.5-2-4-2c-2.5,0-4.4,1.7-5.5,5.1c-1.1,3.4-1.7,7.3-1.7,11.8
	c0,2.5,0.3,4.4,0.9,5.9C497.3,321.1,498.2,321.8,499.6,321.8z M534.3,329.5c-4.6,0-8.1-1.3-10.5-3.8c-2.3-2.6-3.5-6.5-3.5-11.7
	c0-8,1.6-14.1,4.7-18.4c3.2-4.3,7.8-6.4,13.6-6.4c2.5,0,4.8,0.5,6.8,1.4c2,0.9,3.1,1.9,3.1,3.1c0,0.8-0.5,1.8-1.3,3.2
	c-0.9,1.4-1.7,2-2.3,2c-0.3,0-0.7-0.1-1.2-0.4c-0.8-0.5-1.5-0.9-2.3-1.2c-0.8-0.3-1.7-0.4-2.7-0.4c-2.8,0-4.9,1.4-6.4,4.3
	c-1.5,2.9-2.3,7-2.3,12.4c0,3,0.5,5.1,1.4,6.5c1,1.3,2.4,2,4.4,2c1.2,0,2.2-0.2,3.1-0.5c0.9-0.3,1.8-0.7,2.8-1.2
	c0.2-0.1,0.4-0.2,0.7-0.3c0.3-0.1,0.4-0.2,0.5-0.2c0.6,0,1.2,0.6,1.7,1.7c0.5,1.1,0.8,2.1,0.8,3s-0.6,1.8-1.9,2.5
	c-1.3,0.8-2.8,1.4-4.6,1.8C537.3,329.3,535.7,329.5,534.3,329.5z M555.7,329.5c-1.9,0-3.5-0.6-4.8-1.7c-1.3-1.1-1.9-3.1-1.9-5.8
	c0-0.8,0-1.4,0.1-1.8l2.9-28.4c0.1-1.4,1.5-2.2,4.2-2.2h1.5c1.4,0,2.4,0.2,3,0.6c0.6,0.4,0.8,1,0.8,1.7l-2.9,27.8
	c0,0.2-0.1,0.5-0.1,0.8c0,0.5,0.1,0.9,0.3,1.1c0.3,0.2,0.6,0.3,1.1,0.3c0.4,0,0.8-0.1,1.2-0.2c0.4-0.1,0.7-0.2,0.9-0.2
	c0.4,0,0.6,0.3,0.6,0.9c0,0.4,0,0.8-0.1,1.1c0,0.3-0.2,0.8-0.3,1.6c-0.1,0.8-0.3,1.4-0.5,1.9c-0.3,0.8-1,1.4-2.2,1.9
	C558.4,329.3,557.1,329.5,555.7,329.5z M557.5,285.4c-3.2,0-4.7-0.7-4.6-2.2l0.5-5.4c0.1-1.4,1.8-2.1,5-2.1c3.2,0,4.7,0.7,4.6,2.1
	l-0.6,5.4C562.4,284.7,560.7,285.4,557.5,285.4z M579,329.5c-4.3,0-7.7-1.4-10-4.3s-3.5-7.1-3.5-12.8c0-6.8,1.4-12.3,4.2-16.6
	c2.8-4.4,7-6.6,12.8-6.6c4.4,0,7.8,1.5,10,4.4c2.4,2.9,3.5,7.1,3.5,12.7c0,6.8-1.4,12.3-4.2,16.7C589,327.3,584.7,329.5,579,329.5z
	 M580.1,321.9c2.2,0,3.8-1.6,4.7-4.7c1-3.1,1.5-7.3,1.5-12.4c0-2.7-0.4-4.7-1.2-6.1s-2.1-2-3.8-2c-2.3,0-3.9,1.6-4.9,4.7
	c-1,3.1-1.4,7.2-1.4,12.3c0,2.8,0.4,4.8,1.2,6.1C577,321.3,578.3,321.9,580.1,321.9z M579.7,286c-1.7,0-2.5-0.3-2.5-1
	c0-0.4,0.3-1.2,1-2.3l3-5.4c0.4-0.8,1.1-1.4,1.9-1.7c0.8-0.3,2.2-0.5,4-0.5c1.3,0,2.1,0.1,2.6,0.3c0.5,0.1,0.8,0.4,0.8,0.8
	c0,0.3-0.1,0.6-0.4,1s-0.5,0.8-0.8,1.1s-0.5,0.6-0.8,0.9l-4,4.6c-0.8,0.9-1.4,1.4-2.1,1.7C581.8,285.9,580.9,286,579.7,286z
	 M630.2,321.5c0.4,0,0.6,0.3,0.6,0.9c0,0.4,0,0.8-0.1,1.1c-0.2,1.6-0.4,2.8-0.7,3.5s-1,1.4-2.2,1.9c-1.1,0.4-2.4,0.7-3.8,0.7
	c-1.9,0-3.6-0.6-4.9-1.8c-1.3-1.2-1.9-3.2-1.9-6c0-0.4,0.1-1,0.2-2l1.8-17.7c0-0.3,0.1-0.6,0.1-1.1c0-1.3-0.3-2.2-0.8-2.8
	c-0.5-0.6-1.3-1-2.5-1c-1,0-1.9,0.3-2.8,1c-0.8,0.6-1.6,1.4-2.3,2.4l-2.8,26.5c-0.1,1.4-1.4,2.2-4,2.2h-2c-2.5,0-3.7-0.7-3.5-2.2
	l2.6-24.6c0.3-2.6,0.4-4.9,0.4-6.7c0-0.9,0-1.6-0.1-2.2c0-0.6,0-1,0-1.4c0.1-0.8,1-1.4,2.8-1.7c1.8-0.4,3.3-0.6,4.6-0.6
	c0.7,0,1.2,0.3,1.5,0.8c0.4,0.4,0.5,1.3,0.5,2.5c0,0.8,0,1.5-0.1,2c1.3-1.8,2.8-3.2,4.6-4.3c1.8-1.1,3.8-1.6,5.8-1.6
	c2.6,0,4.5,0.7,5.8,2.2c1.3,1.5,2,3.6,2,6.4c0,0.5,0,1.3-0.2,2.3l-2.1,19.8v0.5c0,0.6,0.1,1,0.3,1.3c0.2,0.2,0.5,0.3,1,0.3
	c0.3,0,0.7-0.1,1.1-0.2C629.7,321.6,630,321.5,630.2,321.5z M666.8,329.5c-5.5,0-9.7-1.9-12.7-5.5c-3-3.8-4.4-9.4-4.4-17
	c0-5.8,0.8-11,2.4-15.7c1.6-4.7,4.1-8.4,7.4-11.2c3.4-2.8,7.6-4.2,12.7-4.2c5.3,0,9.5,1.8,12.5,5.3c3,3.5,4.5,9.1,4.5,16.9
	c0,5.8-0.8,11.1-2.4,15.8c-1.5,4.7-4,8.5-7.3,11.3C676.1,328.1,671.9,329.5,666.8,329.5z M667.7,321.1c4,0,6.9-2.3,8.6-6.8
	c1.8-4.6,2.7-10,2.7-16.2c0-4.9-0.7-8.3-2-10.4c-1.3-2.1-3.2-3.2-5.7-3.2c-4,0-6.9,2.2-8.8,6.7c-1.8,4.5-2.7,9.8-2.7,16
	c0,4.8,0.6,8.3,1.9,10.6C663,320,665,321.1,667.7,321.1z M708.1,329.5c-1.9,0-3.6-0.6-5.1-1.7c-1.5-1.1-2.5-2.7-3.2-4.6
	c-0.5,1.8-0.9,3-1.3,3.9c-0.3,0.8-0.8,1.4-1.3,1.6c-0.5,0.3-1.2,0.4-2.2,0.4h-0.8c-1.3,0-2.1-0.2-2.5-0.5s-0.6-0.9-0.5-1.6l5.5-52.4
	c0.2-1.4,1.5-2.1,4.2-2.1h1.6c2.6,0,3.8,0.7,3.7,2.1l-1.9,17.4c2.1-1.9,4.4-2.8,6.9-2.8c3.5,0,6.3,1.4,8.1,4.3
	c1.8,2.9,2.8,7.1,2.8,12.8c0,3.9-0.5,7.6-1.6,11.2c-1,3.5-2.5,6.4-4.6,8.7C713.8,328.4,711.2,329.5,708.1,329.5z M706,321.7
	c2.3,0,3.9-1.6,4.9-4.7c1-3.2,1.4-6.9,1.4-11c0-3.3-0.4-5.7-1.1-7c-0.7-1.4-1.8-2.1-3.4-2.1c-1.4,0-2.8,0.6-4.2,1.9l-1.4,13.4
	c-0.3,2.7-0.6,4.8-1,6.1C702.5,320.6,704.1,321.7,706,321.7z M734.3,329.5c-2.5,0-4.5-0.7-5.9-2c-1.5-1.4-2.2-3.5-2.2-6.5
	c0-0.4,0.1-1.1,0.2-2.1l4.7-44.3c0.1-1.4,1.5-2.1,4.1-2.1h1.5c2.7,0,3.9,0.7,3.8,2.1l-4.7,44.5l-0.1,0.9c0,0.8,0.2,1.3,0.5,1.6
	c0.3,0.3,0.9,0.4,1.6,0.4c0.5,0,0.9-0.1,1.4-0.2s0.8-0.2,1-0.2c0.4,0,0.6,0.3,0.6,0.9c0,0.4,0,0.8-0.1,1.1c-0.2,1.6-0.4,2.8-0.7,3.5
	s-1,1.4-2.1,1.9C736.9,329.3,735.7,329.5,734.3,329.5z M750.5,329.5c-1.9,0-3.5-0.6-4.8-1.7c-1.3-1.1-1.9-3.1-1.9-5.8
	c0-0.8,0-1.4,0.1-1.8l2.8-28.4c0.2-1.4,1.5-2.2,4.2-2.2h1.5c1.5,0,2.5,0.2,3,0.6c0.6,0.4,0.8,1,0.8,1.7l-2.9,27.8
	c0,0.2-0.1,0.5-0.1,0.8c0,0.5,0.1,0.9,0.3,1.1c0.3,0.2,0.6,0.3,1.1,0.3c0.4,0,0.8-0.1,1.2-0.2s0.7-0.2,0.9-0.2
	c0.4,0,0.6,0.3,0.6,0.9c0,0.4,0,0.8-0.1,1.1c0,0.3-0.1,0.8-0.3,1.6c-0.1,0.8-0.3,1.4-0.5,1.9c-0.3,0.8-1,1.4-2.2,1.9
	C753.2,329.3,751.9,329.5,750.5,329.5z M752.3,285.4c-3.2,0-4.7-0.7-4.6-2.2l0.5-5.4c0.2-1.4,1.8-2.1,5-2.1c3.1,0,4.7,0.7,4.6,2.1
	l-0.6,5.4C757.2,284.7,755.5,285.4,752.3,285.4z M787.2,289.6c2.4,0,3.6,0.6,3.6,1.8l-3.3,31.4c-0.8,7.7-2.5,13.3-5.1,16.8
	c-2.6,3.5-6.3,5.3-11.3,5.3c-3,0-5.7-0.5-7.9-1.4c-2.1-0.9-3.3-2-3.6-3.2c-0.2-0.5-0.2-1.1-0.2-1.9c0-1,0.1-2,0.4-2.8
	c0.3-0.8,0.6-1.1,1.1-1.1c0.3,0,0.7,0.2,1.4,0.6c1.1,0.6,2.3,1.2,3.3,1.6s2.3,0.6,3.8,0.6c2.5,0,4.3-0.9,5.7-2.8
	c1.3-1.8,2.2-4.6,2.5-8.6l0.2-1.8c-2.1,3.1-4.7,4.6-7.8,4.6c-3.6,0-6.2-1.4-7.8-4.4c-1.5-2.9-2.3-6.8-2.3-11.4
	c0-4.3,0.5-8.2,1.6-11.8s2.7-6.5,4.9-8.7c2.2-2.2,4.9-3.3,8.2-3.3c2.9,0,5.4,1.3,7.5,3.9c0.5-1.4,0.9-2.3,1.4-2.8
	c0.5-0.5,1.5-0.8,2.9-0.8H787.2z M780,303.6c0.2-1.8,0.4-3.3,0.8-4.7c-1.2-1.3-2.5-2-4-2c-2.6,0-4.5,1.6-5.6,4.6
	c-1.1,3.1-1.6,6.9-1.6,11.4c0,2.5,0.3,4.5,0.9,5.9c0.6,1.4,1.6,2.1,3.1,2.1c1,0,1.9-0.4,2.8-1.3c0.9-0.9,1.8-2.2,2.5-4L780,303.6z
	 M802.7,329.6c-3.4,0-5.8-1.5-7.4-4.4c-1.5-2.9-2.3-6.7-2.3-11.3c0-4.1,0.5-8.1,1.6-11.9s2.7-6.8,4.8-9.1c2.2-2.4,4.9-3.6,8.1-3.6
	c1.8,0,3.3,0.4,4.4,1.1c1.2,0.7,2.3,1.6,3.2,2.8c0.5-1.4,0.9-2.3,1.4-2.8c0.5-0.5,1.5-0.8,2.9-0.8h0.8c2.5,0,3.7,0.6,3.6,1.8
	l-3.1,28.1c-0.1,0.2-0.1,0.5-0.1,0.8c0,1.1,0.5,1.7,1.4,1.7c0.3,0,0.7-0.1,1.1-0.2s0.8-0.2,0.9-0.2c0.4,0,0.6,0.3,0.6,0.9
	c0,0.4,0,0.8-0.1,1.1c-0.2,1.5-0.4,2.7-0.7,3.5c-0.3,0.8-1,1.4-2.1,1.9c-1.2,0.4-2.4,0.7-3.8,0.7c-3.9,0-6.1-2-6.5-6
	C809.5,327.6,806.5,329.6,802.7,329.6z M806.4,321.8c1.1,0,2.1-0.5,3.1-1.6c0.9-1.1,1.7-2.6,2.3-4.5l1.3-12.1l0.2-1.7l0.5-3.1
	c-1.2-1.3-2.5-2-4-2c-2.5,0-4.4,1.7-5.5,5.1c-1.1,3.4-1.7,7.3-1.7,11.8c0,2.5,0.3,4.4,0.9,5.9C804.1,321.1,805.1,321.8,806.4,321.8z
	 M837.3,329.5c-5.7,0-8.5-2.9-8.5-8.8c0-0.9,0-1.6,0.1-2l2.1-21.3h-1.6c-1.2,0-1.8-0.8-1.8-2.3l0.1-0.9l0.2-1.3
	c0.1-1.1,0.3-2,0.7-2.5c0.4-0.5,1-0.8,1.7-0.8h1.7l1.6-7.4c0.2-1.4,1.5-2.2,3.8-2.2h1.4c2.5,0,3.6,0.9,3.4,2.5l-0.8,7h3.3
	c1.2,0,1.8,0.7,1.8,2.2c0,0.4,0,0.8-0.1,1l-0.1,1.2c-0.2,1.1-0.4,2-0.8,2.5c-0.4,0.5-0.9,0.8-1.5,0.8h-3.5l-2.2,21.3l-0.1,0.8
	c0,1,0.2,1.6,0.6,2c0.4,0.3,1,0.5,1.8,0.5c0.6,0,1.1-0.1,1.6-0.2c0.5-0.1,1-0.2,1.2-0.2c0.3,0,0.5,0.3,0.5,0.9c0,0.4,0,0.8-0.1,1.1
	c-0.2,1.7-0.4,2.8-0.6,3.4c-0.3,0.8-1,1.5-2.2,2C839.9,329.3,838.7,329.5,837.3,329.5z M860,329.5c-4.3,0-7.7-1.4-10-4.3
	c-2.4-2.9-3.5-7.1-3.5-12.8c0-6.8,1.4-12.3,4.2-16.6c2.8-4.4,7-6.6,12.8-6.6c4.4,0,7.8,1.5,10,4.4c2.4,2.9,3.5,7.1,3.5,12.7
	c0,6.8-1.4,12.3-4.2,16.7C870,327.3,865.8,329.5,860,329.5z M861.1,321.9c2.2,0,3.8-1.6,4.7-4.7c1-3.1,1.5-7.3,1.5-12.4
	c0-2.7-0.4-4.7-1.2-6.1c-0.8-1.4-2.1-2-3.8-2c-2.3,0-3.9,1.6-4.9,4.7c-1,3.1-1.4,7.2-1.4,12.3c0,2.8,0.4,4.8,1.2,6.1
	C858,321.3,859.3,321.9,861.1,321.9z M884,329.1c-1.4,0-2.4-0.2-3-0.5c-0.6-0.4-0.9-0.9-0.8-1.6l2.7-24.8c0.2-1.9,0.3-3.6,0.3-5.2
	c0-1.1,0-2.1-0.2-2.9c-0.1-0.9-0.1-1.5-0.1-1.8c0-0.9,0.8-1.5,2.3-1.9c1.5-0.4,3.2-0.6,5-0.6c0.8,0,1.4,0.4,1.7,1.1
	c0.3,0.7,0.5,1.5,0.5,2.3c0,0.8,0.1,1.3,0.1,1.6c1-1.8,2.2-3.1,3.3-4.1c1.2-1,2.5-1.5,4-1.5c1.4,0,2.3,0.4,2.8,1.1
	c0.5,0.7,0.7,1.5,0.6,2.5c-0.1,0.9-0.4,2.1-1,3.6c-0.5,1.5-1,2.2-1.4,2.2c-0.2,0-0.7-0.1-1.3-0.3c-0.7-0.3-1.4-0.4-2.1-0.4
	c-1.1,0-2.1,0.4-3.1,1.3c-0.9,0.9-1.6,1.8-2,2.8l-2.6,24.9c-0.1,1.4-1.5,2.2-4.1,2.2H884z M910.1,329.5c-1.9,0-3.5-0.6-4.8-1.7
	c-1.3-1.1-1.9-3.1-1.9-5.8c0-0.8,0-1.4,0.1-1.8l2.8-28.4c0.2-1.4,1.6-2.2,4.2-2.2h1.5c1.5,0,2.5,0.2,3,0.6c0.6,0.4,0.9,1,0.8,1.7
	l-2.9,27.8c0,0.2-0.1,0.5-0.1,0.8c0,0.5,0.1,0.9,0.3,1.1c0.3,0.2,0.6,0.3,1.1,0.3c0.4,0,0.8-0.1,1.2-0.2c0.4-0.1,0.7-0.2,0.9-0.2
	c0.4,0,0.6,0.3,0.6,0.9c0,0.4,0,0.8-0.1,1.1c0,0.3-0.1,0.8-0.3,1.6c-0.1,0.8-0.3,1.4-0.5,1.9c-0.3,0.8-1,1.4-2.2,1.9
	C912.7,329.3,911.5,329.5,910.1,329.5z M911.9,285.4c-3.2,0-4.7-0.7-4.6-2.2l0.5-5.4c0.2-1.4,1.8-2.1,5-2.1c3.2,0,4.7,0.7,4.6,2.1
	l-0.6,5.4C916.7,284.7,915.1,285.4,911.9,285.4z M929.2,329.6c-3.4,0-5.8-1.5-7.4-4.4c-1.5-2.9-2.3-6.7-2.3-11.3
	c0-4.1,0.5-8.1,1.6-11.9s2.7-6.8,4.8-9.1c2.2-2.4,4.9-3.6,8.1-3.6c1.8,0,3.3,0.4,4.4,1.1c1.2,0.7,2.3,1.6,3.2,2.8
	c0.5-1.4,0.9-2.3,1.4-2.8c0.5-0.5,1.5-0.8,2.9-0.8h0.8c2.5,0,3.7,0.6,3.6,1.8l-3.1,28.1c-0.1,0.2-0.1,0.5-0.1,0.8
	c0,1.1,0.5,1.7,1.4,1.7c0.3,0,0.7-0.1,1.1-0.2s0.8-0.2,0.9-0.2c0.4,0,0.6,0.3,0.6,0.9c0,0.4,0,0.8-0.1,1.1c-0.2,1.5-0.4,2.7-0.7,3.5
	c-0.3,0.8-1,1.4-2.1,1.9c-1.2,0.4-2.4,0.7-3.8,0.7c-3.9,0-6.1-2-6.5-6C936,327.6,933,329.6,929.2,329.6z M932.9,321.8
	c1.1,0,2.1-0.5,3.1-1.6c0.9-1.1,1.7-2.6,2.3-4.5l1.3-12.1l0.2-1.7l0.5-3.1c-1.2-1.3-2.5-2-4-2c-2.5,0-4.4,1.7-5.5,5.1
	c-1.1,3.4-1.7,7.3-1.7,11.8c0,2.5,0.3,4.4,0.9,5.9C930.6,321.1,931.6,321.8,932.9,321.8z"/>
<path class="st0" d="M423.8,135.2h3.6l0.3,3.3h0.3c1.1-1.2,2.4-2.1,3.9-2.8c1.5-0.7,3.1-1,4.8-1c2.8,0,4.9,0.8,6.5,2.4
	c1.6,1.6,2.4,4.1,2.4,7.6V165h-4.3v-20c0-2.3-0.5-3.9-1.5-4.9c-1-1-2.3-1.5-4.1-1.5c-1.4,0-2.8,0.3-4.1,1c-1.4,0.6-2.5,1.7-3.4,3.1
	V165h-4.3V135.2z M466.9,165.5c-2.7,0-4.9-0.8-6.5-2.4c-1.6-1.6-2.4-4.1-2.4-7.7v-20.3h4.3v20.1c0,2.3,0.5,3.9,1.4,4.9
	c1,1,2.3,1.5,4,1.5c1.3,0,2.7-0.3,4-1c1.4-0.7,2.5-1.7,3.3-3v-22.5h4.3V165h-3.6l-0.3-3.2h-0.3c-1.1,1.2-2.4,2.2-3.8,2.8
	C470,165.2,468.5,165.5,466.9,165.5z M513.3,151.5h-17.7c0.1,2.6,0.4,4.7,1.1,6.2c0.7,1.5,1.7,2.6,3.1,3.3c1.4,0.7,3.1,1,5.3,1
	c2,0,4.3-0.4,6.9-1.1v3.5c-2.5,0.7-5,1.1-7.4,1.1c-3,0-5.5-0.5-7.4-1.5c-1.9-1-3.4-2.7-4.4-5c-1-2.3-1.5-5.3-1.5-8.9
	c0-5.2,1-9.1,3-11.6c2-2.5,4.8-3.8,8.4-3.8c3.5,0,6.1,1.2,8,3.7c1.9,2.5,2.8,6.4,2.8,11.7V151.5z M502.5,137.9
	c-2.2,0-3.8,0.8-5.1,2.4c-1.2,1.6-1.8,4.4-1.9,8.3h13.6c0-2.7-0.3-4.8-0.9-6.4c-0.5-1.6-1.3-2.7-2.2-3.4
	C505.1,138.2,503.9,137.9,502.5,137.9z M531,165.5c-2.8,0-5.3-0.4-7.6-1.2v-3.5c2.6,0.8,5.1,1.2,7.6,1.2c2.3,0,4-0.4,5.1-1.3
	c1.2-0.9,1.7-2.1,1.7-3.8c0-1.4-0.3-2.4-1-3.2c-0.7-0.8-1.8-1.3-3.3-1.7l-3.5-0.8c-2.6-0.6-4.4-1.6-5.6-2.9
	c-1.1-1.3-1.7-3.1-1.7-5.2c0-1.7,0.4-3.2,1.3-4.5c0.8-1.3,2.1-2.3,3.8-3c1.7-0.7,3.7-1.1,6.2-1.1c2.3,0,4.4,0.2,6.5,0.7v3.5
	c-2-0.5-4.1-0.8-6.4-0.8c-2.5,0-4.3,0.5-5.4,1.4c-1.2,0.9-1.7,2.1-1.7,3.6c0,1.3,0.3,2.3,1,3c0.7,0.8,1.7,1.3,3.2,1.7l3.5,0.8
	c2.6,0.6,4.5,1.6,5.6,2.9c1.1,1.3,1.7,3.1,1.7,5.3c0,1.8-0.4,3.3-1.3,4.6c-0.8,1.3-2.1,2.3-3.7,3C535.3,165.2,533.3,165.5,531,165.5
	z M564.3,161.8c1,0,2.1-0.1,3.3-0.4v3.7c-1.4,0.3-2.8,0.5-4.2,0.5c-2.9,0-5.1-0.8-6.7-2.3c-1.5-1.5-2.3-3.9-2.3-7.2v-17.4H549v-3.6
	h5.4l0.7-10.9h3.6v10.9h8.4v3.6h-8.4v16.7c0,2.3,0.4,4,1.3,4.9C560.9,161.3,562.3,161.8,564.3,161.8z M577.3,135.2h3.6l0.3,4h0.3
	c0.9-1.4,2.1-2.4,3.5-3.2c1.4-0.7,2.9-1.1,4.6-1.1c0.7,0,1.4,0,2,0.1v4c-0.6-0.1-1.4-0.1-2.2-0.1c-1.5,0-3,0.4-4.4,1.2
	c-1.4,0.8-2.5,1.8-3.4,3.2V165h-4.3V135.2z M611,165.5c-3.8,0-6.7-1.2-8.8-3.7c-2.1-2.5-3.1-6.4-3.1-11.7c0-5.3,1-9.2,3.1-11.7
	c2.1-2.5,5-3.7,8.8-3.7c3.8,0,6.7,1.2,8.8,3.7c2.1,2.5,3.1,6.4,3.1,11.6c0,5.3-1,9.1-3.1,11.7C617.7,164.3,614.8,165.5,611,165.5z
	 M611,162c1.6,0,3-0.4,4.1-1.1c1.1-0.8,2-2,2.6-3.7c0.6-1.7,0.9-4.1,0.9-7c0-3-0.3-5.4-0.9-7.1c-0.6-1.8-1.4-3-2.5-3.7
	c-1.1-0.7-2.5-1.1-4.1-1.1c-1.6,0-3,0.4-4.1,1.1c-1.1,0.7-2,2-2.6,3.7c-0.6,1.7-0.9,4.1-0.9,7c0,3,0.3,5.4,0.9,7.2
	c0.6,1.8,1.5,3,2.6,3.8C608,161.7,609.3,162,611,162z M659,165.5c-2.8,0-5.3-0.4-7.6-1.2v-3.5c2.6,0.8,5.1,1.2,7.6,1.2
	c2.3,0,4-0.4,5.1-1.3c1.2-0.9,1.7-2.1,1.7-3.8c0-1.4-0.3-2.4-1-3.2c-0.7-0.8-1.8-1.3-3.3-1.7l-3.5-0.8c-2.6-0.6-4.4-1.6-5.6-2.9
	c-1.1-1.3-1.7-3.1-1.7-5.2c0-1.7,0.4-3.2,1.3-4.5c0.8-1.3,2.1-2.3,3.8-3c1.7-0.7,3.7-1.1,6.2-1.1c2.3,0,4.4,0.2,6.5,0.7v3.5
	c-2-0.5-4.1-0.8-6.4-0.8c-2.5,0-4.3,0.5-5.4,1.4c-1.2,0.9-1.7,2.1-1.7,3.6c0,1.3,0.3,2.3,1,3c0.7,0.8,1.7,1.3,3.2,1.7l3.5,0.8
	c2.6,0.6,4.5,1.6,5.6,2.9c1.1,1.3,1.7,3.1,1.7,5.3c0,1.8-0.4,3.3-1.3,4.6c-0.8,1.3-2.1,2.3-3.7,3C663.3,165.2,661.3,165.5,659,165.5
	z M701.5,151.5h-17.7c0.1,2.6,0.4,4.7,1.1,6.2c0.7,1.5,1.7,2.6,3.1,3.3c1.4,0.7,3.1,1,5.3,1c2,0,4.3-0.4,6.9-1.1v3.5
	c-2.5,0.7-5,1.1-7.4,1.1c-3,0-5.5-0.5-7.4-1.5c-1.9-1-3.4-2.7-4.4-5c-1-2.3-1.5-5.3-1.5-8.9c0-5.2,1-9.1,3-11.6
	c2-2.5,4.8-3.8,8.4-3.8c3.5,0,6.1,1.2,8,3.7c1.9,2.5,2.8,6.4,2.8,11.7V151.5z M690.7,137.9c-2.2,0-3.8,0.8-5.1,2.4
	c-1.2,1.6-1.8,4.4-1.9,8.3h13.6c0-2.7-0.3-4.8-0.9-6.4c-0.5-1.6-1.3-2.7-2.2-3.4C693.3,138.2,692.1,137.9,690.7,137.9z M712.8,135.2
	h3.6l0.3,4h0.3c0.9-1.4,2.1-2.4,3.5-3.2c1.4-0.7,2.9-1.1,4.6-1.1c0.7,0,1.4,0,2,0.1v4c-0.6-0.1-1.4-0.1-2.2-0.1
	c-1.5,0-3,0.4-4.4,1.2c-1.4,0.8-2.5,1.8-3.4,3.2V165h-4.3V135.2z M756.4,135.2h4.4L750.2,165h-5.6l-10.5-29.8h4.6l8.8,25.9
	L756.4,135.2z M770.4,165v-29.8h4.3V165H770.4z M772.5,128.6c-1,0-1.7-0.2-2.3-0.7c-0.5-0.5-0.8-1.1-0.8-2s0.3-1.5,0.8-2
	c0.5-0.5,1.3-0.7,2.3-0.7c1,0,1.7,0.2,2.2,0.7c0.5,0.5,0.8,1.1,0.8,2s-0.3,1.5-0.8,2C774.2,128.4,773.5,128.6,772.5,128.6z
	 M798.7,165.5c-4.1,0-7.2-1.2-9.3-3.7c-2.1-2.5-3.1-6.4-3.1-11.7c0-5.4,1.1-9.3,3.4-11.7c2.3-2.4,5.7-3.7,10.2-3.7
	c2,0,3.9,0.2,5.6,0.7v3.7c-1.7-0.4-3.4-0.7-5.1-0.7c-2.3,0-4.1,0.4-5.5,1.1s-2.4,1.9-3.1,3.6c-0.7,1.7-1,4-1,6.9c0,2.9,0.3,5.3,1,7
	c0.6,1.7,1.6,3,2.8,3.7c1.2,0.8,2.8,1.1,4.8,1.1c1.8,0,3.8-0.4,6.1-1.1v3.6C803.2,165.1,801,165.5,798.7,165.5z M815.7,165v-29.8
	h4.3V165H815.7z M817.9,128.6c-1,0-1.7-0.2-2.3-0.7c-0.5-0.5-0.8-1.1-0.8-2s0.3-1.5,0.8-2c0.5-0.5,1.3-0.7,2.3-0.7
	c1,0,1.7,0.2,2.2,0.7c0.5,0.5,0.8,1.1,0.8,2s-0.3,1.5-0.8,2C819.6,128.4,818.8,128.6,817.9,128.6z M843.6,165.5
	c-3.8,0-6.7-1.2-8.8-3.7c-2.1-2.5-3.1-6.4-3.1-11.7c0-5.3,1-9.2,3.1-11.7c2.1-2.5,5-3.7,8.8-3.7c3.8,0,6.7,1.2,8.8,3.7
	c2.1,2.5,3.1,6.4,3.1,11.6c0,5.3-1,9.1-3.1,11.7C850.3,164.3,847.4,165.5,843.6,165.5z M843.6,162c1.6,0,3-0.4,4.1-1.1
	c1.1-0.8,2-2,2.6-3.7c0.6-1.7,0.9-4.1,0.9-7c0-3-0.3-5.4-0.9-7.1c-0.6-1.8-1.4-3-2.5-3.7c-1.1-0.7-2.5-1.1-4.1-1.1s-3,0.4-4.1,1.1
	c-1.1,0.7-2,2-2.6,3.7c-0.6,1.7-0.9,4.1-0.9,7c0,3,0.3,5.4,0.9,7.2c0.6,1.8,1.5,3,2.6,3.8C840.6,161.7,841.9,162,843.6,162z"/>
<path class="st1" d="M364,376v-22.2h2.4v20.1h10.2v2.1H364z M378.9,376v-24.2h2.3V376H378.9z M396.6,368.6h-9.7
	c0,1.4,0.2,2.5,0.6,3.4c0.4,0.8,0.9,1.4,1.7,1.8c0.7,0.4,1.7,0.5,2.9,0.5c1.1,0,2.3-0.2,3.8-0.6v1.9c-1.4,0.4-2.7,0.6-4,0.6
	c-1.6,0-3-0.3-4.1-0.8c-1.1-0.6-1.9-1.5-2.4-2.7c-0.5-1.2-0.8-2.9-0.8-4.9c0-2.8,0.5-4.9,1.6-6.3s2.6-2.1,4.6-2.1
	c1.9,0,3.4,0.7,4.4,2c1,1.4,1.5,3.5,1.5,6.4V368.6z M390.7,361.2c-1.2,0-2.1,0.4-2.8,1.3c-0.6,0.9-1,2.4-1,4.5h7.4
	c0-1.5-0.2-2.6-0.5-3.5c-0.3-0.9-0.7-1.5-1.2-1.8C392.1,361.4,391.5,361.2,390.7,361.2z M399.8,359.7h2l0.2,1.8h0.1
	c0.6-0.7,1.3-1.2,2.1-1.5c0.8-0.4,1.7-0.5,2.6-0.5c1.5,0,2.7,0.4,3.5,1.3c0.9,0.9,1.3,2.2,1.3,4.2V376h-2.3v-10.9
	c0-1.3-0.3-2.2-0.8-2.7c-0.5-0.5-1.3-0.8-2.3-0.8c-0.8,0-1.5,0.2-2.3,0.5c-0.8,0.4-1.4,0.9-1.8,1.7V376h-2.3V359.7z M420.1,359.5
	c1.4,0,2.5,0.2,3.3,0.6c0.9,0.4,1.5,1,2,1.8c0.4,0.8,0.7,2,0.7,3.4V376h-2l-0.2-1.8h-0.1c-0.5,0.7-1.1,1.2-1.9,1.5
	c-0.8,0.3-1.6,0.5-2.5,0.5c-1,0-1.8-0.2-2.5-0.5c-0.7-0.4-1.3-0.9-1.6-1.5s-0.6-1.4-0.6-2.4c0-1.5,0.5-2.6,1.4-3.4
	c0.9-0.8,2.3-1.3,4.3-1.5l3.4-0.4v-1.5c0-1-0.1-1.7-0.4-2.3c-0.3-0.5-0.7-0.9-1.3-1.1c-0.6-0.2-1.3-0.3-2.2-0.3
	c-0.6,0-1.3,0.1-2,0.2c-0.7,0.1-1.4,0.3-2.1,0.5v-1.9c0.6-0.2,1.3-0.4,2.1-0.5C418.7,359.5,419.4,359.5,420.1,359.5z M420,374.4
	c0.7,0,1.4-0.2,2-0.5c0.6-0.3,1.2-0.8,1.7-1.5v-4.2l-3.2,0.3c-1.2,0.1-2,0.4-2.6,0.9c-0.6,0.5-0.8,1.2-0.8,2.1
	c0,0.9,0.2,1.6,0.7,2.1C418.3,374.2,419.1,374.4,420,374.4z M448.2,368.6h-9.7c0,1.4,0.2,2.5,0.6,3.4c0.4,0.8,0.9,1.4,1.7,1.8
	c0.7,0.4,1.7,0.5,2.9,0.5c1.1,0,2.3-0.2,3.8-0.6v1.9c-1.4,0.4-2.7,0.6-4,0.6c-1.6,0-3-0.3-4-0.8c-1.1-0.6-1.9-1.5-2.4-2.7
	c-0.5-1.2-0.8-2.9-0.8-4.9c0-2.8,0.5-4.9,1.6-6.3s2.6-2.1,4.6-2.1c1.9,0,3.4,0.7,4.4,2c1,1.4,1.5,3.5,1.5,6.4V368.6z M442.3,361.2
	c-1.2,0-2.1,0.4-2.8,1.3c-0.6,0.9-1,2.4-1,4.5h7.4c0-1.5-0.2-2.6-0.5-3.5c-0.3-0.9-0.7-1.5-1.2-1.8
	C443.7,361.4,443,361.2,442.3,361.2z M454.9,376.3c-1.5,0-2.9-0.2-4.1-0.6v-1.9c1.4,0.4,2.8,0.7,4.1,0.7c1.2,0,2.2-0.2,2.8-0.7
	c0.6-0.5,0.9-1.2,0.9-2.1c0-0.8-0.2-1.3-0.6-1.7c-0.4-0.4-1-0.7-1.8-0.9l-1.9-0.4c-1.4-0.3-2.4-0.9-3-1.6c-0.6-0.7-0.9-1.7-0.9-2.8
	c0-0.9,0.2-1.7,0.7-2.4c0.5-0.7,1.1-1.2,2.1-1.6c0.9-0.4,2-0.6,3.4-0.6c1.2,0,2.4,0.1,3.5,0.4v1.9c-1.1-0.3-2.3-0.4-3.5-0.4
	c-1.3,0-2.3,0.3-3,0.8c-0.6,0.5-0.9,1.2-0.9,2c0,0.7,0.2,1.2,0.5,1.6c0.4,0.4,0.9,0.7,1.7,0.9l1.9,0.4c1.4,0.4,2.5,0.9,3.1,1.6
	c0.6,0.7,0.9,1.7,0.9,2.9c0,1-0.2,1.8-0.7,2.5c-0.5,0.7-1.1,1.3-2,1.6C457.2,376.1,456.1,376.3,454.9,376.3z M470,374.2
	c0.5,0,1.1-0.1,1.8-0.2v2c-0.8,0.2-1.5,0.3-2.3,0.3c-1.6,0-2.8-0.4-3.6-1.2c-0.8-0.8-1.2-2.1-1.2-3.9v-9.5h-2.9v-1.9h2.9l0.4-5.9h2
	v5.9h4.6v1.9h-4.6v9.1c0,1.3,0.2,2.2,0.7,2.7C468.1,374,468.9,374.2,470,374.2z M478.6,359.5c1.4,0,2.5,0.2,3.3,0.6
	c0.9,0.4,1.5,1,2,1.8c0.4,0.8,0.7,2,0.7,3.4V376h-2l-0.2-1.8h-0.1c-0.5,0.7-1.1,1.2-1.9,1.5c-0.8,0.3-1.6,0.5-2.5,0.5
	c-0.9,0-1.8-0.2-2.5-0.5c-0.7-0.4-1.3-0.9-1.6-1.5c-0.4-0.7-0.6-1.4-0.6-2.4c0-1.5,0.5-2.6,1.4-3.4c0.9-0.8,2.4-1.3,4.3-1.5l3.4-0.4
	v-1.5c0-1-0.1-1.7-0.4-2.3c-0.3-0.5-0.7-0.9-1.3-1.1c-0.6-0.2-1.3-0.3-2.2-0.3c-0.6,0-1.3,0.1-2,0.2c-0.7,0.1-1.4,0.3-2.1,0.5v-1.9
	c0.6-0.2,1.3-0.4,2.1-0.5C477.1,359.5,477.9,359.5,478.6,359.5z M478.5,374.4c0.7,0,1.4-0.2,2-0.5c0.7-0.3,1.2-0.8,1.7-1.5v-4.2
	l-3.2,0.3c-1.2,0.1-2,0.4-2.6,0.9c-0.5,0.5-0.8,1.2-0.8,2.1c0,0.9,0.2,1.6,0.7,2.1C476.8,374.2,477.5,374.4,478.5,374.4z
	 M478.1,357.2l2.8-5.4h2.5l-3.2,5.4H478.1z M495.4,376v-16.3h2.3V376H495.4z M496.5,356.2c-0.5,0-0.9-0.1-1.2-0.4
	c-0.3-0.3-0.4-0.6-0.4-1.1s0.1-0.8,0.4-1.1c0.3-0.3,0.7-0.4,1.2-0.4c0.5,0,0.9,0.1,1.2,0.4c0.3,0.3,0.4,0.6,0.4,1.1
	s-0.1,0.8-0.4,1.1C497.5,356,497.1,356.2,496.5,356.2z M501.9,359.7h2l0.2,1.8h0.2c0.6-0.7,1.3-1.2,2.1-1.5c0.8-0.4,1.7-0.5,2.6-0.5
	c1.5,0,2.7,0.4,3.5,1.3c0.9,0.9,1.3,2.2,1.3,4.2V376h-2.3v-10.9c0-1.3-0.3-2.2-0.8-2.7c-0.5-0.5-1.3-0.8-2.3-0.8
	c-0.8,0-1.5,0.2-2.3,0.5c-0.8,0.4-1.4,0.9-1.8,1.7V376h-2.3V359.7z M524.5,353.4c-1.1,0-2,0.3-2.5,0.8s-0.8,1.4-0.8,2.5v3h4.6v1.9
	h-4.6V376h-2.3v-14.3h-2.9v-1.9h2.9v-2.9c0-1.7,0.5-3.1,1.4-4c0.9-0.9,2.3-1.4,4.1-1.4c0.8,0,1.4,0.1,2.1,0.2v2
	C525.6,353.5,525,353.4,524.5,353.4z M533.1,376.3c-2.1,0-3.7-0.7-4.8-2c-1.1-1.4-1.7-3.5-1.7-6.4c0-2.9,0.6-5,1.7-6.4
	c1.1-1.4,2.7-2,4.8-2c2.1,0,3.7,0.7,4.8,2c1.1,1.4,1.7,3.5,1.7,6.3s-0.6,5-1.7,6.4C536.8,375.6,535.2,376.3,533.1,376.3z
	 M533.1,374.4c0.9,0,1.6-0.2,2.2-0.6c0.6-0.4,1.1-1.1,1.4-2c0.3-0.9,0.5-2.2,0.5-3.8c0-1.6-0.2-2.9-0.5-3.9c-0.3-1-0.8-1.6-1.4-2
	c-0.6-0.4-1.3-0.6-2.2-0.6s-1.6,0.2-2.2,0.6c-0.6,0.4-1.1,1.1-1.4,2c-0.3,0.9-0.5,2.2-0.5,3.8c0,1.6,0.2,2.9,0.5,3.9
	c0.3,1,0.8,1.6,1.4,2.1C531.5,374.2,532.2,374.4,533.1,374.4z M543,359.7h2l0.2,2.2h0.2c0.5-0.8,1.1-1.3,1.9-1.7
	c0.8-0.4,1.6-0.6,2.5-0.6c0.4,0,0.8,0,1.1,0.1v2.2c-0.3,0-0.7-0.1-1.2-0.1c-0.8,0-1.6,0.2-2.4,0.6c-0.8,0.4-1.4,1-1.8,1.8V376H543
	V359.7z M568.4,359.5c1.4,0,2.5,0.4,3.4,1.3c0.8,0.9,1.2,2.3,1.2,4.2v11h-2.3v-10.9c0-2.3-1-3.5-2.9-3.5c-0.7,0-1.3,0.2-2,0.5
	c-0.7,0.3-1.2,0.9-1.7,1.6c0,0.3,0.1,0.8,0.1,1.2V376h-2.3v-10.9c0-1.3-0.2-2.2-0.7-2.7c-0.5-0.5-1.2-0.8-2-0.8
	c-0.7,0-1.4,0.2-2.1,0.6c-0.7,0.4-1.3,0.9-1.7,1.7V376H553v-16.3h2l0.2,1.8h0.1c0.6-0.7,1.3-1.2,2-1.5c0.8-0.4,1.6-0.5,2.4-0.5
	c1.9,0,3.2,0.8,3.9,2.3c0.7-0.8,1.4-1.4,2.2-1.8C566.7,359.7,567.5,359.5,568.4,359.5z M581.5,359.5c1.4,0,2.5,0.2,3.3,0.6
	c0.9,0.4,1.5,1,2,1.8c0.4,0.8,0.7,2,0.7,3.4V376h-2l-0.2-1.8h-0.2c-0.5,0.7-1.1,1.2-1.9,1.5c-0.8,0.3-1.6,0.5-2.5,0.5
	c-1,0-1.8-0.2-2.5-0.5c-0.7-0.4-1.3-0.9-1.6-1.5s-0.6-1.4-0.6-2.4c0-1.5,0.5-2.6,1.4-3.4c0.9-0.8,2.4-1.3,4.3-1.5l3.4-0.4v-1.5
	c0-1-0.1-1.7-0.4-2.3c-0.3-0.5-0.7-0.9-1.3-1.1c-0.6-0.2-1.3-0.3-2.2-0.3c-0.6,0-1.3,0.1-2,0.2c-0.7,0.1-1.4,0.3-2.1,0.5v-1.9
	c0.6-0.2,1.3-0.4,2.1-0.5C580,359.5,580.8,359.5,581.5,359.5z M581.4,374.4c0.7,0,1.4-0.2,2-0.5c0.7-0.3,1.2-0.8,1.7-1.5v-4.2
	l-3.2,0.3c-1.2,0.1-2,0.4-2.6,0.9c-0.5,0.5-0.8,1.2-0.8,2.1c0,0.9,0.2,1.6,0.7,2.1C579.7,374.2,580.4,374.4,581.4,374.4z
	 M597.4,376.3c-2.3,0-3.9-0.7-5.1-2s-1.7-3.5-1.7-6.4c0-2.9,0.6-5.1,1.9-6.4c1.2-1.3,3.1-2,5.5-2c1.1,0,2.1,0.1,3,0.4v2
	c-1-0.2-1.9-0.4-2.8-0.4c-1.2,0-2.2,0.2-3,0.6c-0.8,0.4-1.3,1.1-1.7,2c-0.4,0.9-0.6,2.2-0.6,3.8c0,1.6,0.2,2.9,0.5,3.8
	c0.3,0.9,0.9,1.6,1.5,2c0.7,0.4,1.6,0.6,2.6,0.6c1,0,2.1-0.2,3.3-0.6v2C599.9,376.1,598.7,376.3,597.4,376.3z M603.7,376v-16.3h2.3
	V376H603.7z M604.9,356.2c-0.5,0-0.9-0.1-1.2-0.4c-0.3-0.3-0.4-0.6-0.4-1.1s0.1-0.8,0.4-1.1c0.3-0.3,0.7-0.4,1.2-0.4
	c0.5,0,0.9,0.1,1.2,0.4c0.3,0.3,0.4,0.6,0.4,1.1s-0.1,0.8-0.4,1.1C605.8,356,605.4,356.2,604.9,356.2z M615.9,376.3
	c-2.1,0-3.7-0.7-4.8-2c-1.1-1.4-1.7-3.5-1.7-6.4c0-2.9,0.6-5,1.7-6.4c1.1-1.4,2.7-2,4.8-2c2.1,0,3.7,0.7,4.8,2
	c1.1,1.4,1.7,3.5,1.7,6.3s-0.6,5-1.7,6.4C619.6,375.6,618,376.3,615.9,376.3z M615.9,374.4c0.9,0,1.6-0.2,2.2-0.6
	c0.6-0.4,1.1-1.1,1.4-2c0.3-0.9,0.5-2.2,0.5-3.8c0-1.6-0.2-2.9-0.5-3.9c-0.3-1-0.8-1.6-1.4-2c-0.6-0.4-1.3-0.6-2.2-0.6
	c-0.9,0-1.6,0.2-2.2,0.6c-0.6,0.4-1.1,1.1-1.4,2c-0.3,0.9-0.5,2.2-0.5,3.8c0,1.6,0.2,2.9,0.5,3.9c0.3,1,0.8,1.6,1.4,2.1
	C614.3,374.2,615,374.4,615.9,374.4z M614.9,357.2l2.8-5.4h2.5l-3.2,5.4H614.9z M625.7,359.7h2l0.2,1.8h0.2c0.6-0.7,1.3-1.2,2.1-1.5
	c0.8-0.4,1.7-0.5,2.6-0.5c1.5,0,2.7,0.4,3.5,1.3c0.9,0.9,1.3,2.2,1.3,4.2V376h-2.3v-10.9c0-1.3-0.3-2.2-0.8-2.7
	c-0.5-0.5-1.3-0.8-2.3-0.8c-0.8,0-1.5,0.2-2.3,0.5c-0.8,0.4-1.4,0.9-1.8,1.7V376h-2.3V359.7z M648.4,359.7h2l0.2,1.7h0.1
	c0.4-0.6,1-1.1,1.7-1.4c0.7-0.4,1.5-0.5,2.4-0.5c1.8,0,3.2,0.6,4.3,1.9c1.1,1.3,1.7,3.3,1.7,6.2c0,2.9-0.7,5.1-2,6.6
	c-1.3,1.4-3.2,2.2-5.8,2.2c-0.7,0-1.4-0.1-2.3-0.2v6.5h-2.3V359.7z M653.1,374.4c1.8,0,3.1-0.5,4-1.5c0.9-1,1.3-2.7,1.3-5.1
	c0-2.3-0.4-4-1.1-4.9c-0.7-0.9-1.7-1.4-3-1.4c-0.7,0-1.4,0.2-2,0.5c-0.6,0.3-1.1,0.8-1.5,1.5v10.7c0.3,0.1,0.7,0.1,1.1,0.2
	C652.3,374.3,652.7,374.4,653.1,374.4z M668.7,359.5c1.4,0,2.5,0.2,3.3,0.6c0.9,0.4,1.5,1,2,1.8c0.4,0.8,0.7,2,0.7,3.4V376h-2
	l-0.2-1.8h-0.2c-0.5,0.7-1.1,1.2-1.9,1.5c-0.8,0.3-1.6,0.5-2.5,0.5c-1,0-1.8-0.2-2.5-0.5c-0.7-0.4-1.3-0.9-1.6-1.5s-0.6-1.4-0.6-2.4
	c0-1.5,0.5-2.6,1.4-3.4c0.9-0.8,2.3-1.3,4.3-1.5l3.4-0.4v-1.5c0-1-0.1-1.7-0.4-2.3c-0.3-0.5-0.7-0.9-1.3-1.1
	c-0.6-0.2-1.3-0.3-2.2-0.3c-0.6,0-1.3,0.1-2,0.2c-0.7,0.1-1.4,0.3-2.1,0.5v-1.9c0.6-0.2,1.3-0.4,2.1-0.5
	C667.2,359.5,667.9,359.5,668.7,359.5z M668.5,374.4c0.7,0,1.4-0.2,2-0.5c0.6-0.3,1.2-0.8,1.7-1.5v-4.2l-3.2,0.3
	c-1.2,0.1-2,0.4-2.6,0.9c-0.5,0.5-0.8,1.2-0.8,2.1c0,0.9,0.2,1.6,0.7,2.1C666.9,374.2,667.6,374.4,668.5,374.4z M678.6,359.7h2
	l0.2,2.2h0.2c0.5-0.8,1.1-1.3,1.9-1.7c0.8-0.4,1.6-0.6,2.5-0.6c0.4,0,0.8,0,1.1,0.1v2.2c-0.3,0-0.7-0.1-1.2-0.1
	c-0.8,0-1.6,0.2-2.4,0.6c-0.8,0.4-1.4,1-1.8,1.8V376h-2.3V359.7z M692.7,359.5c1.4,0,2.5,0.2,3.3,0.6c0.9,0.4,1.5,1,2,1.8
	c0.4,0.8,0.7,2,0.7,3.4V376h-2l-0.2-1.8h-0.2c-0.5,0.7-1.1,1.2-1.9,1.5c-0.8,0.3-1.6,0.5-2.5,0.5c-1,0-1.8-0.2-2.5-0.5
	c-0.7-0.4-1.3-0.9-1.6-1.5s-0.6-1.4-0.6-2.4c0-1.5,0.5-2.6,1.4-3.4c0.9-0.8,2.4-1.3,4.3-1.5l3.4-0.4v-1.5c0-1-0.1-1.7-0.4-2.3
	c-0.3-0.5-0.7-0.9-1.3-1.1c-0.6-0.2-1.3-0.3-2.2-0.3c-0.6,0-1.3,0.1-2,0.2c-0.7,0.1-1.4,0.3-2.1,0.5v-1.9c0.6-0.2,1.3-0.4,2.1-0.5
	C691.2,359.5,692,359.5,692.7,359.5z M692.6,374.4c0.7,0,1.4-0.2,2-0.5c0.6-0.3,1.2-0.8,1.7-1.5v-4.2l-3.2,0.3
	c-1.2,0.1-2,0.4-2.6,0.9c-0.6,0.5-0.8,1.2-0.8,2.1c0,0.9,0.2,1.6,0.7,2.1C690.9,374.2,691.6,374.4,692.6,374.4z M709.5,359.7h2
	l0.2,1.7h0.1c0.4-0.6,1-1.1,1.7-1.4c0.7-0.4,1.5-0.5,2.4-0.5c1.8,0,3.2,0.6,4.3,1.9c1.1,1.3,1.7,3.3,1.7,6.2c0,2.9-0.7,5.1-2,6.6
	c-1.3,1.4-3.2,2.2-5.8,2.2c-0.7,0-1.4-0.1-2.3-0.2v6.5h-2.3V359.7z M714.1,374.4c1.8,0,3.1-0.5,4-1.5c0.9-1,1.3-2.7,1.3-5.1
	c0-2.3-0.4-4-1.1-4.9c-0.7-0.9-1.7-1.4-3-1.4c-0.7,0-1.4,0.2-2,0.5c-0.6,0.3-1.1,0.8-1.5,1.5v10.7c0.3,0.1,0.7,0.1,1.1,0.2
	C713.3,374.3,713.7,374.4,714.1,374.4z M731,376.3c-2.1,0-3.7-0.7-4.8-2c-1.1-1.4-1.7-3.5-1.7-6.4c0-2.9,0.6-5,1.7-6.4
	c1.1-1.4,2.7-2,4.8-2c2.1,0,3.7,0.7,4.8,2c1.1,1.4,1.7,3.5,1.7,6.3s-0.6,5-1.7,6.4C734.6,375.6,733,376.3,731,376.3z M731,374.4
	c0.9,0,1.6-0.2,2.2-0.6c0.6-0.4,1.1-1.1,1.4-2c0.3-0.9,0.5-2.2,0.5-3.8c0-1.6-0.2-2.9-0.5-3.9c-0.3-1-0.8-1.6-1.4-2
	c-0.6-0.4-1.3-0.6-2.2-0.6c-0.9,0-1.6,0.2-2.2,0.6c-0.6,0.4-1.1,1.1-1.4,2c-0.3,0.9-0.5,2.2-0.5,3.8c0,1.6,0.2,2.9,0.5,3.9
	c0.3,1,0.8,1.6,1.4,2.1C729.3,374.2,730.1,374.4,731,374.4z M746.1,376.3c-1.8,0-3.2-0.6-4.3-1.9c-1.1-1.3-1.6-3.3-1.6-6.2
	c0-2.9,0.7-5.1,2-6.6c1.3-1.4,3.3-2.2,5.8-2.2c0.7,0,1.4,0.1,2.3,0.2v-7.9h2.3V376h-2l-0.2-1.7h-0.1c-0.5,0.6-1,1.1-1.7,1.4
	C747.7,376.1,746.9,376.3,746.1,376.3z M746.6,374.3c0.7,0,1.4-0.2,2-0.5c0.6-0.3,1.1-0.8,1.5-1.5v-10.7c-0.3-0.1-0.7-0.1-1.1-0.1
	c-0.4,0-0.8-0.1-1.2-0.1c-1.8,0-3.1,0.5-4,1.6c-0.9,1-1.3,2.7-1.3,5c0,1.6,0.2,2.9,0.5,3.8c0.3,0.9,0.8,1.6,1.4,1.9
	C745,374.1,745.7,374.3,746.6,374.3z M767.9,368.6h-9.7c0,1.4,0.2,2.5,0.6,3.4c0.4,0.8,0.9,1.4,1.7,1.8c0.7,0.4,1.7,0.5,2.9,0.5
	c1.1,0,2.3-0.2,3.8-0.6v1.9c-1.4,0.4-2.7,0.6-4,0.6c-1.6,0-3-0.3-4-0.8c-1.1-0.6-1.9-1.5-2.4-2.7c-0.5-1.2-0.8-2.9-0.8-4.9
	c0-2.8,0.5-4.9,1.6-6.3s2.6-2.1,4.6-2.1c1.9,0,3.3,0.7,4.3,2c1,1.4,1.5,3.5,1.5,6.4V368.6z M762,361.2c-1.2,0-2.1,0.4-2.8,1.3
	c-0.6,0.9-1,2.4-1,4.5h7.4c0-1.5-0.2-2.6-0.5-3.5c-0.3-0.9-0.7-1.5-1.2-1.8C763.4,361.4,762.8,361.2,762,361.2z M771.1,359.7h2
	l0.2,2.2h0.2c0.5-0.8,1.1-1.3,1.9-1.7c0.8-0.4,1.6-0.6,2.5-0.6c0.4,0,0.8,0,1.1,0.1v2.2c-0.3,0-0.7-0.1-1.2-0.1
	c-0.8,0-1.6,0.2-2.4,0.6c-0.8,0.4-1.4,1-1.8,1.8V376h-2.3V359.7z M792.4,359.5c1.3,0,2.5,0.2,3.3,0.6c0.9,0.4,1.5,1,1.9,1.8
	c0.4,0.8,0.7,2,0.7,3.4V376h-2l-0.2-1.8h-0.1c-0.5,0.7-1.1,1.2-1.9,1.5c-0.8,0.3-1.6,0.5-2.5,0.5c-1,0-1.8-0.2-2.5-0.5
	c-0.7-0.4-1.3-0.9-1.6-1.5s-0.6-1.4-0.6-2.4c0-1.5,0.5-2.6,1.4-3.4c0.9-0.8,2.4-1.3,4.3-1.5l3.4-0.4v-1.5c0-1-0.1-1.7-0.4-2.3
	c-0.3-0.5-0.7-0.9-1.3-1.1c-0.6-0.2-1.3-0.3-2.2-0.3c-0.6,0-1.3,0.1-2,0.2c-0.7,0.1-1.4,0.3-2.1,0.5v-1.9c0.6-0.2,1.3-0.4,2.1-0.5
	C791,359.5,791.7,359.5,792.4,359.5z M792.3,374.4c0.7,0,1.4-0.2,2-0.5c0.7-0.3,1.2-0.8,1.7-1.5v-4.2l-3.2,0.3
	c-1.2,0.1-2,0.4-2.6,0.9c-0.5,0.5-0.8,1.2-0.8,2.1c0,0.9,0.2,1.6,0.7,2.1C790.7,374.2,791.4,374.4,792.3,374.4z M805.9,376.3
	c-1.5,0-2.9-0.2-4.1-0.6v-1.9c1.4,0.4,2.8,0.7,4.1,0.7c1.2,0,2.2-0.2,2.8-0.7c0.6-0.5,0.9-1.2,0.9-2.1c0-0.8-0.2-1.3-0.6-1.7
	c-0.4-0.4-1-0.7-1.8-0.9l-1.9-0.4c-1.4-0.3-2.4-0.9-3-1.6c-0.6-0.7-0.9-1.7-0.9-2.8c0-0.9,0.2-1.7,0.7-2.4c0.5-0.7,1.1-1.2,2.1-1.6
	c0.9-0.4,2-0.6,3.4-0.6c1.2,0,2.4,0.1,3.5,0.4v1.9c-1.1-0.3-2.3-0.4-3.5-0.4c-1.3,0-2.3,0.3-3,0.8c-0.6,0.5-0.9,1.2-0.9,2
	c0,0.7,0.2,1.2,0.5,1.6s0.9,0.7,1.7,0.9l1.9,0.4c1.4,0.4,2.5,0.9,3.1,1.6c0.6,0.7,0.9,1.7,0.9,2.9c0,1-0.2,1.8-0.7,2.5
	c-0.5,0.7-1.1,1.3-2,1.6C808.2,376.1,807.2,376.3,805.9,376.3z M826.1,368.6h-9.7c0,1.4,0.2,2.5,0.6,3.4c0.4,0.8,0.9,1.4,1.7,1.8
	c0.7,0.4,1.7,0.5,2.9,0.5c1.1,0,2.3-0.2,3.8-0.6v1.9c-1.4,0.4-2.7,0.6-4,0.6c-1.6,0-3-0.3-4-0.8c-1.1-0.6-1.9-1.5-2.4-2.7
	c-0.5-1.2-0.8-2.9-0.8-4.9c0-2.8,0.5-4.9,1.6-6.3c1.1-1.4,2.6-2.1,4.6-2.1c1.9,0,3.3,0.7,4.3,2c1,1.4,1.5,3.5,1.5,6.4V368.6z
	 M820.2,361.2c-1.2,0-2.1,0.4-2.8,1.3c-0.6,0.9-1,2.4-1,4.5h7.4c0-1.5-0.2-2.6-0.5-3.5c-0.3-0.9-0.7-1.5-1.2-1.8
	C821.6,361.4,821,361.2,820.2,361.2z M832.8,376.3c-1.5,0-2.9-0.2-4.1-0.6v-1.9c1.4,0.4,2.8,0.7,4.1,0.7c1.2,0,2.2-0.2,2.8-0.7
	c0.6-0.5,0.9-1.2,0.9-2.1c0-0.8-0.2-1.3-0.6-1.7c-0.4-0.4-1-0.7-1.8-0.9l-1.9-0.4c-1.4-0.3-2.4-0.9-3-1.6c-0.6-0.7-0.9-1.7-0.9-2.8
	c0-0.9,0.2-1.7,0.7-2.4s1.1-1.2,2.1-1.6c0.9-0.4,2-0.6,3.4-0.6c1.2,0,2.4,0.1,3.5,0.4v1.9c-1.1-0.3-2.3-0.4-3.5-0.4
	c-1.3,0-2.3,0.3-3,0.8c-0.6,0.5-0.9,1.2-0.9,2c0,0.7,0.2,1.2,0.5,1.6c0.4,0.4,0.9,0.7,1.7,0.9l1.9,0.4c1.4,0.4,2.5,0.9,3.1,1.6
	c0.6,0.7,0.9,1.7,0.9,2.9c0,1-0.2,1.8-0.7,2.5c-0.5,0.7-1.1,1.3-2,1.6C835.1,376.1,834.1,376.3,832.8,376.3z M847.5,376.3
	c-2.1,0-3.7-0.7-4.8-2c-1.1-1.4-1.7-3.5-1.7-6.4c0-2.9,0.6-5,1.7-6.4c1.1-1.4,2.7-2,4.8-2c2.1,0,3.7,0.7,4.8,2
	c1.1,1.4,1.7,3.5,1.7,6.3s-0.6,5-1.7,6.4C851.1,375.6,849.5,376.3,847.5,376.3z M847.5,374.4c0.9,0,1.6-0.2,2.2-0.6
	c0.6-0.4,1.1-1.1,1.4-2c0.3-0.9,0.5-2.2,0.5-3.8c0-1.6-0.2-2.9-0.5-3.9c-0.3-1-0.8-1.6-1.4-2c-0.6-0.4-1.3-0.6-2.2-0.6
	s-1.6,0.2-2.2,0.6c-0.6,0.4-1.1,1.1-1.4,2c-0.3,0.9-0.5,2.2-0.5,3.8c0,1.6,0.2,2.9,0.5,3.9c0.3,1,0.8,1.6,1.4,2.1
	C845.8,374.2,846.6,374.4,847.5,374.4z M857.3,359.7h2l0.2,2.2h0.2c0.5-0.8,1.1-1.3,1.9-1.7c0.8-0.4,1.6-0.6,2.5-0.6
	c0.4,0,0.8,0,1.1,0.1v2.2c-0.3,0-0.7-0.1-1.2-0.1c-0.8,0-1.6,0.2-2.4,0.6c-0.8,0.4-1.4,1-1.8,1.8V376h-2.3V359.7z M871.4,359.5
	c1.3,0,2.5,0.2,3.3,0.6c0.9,0.4,1.5,1,2,1.8c0.4,0.8,0.7,2,0.7,3.4V376h-2l-0.2-1.8H875c-0.5,0.7-1.1,1.2-1.9,1.5
	c-0.8,0.3-1.6,0.5-2.5,0.5c-0.9,0-1.8-0.2-2.5-0.5c-0.7-0.4-1.3-0.9-1.6-1.5s-0.6-1.4-0.6-2.4c0-1.5,0.5-2.6,1.4-3.4
	c0.9-0.8,2.3-1.3,4.3-1.5l3.4-0.4v-1.5c0-1-0.1-1.7-0.4-2.3c-0.3-0.5-0.7-0.9-1.3-1.1c-0.6-0.2-1.3-0.3-2.2-0.3
	c-0.6,0-1.3,0.1-2,0.2c-0.7,0.1-1.4,0.3-2.1,0.5v-1.9c0.6-0.2,1.3-0.4,2.1-0.5C869.9,359.5,870.7,359.5,871.4,359.5z M871.3,374.4
	c0.7,0,1.4-0.2,2-0.5c0.7-0.3,1.2-0.8,1.7-1.5v-4.2l-3.2,0.3c-1.2,0.1-2,0.4-2.6,0.9c-0.5,0.5-0.8,1.2-0.8,2.1
	c0,0.9,0.2,1.6,0.7,2.1C869.6,374.2,870.3,374.4,871.3,374.4z M881.3,359.7h2l0.2,2.2h0.2c0.5-0.8,1.1-1.3,1.9-1.7
	c0.8-0.4,1.6-0.6,2.5-0.6c0.4,0,0.8,0,1.1,0.1v2.2c-0.3,0-0.7-0.1-1.2-0.1c-0.8,0-1.6,0.2-2.4,0.6c-0.8,0.4-1.4,1-1.8,1.8V376h-2.3
	V359.7z M898.1,374.2c0.5,0,1.1-0.1,1.8-0.2v2c-0.8,0.2-1.5,0.3-2.3,0.3c-1.6,0-2.8-0.4-3.6-1.2c-0.8-0.8-1.2-2.1-1.2-3.9v-9.5h-2.9
	v-1.9h2.9l0.4-5.9h2v5.9h4.6v1.9H895v9.1c0,1.3,0.2,2.2,0.7,2.7C896.3,374,897,374.2,898.1,374.2z M913.2,368.6h-9.7
	c0,1.4,0.2,2.5,0.6,3.4c0.4,0.8,0.9,1.4,1.7,1.8c0.7,0.4,1.7,0.5,2.9,0.5c1.1,0,2.3-0.2,3.8-0.6v1.9c-1.4,0.4-2.7,0.6-4,0.6
	c-1.6,0-3-0.3-4-0.8c-1.1-0.6-1.9-1.5-2.4-2.7c-0.5-1.2-0.8-2.9-0.8-4.9c0-2.8,0.5-4.9,1.6-6.3c1.1-1.4,2.6-2.1,4.6-2.1
	c1.9,0,3.4,0.7,4.4,2c1,1.4,1.5,3.5,1.5,6.4V368.6z M907.4,361.2c-1.2,0-2.1,0.4-2.8,1.3c-0.7,0.9-1,2.4-1,4.5h7.4
	c0-1.5-0.2-2.6-0.5-3.5c-0.3-0.9-0.7-1.5-1.2-1.8C908.8,361.4,908.1,361.2,907.4,361.2z M538.5,414.3c-1.8,0-3.2-0.6-4.3-1.9
	c-1.1-1.3-1.6-3.3-1.6-6.2c0-2.9,0.7-5.1,2-6.6c1.3-1.4,3.3-2.2,5.8-2.2c0.7,0,1.4,0.1,2.3,0.2v-7.9h2.3V414h-2l-0.2-1.7h-0.1
	c-0.5,0.6-1,1.1-1.7,1.4C540.1,414.1,539.3,414.3,538.5,414.3z M539,412.3c0.7,0,1.4-0.2,2-0.5c0.6-0.3,1.1-0.8,1.5-1.5v-10.7
	c-0.3-0.1-0.7-0.1-1.1-0.1c-0.4,0-0.8-0.1-1.2-0.1c-1.8,0-3.1,0.5-4,1.6c-0.9,1-1.3,2.7-1.3,5c0,1.6,0.2,2.9,0.5,3.8
	c0.3,0.9,0.8,1.6,1.4,1.9C537.4,412.1,538.1,412.3,539,412.3z M560.3,406.6h-9.7c0,1.4,0.2,2.5,0.6,3.4c0.4,0.8,0.9,1.4,1.7,1.8
	c0.7,0.4,1.7,0.5,2.9,0.5c1.1,0,2.3-0.2,3.8-0.6v1.9c-1.4,0.4-2.7,0.6-4,0.6c-1.6,0-3-0.3-4.1-0.8c-1.1-0.6-1.9-1.5-2.4-2.7
	c-0.5-1.2-0.8-2.9-0.8-4.9c0-2.8,0.5-4.9,1.6-6.3c1.1-1.4,2.6-2.1,4.6-2.1c1.9,0,3.3,0.7,4.3,2c1,1.4,1.5,3.5,1.5,6.4V406.6z
	 M554.4,399.2c-1.2,0-2.1,0.4-2.8,1.3c-0.7,0.9-1,2.4-1,4.5h7.4c0-1.5-0.2-2.6-0.5-3.5c-0.3-0.9-0.7-1.5-1.2-1.8
	C555.8,399.4,555.1,399.2,554.4,399.2z M585.6,397.5c1.4,0,2.5,0.4,3.4,1.3c0.8,0.9,1.2,2.3,1.2,4.2v11h-2.3v-10.9
	c0-2.3-1-3.5-2.9-3.5c-0.7,0-1.3,0.2-2,0.5c-0.7,0.3-1.2,0.9-1.7,1.6c0,0.3,0.1,0.8,0.1,1.2V414h-2.3v-10.9c0-1.3-0.2-2.2-0.7-2.7
	c-0.5-0.5-1.2-0.8-2-0.8c-0.7,0-1.4,0.2-2.1,0.6c-0.7,0.4-1.3,0.9-1.7,1.7V414h-2.3v-16.3h2l0.2,1.8h0.1c0.6-0.7,1.3-1.2,2-1.5
	c0.8-0.4,1.6-0.5,2.4-0.5c1.9,0,3.2,0.8,3.9,2.3c0.7-0.8,1.4-1.4,2.2-1.8C583.9,397.7,584.8,397.5,585.6,397.5z M605.5,406.6h-9.7
	c0,1.4,0.2,2.5,0.6,3.4c0.4,0.8,0.9,1.4,1.7,1.8c0.7,0.4,1.7,0.5,2.9,0.5c1.1,0,2.3-0.2,3.8-0.6v1.9c-1.4,0.4-2.7,0.6-4,0.6
	c-1.6,0-3-0.3-4-0.8c-1.1-0.6-1.9-1.5-2.4-2.7c-0.5-1.2-0.8-2.9-0.8-4.9c0-2.8,0.5-4.9,1.6-6.3c1.1-1.4,2.6-2.1,4.6-2.1
	c1.9,0,3.3,0.7,4.3,2c1,1.4,1.5,3.5,1.5,6.4V406.6z M599.6,399.2c-1.2,0-2.1,0.4-2.8,1.3c-0.6,0.9-1,2.4-1,4.5h7.4
	c0-1.5-0.2-2.6-0.5-3.5c-0.3-0.9-0.7-1.5-1.2-1.8C601,399.4,600.4,399.2,599.6,399.2z M606.1,419.9c0.9-1.3,1.6-2.6,2-3.9
	c0.4-1.3,0.6-2.8,0.6-4.5v-13.7h2.3v13.6c0,1.3-0.1,2.5-0.3,3.6c-0.2,1.1-0.6,2.1-1,3.1c-0.5,1-1.1,2-1.9,3L606.1,419.9z
	 M609.8,394.1c-0.5,0-0.9-0.1-1.2-0.4c-0.3-0.3-0.4-0.6-0.4-1.1s0.1-0.8,0.4-1.1c0.3-0.3,0.7-0.4,1.2-0.4c0.5,0,0.9,0.1,1.2,0.4
	c0.3,0.3,0.4,0.6,0.4,1.1s-0.1,0.8-0.4,1.1C610.8,394,610.4,394.1,609.8,394.1z M620.9,414.3c-2.1,0-3.7-0.7-4.8-2
	c-1.1-1.4-1.7-3.5-1.7-6.4c0-2.9,0.6-5,1.7-6.4c1.1-1.4,2.7-2,4.8-2c2.1,0,3.7,0.7,4.8,2c1.1,1.4,1.7,3.5,1.7,6.3s-0.6,5-1.7,6.4
	C624.5,413.6,622.9,414.3,620.9,414.3z M620.9,412.4c0.9,0,1.6-0.2,2.2-0.6c0.6-0.4,1.1-1.1,1.4-2c0.3-0.9,0.5-2.2,0.5-3.8
	c0-1.6-0.2-2.9-0.5-3.9c-0.3-1-0.8-1.6-1.4-2c-0.6-0.4-1.3-0.6-2.2-0.6c-0.9,0-1.6,0.2-2.2,0.6c-0.6,0.4-1.1,1.1-1.4,2
	c-0.3,0.9-0.5,2.2-0.5,3.8c0,1.6,0.2,2.9,0.5,3.9c0.3,1,0.8,1.6,1.4,2.1C619.2,412.2,620,412.4,620.9,412.4z M630.7,397.7h2l0.2,2.2
	h0.2c0.5-0.8,1.1-1.3,1.9-1.7c0.8-0.4,1.6-0.6,2.5-0.6c0.4,0,0.8,0,1.1,0.1v2.2c-0.3,0-0.7-0.1-1.2-0.1c-0.8,0-1.6,0.2-2.4,0.6
	c-0.8,0.4-1.4,1-1.8,1.8V414h-2.3V397.7z M663,397.5c1.4,0,2.5,0.4,3.4,1.3c0.8,0.9,1.2,2.3,1.2,4.2v11h-2.3v-10.9
	c0-2.3-1-3.5-2.8-3.5c-0.7,0-1.3,0.2-2,0.5c-0.7,0.3-1.2,0.9-1.7,1.6c0,0.3,0.1,0.8,0.1,1.2V414h-2.3v-10.9c0-1.3-0.2-2.2-0.7-2.7
	c-0.5-0.5-1.2-0.8-2-0.8c-0.7,0-1.4,0.2-2.1,0.6c-0.7,0.4-1.3,0.9-1.7,1.7V414h-2.3v-16.3h2l0.2,1.8h0.2c0.6-0.7,1.3-1.2,2-1.5
	c0.8-0.4,1.6-0.5,2.4-0.5c1.9,0,3.2,0.8,3.9,2.3c0.7-0.8,1.4-1.4,2.2-1.8C661.3,397.7,662.1,397.5,663,397.5z M676.1,397.5
	c1.3,0,2.5,0.2,3.3,0.6c0.9,0.4,1.5,1,2,1.8c0.4,0.8,0.7,2,0.7,3.4V414h-2l-0.2-1.8h-0.2c-0.5,0.7-1.1,1.2-1.9,1.5
	c-0.8,0.3-1.6,0.5-2.5,0.5c-1,0-1.8-0.2-2.5-0.5c-0.7-0.4-1.3-0.9-1.6-1.5s-0.6-1.4-0.6-2.4c0-1.5,0.5-2.6,1.4-3.4
	c0.9-0.8,2.3-1.3,4.3-1.5l3.4-0.4v-1.5c0-1-0.1-1.7-0.4-2.3c-0.3-0.5-0.7-0.9-1.3-1.1c-0.6-0.2-1.3-0.3-2.2-0.3
	c-0.6,0-1.3,0.1-2,0.2c-0.7,0.1-1.4,0.3-2.1,0.5v-1.9c0.6-0.2,1.3-0.4,2.1-0.5C674.6,397.5,675.4,397.5,676.1,397.5z M676,412.4
	c0.7,0,1.4-0.2,2-0.5c0.6-0.3,1.2-0.8,1.7-1.5v-4.2l-3.2,0.3c-1.2,0.1-2,0.4-2.6,0.9c-0.5,0.5-0.8,1.2-0.8,2.1
	c0,0.9,0.2,1.6,0.7,2.1C674.3,412.2,675,412.4,676,412.4z M686.1,397.7h2l0.2,1.8h0.1c0.6-0.7,1.3-1.2,2.1-1.5
	c0.8-0.4,1.7-0.5,2.6-0.5c1.5,0,2.7,0.4,3.5,1.3c0.9,0.9,1.3,2.2,1.3,4.2V414h-2.3v-10.9c0-1.3-0.3-2.2-0.8-2.7
	c-0.5-0.5-1.3-0.8-2.3-0.8c-0.8,0-1.5,0.2-2.3,0.5c-0.8,0.4-1.4,0.9-1.8,1.7V414h-2.3V397.7z M713.1,406.6h-9.7
	c0,1.4,0.2,2.5,0.6,3.4c0.4,0.8,0.9,1.4,1.7,1.8c0.7,0.4,1.7,0.5,2.9,0.5c1.1,0,2.3-0.2,3.8-0.6v1.9c-1.4,0.4-2.7,0.6-4,0.6
	c-1.6,0-3-0.3-4-0.8c-1.1-0.6-1.9-1.5-2.4-2.7c-0.5-1.2-0.8-2.9-0.8-4.9c0-2.8,0.5-4.9,1.6-6.3s2.6-2.1,4.6-2.1c1.9,0,3.3,0.7,4.3,2
	c1,1.4,1.5,3.5,1.5,6.4V406.6z M707.3,399.2c-1.2,0-2.1,0.4-2.8,1.3c-0.6,0.9-1,2.4-1,4.5h7.4c0-1.5-0.2-2.6-0.5-3.5
	c-0.3-0.9-0.7-1.5-1.2-1.8C708.7,399.4,708,399.2,707.3,399.2z M716.3,397.7h2l0.2,2.2h0.2c0.5-0.8,1.1-1.3,1.9-1.7
	c0.8-0.4,1.6-0.6,2.5-0.6c0.4,0,0.8,0,1.1,0.1v2.2c-0.3,0-0.7-0.1-1.2-0.1c-0.8,0-1.6,0.2-2.4,0.6c-0.8,0.4-1.4,1-1.8,1.8V414h-2.3
	V397.7z M730.4,397.5c1.4,0,2.5,0.2,3.3,0.6c0.9,0.4,1.5,1,2,1.8c0.4,0.8,0.7,2,0.7,3.4V414h-2l-0.2-1.8H734
	c-0.5,0.7-1.1,1.2-1.9,1.5c-0.8,0.3-1.6,0.5-2.5,0.5c-1,0-1.8-0.2-2.5-0.5c-0.7-0.4-1.3-0.9-1.6-1.5s-0.6-1.4-0.6-2.4
	c0-1.5,0.5-2.6,1.4-3.4c0.9-0.8,2.4-1.3,4.3-1.5l3.4-0.4v-1.5c0-1-0.1-1.7-0.4-2.3c-0.3-0.5-0.7-0.9-1.3-1.1
	c-0.6-0.2-1.3-0.3-2.2-0.3c-0.6,0-1.3,0.1-2,0.2c-0.7,0.1-1.4,0.3-2.1,0.5v-1.9c0.6-0.2,1.3-0.4,2.1-0.5
	C728.9,397.5,729.7,397.5,730.4,397.5z M730.3,412.4c0.7,0,1.4-0.2,2-0.5c0.6-0.3,1.2-0.8,1.7-1.5v-4.2l-3.2,0.3
	c-1.2,0.1-2,0.4-2.6,0.9c-0.6,0.5-0.8,1.2-0.8,2.1c0,0.9,0.2,1.6,0.7,2.1C728.6,412.2,729.3,412.4,730.3,412.4z M741.5,414.2
	c-0.5,0-0.9-0.1-1.2-0.4s-0.5-0.7-0.5-1.2s0.2-0.9,0.5-1.2c0.3-0.3,0.7-0.4,1.2-0.4s0.9,0.1,1.2,0.4c0.3,0.3,0.5,0.7,0.5,1.2
	c0,0.5-0.2,0.9-0.5,1.2C742.4,414,742,414.2,741.5,414.2z"/>
<image style="overflow:visible;" width="958" height="639" xlink:href="../../../../../Users/MAURICIO/Downloads/image-removebg-preview.png"  transform="matrix(1 0 0 1 474.742 997.2228)">
</image>
</svg>
