<?xml version="1.0" encoding="utf-8"?>
<!-- Generator: Adobe Illustrator 23.0.3, SVG Export Plug-In . SVG Version: 6.00 Build 0)  -->
<svg version="1.1" id="Capa_1" xmlns="http://www.w3.org/2000/svg" xmlns:xlink="http://www.w3.org/1999/xlink" x="0px" y="0px"
	 viewBox="0 0 1058 369.4" style="enable-background:new 0 0 1058 369.4;" xml:space="preserve">
<style type="text/css">
	.st0{fill:#001B71;}
	.st1{fill:#009EFF;}
	.st2{fill:#FFFFFF;}
</style>
<path class="st0" d="M133,149.4l-7.8-10.8c-0.5,0-1,0.1-1.5,0.1c-1,0-2,0-3.1-0.1v10.9H118v-25.5c2.2-0.4,4.3-0.6,6.4-0.6
	c3.3,0,5.7,0.6,7.3,1.9c1.6,1.3,2.4,3.2,2.4,5.7c0,2-0.5,3.6-1.5,4.8c-1,1.2-2.5,2.1-4.5,2.6l8.1,11.2H133z M123.8,136.4
	c2.6,0,4.6-0.4,5.8-1.3c1.2-0.9,1.8-2.3,1.8-4.2c0-1.9-0.5-3.3-1.6-4.1c-1.1-0.9-2.8-1.3-5.2-1.3c-1.3,0-2.6,0.1-3.8,0.3v10.5
	C121.9,136.4,123,136.4,123.8,136.4z M151.4,140.8h-11.3c0,1.7,0.3,3,0.7,3.9c0.4,1,1.1,1.7,1.9,2.1c0.9,0.4,2,0.6,3.4,0.6
	c1.3,0,2.7-0.2,4.4-0.7v2.3c-1.6,0.5-3.2,0.7-4.7,0.7c-1.9,0-3.5-0.3-4.7-1c-1.2-0.7-2.2-1.7-2.8-3.2s-0.9-3.3-0.9-5.7
	c0-3.3,0.6-5.8,1.9-7.4c1.3-1.6,3-2.4,5.3-2.4c2.2,0,3.9,0.8,5.1,2.4c1.2,1.6,1.8,4.1,1.8,7.5V140.8z M144.6,132.1
	c-1.4,0-2.4,0.5-3.2,1.6c-0.8,1-1.2,2.8-1.2,5.3h8.6c0-1.7-0.2-3-0.6-4c-0.3-1-0.8-1.7-1.4-2.1C146.2,132.3,145.5,132.1,144.6,132.1
	z M155.1,130.4h2.3l0.2,2h0.2c0.5-0.7,1.2-1.2,2-1.6c0.8-0.4,1.8-0.6,2.8-0.6c2.1,0,3.8,0.7,5,2.2c1.3,1.5,1.9,3.9,1.9,7.2
	c0,3.4-0.8,6-2.3,7.7c-1.5,1.7-3.8,2.5-6.7,2.5c-0.8,0-1.7-0.1-2.6-0.2v7.6h-2.7V130.4z M160.6,147.4c2.1,0,3.6-0.6,4.7-1.8
	c1-1.2,1.6-3.2,1.6-5.9c0-2.7-0.4-4.6-1.3-5.7c-0.8-1.1-2-1.6-3.5-1.6c-0.8,0-1.6,0.2-2.3,0.6c-0.7,0.4-1.3,1-1.8,1.7v12.5
	c0.4,0.1,0.8,0.1,1.3,0.2C159.7,147.4,160.1,147.4,160.6,147.4z M180.2,149.7c-2.4,0-4.3-0.8-5.6-2.4c-1.3-1.6-2-4.1-2-7.4
	c0-3.4,0.7-5.8,2-7.4c1.3-1.6,3.2-2.4,5.6-2.4c2.4,0,4.3,0.8,5.6,2.4c1.3,1.6,2,4.1,2,7.4c0,3.3-0.7,5.8-2,7.4
	C184.5,148.9,182.6,149.7,180.2,149.7z M180.2,147.5c1,0,1.9-0.2,2.6-0.7c0.7-0.5,1.3-1.3,1.6-2.4c0.4-1.1,0.6-2.6,0.6-4.5
	c0-1.9-0.2-3.4-0.6-4.5c-0.4-1.1-0.9-1.9-1.6-2.4s-1.6-0.7-2.6-0.7c-1,0-1.9,0.2-2.6,0.7c-0.7,0.5-1.2,1.3-1.6,2.4
	c-0.4,1.1-0.6,2.6-0.6,4.4c0,1.9,0.2,3.4,0.6,4.5c0.4,1.1,0.9,1.9,1.6,2.4C178.3,147.2,179.2,147.5,180.2,147.5z M191.7,130.4h2.3
	l0.2,2.5h0.2c0.6-0.9,1.3-1.6,2.2-2c0.9-0.5,1.9-0.7,2.9-0.7c0.5,0,0.9,0,1.3,0.1v2.6c-0.4-0.1-0.9-0.1-1.4-0.1
	c-1,0-1.9,0.2-2.8,0.7c-0.9,0.5-1.6,1.2-2.1,2v13.8h-2.7V130.4z M211.3,147.3c0.6,0,1.3-0.1,2.1-0.3v2.3c-0.9,0.2-1.8,0.3-2.7,0.3
	c-1.9,0-3.3-0.5-4.3-1.5c-1-1-1.5-2.5-1.5-4.6v-11h-3.4v-2.3h3.4l0.4-6.9h2.3v6.9h5.4v2.3h-5.4v10.6c0,1.5,0.3,2.5,0.8,3.1
	C209.1,147,210,147.3,211.3,147.3z M229,140.8h-11.3c0,1.7,0.3,3,0.7,3.9c0.4,1,1.1,1.7,1.9,2.1c0.9,0.4,2,0.6,3.4,0.6
	c1.3,0,2.7-0.2,4.4-0.7v2.3c-1.6,0.5-3.2,0.7-4.7,0.7c-1.9,0-3.5-0.3-4.7-1c-1.2-0.7-2.2-1.7-2.8-3.2s-0.9-3.3-0.9-5.7
	c0-3.3,0.6-5.8,1.9-7.4c1.3-1.6,3-2.4,5.3-2.4c2.2,0,3.9,0.8,5.1,2.4c1.2,1.6,1.8,4.1,1.8,7.5V140.8z M222.1,132.1
	c-1.4,0-2.4,0.5-3.2,1.6c-0.8,1-1.2,2.8-1.2,5.3h8.6c0-1.7-0.2-3-0.6-4c-0.3-1-0.8-1.7-1.4-2.1C223.7,132.3,223,132.1,222.1,132.1z
	 M236.8,149.7c-1.8,0-3.4-0.2-4.8-0.7v-2.2c1.7,0.5,3.3,0.8,4.8,0.8c1.4,0,2.5-0.3,3.3-0.8c0.7-0.6,1.1-1.4,1.1-2.4
	c0-0.9-0.2-1.5-0.7-2c-0.4-0.5-1.1-0.8-2.1-1.1l-2.2-0.5c-1.6-0.4-2.8-1-3.5-1.8c-0.7-0.8-1.1-1.9-1.1-3.3c0-1.1,0.3-2,0.8-2.8
	c0.5-0.8,1.3-1.5,2.4-1.9c1.1-0.5,2.4-0.7,3.9-0.7c1.4,0,2.8,0.2,4.1,0.5v2.2c-1.3-0.3-2.6-0.5-4-0.5c-1.6,0-2.7,0.3-3.5,0.9
	c-0.7,0.6-1.1,1.3-1.1,2.3c0,0.8,0.2,1.4,0.6,1.9c0.4,0.5,1.1,0.8,2,1.1l2.2,0.5c1.7,0.4,2.9,1,3.6,1.9c0.7,0.8,1.1,1.9,1.1,3.4
	c0,1.1-0.3,2.1-0.8,3c-0.5,0.8-1.3,1.5-2.4,1.9C239.5,149.5,238.2,149.7,236.8,149.7z M270.4,125.8h-12.1v9.2h10.5v2.4h-10.5v11.9
	h-2.8v-25.9h14.9V125.8z M273.4,149.4v-19h2.7v19H273.4z M274.7,126.2c-0.6,0-1.1-0.2-1.4-0.5c-0.3-0.3-0.5-0.7-0.5-1.3
	c0-0.5,0.2-1,0.5-1.3c0.3-0.3,0.8-0.5,1.4-0.5c0.6,0,1.1,0.2,1.4,0.5c0.3,0.3,0.5,0.7,0.5,1.3c0,0.5-0.2,1-0.5,1.3
	C275.8,126.1,275.3,126.2,274.7,126.2z M281,130.4h2.3l0.2,2.1h0.2c0.7-0.8,1.5-1.4,2.5-1.8c0.9-0.4,2-0.6,3-0.6
	c1.8,0,3.1,0.5,4.1,1.5c1,1,1.5,2.6,1.5,4.9v12.9H292v-12.8c0-1.5-0.3-2.5-0.9-3.1c-0.6-0.6-1.5-0.9-2.6-0.9c-0.9,0-1.8,0.2-2.6,0.6
	c-0.9,0.4-1.6,1.1-2.2,1.9v14.3H281V130.4z M304.7,130.1c1.6,0,2.9,0.2,3.9,0.6c1,0.4,1.8,1.1,2.3,2.1c0.5,1,0.8,2.3,0.8,4v12.5
	h-2.3l-0.2-2.1H309c-0.6,0.8-1.3,1.4-2.2,1.8c-0.9,0.4-1.8,0.6-2.9,0.6c-1.1,0-2.1-0.2-2.9-0.6s-1.5-1-1.9-1.8
	c-0.4-0.8-0.7-1.7-0.7-2.8c0-1.7,0.5-3,1.6-3.9c1.1-0.9,2.7-1.5,5-1.7l3.9-0.4v-1.8c0-1.1-0.2-2-0.5-2.6c-0.3-0.6-0.8-1.1-1.5-1.3
	c-0.7-0.3-1.5-0.4-2.6-0.4c-0.7,0-1.5,0.1-2.3,0.2c-0.8,0.1-1.7,0.3-2.5,0.6v-2.3c0.7-0.2,1.6-0.4,2.5-0.6
	C303,130.2,303.9,130.1,304.7,130.1z M304.6,147.5c0.8,0,1.6-0.2,2.4-0.6c0.8-0.4,1.4-1,2-1.8v-4.8l-3.8,0.4c-1.4,0.1-2.4,0.5-3,1.1
	c-0.6,0.6-1,1.4-1,2.4c0,1.1,0.3,1.9,0.9,2.5C302.6,147.3,303.5,147.5,304.6,147.5z M316.3,130.4h2.3l0.2,2.1h0.2
	c0.7-0.8,1.5-1.4,2.5-1.8c0.9-0.4,2-0.6,3-0.6c1.8,0,3.1,0.5,4.1,1.5c1,1,1.5,2.6,1.5,4.9v12.9h-2.7v-12.8c0-1.5-0.3-2.5-0.9-3.1
	c-0.6-0.6-1.5-0.9-2.6-0.9c-0.9,0-1.8,0.2-2.6,0.6c-0.9,0.4-1.6,1.1-2.2,1.9v14.3h-2.7V130.4z M341.8,149.7c-2.6,0-4.6-0.8-5.9-2.3
	c-1.3-1.6-2-4.1-2-7.5c0-3.4,0.7-5.9,2.2-7.5c1.4-1.6,3.6-2.3,6.5-2.3c1.3,0,2.5,0.1,3.6,0.4v2.3c-1.1-0.3-2.2-0.4-3.2-0.4
	c-1.4,0-2.6,0.2-3.5,0.7c-0.9,0.5-1.6,1.2-2,2.3c-0.4,1.1-0.6,2.5-0.6,4.4c0,1.9,0.2,3.4,0.6,4.5c0.4,1.1,1,1.9,1.8,2.4
	c0.8,0.5,1.8,0.7,3.1,0.7c1.1,0,2.4-0.2,3.9-0.7v2.3C344.7,149.4,343.2,149.7,341.8,149.7z M349.1,149.4v-19h2.7v19H349.1z
	 M350.5,126.2c-0.6,0-1.1-0.2-1.4-0.5c-0.3-0.3-0.5-0.7-0.5-1.3c0-0.5,0.2-1,0.5-1.3c0.3-0.3,0.8-0.5,1.4-0.5c0.6,0,1.1,0.2,1.4,0.5
	c0.3,0.3,0.5,0.7,0.5,1.3c0,0.5-0.2,1-0.5,1.3C351.6,126.1,351.1,126.2,350.5,126.2z M369.8,140.8h-11.3c0,1.7,0.3,3,0.7,3.9
	c0.4,1,1.1,1.7,1.9,2.1c0.9,0.4,2,0.6,3.4,0.6c1.3,0,2.7-0.2,4.4-0.7v2.3c-1.6,0.5-3.2,0.7-4.7,0.7c-1.9,0-3.5-0.3-4.7-1
	c-1.2-0.7-2.2-1.7-2.8-3.2s-0.9-3.3-0.9-5.7c0-3.3,0.6-5.8,1.9-7.4c1.3-1.6,3-2.4,5.3-2.4c2.2,0,3.9,0.8,5.1,2.4
	c1.2,1.6,1.8,4.1,1.8,7.5V140.8z M362.9,132.1c-1.4,0-2.5,0.5-3.2,1.6c-0.8,1-1.2,2.8-1.2,5.3h8.6c0-1.7-0.2-3-0.6-4
	c-0.3-1-0.8-1.7-1.4-2.1C364.6,132.3,363.8,132.1,362.9,132.1z M373.5,130.4h2.3l0.2,2.5h0.2c0.6-0.9,1.3-1.6,2.2-2
	c0.9-0.5,1.9-0.7,2.9-0.7c0.5,0,0.9,0,1.3,0.1v2.6c-0.4-0.1-0.9-0.1-1.4-0.1c-1,0-1.9,0.2-2.8,0.7c-0.9,0.5-1.6,1.2-2.1,2v13.8h-2.7
	V130.4z M391.5,149.7c-2.4,0-4.3-0.8-5.6-2.4c-1.3-1.6-2-4.1-2-7.4c0-3.4,0.7-5.8,2-7.4c1.3-1.6,3.2-2.4,5.6-2.4
	c2.4,0,4.3,0.8,5.6,2.4c1.3,1.6,2,4.1,2,7.4c0,3.3-0.7,5.8-2,7.4C395.7,148.9,393.9,149.7,391.5,149.7z M391.5,147.5
	c1,0,1.9-0.2,2.6-0.7c0.7-0.5,1.3-1.3,1.6-2.4c0.4-1.1,0.6-2.6,0.6-4.5c0-1.9-0.2-3.4-0.6-4.5c-0.4-1.1-0.9-1.9-1.6-2.4
	c-0.7-0.5-1.6-0.7-2.6-0.7c-1,0-1.9,0.2-2.6,0.7c-0.7,0.5-1.2,1.3-1.6,2.4c-0.4,1.1-0.6,2.6-0.6,4.4c0,1.9,0.2,3.4,0.6,4.5
	c0.4,1.1,0.9,1.9,1.6,2.4C389.6,147.2,390.4,147.5,391.5,147.5z M407,149.7c-1.8,0-3.4-0.2-4.8-0.7v-2.2c1.7,0.5,3.3,0.8,4.8,0.8
	c1.4,0,2.5-0.3,3.3-0.8c0.7-0.6,1.1-1.4,1.1-2.4c0-0.9-0.2-1.5-0.7-2c-0.4-0.5-1.1-0.8-2.1-1.1l-2.2-0.5c-1.6-0.4-2.8-1-3.5-1.8
	c-0.7-0.8-1.1-1.9-1.1-3.3c0-1.1,0.3-2,0.8-2.8c0.5-0.8,1.3-1.5,2.4-1.9c1.1-0.5,2.4-0.7,3.9-0.7c1.4,0,2.8,0.2,4.1,0.5v2.2
	c-1.3-0.3-2.6-0.5-4-0.5c-1.6,0-2.7,0.3-3.5,0.9c-0.7,0.6-1.1,1.3-1.1,2.3c0,0.8,0.2,1.4,0.6,1.9c0.4,0.5,1.1,0.8,2,1.1l2.2,0.5
	c1.7,0.4,2.9,1,3.6,1.9c0.7,0.8,1.1,1.9,1.1,3.4c0,1.1-0.3,2.1-0.8,3c-0.5,0.8-1.3,1.5-2.4,1.9C409.8,149.5,408.5,149.7,407,149.7z
	 M446.1,123.5h3.3v25.9h-2.6v-21.7l-7.9,18.1h-2.5l-7.9-17.9v21.5h-2.6v-25.9h3.3l8.5,19.5L446.1,123.5z M467.8,140.8h-11.3
	c0,1.7,0.3,3,0.7,3.9c0.4,1,1.1,1.7,1.9,2.1c0.9,0.4,2,0.6,3.4,0.6c1.3,0,2.7-0.2,4.4-0.7v2.3c-1.6,0.5-3.2,0.7-4.7,0.7
	c-1.9,0-3.5-0.3-4.7-1c-1.2-0.7-2.2-1.7-2.8-3.2s-0.9-3.3-0.9-5.7c0-3.3,0.6-5.8,1.9-7.4c1.3-1.6,3-2.4,5.3-2.4
	c2.2,0,3.9,0.8,5.1,2.4c1.2,1.6,1.8,4.1,1.8,7.5V140.8z M460.9,132.1c-1.4,0-2.4,0.5-3.2,1.6c-0.8,1-1.2,2.8-1.2,5.3h8.6
	c0-1.7-0.2-3-0.6-4c-0.3-1-0.8-1.7-1.4-2.1C462.6,132.3,461.8,132.1,460.9,132.1z M471.5,130.4h2.3l0.2,2.1h0.2
	c0.7-0.8,1.5-1.4,2.5-1.8c0.9-0.4,2-0.6,3-0.6c1.8,0,3.1,0.5,4.1,1.5c1,1,1.5,2.6,1.5,4.9v12.9h-2.7v-12.8c0-1.5-0.3-2.5-0.9-3.1
	c-0.6-0.6-1.5-0.9-2.6-0.9c-0.9,0-1.8,0.2-2.6,0.6c-0.9,0.4-1.6,1.1-2.2,1.9v14.3h-2.7V130.4z M494.1,149.7c-1.8,0-3.4-0.2-4.8-0.7
	v-2.2c1.7,0.5,3.3,0.8,4.8,0.8c1.4,0,2.5-0.3,3.3-0.8c0.7-0.6,1.1-1.4,1.1-2.4c0-0.9-0.2-1.5-0.7-2c-0.4-0.5-1.1-0.8-2.1-1.1
	l-2.2-0.5c-1.6-0.4-2.8-1-3.5-1.8c-0.7-0.8-1.1-1.9-1.1-3.3c0-1.1,0.3-2,0.8-2.8c0.5-0.8,1.3-1.5,2.4-1.9c1.1-0.5,2.4-0.7,3.9-0.7
	c1.4,0,2.8,0.2,4.1,0.5v2.2c-1.3-0.3-2.6-0.5-4-0.5c-1.6,0-2.7,0.3-3.5,0.9c-0.7,0.6-1.1,1.3-1.1,2.3c0,0.8,0.2,1.4,0.6,1.9
	c0.4,0.5,1.1,0.8,2,1.1l2.2,0.5c1.7,0.4,2.9,1,3.6,1.9c0.7,0.8,1.1,1.9,1.1,3.4c0,1.1-0.3,2.1-0.8,3c-0.5,0.8-1.3,1.5-2.4,1.9
	C496.8,149.5,495.6,149.7,494.1,149.7z M510,149.7c-1.7,0-3.1-0.5-4.1-1.5s-1.5-2.6-1.5-4.9v-12.9h2.7v12.8c0,1.5,0.3,2.5,0.9,3.1
	c0.6,0.6,1.5,0.9,2.6,0.9c0.8,0,1.7-0.2,2.6-0.6c0.9-0.4,1.6-1.1,2.1-1.9v-14.3h2.7v19h-2.3l-0.2-2h-0.2c-0.7,0.8-1.5,1.4-2.4,1.8
	C512,149.5,511,149.7,510,149.7z M528.2,130.1c1.6,0,2.9,0.2,3.9,0.6c1,0.4,1.8,1.1,2.3,2.1c0.5,1,0.8,2.3,0.8,4v12.5h-2.3l-0.2-2.1
	h-0.2c-0.6,0.8-1.3,1.4-2.2,1.8c-0.9,0.4-1.8,0.6-2.9,0.6c-1.1,0-2.1-0.2-2.9-0.6c-0.8-0.4-1.5-1-1.9-1.8c-0.4-0.8-0.7-1.7-0.7-2.8
	c0-1.7,0.5-3,1.6-3.9c1.1-0.9,2.7-1.5,5-1.7l3.9-0.4v-1.8c0-1.1-0.2-2-0.5-2.6c-0.3-0.6-0.8-1.1-1.5-1.3c-0.7-0.3-1.5-0.4-2.6-0.4
	c-0.7,0-1.5,0.1-2.3,0.2c-0.8,0.1-1.7,0.3-2.5,0.6v-2.3c0.7-0.2,1.6-0.4,2.5-0.6C526.4,130.2,527.3,130.1,528.2,130.1z M528,147.5
	c0.8,0,1.6-0.2,2.4-0.6c0.8-0.4,1.4-1,2-1.8v-4.8l-3.8,0.4c-1.4,0.1-2.4,0.5-3,1.1c-0.6,0.6-1,1.4-1,2.4c0,1.1,0.3,1.9,0.9,2.5
	C526.1,147.3,526.9,147.5,528,147.5z M539.8,149.4v-28.3h2.7v28.3H539.8z M560.5,140.8h-11.3c0,1.7,0.3,3,0.7,3.9
	c0.4,1,1.1,1.7,1.9,2.1c0.9,0.4,2,0.6,3.4,0.6c1.3,0,2.7-0.2,4.4-0.7v2.3c-1.6,0.5-3.2,0.7-4.7,0.7c-1.9,0-3.5-0.3-4.7-1
	c-1.2-0.7-2.2-1.7-2.8-3.2s-0.9-3.3-0.9-5.7c0-3.3,0.6-5.8,1.9-7.4c1.3-1.6,3-2.4,5.3-2.4c2.2,0,3.9,0.8,5.1,2.4
	c1.2,1.6,1.8,4.1,1.8,7.5V140.8z M553.6,132.1c-1.4,0-2.5,0.5-3.2,1.6c-0.8,1-1.2,2.8-1.2,5.3h8.6c0-1.7-0.2-3-0.6-4
	c-0.3-1-0.8-1.7-1.4-2.1C555.2,132.3,554.5,132.1,553.6,132.1z M568.3,149.7c-1.8,0-3.4-0.2-4.8-0.7v-2.2c1.7,0.5,3.3,0.8,4.8,0.8
	c1.4,0,2.5-0.3,3.3-0.8c0.7-0.6,1.1-1.4,1.1-2.4c0-0.9-0.2-1.5-0.7-2c-0.4-0.5-1.1-0.8-2.1-1.1l-2.2-0.5c-1.6-0.4-2.8-1-3.5-1.8
	c-0.7-0.8-1.1-1.9-1.1-3.3c0-1.1,0.3-2,0.8-2.8c0.5-0.8,1.3-1.5,2.4-1.9c1.1-0.5,2.4-0.7,3.9-0.7c1.4,0,2.8,0.2,4.1,0.5v2.2
	c-1.3-0.3-2.6-0.5-4-0.5c-1.6,0-2.7,0.3-3.5,0.9c-0.7,0.6-1.1,1.3-1.1,2.3c0,0.8,0.2,1.4,0.6,1.9c0.4,0.5,1.1,0.8,2,1.1l2.2,0.5
	c1.7,0.4,2.9,1,3.6,1.9c0.7,0.8,1.1,1.9,1.1,3.4c0,1.1-0.3,2.1-0.8,3c-0.5,0.8-1.3,1.5-2.4,1.9C571,149.5,569.7,149.7,568.3,149.7z
	 M580,149.6c-0.6,0-1.1-0.2-1.4-0.5c-0.4-0.3-0.5-0.8-0.5-1.4s0.2-1.1,0.5-1.4c0.4-0.4,0.8-0.5,1.4-0.5s1.1,0.2,1.4,0.5
	c0.4,0.3,0.5,0.8,0.5,1.4c0,0.6-0.2,1-0.5,1.4C581.1,149.4,580.6,149.6,580,149.6z"/>
<path class="st0" d="M118.3,19.8c2.1-0.4,4.1-0.6,6.1-0.6c3.3,0,5.8,0.7,7.5,2.2c1.7,1.4,2.5,3.7,2.5,6.7c0,5.9-3.5,8.8-10.4,8.8
	c-0.9,0-1.9,0-3-0.1v8.6h-2.8V19.8z M124.2,34.6c2.6,0,4.5-0.5,5.7-1.6c1.2-1,1.8-2.7,1.8-4.9c0-2.3-0.6-4-1.7-5
	c-1.1-1.1-2.9-1.6-5.3-1.6c-1.3,0-2.4,0.1-3.6,0.3v12.7C121.9,34.5,123,34.6,124.2,34.6z M138.4,26.4h2.3l0.2,2.5h0.2
	c0.6-0.9,1.3-1.6,2.2-2c0.9-0.5,1.9-0.7,2.9-0.7c0.5,0,0.9,0,1.3,0.1v2.6c-0.4-0.1-0.9-0.1-1.4-0.1c-1,0-1.9,0.2-2.8,0.7
	c-0.9,0.5-1.6,1.2-2.1,2v13.8h-2.7V26.4z M156.3,45.7c-2.4,0-4.3-0.8-5.6-2.4c-1.3-1.6-2-4.1-2-7.4c0-3.4,0.7-5.8,2-7.4
	c1.3-1.6,3.2-2.4,5.6-2.4c2.4,0,4.3,0.8,5.6,2.4c1.3,1.6,2,4.1,2,7.4c0,3.3-0.7,5.8-2,7.4C160.6,44.9,158.7,45.7,156.3,45.7z
	 M156.3,43.5c1,0,1.9-0.2,2.6-0.7c0.7-0.5,1.3-1.3,1.6-2.4c0.4-1.1,0.6-2.6,0.6-4.5c0-1.9-0.2-3.4-0.6-4.5c-0.4-1.1-0.9-1.9-1.6-2.4
	s-1.6-0.7-2.6-0.7c-1,0-1.9,0.2-2.6,0.7c-0.7,0.5-1.2,1.3-1.6,2.4c-0.4,1.1-0.6,2.6-0.6,4.4c0,1.9,0.2,3.4,0.6,4.5
	c0.4,1.1,0.9,1.9,1.6,2.4C154.4,43.2,155.3,43.5,156.3,43.5z M174.9,45.7c-2.6,0-4.6-0.8-5.9-2.3c-1.3-1.6-2-4.1-2-7.5
	c0-3.4,0.7-5.9,2.2-7.5c1.4-1.6,3.6-2.3,6.5-2.3c1.3,0,2.5,0.1,3.6,0.4v2.3c-1.1-0.3-2.2-0.4-3.2-0.4c-1.4,0-2.6,0.2-3.5,0.7
	c-0.9,0.5-1.6,1.2-2,2.3c-0.4,1.1-0.6,2.5-0.6,4.4c0,1.9,0.2,3.4,0.6,4.5c0.4,1.1,1,1.9,1.8,2.4c0.8,0.5,1.8,0.7,3.1,0.7
	c1.1,0,2.4-0.2,3.9-0.7V45C177.8,45.4,176.3,45.7,174.9,45.7z M195,36.8h-11.3c0,1.7,0.3,3,0.7,3.9c0.4,1,1.1,1.7,1.9,2.1
	c0.9,0.4,2,0.6,3.4,0.6c1.3,0,2.7-0.2,4.4-0.7V45c-1.6,0.5-3.2,0.7-4.7,0.7c-1.9,0-3.5-0.3-4.7-1c-1.2-0.7-2.2-1.7-2.8-3.2
	c-0.6-1.4-0.9-3.3-0.9-5.7c0-3.3,0.6-5.8,1.9-7.4c1.3-1.6,3-2.4,5.3-2.4c2.2,0,3.9,0.8,5.1,2.4c1.2,1.6,1.8,4.1,1.8,7.5V36.8z
	 M188.1,28.1c-1.4,0-2.4,0.5-3.2,1.6c-0.8,1-1.2,2.8-1.2,5.3h8.6c0-1.7-0.2-3-0.6-4c-0.3-1-0.8-1.7-1.4-2.1
	C189.8,28.3,189,28.1,188.1,28.1z M202.8,45.7c-1.8,0-3.4-0.2-4.8-0.7v-2.2c1.7,0.5,3.3,0.8,4.8,0.8c1.4,0,2.5-0.3,3.3-0.8
	c0.7-0.6,1.1-1.4,1.1-2.4c0-0.9-0.2-1.5-0.7-2c-0.4-0.5-1.1-0.8-2.1-1.1l-2.2-0.5c-1.6-0.4-2.8-1-3.5-1.8c-0.7-0.8-1.1-1.9-1.1-3.3
	c0-1.1,0.3-2,0.8-2.8c0.5-0.8,1.3-1.5,2.4-1.9c1.1-0.5,2.4-0.7,3.9-0.7c1.4,0,2.8,0.2,4.1,0.5v2.2c-1.3-0.3-2.6-0.5-4-0.5
	c-1.6,0-2.7,0.3-3.5,0.9c-0.7,0.6-1.1,1.3-1.1,2.3c0,0.8,0.2,1.4,0.6,1.9c0.4,0.5,1.1,0.8,2,1.1l2.2,0.5c1.7,0.4,2.9,1,3.6,1.9
	c0.7,0.8,1.1,1.9,1.1,3.4c0,1.1-0.3,2.1-0.8,3c-0.5,0.8-1.3,1.5-2.4,1.9C205.5,45.5,204.3,45.7,202.8,45.7z M218.5,26.1
	c1.6,0,2.9,0.2,3.9,0.6c1,0.4,1.8,1.1,2.3,2.1c0.5,1,0.8,2.3,0.8,4v12.5h-2.3l-0.2-2.1h-0.2c-0.6,0.8-1.3,1.4-2.2,1.8
	c-0.9,0.4-1.8,0.6-2.9,0.6c-1.1,0-2.1-0.2-2.9-0.6c-0.8-0.4-1.5-1-1.9-1.8c-0.4-0.8-0.7-1.7-0.7-2.8c0-1.7,0.5-3,1.6-3.9
	c1.1-0.9,2.7-1.5,5-1.7l3.9-0.4v-1.8c0-1.1-0.2-2-0.5-2.6c-0.3-0.6-0.8-1.1-1.5-1.3c-0.7-0.3-1.5-0.4-2.6-0.4
	c-0.7,0-1.5,0.1-2.3,0.2c-0.8,0.1-1.7,0.3-2.4,0.6v-2.3c0.7-0.2,1.6-0.4,2.5-0.6C216.8,26.2,217.7,26.1,218.5,26.1z M218.4,43.5
	c0.8,0,1.6-0.2,2.4-0.6c0.8-0.4,1.4-1,2-1.8v-4.8l-3.8,0.4c-1.4,0.1-2.4,0.5-3,1.1c-0.6,0.6-1,1.4-1,2.4c0,1.1,0.3,1.9,0.9,2.5
	C216.4,43.3,217.3,43.5,218.4,43.5z M248.1,26.1c1.6,0,3,0.5,3.9,1.5c1,1,1.5,2.6,1.5,4.9v12.8h-2.7V32.6c0-2.7-1.1-4.1-3.3-4.1
	c-0.8,0-1.5,0.2-2.3,0.6s-1.4,1-2,1.9c0,0.4,0.1,0.9,0.1,1.4v12.9h-2.7V32.6c0-1.5-0.3-2.5-0.9-3.2c-0.6-0.6-1.4-0.9-2.4-0.9
	c-0.8,0-1.6,0.2-2.4,0.6c-0.8,0.4-1.5,1.1-2,2v14.2h-2.7v-19h2.3l0.2,2.1h0.2c0.7-0.8,1.5-1.4,2.3-1.8c0.9-0.4,1.8-0.6,2.9-0.6
	c2.2,0,3.7,0.9,4.5,2.7c0.8-0.9,1.6-1.6,2.6-2C246.1,26.3,247.1,26.1,248.1,26.1z M258.2,45.4v-19h2.7v19H258.2z M259.5,22.2
	c-0.6,0-1.1-0.2-1.4-0.5c-0.3-0.3-0.5-0.7-0.5-1.3c0-0.5,0.2-1,0.5-1.3c0.3-0.3,0.8-0.5,1.4-0.5c0.6,0,1.1,0.2,1.4,0.5
	c0.3,0.3,0.5,0.7,0.5,1.3c0,0.5-0.2,1-0.5,1.3C260.6,22.1,260.1,22.2,259.5,22.2z M278.8,36.8h-11.3c0,1.7,0.3,3,0.7,3.9
	c0.4,1,1.1,1.7,1.9,2.1c0.9,0.4,2,0.6,3.4,0.6c1.3,0,2.7-0.2,4.4-0.7V45c-1.6,0.5-3.2,0.7-4.7,0.7c-1.9,0-3.5-0.3-4.7-1
	c-1.2-0.7-2.2-1.7-2.8-3.2s-0.9-3.3-0.9-5.7c0-3.3,0.6-5.8,1.9-7.4s3-2.4,5.3-2.4c2.2,0,3.9,0.8,5.1,2.4c1.2,1.6,1.8,4.1,1.8,7.5
	V36.8z M272,28.1c-1.4,0-2.5,0.5-3.2,1.6c-0.8,1-1.2,2.8-1.2,5.3h8.6c0-1.7-0.2-3-0.6-4c-0.3-1-0.8-1.7-1.4-2.1
	C273.6,28.3,272.9,28.1,272,28.1z M282.6,26.4h2.3l0.2,2.1h0.2c0.7-0.8,1.5-1.4,2.4-1.8c0.9-0.4,2-0.6,3-0.6c1.8,0,3.1,0.5,4.1,1.5
	c1,1,1.5,2.6,1.5,4.9v12.9h-2.7V32.6c0-1.5-0.3-2.5-0.9-3.1c-0.6-0.6-1.5-0.9-2.6-0.9c-0.9,0-1.8,0.2-2.6,0.6
	c-0.9,0.4-1.6,1.1-2.2,1.9v14.3h-2.7V26.4z M308.4,43.3c0.6,0,1.3-0.1,2.1-0.3v2.3c-0.9,0.2-1.8,0.3-2.7,0.3c-1.9,0-3.3-0.5-4.3-1.5
	c-1-1-1.5-2.5-1.5-4.6v-11h-3.4v-2.3h3.4l0.4-6.9h2.3v6.9h5.4v2.3h-5.4v10.6c0,1.5,0.3,2.5,0.8,3.1C306.3,43,307.2,43.3,308.4,43.3z
	 M319.6,45.7c-2.4,0-4.3-0.8-5.6-2.4c-1.3-1.6-2-4.1-2-7.4c0-3.4,0.7-5.8,2-7.4c1.3-1.6,3.2-2.4,5.6-2.4c2.4,0,4.3,0.8,5.6,2.4
	c1.3,1.6,2,4.1,2,7.4c0,3.3-0.7,5.8-2,7.4C323.9,44.9,322,45.7,319.6,45.7z M319.6,43.5c1,0,1.9-0.2,2.6-0.7
	c0.7-0.5,1.3-1.3,1.6-2.4c0.4-1.1,0.6-2.6,0.6-4.5c0-1.9-0.2-3.4-0.6-4.5c-0.4-1.1-0.9-1.9-1.6-2.4c-0.7-0.5-1.6-0.7-2.6-0.7
	s-1.9,0.2-2.6,0.7c-0.7,0.5-1.2,1.3-1.6,2.4c-0.4,1.1-0.6,2.6-0.6,4.4c0,1.9,0.2,3.4,0.6,4.5c0.4,1.1,0.9,1.9,1.6,2.4
	C317.7,43.2,318.6,43.5,319.6,43.5z M344.9,45.6c-1.8,0-3.6-0.1-5.5-0.3V19.8c2.2-0.4,4.3-0.6,6.2-0.6c4.1,0,7.1,1.1,9.2,3.2
	c2,2.2,3,5.5,3,10c0,3.1-0.5,5.6-1.4,7.5c-1,1.9-2.4,3.4-4.3,4.3C350.2,45.1,347.8,45.6,344.9,45.6z M345.5,43.2
	c2.1,0,3.9-0.4,5.3-1.1c1.4-0.7,2.4-1.9,3.1-3.5c0.7-1.6,1-3.7,1-6.2c0-2.5-0.3-4.6-1-6.2c-0.7-1.6-1.7-2.8-3-3.5
	c-1.4-0.7-3.1-1.1-5.2-1.1c-1,0-2.2,0.1-3.5,0.3V43C343.1,43.1,344.2,43.2,345.5,43.2z M375,36.8h-11.3c0,1.7,0.3,3,0.7,3.9
	c0.4,1,1.1,1.7,1.9,2.1c0.9,0.4,2,0.6,3.4,0.6c1.3,0,2.7-0.2,4.4-0.7V45c-1.6,0.5-3.2,0.7-4.7,0.7c-1.9,0-3.5-0.3-4.7-1
	c-1.2-0.7-2.2-1.7-2.8-3.2s-0.9-3.3-0.9-5.7c0-3.3,0.6-5.8,1.9-7.4c1.3-1.6,3-2.4,5.3-2.4c2.2,0,3.9,0.8,5.1,2.4
	c1.2,1.6,1.8,4.1,1.8,7.5V36.8z M368.2,28.1c-1.4,0-2.5,0.5-3.2,1.6c-0.8,1-1.2,2.8-1.2,5.3h8.6c0-1.7-0.2-3-0.6-4
	c-0.3-1-0.8-1.7-1.4-2.1C369.8,28.3,369.1,28.1,368.2,28.1z M387,45.4V19.5h2.8v23.5h11.9v2.4H387z M409.5,26.1
	c1.6,0,2.9,0.2,3.9,0.6c1,0.4,1.8,1.1,2.3,2.1c0.5,1,0.8,2.3,0.8,4v12.5h-2.3l-0.2-2.1h-0.2c-0.6,0.8-1.3,1.4-2.2,1.8
	c-0.9,0.4-1.8,0.6-2.9,0.6c-1.1,0-2.1-0.2-2.9-0.6s-1.5-1-1.9-1.8c-0.4-0.8-0.7-1.7-0.7-2.8c0-1.7,0.5-3,1.6-3.9
	c1.1-0.9,2.7-1.5,5-1.7l3.9-0.4v-1.8c0-1.1-0.2-2-0.5-2.6c-0.3-0.6-0.8-1.1-1.5-1.3c-0.7-0.3-1.5-0.4-2.6-0.4
	c-0.7,0-1.5,0.1-2.3,0.2c-0.8,0.1-1.7,0.3-2.4,0.6v-2.3c0.7-0.2,1.6-0.4,2.5-0.6C407.8,26.2,408.7,26.1,409.5,26.1z M409.4,43.5
	c0.8,0,1.6-0.2,2.4-0.6c0.8-0.4,1.4-1,2-1.8v-4.8l-3.8,0.4c-1.4,0.1-2.4,0.5-3,1.1c-0.6,0.6-1,1.4-1,2.4c0,1.1,0.3,1.9,0.9,2.5
	C407.4,43.3,408.3,43.5,409.4,43.5z M439.4,45.7c-3.6,0-6.3-1-8.2-3.1c-1.9-2.1-2.8-5.4-2.8-10.1c0-4.6,1-8,2.9-10.1
	c1.9-2.1,4.7-3.2,8.4-3.2c1.8,0,3.5,0.2,5.1,0.7v2.4c-1.5-0.5-3.2-0.7-5-0.7c-1.9,0-3.5,0.4-4.7,1c-1.2,0.7-2.2,1.8-2.8,3.4
	c-0.6,1.6-0.9,3.7-0.9,6.4c0,2.7,0.3,4.9,1,6.5c0.6,1.6,1.6,2.7,2.8,3.4c1.2,0.7,2.7,1,4.6,1c0.9,0,1.7-0.1,2.5-0.2
	c0.8-0.2,1.7-0.4,2.6-0.7v2.4C443.1,45.4,441.3,45.7,439.4,45.7z M453.6,45.7c-2.4,0-4.3-0.8-5.6-2.4c-1.3-1.6-2-4.1-2-7.4
	c0-3.4,0.7-5.8,2-7.4c1.3-1.6,3.2-2.4,5.6-2.4c2.4,0,4.3,0.8,5.6,2.4c1.3,1.6,2,4.1,2,7.4c0,3.3-0.7,5.8-2,7.4
	C457.9,44.9,456,45.7,453.6,45.7z M453.6,43.5c1,0,1.9-0.2,2.6-0.7c0.7-0.5,1.3-1.3,1.6-2.4c0.4-1.1,0.6-2.6,0.6-4.5
	c0-1.9-0.2-3.4-0.6-4.5c-0.4-1.1-0.9-1.9-1.6-2.4c-0.7-0.5-1.6-0.7-2.6-0.7c-1,0-1.9,0.2-2.6,0.7c-0.7,0.5-1.2,1.3-1.6,2.4
	c-0.4,1.1-0.6,2.6-0.6,4.4c0,1.9,0.2,3.4,0.6,4.5c0.4,1.1,0.9,1.9,1.6,2.4C451.7,43.2,452.6,43.5,453.6,43.5z M465.1,26.4h2.3
	l0.2,2.1h0.2c0.7-0.8,1.5-1.4,2.5-1.8c0.9-0.4,2-0.6,3-0.6c1.8,0,3.1,0.5,4.1,1.5c1,1,1.5,2.6,1.5,4.9v12.9h-2.7V32.6
	c0-1.5-0.3-2.5-0.9-3.1c-0.6-0.6-1.5-0.9-2.6-0.9c-0.9,0-1.8,0.2-2.6,0.6c-0.9,0.4-1.6,1.1-2.2,1.9v14.3h-2.7V26.4z M491,43.3
	c0.6,0,1.3-0.1,2.1-0.3v2.3c-0.9,0.2-1.8,0.3-2.7,0.3c-1.9,0-3.3-0.5-4.3-1.5c-1-1-1.5-2.5-1.5-4.6v-11h-3.4v-2.3h3.4l0.4-6.9h2.3
	v6.9h5.4v2.3h-5.4v10.6c0,1.5,0.3,2.5,0.8,3.1C488.8,43,489.7,43.3,491,43.3z M501,26.1c1.6,0,2.9,0.2,3.9,0.6
	c1,0.4,1.8,1.1,2.3,2.1c0.5,1,0.8,2.3,0.8,4v12.5h-2.3l-0.2-2.1h-0.2c-0.6,0.8-1.3,1.4-2.2,1.8c-0.9,0.4-1.8,0.6-2.9,0.6
	c-1.1,0-2.1-0.2-2.9-0.6c-0.8-0.4-1.5-1-1.9-1.8c-0.4-0.8-0.7-1.7-0.7-2.8c0-1.7,0.5-3,1.6-3.9c1.1-0.9,2.7-1.5,5-1.7l3.9-0.4v-1.8
	c0-1.1-0.2-2-0.5-2.6c-0.3-0.6-0.8-1.1-1.5-1.3c-0.7-0.3-1.5-0.4-2.6-0.4c-0.7,0-1.5,0.1-2.3,0.2c-0.8,0.1-1.7,0.3-2.5,0.6v-2.3
	c0.7-0.2,1.6-0.4,2.5-0.6C499.3,26.2,500.2,26.1,501,26.1z M500.9,43.5c0.8,0,1.6-0.2,2.4-0.6c0.8-0.4,1.4-1,2-1.8v-4.8l-3.8,0.4
	c-1.4,0.1-2.4,0.5-3,1.1c-0.6,0.6-1,1.4-1,2.4c0,1.1,0.3,1.9,0.9,2.5C498.9,43.3,499.8,43.5,500.9,43.5z M517.9,45.7
	c-0.9,0-1.8-0.1-2.8-0.2c-0.9-0.1-1.8-0.3-2.5-0.6V17.1h2.7v11.1h0.2c0.5-0.6,1.2-1.2,2-1.5c0.8-0.4,1.7-0.6,2.8-0.6
	c1.3,0,2.4,0.3,3.4,0.9c1,0.6,1.8,1.6,2.4,3c0.6,1.4,0.9,3.2,0.9,5.5C527,42.3,524,45.7,517.9,45.7z M518.1,43.4
	c2,0,3.6-0.6,4.6-1.8c1-1.2,1.5-3.2,1.5-5.9c0-2.7-0.4-4.6-1.3-5.7c-0.8-1.1-2-1.6-3.5-1.6c-0.8,0-1.6,0.2-2.3,0.6
	c-0.7,0.4-1.3,0.9-1.8,1.6v12.5c0.4,0.1,0.8,0.2,1.3,0.3C517.1,43.4,517.6,43.4,518.1,43.4z M530.9,45.4v-19h2.7v19H530.9z
	 M532.3,22.2c-0.6,0-1.1-0.2-1.4-0.5c-0.3-0.3-0.5-0.7-0.5-1.3c0-0.5,0.2-1,0.5-1.3c0.3-0.3,0.8-0.5,1.4-0.5c0.6,0,1.1,0.2,1.4,0.5
	c0.3,0.3,0.5,0.7,0.5,1.3c0,0.5-0.2,1-0.5,1.3C533.3,22.1,532.9,22.2,532.3,22.2z M538.5,45.4V17.1h2.7v28.3H538.5z M546.1,45.4v-19
	h2.7v19H546.1z M547.4,22.2c-0.6,0-1.1-0.2-1.4-0.5c-0.3-0.3-0.5-0.7-0.5-1.3c0-0.5,0.2-1,0.5-1.3c0.3-0.3,0.8-0.5,1.4-0.5
	c0.6,0,1.1,0.2,1.4,0.5c0.3,0.3,0.5,0.7,0.5,1.3c0,0.5-0.2,1-0.5,1.3C548.5,22.1,548.1,22.2,547.4,22.2z M559.7,45.7
	c-2.1,0-3.8-0.7-5.1-2.2c-1.3-1.5-1.9-3.9-1.9-7.2c0-3.4,0.8-6,2.3-7.6c1.5-1.7,3.8-2.5,6.8-2.5c0.8,0,1.7,0.1,2.6,0.2v-9.2h2.7
	v28.3h-2.3l-0.2-2h-0.2c-0.5,0.7-1.2,1.2-2,1.7C561.6,45.5,560.7,45.7,559.7,45.7z M560.3,43.3c0.8,0,1.6-0.2,2.3-0.6
	c0.7-0.4,1.3-1,1.8-1.7V28.6c-0.4-0.1-0.8-0.1-1.3-0.2c-0.5-0.1-1-0.1-1.4-0.1c-2.1,0-3.6,0.6-4.7,1.8c-1,1.2-1.5,3.2-1.5,5.9
	c0,1.9,0.2,3.3,0.6,4.4c0.4,1.1,1,1.8,1.6,2.3C558.4,43.1,559.3,43.3,560.3,43.3z M577.3,26.1c1.6,0,2.9,0.2,3.9,0.6
	c1,0.4,1.8,1.1,2.3,2.1c0.5,1,0.8,2.3,0.8,4v12.5h-2.3l-0.2-2.1h-0.2c-0.6,0.8-1.3,1.4-2.2,1.8c-0.9,0.4-1.8,0.6-2.9,0.6
	c-1.1,0-2.1-0.2-2.9-0.6c-0.8-0.4-1.5-1-1.9-1.8c-0.4-0.8-0.7-1.7-0.7-2.8c0-1.7,0.5-3,1.6-3.9c1.1-0.9,2.7-1.5,5-1.7l3.9-0.4v-1.8
	c0-1.1-0.2-2-0.5-2.6c-0.3-0.6-0.8-1.1-1.5-1.3c-0.7-0.3-1.5-0.4-2.6-0.4c-0.7,0-1.5,0.1-2.3,0.2c-0.8,0.1-1.7,0.3-2.5,0.6v-2.3
	c0.7-0.2,1.6-0.4,2.5-0.6C575.6,26.2,576.5,26.1,577.3,26.1z M577.2,43.5c0.8,0,1.6-0.2,2.4-0.6c0.8-0.4,1.4-1,2-1.8v-4.8l-3.8,0.4
	c-1.4,0.1-2.4,0.5-3,1.1c-0.6,0.6-1,1.4-1,2.4c0,1.1,0.3,1.9,0.9,2.5C575.2,43.3,576,43.5,577.2,43.5z M594.9,45.7
	c-2.1,0-3.8-0.7-5.1-2.2c-1.3-1.5-1.9-3.9-1.9-7.2c0-3.4,0.8-6,2.3-7.6c1.5-1.7,3.8-2.5,6.8-2.5c0.8,0,1.7,0.1,2.6,0.2v-9.2h2.7
	v28.3h-2.3l-0.2-2h-0.2c-0.5,0.7-1.2,1.2-2,1.7C596.9,45.5,595.9,45.7,594.9,45.7z M595.5,43.3c0.8,0,1.6-0.2,2.3-0.6
	c0.7-0.4,1.3-1,1.8-1.7V28.6c-0.4-0.1-0.8-0.1-1.3-0.2c-0.5-0.1-1-0.1-1.4-0.1c-2.1,0-3.6,0.6-4.7,1.8c-1,1.2-1.5,3.2-1.5,5.9
	c0,1.9,0.2,3.3,0.6,4.4c0.4,1.1,1,1.8,1.6,2.3C593.7,43.1,594.5,43.3,595.5,43.3z M608.6,45.6c-0.6,0-1.1-0.2-1.4-0.5
	c-0.4-0.3-0.5-0.8-0.5-1.4s0.2-1.1,0.5-1.4c0.4-0.4,0.8-0.5,1.4-0.5c0.6,0,1.1,0.2,1.4,0.5c0.4,0.3,0.5,0.8,0.5,1.4
	c0,0.6-0.2,1-0.5,1.4C609.7,45.4,609.2,45.6,608.6,45.6z"/>
<path class="st0" d="M122,95h12.5v2.4h-15.2V71.5h15v2.4H122v9.1h10.6v2.4H122V95z M137.8,97.4V69.1h2.7v28.3H137.8z M150.7,78.1
	c1.6,0,2.9,0.2,3.9,0.6c1,0.4,1.8,1.1,2.3,2.1c0.5,1,0.8,2.3,0.8,4v12.5h-2.3l-0.2-2.1h-0.2c-0.6,0.8-1.3,1.4-2.2,1.8
	c-0.9,0.4-1.8,0.6-2.9,0.6c-1.1,0-2.1-0.2-2.9-0.6c-0.8-0.4-1.5-1-1.9-1.8c-0.4-0.8-0.7-1.7-0.7-2.8c0-1.7,0.5-3,1.6-3.9
	c1.1-0.9,2.7-1.5,5-1.7l3.9-0.4v-1.8c0-1.1-0.2-2-0.5-2.6c-0.3-0.6-0.8-1.1-1.5-1.3c-0.7-0.3-1.5-0.4-2.6-0.4
	c-0.7,0-1.5,0.1-2.3,0.2c-0.8,0.1-1.7,0.3-2.4,0.6v-2.3c0.7-0.2,1.6-0.4,2.5-0.6C148.9,78.2,149.8,78.1,150.7,78.1z M150.5,95.5
	c0.8,0,1.6-0.2,2.4-0.6c0.8-0.4,1.4-1,2-1.8v-4.8l-3.8,0.4c-1.4,0.1-2.4,0.5-3,1.1c-0.6,0.6-1,1.4-1,2.4c0,1.1,0.3,1.9,0.9,2.5
	C148.6,95.3,149.4,95.5,150.5,95.5z M167.6,97.7c-0.9,0-1.8-0.1-2.8-0.2c-0.9-0.1-1.8-0.3-2.5-0.6V69.1h2.7v11.1h0.2
	c0.5-0.6,1.2-1.2,2-1.5c0.8-0.4,1.7-0.6,2.8-0.6c1.3,0,2.4,0.3,3.4,0.9c1,0.6,1.8,1.6,2.4,3c0.6,1.4,0.9,3.2,0.9,5.5
	C176.7,94.3,173.7,97.7,167.6,97.7z M167.8,95.4c2,0,3.6-0.6,4.6-1.8c1-1.2,1.5-3.2,1.5-5.9c0-2.7-0.4-4.6-1.3-5.7
	c-0.8-1.1-2-1.6-3.5-1.6c-0.8,0-1.6,0.2-2.3,0.6c-0.7,0.4-1.3,0.9-1.8,1.6v12.5c0.4,0.1,0.8,0.2,1.3,0.3
	C166.8,95.4,167.3,95.4,167.8,95.4z M187.4,97.7c-2.4,0-4.3-0.8-5.6-2.4c-1.3-1.6-2-4.1-2-7.4c0-3.4,0.7-5.8,2-7.4
	c1.3-1.6,3.2-2.4,5.6-2.4c2.4,0,4.3,0.8,5.6,2.4c1.3,1.6,2,4.1,2,7.4c0,3.3-0.7,5.8-2,7.4C191.6,96.9,189.8,97.7,187.4,97.7z
	 M187.4,95.5c1,0,1.9-0.2,2.6-0.7c0.7-0.5,1.3-1.3,1.6-2.4c0.4-1.1,0.6-2.6,0.6-4.5c0-1.9-0.2-3.4-0.6-4.5c-0.4-1.1-0.9-1.9-1.6-2.4
	c-0.7-0.5-1.6-0.7-2.6-0.7s-1.9,0.2-2.6,0.7s-1.2,1.3-1.6,2.4c-0.4,1.1-0.6,2.6-0.6,4.4c0,1.9,0.2,3.4,0.6,4.5
	c0.4,1.1,0.9,1.9,1.6,2.4C185.5,95.2,186.3,95.5,187.4,95.5z M198.8,78.4h2.3l0.2,2.5h0.2c0.6-0.9,1.3-1.6,2.2-2
	c0.9-0.5,1.9-0.7,2.9-0.7c0.5,0,0.9,0,1.3,0.1v2.6c-0.4-0.1-0.9-0.1-1.4-0.1c-1,0-1.9,0.2-2.8,0.7c-0.9,0.5-1.6,1.2-2.1,2v13.8h-2.7
	V78.4z M215.3,78.1c1.6,0,2.9,0.2,3.9,0.6c1,0.4,1.8,1.1,2.3,2.1c0.5,1,0.8,2.3,0.8,4v12.5h-2.3l-0.2-2.1h-0.2
	c-0.6,0.8-1.3,1.4-2.2,1.8c-0.9,0.4-1.8,0.6-2.9,0.6c-1.1,0-2.1-0.2-2.9-0.6c-0.8-0.4-1.5-1-1.9-1.8c-0.4-0.8-0.7-1.7-0.7-2.8
	c0-1.7,0.5-3,1.6-3.9c1.1-0.9,2.7-1.5,5-1.7l3.9-0.4v-1.8c0-1.1-0.2-2-0.5-2.6c-0.3-0.6-0.8-1.1-1.5-1.3c-0.7-0.3-1.5-0.4-2.6-0.4
	c-0.7,0-1.5,0.1-2.3,0.2c-0.8,0.1-1.7,0.3-2.4,0.6v-2.3c0.7-0.2,1.6-0.4,2.5-0.6C213.5,78.2,214.4,78.1,215.3,78.1z M215.1,95.5
	c0.8,0,1.6-0.2,2.4-0.6c0.8-0.4,1.4-1,2-1.8v-4.8l-3.8,0.4c-1.4,0.1-2.4,0.5-3,1.1c-0.6,0.6-1,1.4-1,2.4c0,1.1,0.3,1.9,0.9,2.5
	C213.2,95.3,214,95.5,215.1,95.5z M233.8,97.7c-2.6,0-4.6-0.8-5.9-2.3c-1.3-1.6-2-4.1-2-7.5c0-3.4,0.7-5.9,2.2-7.5
	c1.4-1.6,3.6-2.3,6.5-2.3c1.3,0,2.5,0.1,3.6,0.4v2.3c-1.1-0.3-2.2-0.4-3.2-0.4c-1.4,0-2.6,0.2-3.5,0.7c-0.9,0.5-1.6,1.2-2,2.3
	c-0.4,1.1-0.6,2.5-0.6,4.4c0,1.9,0.2,3.4,0.6,4.5c0.4,1.1,1,1.9,1.8,2.4c0.8,0.5,1.8,0.7,3.1,0.7c1.1,0,2.4-0.2,3.9-0.7V97
	C236.7,97.4,235.3,97.7,233.8,97.7z M241.2,97.4v-19h2.7v19H241.2z M242.5,74.2c-0.6,0-1.1-0.2-1.4-0.5c-0.3-0.3-0.5-0.7-0.5-1.3
	c0-0.5,0.2-1,0.5-1.3c0.3-0.3,0.8-0.5,1.4-0.5c0.6,0,1.1,0.2,1.4,0.5c0.3,0.3,0.5,0.7,0.5,1.3c0,0.5-0.2,1-0.5,1.3
	C243.6,74.1,243.1,74.2,242.5,74.2z M255.4,97.7c-2.4,0-4.3-0.8-5.6-2.4c-1.3-1.6-2-4.1-2-7.4c0-3.4,0.7-5.8,2-7.4
	c1.3-1.6,3.2-2.4,5.6-2.4c2.4,0,4.3,0.8,5.6,2.4c1.3,1.6,2,4.1,2,7.4c0,3.3-0.7,5.8-2,7.4C259.6,96.9,257.8,97.7,255.4,97.7z
	 M255.4,95.5c1,0,1.9-0.2,2.6-0.7c0.7-0.5,1.3-1.3,1.6-2.4c0.4-1.1,0.6-2.6,0.6-4.5c0-1.9-0.2-3.4-0.6-4.5c-0.4-1.1-0.9-1.9-1.6-2.4
	c-0.7-0.5-1.6-0.7-2.6-0.7c-1,0-1.9,0.2-2.6,0.7s-1.2,1.3-1.6,2.4c-0.4,1.1-0.6,2.6-0.6,4.4c0,1.9,0.2,3.4,0.6,4.5
	c0.4,1.1,0.9,1.9,1.6,2.4C253.5,95.2,254.3,95.5,255.4,95.5z M254.2,75.4l3.2-6.4h2.9l-3.7,6.4H254.2z M266.9,78.4h2.3l0.2,2.1h0.2
	c0.7-0.8,1.5-1.4,2.5-1.8c0.9-0.4,2-0.6,3-0.6c1.8,0,3.1,0.5,4.1,1.5c1,1,1.5,2.6,1.5,4.9v12.9h-2.7V84.6c0-1.5-0.3-2.5-0.9-3.1
	c-0.6-0.6-1.5-0.9-2.6-0.9c-0.9,0-1.8,0.2-2.6,0.6c-0.9,0.4-1.6,1.1-2.2,1.9v14.3h-2.7V78.4z M310.7,71.5L302,85.8v11.6h-2.8V85.8
	l-8.9-14.4h3l7.3,11.9l7.2-11.9H310.7z M321,71.8c2.1-0.4,4.1-0.6,6.1-0.6c3.3,0,5.8,0.7,7.5,2.2c1.7,1.4,2.5,3.7,2.5,6.7
	c0,5.9-3.5,8.8-10.4,8.8c-0.9,0-1.9,0-3-0.1v8.6H321V71.8z M326.8,86.6c2.6,0,4.5-0.5,5.7-1.6c1.2-1,1.8-2.7,1.8-4.9
	c0-2.3-0.6-4-1.7-5c-1.1-1.1-2.9-1.6-5.3-1.6c-1.3,0-2.4,0.1-3.6,0.3v12.7C324.6,86.5,325.6,86.6,326.8,86.6z M341,78.4h2.3l0.2,2.5
	h0.2c0.6-0.9,1.3-1.6,2.2-2c0.9-0.5,1.9-0.7,2.9-0.7c0.5,0,0.9,0,1.3,0.1v2.6c-0.4-0.1-0.9-0.1-1.4-0.1c-1,0-1.9,0.2-2.8,0.7
	c-0.9,0.5-1.6,1.2-2.1,2v13.8H341V78.4z M365.5,88.8h-11.3c0,1.7,0.3,3,0.7,3.9c0.4,1,1.1,1.7,1.9,2.1c0.9,0.4,2,0.6,3.4,0.6
	c1.3,0,2.7-0.2,4.4-0.7V97c-1.6,0.5-3.2,0.7-4.7,0.7c-1.9,0-3.5-0.3-4.7-1c-1.2-0.7-2.2-1.7-2.8-3.2c-0.6-1.4-0.9-3.3-0.9-5.7
	c0-3.3,0.6-5.8,1.9-7.4c1.3-1.6,3-2.4,5.3-2.4c2.2,0,3.9,0.8,5.1,2.4c1.2,1.6,1.8,4.1,1.8,7.5V88.8z M358.6,80.1
	c-1.4,0-2.5,0.5-3.2,1.6c-0.8,1-1.2,2.8-1.2,5.3h8.6c0-1.7-0.2-3-0.6-4c-0.3-1-0.8-1.7-1.4-2.1C360.2,80.3,359.5,80.1,358.6,80.1z
	 M373.3,97.7c-1.8,0-3.4-0.2-4.8-0.7v-2.2c1.7,0.5,3.3,0.8,4.8,0.8c1.4,0,2.5-0.3,3.3-0.8c0.7-0.6,1.1-1.4,1.1-2.4
	c0-0.9-0.2-1.5-0.7-2c-0.4-0.5-1.1-0.8-2.1-1.1l-2.2-0.5c-1.6-0.4-2.8-1-3.5-1.8c-0.7-0.8-1.1-1.9-1.1-3.3c0-1.1,0.3-2,0.8-2.8
	c0.5-0.8,1.3-1.5,2.4-1.9c1.1-0.5,2.4-0.7,3.9-0.7c1.4,0,2.8,0.2,4.1,0.5v2.2c-1.3-0.3-2.6-0.5-4-0.5c-1.6,0-2.7,0.3-3.5,0.9
	c-0.7,0.6-1.1,1.3-1.1,2.3c0,0.8,0.2,1.4,0.6,1.9c0.4,0.5,1.1,0.8,2,1.1l2.2,0.5c1.7,0.4,2.9,1,3.6,1.9c0.7,0.8,1.1,1.9,1.1,3.4
	c0,1.1-0.3,2.1-0.8,3c-0.5,0.8-1.3,1.5-2.4,1.9C376,97.5,374.7,97.7,373.3,97.7z M396.8,88.8h-11.3c0,1.7,0.3,3,0.7,3.9
	c0.4,1,1.1,1.7,1.9,2.1c0.9,0.4,2,0.6,3.4,0.6c1.3,0,2.7-0.2,4.4-0.7V97c-1.6,0.5-3.2,0.7-4.7,0.7c-1.9,0-3.5-0.3-4.7-1
	c-1.2-0.7-2.2-1.7-2.8-3.2s-0.9-3.3-0.9-5.7c0-3.3,0.6-5.8,1.9-7.4c1.3-1.6,3-2.4,5.3-2.4c2.2,0,3.9,0.8,5.1,2.4
	c1.2,1.6,1.8,4.1,1.8,7.5V88.8z M390,80.1c-1.4,0-2.4,0.5-3.2,1.6c-0.8,1-1.2,2.8-1.2,5.3h8.6c0-1.7-0.2-3-0.6-4
	c-0.3-1-0.8-1.7-1.4-2.1C391.6,80.3,390.9,80.1,390,80.1z M400.5,78.4h2.3l0.2,2.1h0.2c0.7-0.8,1.5-1.4,2.5-1.8c0.9-0.4,2-0.6,3-0.6
	c1.8,0,3.1,0.5,4.1,1.5c1,1,1.5,2.6,1.5,4.9v12.9h-2.7V84.6c0-1.5-0.3-2.5-0.9-3.1c-0.6-0.6-1.5-0.9-2.6-0.9c-0.9,0-1.8,0.2-2.6,0.6
	c-0.9,0.4-1.6,1.1-2.2,1.9v14.3h-2.7V78.4z M426.4,95.3c0.6,0,1.3-0.1,2.1-0.3v2.3c-0.9,0.2-1.8,0.3-2.7,0.3c-1.9,0-3.3-0.5-4.3-1.5
	c-1-1-1.5-2.5-1.5-4.6v-11h-3.4v-2.3h3.4l0.4-6.9h2.3v6.9h5.4v2.3h-5.4v10.6c0,1.5,0.3,2.5,0.8,3.1C424.3,95,425.2,95.3,426.4,95.3z
	 M436.5,78.1c1.6,0,2.9,0.2,3.9,0.6c1,0.4,1.8,1.1,2.3,2.1c0.5,1,0.8,2.3,0.8,4v12.5h-2.3l-0.2-2.1h-0.2c-0.6,0.8-1.3,1.4-2.2,1.8
	c-0.9,0.4-1.8,0.6-2.9,0.6c-1.1,0-2.1-0.2-2.9-0.6c-0.8-0.4-1.5-1-1.9-1.8c-0.4-0.8-0.7-1.7-0.7-2.8c0-1.7,0.5-3,1.6-3.9
	c1.1-0.9,2.7-1.5,5-1.7l3.9-0.4v-1.8c0-1.1-0.2-2-0.5-2.6c-0.3-0.6-0.8-1.1-1.5-1.3c-0.7-0.3-1.5-0.4-2.6-0.4
	c-0.7,0-1.5,0.1-2.3,0.2c-0.8,0.1-1.7,0.3-2.5,0.6v-2.3c0.7-0.2,1.6-0.4,2.5-0.6C434.7,78.2,435.6,78.1,436.5,78.1z M436.3,95.5
	c0.8,0,1.6-0.2,2.4-0.6c0.8-0.4,1.4-1,2-1.8v-4.8l-3.8,0.4c-1.4,0.1-2.4,0.5-3,1.1c-0.6,0.6-1,1.4-1,2.4c0,1.1,0.3,1.9,0.9,2.5
	C434.4,95.3,435.2,95.5,436.3,95.5z M455,97.7c-2.6,0-4.6-0.8-5.9-2.3c-1.3-1.6-2-4.1-2-7.5c0-3.4,0.7-5.9,2.2-7.5
	c1.4-1.6,3.6-2.3,6.5-2.3c1.3,0,2.5,0.1,3.6,0.4v2.3c-1.1-0.3-2.2-0.4-3.2-0.4c-1.4,0-2.6,0.2-3.5,0.7c-0.9,0.5-1.6,1.2-2,2.3
	c-0.4,1.1-0.6,2.5-0.6,4.4c0,1.9,0.2,3.4,0.6,4.5c0.4,1.1,1,1.9,1.8,2.4c0.8,0.5,1.8,0.7,3.1,0.7c1.1,0,2.4-0.2,3.9-0.7V97
	C457.9,97.4,456.5,97.7,455,97.7z M462.4,97.4v-19h2.7v19H462.4z M463.7,74.2c-0.6,0-1.1-0.2-1.4-0.5c-0.3-0.3-0.5-0.7-0.5-1.3
	c0-0.5,0.2-1,0.5-1.3c0.3-0.3,0.8-0.5,1.4-0.5c0.6,0,1.1,0.2,1.4,0.5c0.3,0.3,0.5,0.7,0.5,1.3c0,0.5-0.2,1-0.5,1.3
	C464.8,74.1,464.3,74.2,463.7,74.2z M476.6,97.7c-2.4,0-4.3-0.8-5.6-2.4c-1.3-1.6-2-4.1-2-7.4c0-3.4,0.7-5.8,2-7.4
	c1.3-1.6,3.2-2.4,5.6-2.4c2.4,0,4.3,0.8,5.6,2.4c1.3,1.6,2,4.1,2,7.4c0,3.3-0.7,5.8-2,7.4C480.9,96.9,479,97.7,476.6,97.7z
	 M476.6,95.5c1,0,1.9-0.2,2.6-0.7c0.7-0.5,1.3-1.3,1.6-2.4c0.4-1.1,0.6-2.6,0.6-4.5c0-1.9-0.2-3.4-0.6-4.5c-0.4-1.1-0.9-1.9-1.6-2.4
	c-0.7-0.5-1.6-0.7-2.6-0.7c-1,0-1.9,0.2-2.6,0.7c-0.7,0.5-1.2,1.3-1.6,2.4c-0.4,1.1-0.6,2.6-0.6,4.4c0,1.9,0.2,3.4,0.6,4.5
	c0.4,1.1,0.9,1.9,1.6,2.4C474.7,95.2,475.5,95.5,476.6,95.5z M475.4,75.4l3.2-6.4h2.9l-3.7,6.4H475.4z M488.1,78.4h2.3l0.2,2.1h0.2
	c0.7-0.8,1.5-1.4,2.5-1.8c0.9-0.4,2-0.6,3-0.6c1.8,0,3.1,0.5,4.1,1.5c1,1,1.5,2.6,1.5,4.9v12.9h-2.7V84.6c0-1.5-0.3-2.5-0.9-3.1
	c-0.6-0.6-1.5-0.9-2.6-0.9c-0.9,0-1.8,0.2-2.6,0.6c-0.9,0.4-1.6,1.1-2.2,1.9v14.3h-2.7V78.4z M520.4,97.6c-1.8,0-3.6-0.1-5.5-0.3
	V71.8c2.2-0.4,4.3-0.6,6.2-0.6c4.1,0,7.1,1.1,9.2,3.2c2,2.2,3,5.5,3,10c0,3.1-0.5,5.6-1.4,7.5c-1,1.9-2.4,3.4-4.3,4.3
	C525.6,97.1,523.2,97.6,520.4,97.6z M520.9,95.2c2.1,0,3.9-0.4,5.3-1.1c1.4-0.7,2.4-1.9,3.1-3.5c0.7-1.6,1-3.7,1-6.2
	c0-2.5-0.3-4.6-1-6.2c-0.7-1.6-1.7-2.8-3-3.5c-1.4-0.7-3.1-1.1-5.2-1.1c-1,0-2.2,0.1-3.5,0.3V95C518.5,95.1,519.6,95.2,520.9,95.2z
	 M550.5,88.8h-11.3c0,1.7,0.3,3,0.7,3.9c0.4,1,1.1,1.7,1.9,2.1c0.9,0.4,2,0.6,3.4,0.6c1.3,0,2.7-0.2,4.4-0.7V97
	c-1.6,0.5-3.2,0.7-4.7,0.7c-1.9,0-3.5-0.3-4.7-1c-1.2-0.7-2.2-1.7-2.8-3.2s-0.9-3.3-0.9-5.7c0-3.3,0.6-5.8,1.9-7.4
	c1.3-1.6,3-2.4,5.3-2.4c2.2,0,3.9,0.8,5.1,2.4c1.2,1.6,1.8,4.1,1.8,7.5V88.8z M543.6,80.1c-1.4,0-2.5,0.5-3.2,1.6
	c-0.8,1-1.2,2.8-1.2,5.3h8.6c0-1.7-0.2-3-0.6-4c-0.3-1-0.8-1.7-1.4-2.1C545.2,80.3,544.5,80.1,543.6,80.1z M562.5,97.4V71.5h2.8
	v23.5h11.9v2.4H562.5z M585.7,97.7c-2.4,0-4.3-0.8-5.6-2.4c-1.3-1.6-2-4.1-2-7.4c0-3.4,0.7-5.8,2-7.4c1.3-1.6,3.2-2.4,5.6-2.4
	c2.4,0,4.3,0.8,5.6,2.4c1.3,1.6,2,4.1,2,7.4c0,3.3-0.7,5.8-2,7.4C590,96.9,588.1,97.7,585.7,97.7z M585.7,95.5c1,0,1.9-0.2,2.6-0.7
	c0.7-0.5,1.3-1.3,1.6-2.4c0.4-1.1,0.6-2.6,0.6-4.5c0-1.9-0.2-3.4-0.6-4.5c-0.4-1.1-0.9-1.9-1.6-2.4c-0.7-0.5-1.6-0.7-2.6-0.7
	s-1.9,0.2-2.6,0.7s-1.2,1.3-1.6,2.4c-0.4,1.1-0.6,2.6-0.6,4.4c0,1.9,0.2,3.4,0.6,4.5c0.4,1.1,0.9,1.9,1.6,2.4
	C583.8,95.2,584.7,95.5,585.7,95.5z M601.3,97.7c-1.8,0-3.4-0.2-4.8-0.7v-2.2c1.7,0.5,3.3,0.8,4.8,0.8c1.4,0,2.5-0.3,3.3-0.8
	c0.7-0.6,1.1-1.4,1.1-2.4c0-0.9-0.2-1.5-0.7-2c-0.4-0.5-1.1-0.8-2.1-1.1l-2.2-0.5c-1.6-0.4-2.8-1-3.5-1.8c-0.7-0.8-1.1-1.9-1.1-3.3
	c0-1.1,0.3-2,0.8-2.8c0.5-0.8,1.3-1.5,2.4-1.9c1.1-0.5,2.4-0.7,3.9-0.7c1.4,0,2.8,0.2,4.1,0.5v2.2c-1.3-0.3-2.6-0.5-4-0.5
	c-1.6,0-2.7,0.3-3.5,0.9c-0.7,0.6-1.1,1.3-1.1,2.3c0,0.8,0.2,1.4,0.6,1.9c0.4,0.5,1.1,0.8,2,1.1l2.2,0.5c1.7,0.4,2.9,1,3.6,1.9
	c0.7,0.8,1.1,1.9,1.1,3.4c0,1.1-0.3,2.1-0.8,3c-0.5,0.8-1.3,1.5-2.4,1.9C604,97.5,602.7,97.7,601.3,97.7z M622.8,95h12.5v2.4H620
	V71.5h15v2.4h-12.3v9.1h10.6v2.4h-10.6V95z M642.2,97.7c-1.8,0-3.4-0.2-4.8-0.7v-2.2c1.7,0.5,3.3,0.8,4.8,0.8c1.4,0,2.5-0.3,3.3-0.8
	c0.7-0.6,1.1-1.4,1.1-2.4c0-0.9-0.2-1.5-0.7-2c-0.4-0.5-1.1-0.8-2.1-1.1l-2.2-0.5c-1.6-0.4-2.8-1-3.5-1.8c-0.7-0.8-1.1-1.9-1.1-3.3
	c0-1.1,0.3-2,0.8-2.8c0.5-0.8,1.3-1.5,2.4-1.9c1.1-0.5,2.4-0.7,3.9-0.7c1.4,0,2.8,0.2,4.1,0.5v2.2c-1.3-0.3-2.6-0.5-4-0.5
	c-1.6,0-2.7,0.3-3.5,0.9c-0.7,0.6-1.1,1.3-1.1,2.3c0,0.8,0.2,1.4,0.6,1.9c0.4,0.5,1.1,0.8,2,1.1l2.2,0.5c1.7,0.4,2.9,1,3.6,1.9
	c0.7,0.8,1.1,1.9,1.1,3.4c0,1.1-0.3,2.1-0.8,3c-0.5,0.8-1.3,1.5-2.4,1.9C644.9,97.5,643.7,97.7,642.2,97.7z M659.9,95.3
	c0.6,0,1.3-0.1,2.1-0.3v2.3c-0.9,0.2-1.8,0.3-2.7,0.3c-1.9,0-3.3-0.5-4.3-1.5c-1-1-1.5-2.5-1.5-4.6v-11h-3.4v-2.3h3.4l0.4-6.9h2.3
	v6.9h5.4v2.3h-5.4v10.6c0,1.5,0.3,2.5,0.8,3.1C657.7,95,658.6,95.3,659.9,95.3z M669.9,78.1c1.6,0,2.9,0.2,3.9,0.6
	c1,0.4,1.8,1.1,2.3,2.1c0.5,1,0.8,2.3,0.8,4v12.5h-2.3l-0.2-2.1h-0.2c-0.6,0.8-1.3,1.4-2.2,1.8c-0.9,0.4-1.8,0.6-2.9,0.6
	c-1.1,0-2.1-0.2-2.9-0.6s-1.5-1-1.9-1.8c-0.4-0.8-0.7-1.7-0.7-2.8c0-1.7,0.5-3,1.6-3.9c1.1-0.9,2.7-1.5,5-1.7l3.9-0.4v-1.8
	c0-1.1-0.2-2-0.5-2.6c-0.3-0.6-0.8-1.1-1.5-1.3c-0.7-0.3-1.5-0.4-2.6-0.4c-0.7,0-1.5,0.1-2.3,0.2c-0.8,0.1-1.7,0.3-2.5,0.6v-2.3
	c0.7-0.2,1.6-0.4,2.5-0.6C668.2,78.2,669.1,78.1,669.9,78.1z M669.8,95.5c0.8,0,1.6-0.2,2.4-0.6c0.8-0.4,1.4-1,2-1.8v-4.8l-3.8,0.4
	c-1.4,0.1-2.4,0.5-3,1.1c-0.6,0.6-1,1.4-1,2.4c0,1.1,0.3,1.9,0.9,2.5C667.8,95.3,668.7,95.5,669.8,95.5z M687.5,97.7
	c-2.1,0-3.8-0.7-5.1-2.2c-1.3-1.5-1.9-3.9-1.9-7.2c0-3.4,0.8-6,2.3-7.6c1.5-1.7,3.8-2.5,6.8-2.5c0.8,0,1.7,0.1,2.6,0.2v-9.2h2.7
	v28.3h-2.3l-0.2-2h-0.2c-0.5,0.7-1.2,1.2-2,1.7C689.5,97.5,688.6,97.7,687.5,97.7z M688.1,95.3c0.8,0,1.6-0.2,2.3-0.6
	c0.7-0.4,1.3-1,1.8-1.7V80.6c-0.4-0.1-0.8-0.1-1.3-0.2c-0.5-0.1-1-0.1-1.4-0.1c-2.1,0-3.6,0.6-4.7,1.8c-1,1.2-1.5,3.2-1.5,5.9
	c0,1.9,0.2,3.3,0.6,4.4c0.4,1.1,1,1.8,1.6,2.3C686.3,95.1,687.2,95.3,688.1,95.3z M706.5,97.7c-2.4,0-4.3-0.8-5.6-2.4
	c-1.3-1.6-2-4.1-2-7.4c0-3.4,0.7-5.8,2-7.4c1.3-1.6,3.2-2.4,5.6-2.4c2.4,0,4.3,0.8,5.6,2.4c1.3,1.6,2,4.1,2,7.4c0,3.3-0.7,5.8-2,7.4
	C710.8,96.9,708.9,97.7,706.5,97.7z M706.5,95.5c1,0,1.9-0.2,2.6-0.7c0.7-0.5,1.3-1.3,1.6-2.4c0.4-1.1,0.6-2.6,0.6-4.5
	c0-1.9-0.2-3.4-0.6-4.5c-0.4-1.1-0.9-1.9-1.6-2.4s-1.6-0.7-2.6-0.7c-1,0-1.9,0.2-2.6,0.7c-0.7,0.5-1.2,1.3-1.6,2.4
	c-0.4,1.1-0.6,2.6-0.6,4.4c0,1.9,0.2,3.4,0.6,4.5c0.4,1.1,0.9,1.9,1.6,2.4C704.6,95.2,705.5,95.5,706.5,95.5z M722.1,97.7
	c-1.8,0-3.4-0.2-4.8-0.7v-2.2c1.7,0.5,3.3,0.8,4.8,0.8c1.4,0,2.5-0.3,3.3-0.8c0.7-0.6,1.1-1.4,1.1-2.4c0-0.9-0.2-1.5-0.7-2
	c-0.4-0.5-1.1-0.8-2.1-1.1l-2.2-0.5c-1.6-0.4-2.8-1-3.5-1.8c-0.7-0.8-1.1-1.9-1.1-3.3c0-1.1,0.3-2,0.8-2.8c0.5-0.8,1.3-1.5,2.4-1.9
	c1.1-0.5,2.4-0.7,3.9-0.7c1.4,0,2.8,0.2,4.1,0.5v2.2c-1.3-0.3-2.6-0.5-4-0.5c-1.6,0-2.7,0.3-3.5,0.9c-0.7,0.6-1.1,1.3-1.1,2.3
	c0,0.8,0.2,1.4,0.6,1.9c0.4,0.5,1.1,0.8,2,1.1l2.2,0.5c1.7,0.4,2.9,1,3.6,1.9c0.7,0.8,1.1,1.9,1.1,3.4c0,1.1-0.3,2.1-0.8,3
	c-0.5,0.8-1.3,1.5-2.4,1.9C724.8,97.5,723.6,97.7,722.1,97.7z M755.7,73.8h-12.1v9.2h10.5v2.4h-10.5v11.9h-2.8V71.5h14.9V73.8z
	 M758.7,97.4v-19h2.7v19H758.7z M760.1,74.2c-0.6,0-1.1-0.2-1.4-0.5c-0.3-0.3-0.5-0.7-0.5-1.3c0-0.5,0.2-1,0.5-1.3
	c0.3-0.3,0.8-0.5,1.4-0.5c0.6,0,1.1,0.2,1.4,0.5c0.3,0.3,0.5,0.7,0.5,1.3c0,0.5-0.2,1-0.5,1.3C761.1,74.1,760.7,74.2,760.1,74.2z
	 M766.3,78.4h2.3l0.2,2.1h0.2c0.7-0.8,1.5-1.4,2.5-1.8c0.9-0.4,2-0.6,3-0.6c1.8,0,3.1,0.5,4.1,1.5c1,1,1.5,2.6,1.5,4.9v12.9h-2.7
	V84.6c0-1.5-0.3-2.5-0.9-3.1c-0.6-0.6-1.5-0.9-2.6-0.9c-0.9,0-1.8,0.2-2.6,0.6c-0.9,0.4-1.6,1.1-2.2,1.9v14.3h-2.7V78.4z
	 M790.1,78.1c1.6,0,2.9,0.2,3.9,0.6c1,0.4,1.8,1.1,2.3,2.1c0.5,1,0.8,2.3,0.8,4v12.5h-2.3l-0.2-2.1h-0.2c-0.6,0.8-1.3,1.4-2.2,1.8
	c-0.9,0.4-1.8,0.6-2.9,0.6c-1.1,0-2.1-0.2-2.9-0.6c-0.8-0.4-1.5-1-1.9-1.8c-0.4-0.8-0.7-1.7-0.7-2.8c0-1.7,0.5-3,1.6-3.9
	c1.1-0.9,2.7-1.5,5-1.7l3.9-0.4v-1.8c0-1.1-0.2-2-0.5-2.6c-0.3-0.6-0.8-1.1-1.5-1.3c-0.7-0.3-1.5-0.4-2.6-0.4
	c-0.7,0-1.5,0.1-2.3,0.2c-0.8,0.1-1.7,0.3-2.4,0.6v-2.3c0.7-0.2,1.6-0.4,2.5-0.6C788.3,78.2,789.2,78.1,790.1,78.1z M789.9,95.5
	c0.8,0,1.6-0.2,2.4-0.6c0.8-0.4,1.4-1,2-1.8v-4.8l-3.8,0.4c-1.4,0.1-2.4,0.5-3,1.1c-0.6,0.6-1,1.4-1,2.4c0,1.1,0.3,1.9,0.9,2.5
	C788,95.3,788.8,95.5,789.9,95.5z M801.7,78.4h2.3l0.2,2.1h0.2c0.7-0.8,1.5-1.4,2.5-1.8c0.9-0.4,2-0.6,3-0.6c1.8,0,3.1,0.5,4.1,1.5
	c1,1,1.5,2.6,1.5,4.9v12.9h-2.7V84.6c0-1.5-0.3-2.5-0.9-3.1c-0.6-0.6-1.5-0.9-2.6-0.9c-0.9,0-1.8,0.2-2.6,0.6
	c-0.9,0.4-1.6,1.1-2.2,1.9v14.3h-2.7V78.4z M827.1,97.7c-2.6,0-4.6-0.8-5.9-2.3c-1.3-1.6-2-4.1-2-7.5c0-3.4,0.7-5.9,2.2-7.5
	c1.4-1.6,3.6-2.3,6.5-2.3c1.3,0,2.5,0.1,3.6,0.4v2.3c-1.1-0.3-2.2-0.4-3.2-0.4c-1.4,0-2.6,0.2-3.5,0.7c-0.9,0.5-1.6,1.2-2,2.3
	c-0.4,1.1-0.6,2.5-0.6,4.4c0,1.9,0.2,3.4,0.6,4.5c0.4,1.1,1,1.9,1.8,2.4c0.8,0.5,1.8,0.7,3.1,0.7c1.1,0,2.4-0.2,3.9-0.7V97
	C830,97.4,828.6,97.7,827.1,97.7z M834.4,97.4v-19h2.7v19H834.4z M835.8,74.2c-0.6,0-1.1-0.2-1.4-0.5c-0.3-0.3-0.5-0.7-0.5-1.3
	c0-0.5,0.2-1,0.5-1.3c0.3-0.3,0.8-0.5,1.4-0.5c0.6,0,1.1,0.2,1.4,0.5c0.3,0.3,0.5,0.7,0.5,1.3c0,0.5-0.2,1-0.5,1.3
	C836.9,74.1,836.4,74.2,835.8,74.2z M855.1,88.8h-11.3c0,1.7,0.3,3,0.7,3.9c0.4,1,1.1,1.7,1.9,2.1c0.9,0.4,2,0.6,3.4,0.6
	c1.3,0,2.7-0.2,4.4-0.7V97c-1.6,0.5-3.2,0.7-4.7,0.7c-1.9,0-3.5-0.3-4.7-1c-1.2-0.7-2.2-1.7-2.8-3.2s-0.9-3.3-0.9-5.7
	c0-3.3,0.6-5.8,1.9-7.4c1.3-1.6,3-2.4,5.3-2.4c2.2,0,3.9,0.8,5.1,2.4c1.2,1.6,1.8,4.1,1.8,7.5V88.8z M848.3,80.1
	c-1.4,0-2.5,0.5-3.2,1.6c-0.8,1-1.2,2.8-1.2,5.3h8.6c0-1.7-0.2-3-0.6-4c-0.3-1-0.8-1.7-1.4-2.1C849.9,80.3,849.2,80.1,848.3,80.1z
	 M858.9,78.4h2.3l0.2,2.5h0.2c0.6-0.9,1.3-1.6,2.2-2c0.9-0.5,1.9-0.7,2.9-0.7c0.5,0,0.9,0,1.3,0.1v2.6c-0.4-0.1-0.9-0.1-1.4-0.1
	c-1,0-1.9,0.2-2.8,0.7c-0.9,0.5-1.6,1.2-2.1,2v13.8h-2.7V78.4z M876.8,97.7c-2.4,0-4.3-0.8-5.6-2.4c-1.3-1.6-2-4.1-2-7.4
	c0-3.4,0.7-5.8,2-7.4c1.3-1.6,3.2-2.4,5.6-2.4c2.4,0,4.3,0.8,5.6,2.4c1.3,1.6,2,4.1,2,7.4c0,3.3-0.7,5.8-2,7.4
	C881.1,96.9,879.2,97.7,876.8,97.7z M876.8,95.5c1,0,1.9-0.2,2.6-0.7c0.7-0.5,1.3-1.3,1.6-2.4c0.4-1.1,0.6-2.6,0.6-4.5
	c0-1.9-0.2-3.4-0.6-4.5c-0.4-1.1-0.9-1.9-1.6-2.4s-1.6-0.7-2.6-0.7c-1,0-1.9,0.2-2.6,0.7c-0.7,0.5-1.2,1.3-1.6,2.4
	c-0.4,1.1-0.6,2.6-0.6,4.4c0,1.9,0.2,3.4,0.6,4.5c0.4,1.1,0.9,1.9,1.6,2.4C874.9,95.2,875.8,95.5,876.8,95.5z M892.4,97.7
	c-1.8,0-3.4-0.2-4.8-0.7v-2.2c1.7,0.5,3.3,0.8,4.8,0.8c1.4,0,2.5-0.3,3.3-0.8c0.7-0.6,1.1-1.4,1.1-2.4c0-0.9-0.2-1.5-0.7-2
	c-0.4-0.5-1.1-0.8-2.1-1.1l-2.2-0.5c-1.6-0.4-2.8-1-3.5-1.8c-0.7-0.8-1.1-1.9-1.1-3.3c0-1.1,0.3-2,0.8-2.8c0.5-0.8,1.3-1.5,2.4-1.9
	c1.1-0.5,2.4-0.7,3.9-0.7c1.4,0,2.8,0.2,4.1,0.5v2.2c-1.3-0.3-2.6-0.5-4-0.5c-1.6,0-2.7,0.3-3.5,0.9c-0.7,0.6-1.1,1.3-1.1,2.3
	c0,0.8,0.2,1.4,0.6,1.9c0.4,0.5,1.1,0.8,2,1.1l2.2,0.5c1.7,0.4,2.9,1,3.6,1.9c0.7,0.8,1.1,1.9,1.1,3.4c0,1.1-0.3,2.1-0.8,3
	c-0.5,0.8-1.3,1.5-2.4,1.9C895.1,97.5,893.8,97.7,892.4,97.7z M922.8,84c1.7,0.3,3,1,3.9,2.2c0.9,1.1,1.3,2.5,1.3,4.2
	c0,1.6-0.4,2.9-1.1,4c-0.7,1.1-1.9,1.9-3.6,2.4c-1.6,0.5-3.7,0.8-6.3,0.8c-2.1,0-4.1-0.1-5.9-0.4V71.8c2.1-0.4,4.3-0.6,6.6-0.6
	c2.2,0,4.1,0.3,5.5,0.8c1.4,0.5,2.5,1.2,3.1,2.2c0.7,1,1,2.3,1,3.9c0,1.5-0.4,2.7-1.1,3.8C925.5,82.9,924.4,83.6,922.8,84z
	 M917.9,73.4c-1.5,0-2.8,0.1-4.1,0.3v9.2h4.4c1.6,0,2.8-0.2,3.8-0.5c0.9-0.4,1.6-0.9,2-1.6c0.4-0.7,0.6-1.6,0.6-2.7
	c0-1.1-0.2-2.1-0.7-2.7c-0.4-0.7-1.2-1.2-2.1-1.5C920.9,73.6,919.6,73.4,917.9,73.4z M917.6,95.4c1.9,0,3.4-0.2,4.6-0.5
	c1.1-0.4,2-0.9,2.5-1.6c0.5-0.7,0.8-1.7,0.8-2.9c0-1.7-0.5-3-1.6-3.9c-1-0.8-2.7-1.3-5-1.3h-5v10C914.9,95.3,916.1,95.4,917.6,95.4z
	 M937,78.1c1.6,0,2.9,0.2,3.9,0.6c1,0.4,1.8,1.1,2.3,2.1c0.5,1,0.8,2.3,0.8,4v12.5h-2.3l-0.2-2.1h-0.2c-0.6,0.8-1.3,1.4-2.2,1.8
	c-0.9,0.4-1.8,0.6-2.9,0.6c-1.1,0-2.1-0.2-2.9-0.6s-1.5-1-1.9-1.8c-0.4-0.8-0.7-1.7-0.7-2.8c0-1.7,0.5-3,1.6-3.9
	c1.1-0.9,2.7-1.5,5-1.7l3.9-0.4v-1.8c0-1.1-0.2-2-0.5-2.6c-0.3-0.6-0.8-1.1-1.5-1.3c-0.7-0.3-1.5-0.4-2.6-0.4
	c-0.7,0-1.5,0.1-2.3,0.2c-0.8,0.1-1.7,0.3-2.5,0.6v-2.3c0.7-0.2,1.6-0.4,2.5-0.6C935.2,78.2,936.1,78.1,937,78.1z M936.8,95.5
	c0.8,0,1.6-0.2,2.4-0.6c0.8-0.4,1.4-1,2-1.8v-4.8l-3.8,0.4c-1.4,0.1-2.4,0.5-3,1.1c-0.6,0.6-1,1.4-1,2.4c0,1.1,0.3,1.9,0.9,2.5
	C934.9,95.3,935.7,95.5,936.8,95.5z M945.6,104.2c1.1-1.6,1.8-3.1,2.3-4.6c0.5-1.5,0.7-3.2,0.7-5.3v-16h2.7v15.8
	c0,1.5-0.1,2.9-0.4,4.2c-0.3,1.2-0.7,2.4-1.2,3.6c-0.5,1.1-1.3,2.3-2.2,3.5L945.6,104.2z M949.9,74.2c-0.6,0-1.1-0.2-1.4-0.5
	c-0.3-0.3-0.5-0.7-0.5-1.3c0-0.5,0.2-1,0.5-1.3c0.3-0.3,0.8-0.5,1.4-0.5c0.6,0,1.1,0.2,1.4,0.5c0.3,0.3,0.5,0.7,0.5,1.3
	c0,0.5-0.2,1-0.5,1.3C951,74,950.5,74.2,949.9,74.2z M962.8,97.7c-2.4,0-4.3-0.8-5.6-2.4c-1.3-1.6-2-4.1-2-7.4c0-3.4,0.7-5.8,2-7.4
	c1.3-1.6,3.2-2.4,5.6-2.4c2.4,0,4.3,0.8,5.6,2.4c1.3,1.6,2,4.1,2,7.4c0,3.3-0.7,5.8-2,7.4C967.1,96.9,965.2,97.7,962.8,97.7z
	 M962.8,95.5c1,0,1.9-0.2,2.6-0.7c0.7-0.5,1.3-1.3,1.6-2.4c0.4-1.1,0.6-2.6,0.6-4.5c0-1.9-0.2-3.4-0.6-4.5c-0.4-1.1-0.9-1.9-1.6-2.4
	c-0.7-0.5-1.6-0.7-2.6-0.7c-1,0-1.9,0.2-2.6,0.7s-1.2,1.3-1.6,2.4c-0.4,1.1-0.6,2.6-0.6,4.4c0,1.9,0.2,3.4,0.6,4.5
	c0.4,1.1,0.9,1.9,1.6,2.4C960.9,95.2,961.8,95.5,962.8,95.5z M998.6,71.5h2.6v25.9h-2.9l-13.1-21.6v21.6h-2.6V71.5h2.9L998.6,93
	V71.5z M1006.4,97.4v-19h2.7v19H1006.4z M1007.7,74.2c-0.6,0-1.1-0.2-1.4-0.5c-0.3-0.3-0.5-0.7-0.5-1.3c0-0.5,0.2-1,0.5-1.3
	c0.3-0.3,0.8-0.5,1.4-0.5c0.6,0,1.1,0.2,1.4,0.5c0.3,0.3,0.5,0.7,0.5,1.3c0,0.5-0.2,1-0.5,1.3C1008.8,74.1,1008.3,74.2,1007.7,74.2z
	 M1014,97.4v-19h2.7v19H1014z M1015.3,74.2c-0.6,0-1.1-0.2-1.4-0.5c-0.3-0.3-0.5-0.7-0.5-1.3c0-0.5,0.2-1,0.5-1.3
	c0.3-0.3,0.8-0.5,1.4-0.5s1.1,0.2,1.4,0.5c0.3,0.3,0.5,0.7,0.5,1.3c0,0.5-0.2,1-0.5,1.3C1016.4,74.1,1015.9,74.2,1015.3,74.2z
	 M1029.4,71c-1.3,0-2.3,0.3-3,0.9c-0.7,0.6-1,1.6-1,2.9v3.5h5.4v2.3h-5.4v16.7h-2.7V80.6h-3.4v-2.3h3.4V75c0-2,0.5-3.6,1.6-4.6
	c1.1-1.1,2.7-1.6,4.8-1.6c0.9,0,1.7,0.1,2.4,0.2v2.3C1030.8,71.1,1030.1,71,1029.4,71z M1033.7,97.6c-0.6,0-1.1-0.2-1.4-0.5
	c-0.4-0.3-0.6-0.8-0.6-1.4s0.2-1.1,0.6-1.4c0.4-0.4,0.8-0.5,1.4-0.5c0.6,0,1.1,0.2,1.4,0.5c0.4,0.3,0.5,0.8,0.5,1.4
	c0,0.6-0.2,1-0.5,1.4C1034.8,97.4,1034.3,97.6,1033.7,97.6z"/>
<path class="st0" d="M128.3,202.7c-3.6,0-6.3-1-8.2-3.1c-1.9-2.1-2.8-5.4-2.8-10.1c0-4.6,1-8,2.9-10.1c1.9-2.1,4.7-3.2,8.4-3.2
	c1.8,0,3.5,0.2,5.1,0.7v2.4c-1.5-0.5-3.2-0.7-5-0.7c-1.9,0-3.5,0.4-4.7,1c-1.2,0.7-2.2,1.8-2.8,3.4c-0.6,1.6-0.9,3.7-0.9,6.4
	c0,2.7,0.3,4.9,1,6.5c0.6,1.6,1.6,2.7,2.8,3.4c1.2,0.7,2.7,1,4.6,1c0.9,0,1.7-0.1,2.5-0.2c0.8-0.2,1.7-0.4,2.6-0.7v2.4
	C132,202.4,130.2,202.7,128.3,202.7z M141.8,202.7c-1.7,0-3.1-0.5-4.1-1.5c-1-1-1.5-2.6-1.5-4.9v-12.9h2.7v12.8
	c0,1.5,0.3,2.5,0.9,3.1c0.6,0.6,1.5,0.9,2.6,0.9c0.8,0,1.7-0.2,2.6-0.6c0.9-0.4,1.6-1.1,2.1-1.9v-14.3h2.7v19h-2.3l-0.2-2h-0.2
	c-0.7,0.8-1.5,1.4-2.4,1.8C143.8,202.5,142.9,202.7,141.8,202.7z M172.7,183.1c1.6,0,3,0.5,3.9,1.5c1,1,1.5,2.6,1.5,4.9v12.8h-2.7
	v-12.7c0-2.7-1.1-4.1-3.3-4.1c-0.8,0-1.5,0.2-2.3,0.6c-0.8,0.4-1.4,1-2,1.9c0,0.4,0.1,0.9,0.1,1.4v12.9h-2.7v-12.7
	c0-1.5-0.3-2.5-0.9-3.2c-0.6-0.6-1.4-0.9-2.4-0.9c-0.8,0-1.6,0.2-2.4,0.6c-0.8,0.4-1.5,1.1-2,2v14.2h-2.7v-19h2.3l0.2,2.1h0.2
	c0.7-0.8,1.5-1.4,2.3-1.8c0.9-0.4,1.8-0.6,2.9-0.6c2.2,0,3.7,0.9,4.5,2.7c0.8-0.9,1.6-1.6,2.6-2
	C170.7,183.3,171.7,183.1,172.7,183.1z M182.7,183.4h2.3l0.2,2h0.2c0.5-0.7,1.2-1.2,2-1.6c0.8-0.4,1.8-0.6,2.8-0.6
	c2.1,0,3.8,0.7,5,2.2c1.3,1.5,1.9,3.9,1.9,7.2c0,3.4-0.8,6-2.3,7.7c-1.5,1.7-3.8,2.5-6.7,2.5c-0.8,0-1.7-0.1-2.6-0.2v7.6h-2.7V183.4
	z M188.1,200.4c2.1,0,3.6-0.6,4.7-1.8c1-1.2,1.6-3.2,1.6-5.9c0-2.7-0.4-4.6-1.3-5.7c-0.8-1.1-2-1.6-3.5-1.6c-0.8,0-1.6,0.2-2.3,0.6
	c-0.7,0.4-1.3,1-1.8,1.7v12.5c0.4,0.1,0.8,0.1,1.3,0.2C187.2,200.4,187.7,200.4,188.1,200.4z M201.1,202.4v-28.3h2.7v28.3H201.1z
	 M208.7,202.4v-19h2.7v19H208.7z M210,179.2c-0.6,0-1.1-0.2-1.4-0.5c-0.3-0.3-0.5-0.7-0.5-1.3c0-0.5,0.2-1,0.5-1.3
	c0.3-0.3,0.8-0.5,1.4-0.5c0.6,0,1.1,0.2,1.4,0.5c0.3,0.3,0.5,0.7,0.5,1.3c0,0.5-0.2,1-0.5,1.3C211.1,179.1,210.6,179.2,210,179.2z
	 M234.2,183.1c1.6,0,3,0.5,3.9,1.5c1,1,1.5,2.6,1.5,4.9v12.8h-2.7v-12.7c0-2.7-1.1-4.1-3.3-4.1c-0.8,0-1.5,0.2-2.3,0.6s-1.4,1-2,1.9
	c0,0.4,0.1,0.9,0.1,1.4v12.9h-2.7v-12.7c0-1.5-0.3-2.5-0.9-3.2c-0.6-0.6-1.4-0.9-2.4-0.9c-0.8,0-1.6,0.2-2.4,0.6
	c-0.8,0.4-1.5,1.1-2,2v14.2h-2.7v-19h2.3l0.2,2.1h0.2c0.7-0.8,1.5-1.4,2.3-1.8c0.9-0.4,1.8-0.6,2.9-0.6c2.2,0,3.7,0.9,4.5,2.7
	c0.8-0.9,1.6-1.6,2.6-2C232.2,183.3,233.2,183.1,234.2,183.1z M244.2,202.4v-19h2.7v19H244.2z M245.6,179.2c-0.6,0-1.1-0.2-1.4-0.5
	c-0.3-0.3-0.5-0.7-0.5-1.3c0-0.5,0.2-1,0.5-1.3c0.3-0.3,0.8-0.5,1.4-0.5c0.6,0,1.1,0.2,1.4,0.5c0.3,0.3,0.5,0.7,0.5,1.3
	c0,0.5-0.2,1-0.5,1.3C246.7,179.1,246.2,179.2,245.6,179.2z M264.9,193.8h-11.3c0,1.7,0.3,3,0.7,3.9c0.4,1,1.1,1.7,1.9,2.1
	c0.9,0.4,2,0.6,3.4,0.6c1.3,0,2.7-0.2,4.4-0.7v2.3c-1.6,0.5-3.2,0.7-4.7,0.7c-1.9,0-3.5-0.3-4.7-1c-1.2-0.7-2.2-1.7-2.8-3.2
	c-0.6-1.4-0.9-3.3-0.9-5.7c0-3.3,0.6-5.8,1.9-7.4c1.3-1.6,3-2.4,5.3-2.4c2.2,0,3.9,0.8,5.1,2.4c1.2,1.6,1.8,4.1,1.8,7.5V193.8z
	 M258.1,185.1c-1.4,0-2.4,0.5-3.2,1.6c-0.8,1-1.2,2.8-1.2,5.3h8.6c0-1.7-0.2-3-0.6-4c-0.3-1-0.8-1.7-1.4-2.1
	C259.7,185.3,259,185.1,258.1,185.1z M268.6,183.4h2.3l0.2,2.1h0.2c0.7-0.8,1.5-1.4,2.5-1.8c0.9-0.4,2-0.6,3-0.6
	c1.8,0,3.1,0.5,4.1,1.5c1,1,1.5,2.6,1.5,4.9v12.9h-2.7v-12.8c0-1.5-0.3-2.5-0.9-3.1c-0.6-0.6-1.5-0.9-2.6-0.9
	c-0.9,0-1.8,0.2-2.6,0.6c-0.9,0.4-1.6,1.1-2.2,1.9v14.3h-2.7V183.4z M294.5,200.3c0.6,0,1.3-0.1,2.1-0.3v2.3
	c-0.9,0.2-1.8,0.3-2.7,0.3c-1.9,0-3.3-0.5-4.3-1.5c-1-1-1.5-2.5-1.5-4.6v-11h-3.4v-2.3h3.4l0.4-6.9h2.3v6.9h5.4v2.3H291v10.6
	c0,1.5,0.3,2.5,0.8,3.1C292.4,200,293.3,200.3,294.5,200.3z M305.7,202.7c-2.4,0-4.3-0.8-5.6-2.4c-1.3-1.6-2-4.1-2-7.4
	c0-3.4,0.7-5.8,2-7.4c1.3-1.6,3.2-2.4,5.6-2.4c2.4,0,4.3,0.8,5.6,2.4c1.3,1.6,2,4.1,2,7.4c0,3.3-0.7,5.8-2,7.4
	C310,201.9,308.1,202.7,305.7,202.7z M305.7,200.5c1,0,1.9-0.2,2.6-0.7c0.7-0.5,1.3-1.3,1.6-2.4c0.4-1.1,0.6-2.6,0.6-4.5
	c0-1.9-0.2-3.4-0.6-4.5c-0.4-1.1-0.9-1.9-1.6-2.4c-0.7-0.5-1.6-0.7-2.6-0.7c-1,0-1.9,0.2-2.6,0.7c-0.7,0.5-1.2,1.3-1.6,2.4
	c-0.4,1.1-0.6,2.6-0.6,4.4c0,1.9,0.2,3.4,0.6,4.5c0.4,1.1,0.9,1.9,1.6,2.4C303.8,200.2,304.7,200.5,305.7,200.5z M321.3,202.7
	c-1.8,0-3.4-0.2-4.8-0.7v-2.2c1.7,0.5,3.3,0.8,4.8,0.8c1.4,0,2.5-0.3,3.3-0.8c0.7-0.6,1.1-1.4,1.1-2.4c0-0.9-0.2-1.5-0.7-2
	c-0.4-0.5-1.1-0.8-2.1-1.1l-2.2-0.5c-1.6-0.4-2.8-1-3.5-1.8c-0.7-0.8-1.1-1.9-1.1-3.3c0-1.1,0.3-2,0.8-2.8c0.5-0.8,1.3-1.5,2.4-1.9
	c1.1-0.5,2.4-0.7,3.9-0.7c1.4,0,2.8,0.2,4.1,0.5v2.2c-1.3-0.3-2.6-0.5-4-0.5c-1.6,0-2.7,0.3-3.5,0.9c-0.7,0.6-1.1,1.3-1.1,2.3
	c0,0.8,0.2,1.4,0.6,1.9c0.4,0.5,1.1,0.8,2,1.1l2.2,0.5c1.7,0.4,2.9,1,3.6,1.9c0.7,0.8,1.1,1.9,1.1,3.4c0,1.1-0.3,2.1-0.8,3
	c-0.5,0.8-1.3,1.5-2.4,1.9C324,202.5,322.8,202.7,321.3,202.7z M345.6,202.4v-23.5h-8.1v-2.4h19v2.4h-8.1v23.5H345.6z M357,183.4
	h2.3l0.2,2.5h0.2c0.6-0.9,1.3-1.6,2.2-2c0.9-0.5,1.9-0.7,2.9-0.7c0.5,0,0.9,0,1.3,0.1v2.6c-0.4-0.1-0.9-0.1-1.4-0.1
	c-1,0-1.9,0.2-2.8,0.7c-0.9,0.5-1.6,1.2-2.1,2v13.8H357V183.4z M368.8,202.4v-19h2.7v19H368.8z M370.2,179.2c-0.6,0-1.1-0.2-1.4-0.5
	c-0.3-0.3-0.5-0.7-0.5-1.3c0-0.5,0.2-1,0.5-1.3c0.3-0.3,0.8-0.5,1.4-0.5c0.6,0,1.1,0.2,1.4,0.5c0.3,0.3,0.5,0.7,0.5,1.3
	c0,0.5-0.2,1-0.5,1.3C371.2,179.1,370.8,179.2,370.2,179.2z M381.7,202.7c-0.9,0-1.8-0.1-2.8-0.2c-0.9-0.1-1.8-0.3-2.5-0.6v-27.8
	h2.7v11.1h0.2c0.5-0.6,1.2-1.2,2-1.5c0.8-0.4,1.7-0.6,2.8-0.6c1.3,0,2.4,0.3,3.4,0.9c1,0.6,1.8,1.6,2.4,3c0.6,1.4,0.9,3.2,0.9,5.5
	C390.8,199.3,387.8,202.7,381.7,202.7z M381.9,200.4c2,0,3.6-0.6,4.6-1.8c1-1.2,1.5-3.2,1.5-5.9c0-2.7-0.4-4.6-1.3-5.7
	c-0.8-1.1-2-1.6-3.5-1.6c-0.8,0-1.6,0.2-2.3,0.6c-0.7,0.4-1.3,0.9-1.8,1.6v12.5c0.4,0.1,0.8,0.2,1.3,0.3
	C380.9,200.4,381.4,200.4,381.9,200.4z M400.2,202.7c-1.7,0-3.1-0.5-4.1-1.5c-1-1-1.5-2.6-1.5-4.9v-12.9h2.7v12.8
	c0,1.5,0.3,2.5,0.9,3.1c0.6,0.6,1.5,0.9,2.6,0.9c0.8,0,1.7-0.2,2.6-0.6c0.9-0.4,1.6-1.1,2.1-1.9v-14.3h2.7v19h-2.3l-0.2-2h-0.2
	c-0.7,0.8-1.5,1.4-2.4,1.8C402.2,202.5,401.2,202.7,400.2,202.7z M420.5,200.3c0.6,0,1.3-0.1,2.1-0.3v2.3c-0.9,0.2-1.8,0.3-2.7,0.3
	c-1.9,0-3.3-0.5-4.3-1.5c-1-1-1.5-2.5-1.5-4.6v-11h-3.4v-2.3h3.4l0.4-6.9h2.3v6.9h5.4v2.3H417v10.6c0,1.5,0.3,2.5,0.8,3.1
	C418.4,200,419.3,200.3,420.5,200.3z M430.6,183.1c1.6,0,2.9,0.2,3.9,0.6c1,0.4,1.8,1.1,2.3,2.1c0.5,1,0.8,2.3,0.8,4v12.5h-2.3
	l-0.2-2.1h-0.2c-0.6,0.8-1.3,1.4-2.2,1.8c-0.9,0.4-1.8,0.6-2.9,0.6c-1.1,0-2.1-0.2-2.9-0.6c-0.8-0.4-1.5-1-1.9-1.8
	c-0.4-0.8-0.7-1.7-0.7-2.8c0-1.7,0.5-3,1.6-3.9c1.1-0.9,2.7-1.5,5-1.7l3.9-0.4v-1.8c0-1.1-0.2-2-0.5-2.6c-0.3-0.6-0.8-1.1-1.5-1.3
	c-0.7-0.3-1.5-0.4-2.6-0.4c-0.7,0-1.5,0.1-2.3,0.2c-0.8,0.1-1.7,0.3-2.5,0.6v-2.3c0.7-0.2,1.6-0.4,2.5-0.6
	C428.9,183.2,429.8,183.1,430.6,183.1z M430.5,200.5c0.8,0,1.6-0.2,2.4-0.6c0.8-0.4,1.4-1,2-1.8v-4.8l-3.8,0.4
	c-1.4,0.1-2.4,0.5-3,1.1c-0.6,0.6-1,1.4-1,2.4c0,1.1,0.3,1.9,0.9,2.5C428.5,200.3,429.3,200.5,430.5,200.5z M442.2,183.4h2.3
	l0.2,2.5h0.2c0.6-0.9,1.3-1.6,2.2-2c0.9-0.5,1.9-0.7,2.9-0.7c0.5,0,0.9,0,1.3,0.1v2.6c-0.4-0.1-0.9-0.1-1.4-0.1
	c-1,0-1.9,0.2-2.8,0.7c-0.9,0.5-1.6,1.2-2.1,2v13.8h-2.7V183.4z M454,202.4v-19h2.7v19H454z M455.4,179.2c-0.6,0-1.1-0.2-1.4-0.5
	c-0.3-0.3-0.5-0.7-0.5-1.3c0-0.5,0.2-1,0.5-1.3c0.3-0.3,0.8-0.5,1.4-0.5c0.6,0,1.1,0.2,1.4,0.5c0.3,0.3,0.5,0.7,0.5,1.3
	c0,0.5-0.2,1-0.5,1.3C456.5,179.1,456,179.2,455.4,179.2z M468.3,202.7c-2.4,0-4.3-0.8-5.6-2.4c-1.3-1.6-2-4.1-2-7.4
	c0-3.4,0.7-5.8,2-7.4c1.3-1.6,3.2-2.4,5.6-2.4c2.4,0,4.3,0.8,5.6,2.4c1.3,1.6,2,4.1,2,7.4c0,3.3-0.7,5.8-2,7.4
	C472.5,201.9,470.7,202.7,468.3,202.7z M468.3,200.5c1,0,1.9-0.2,2.6-0.7c0.7-0.5,1.3-1.3,1.6-2.4c0.4-1.1,0.6-2.6,0.6-4.5
	c0-1.9-0.2-3.4-0.6-4.5c-0.4-1.1-0.9-1.9-1.6-2.4c-0.7-0.5-1.6-0.7-2.6-0.7c-1,0-1.9,0.2-2.6,0.7c-0.7,0.5-1.2,1.3-1.6,2.4
	c-0.4,1.1-0.6,2.6-0.6,4.4c0,1.9,0.2,3.4,0.6,4.5c0.4,1.1,0.9,1.9,1.6,2.4C466.3,200.2,467.2,200.5,468.3,200.5z M483.8,202.7
	c-1.8,0-3.4-0.2-4.8-0.7v-2.2c1.7,0.5,3.3,0.8,4.8,0.8c1.4,0,2.5-0.3,3.3-0.8c0.7-0.6,1.1-1.4,1.1-2.4c0-0.9-0.2-1.5-0.7-2
	c-0.4-0.5-1.1-0.8-2.1-1.1l-2.2-0.5c-1.6-0.4-2.8-1-3.5-1.8c-0.7-0.8-1.1-1.9-1.1-3.3c0-1.1,0.3-2,0.8-2.8c0.5-0.8,1.3-1.5,2.4-1.9
	c1.1-0.5,2.4-0.7,3.9-0.7c1.4,0,2.8,0.2,4.1,0.5v2.2c-1.3-0.3-2.6-0.5-4-0.5c-1.6,0-2.7,0.3-3.5,0.9c-0.7,0.6-1.1,1.3-1.1,2.3
	c0,0.8,0.2,1.4,0.6,1.9c0.4,0.5,1.1,0.8,2,1.1l2.2,0.5c1.7,0.4,2.9,1,3.6,1.9c0.7,0.8,1.1,1.9,1.1,3.4c0,1.1-0.3,2.1-0.8,3
	c-0.5,0.8-1.3,1.5-2.4,1.9C486.6,202.5,485.3,202.7,483.8,202.7z M495.6,202.6c-0.6,0-1.1-0.2-1.4-0.5c-0.4-0.3-0.5-0.8-0.5-1.4
	s0.2-1.1,0.5-1.4c0.4-0.4,0.8-0.5,1.4-0.5s1.1,0.2,1.4,0.5c0.4,0.3,0.5,0.8,0.5,1.4c0,0.6-0.2,1-0.5,1.4
	C496.7,202.4,496.2,202.6,495.6,202.6z"/>
<path class="st0" d="M119.8,229.8c2.1-0.4,4.1-0.6,6.1-0.6c3.3,0,5.8,0.7,7.5,2.2c1.7,1.4,2.5,3.7,2.5,6.7c0,5.9-3.5,8.8-10.4,8.8
	c-0.9,0-1.9,0-3-0.1v8.6h-2.8V229.8z M125.6,244.6c2.6,0,4.5-0.5,5.7-1.6c1.2-1.1,1.8-2.7,1.8-4.9c0-2.3-0.6-4-1.7-5
	c-1.1-1.1-2.9-1.6-5.3-1.6c-1.3,0-2.4,0.1-3.6,0.3v12.7C123.4,244.5,124.4,244.6,125.6,244.6z M139.8,255.4v-28.3h2.7v28.3H139.8z
	 M152.7,236.1c1.6,0,2.9,0.2,3.9,0.6c1,0.4,1.8,1.1,2.3,2.1c0.5,1,0.8,2.3,0.8,4v12.5h-2.3l-0.2-2.1h-0.2c-0.6,0.8-1.3,1.4-2.2,1.8
	c-0.9,0.4-1.8,0.6-2.9,0.6c-1.1,0-2.1-0.2-2.9-0.6c-0.8-0.4-1.5-1-1.9-1.8c-0.4-0.8-0.7-1.7-0.7-2.8c0-1.7,0.5-3,1.6-3.9
	c1.1-0.9,2.7-1.5,5-1.7l3.9-0.4v-1.8c0-1.1-0.2-2-0.5-2.6c-0.3-0.6-0.8-1.1-1.5-1.3c-0.7-0.3-1.5-0.4-2.6-0.4
	c-0.7,0-1.5,0.1-2.3,0.2c-0.8,0.1-1.7,0.3-2.4,0.6v-2.3c0.7-0.2,1.6-0.4,2.5-0.6C150.9,236.2,151.8,236.1,152.7,236.1z M152.5,253.5
	c0.8,0,1.6-0.2,2.4-0.6c0.8-0.4,1.4-1,2-1.8v-4.8l-3.8,0.4c-1.4,0.1-2.4,0.5-3,1.1c-0.6,0.6-1,1.4-1,2.4c0,1.1,0.3,1.9,0.9,2.5
	C150.6,253.3,151.4,253.5,152.5,253.5z M164.3,236.4h2.3l0.2,2.1h0.2c0.7-0.8,1.5-1.4,2.4-1.8c0.9-0.4,2-0.6,3-0.6
	c1.8,0,3.1,0.5,4.1,1.5c1,1,1.5,2.6,1.5,4.9v12.9h-2.7v-12.8c0-1.5-0.3-2.5-0.9-3.1c-0.6-0.6-1.5-0.9-2.6-0.9
	c-0.9,0-1.8,0.2-2.6,0.6c-0.9,0.4-1.6,1.1-2.2,1.9v14.3h-2.7V236.4z M182.8,255.4v-19h2.7v19H182.8z M184.1,232.2
	c-0.6,0-1.1-0.2-1.4-0.5c-0.3-0.3-0.5-0.7-0.5-1.3c0-0.5,0.2-1,0.5-1.3c0.3-0.3,0.8-0.5,1.4-0.5c0.6,0,1.1,0.2,1.4,0.5
	c0.3,0.3,0.5,0.7,0.5,1.3c0,0.5-0.2,1-0.5,1.3C185.2,232.1,184.8,232.2,184.1,232.2z M191.6,232.9c0-2,0.5-3.5,1.6-4.6
	c1.1-1.1,2.6-1.6,4.6-1.6c0.9,0,1.7,0.1,2.4,0.2v2.3c-0.7-0.1-1.4-0.2-2.1-0.2c-1.3,0-2.2,0.3-2.8,0.9c-0.6,0.6-0.9,1.5-0.9,2.9v3.6
	h5.4v2.3h-5.4v16.7h-2.7v-16.7h-3.4v-2.3h3.4V232.9z M203.3,228.7c0.6,0,1.1,0.2,1.4,0.5c0.3,0.3,0.5,0.7,0.5,1.3
	c0,0.5-0.2,1-0.5,1.3c-0.3,0.3-0.8,0.5-1.4,0.5c-0.6,0-1.1-0.2-1.4-0.5c-0.3-0.3-0.5-0.7-0.5-1.3c0-0.5,0.2-1,0.5-1.3
	C202.2,228.9,202.7,228.7,203.3,228.7z M202,255.4v-19h2.7v19H202z M216.5,255.7c-2.6,0-4.6-0.8-5.9-2.3c-1.3-1.6-2-4.1-2-7.5
	c0-3.4,0.7-5.9,2.2-7.5c1.4-1.6,3.6-2.3,6.5-2.3c1.3,0,2.5,0.1,3.6,0.4v2.3c-1.1-0.3-2.2-0.4-3.2-0.4c-1.4,0-2.6,0.2-3.5,0.7
	c-0.9,0.5-1.6,1.2-2,2.3c-0.4,1.1-0.6,2.5-0.6,4.4c0,1.9,0.2,3.4,0.6,4.5c0.4,1.1,1,1.9,1.8,2.4c0.8,0.5,1.8,0.7,3.1,0.7
	c1.1,0,2.4-0.2,3.9-0.7v2.3C219.4,255.4,218,255.7,216.5,255.7z M229,236.1c1.6,0,2.9,0.2,3.9,0.6c1,0.4,1.8,1.1,2.3,2.1
	c0.5,1,0.8,2.3,0.8,4v12.5h-2.3l-0.2-2.1h-0.2c-0.6,0.8-1.3,1.4-2.2,1.8c-0.9,0.4-1.8,0.6-2.9,0.6c-1.1,0-2.1-0.2-2.9-0.6
	c-0.8-0.4-1.5-1-1.9-1.8c-0.4-0.8-0.7-1.7-0.7-2.8c0-1.7,0.5-3,1.6-3.9c1.1-0.9,2.7-1.5,5-1.7l3.9-0.4v-1.8c0-1.1-0.2-2-0.5-2.6
	c-0.3-0.6-0.8-1.1-1.5-1.3c-0.7-0.3-1.5-0.4-2.6-0.4c-0.7,0-1.5,0.1-2.3,0.2c-0.8,0.1-1.7,0.3-2.4,0.6v-2.3c0.7-0.2,1.6-0.4,2.5-0.6
	C227.3,236.2,228.2,236.1,229,236.1z M228.9,253.5c0.8,0,1.6-0.2,2.4-0.6c0.8-0.4,1.4-1,2-1.8v-4.8l-3.8,0.4c-1.4,0.1-2.4,0.5-3,1.1
	c-0.6,0.6-1,1.4-1,2.4c0,1.1,0.3,1.9,0.9,2.5C226.9,253.3,227.8,253.5,228.9,253.5z M247.6,255.7c-2.6,0-4.6-0.8-5.9-2.3
	c-1.3-1.6-2-4.1-2-7.5c0-3.4,0.7-5.9,2.2-7.5c1.4-1.6,3.6-2.3,6.5-2.3c1.3,0,2.5,0.1,3.6,0.4v2.3c-1.1-0.3-2.2-0.4-3.2-0.4
	c-1.4,0-2.6,0.2-3.5,0.7c-0.9,0.5-1.6,1.2-2,2.3c-0.4,1.1-0.6,2.5-0.6,4.4c0,1.9,0.2,3.4,0.6,4.5c0.4,1.1,1,1.9,1.8,2.4
	c0.8,0.5,1.8,0.7,3.1,0.7c1.1,0,2.4-0.2,3.9-0.7v2.3C250.5,255.4,249,255.7,247.6,255.7z M254.9,255.4v-19h2.7v19H254.9z
	 M256.3,232.2c-0.6,0-1.1-0.2-1.4-0.5c-0.3-0.3-0.5-0.7-0.5-1.3c0-0.5,0.2-1,0.5-1.3c0.3-0.3,0.8-0.5,1.4-0.5c0.6,0,1.1,0.2,1.4,0.5
	c0.3,0.3,0.5,0.7,0.5,1.3c0,0.5-0.2,1-0.5,1.3C257.3,232.1,256.9,232.2,256.3,232.2z M269.1,255.7c-2.4,0-4.3-0.8-5.6-2.4
	c-1.3-1.6-2-4.1-2-7.4c0-3.4,0.7-5.8,2-7.4c1.3-1.6,3.2-2.4,5.6-2.4c2.4,0,4.3,0.8,5.6,2.4c1.3,1.6,2,4.1,2,7.4c0,3.3-0.7,5.8-2,7.4
	C273.4,254.9,271.5,255.7,269.1,255.7z M269.1,253.5c1,0,1.9-0.2,2.6-0.7c0.7-0.5,1.3-1.3,1.6-2.4c0.4-1.1,0.6-2.6,0.6-4.5
	c0-1.9-0.2-3.4-0.6-4.5c-0.4-1.1-0.9-1.9-1.6-2.4c-0.7-0.5-1.6-0.7-2.6-0.7c-1,0-1.9,0.2-2.6,0.7c-0.7,0.5-1.2,1.3-1.6,2.4
	c-0.4,1.1-0.6,2.6-0.6,4.4c0,1.9,0.2,3.4,0.6,4.6c0.4,1.1,0.9,1.9,1.6,2.4C267.2,253.2,268.1,253.5,269.1,253.5z M267.9,233.4
	l3.2-6.4h2.9l-3.7,6.4H267.9z M280.6,236.4h2.3l0.2,2.1h0.2c0.7-0.8,1.5-1.4,2.5-1.8c0.9-0.4,2-0.6,3-0.6c1.8,0,3.1,0.5,4.1,1.5
	c1,1,1.5,2.6,1.5,4.9v12.9h-2.7v-12.8c0-1.5-0.3-2.5-0.9-3.1c-0.6-0.6-1.5-0.9-2.6-0.9c-0.9,0-1.8,0.2-2.6,0.6
	c-0.9,0.4-1.6,1.1-2.2,1.9v14.3h-2.7V236.4z M312.9,255.4v-23.5h-8.1v-2.4h19v2.4h-8.1v23.5H312.9z M324.3,236.4h2.3l0.2,2.5h0.2
	c0.6-0.9,1.3-1.6,2.2-2c0.9-0.5,1.9-0.7,2.9-0.7c0.5,0,0.9,0,1.3,0.1v2.6c-0.4-0.1-0.9-0.1-1.4-0.1c-1,0-1.9,0.2-2.8,0.7
	c-0.9,0.5-1.6,1.2-2.1,2v13.8h-2.7V236.4z M336.1,255.4v-19h2.7v19H336.1z M337.5,232.2c-0.6,0-1.1-0.2-1.4-0.5
	c-0.3-0.3-0.5-0.7-0.5-1.3c0-0.5,0.2-1,0.5-1.3c0.3-0.3,0.8-0.5,1.4-0.5c0.6,0,1.1,0.2,1.4,0.5c0.3,0.3,0.5,0.7,0.5,1.3
	c0,0.5-0.2,1-0.5,1.3C338.6,232.1,338.1,232.2,337.5,232.2z M349,255.7c-0.9,0-1.8-0.1-2.8-0.2c-0.9-0.1-1.8-0.3-2.5-0.6v-27.8h2.7
	v11.1h0.2c0.5-0.6,1.2-1.2,2-1.5c0.8-0.4,1.7-0.6,2.8-0.6c1.3,0,2.4,0.3,3.4,0.9c1,0.6,1.8,1.6,2.4,3c0.6,1.4,0.9,3.2,0.9,5.5
	C358.1,252.3,355.1,255.7,349,255.7z M349.2,253.4c2,0,3.6-0.6,4.6-1.8c1-1.2,1.5-3.2,1.5-5.9c0-2.7-0.4-4.6-1.3-5.7
	c-0.8-1.1-2-1.6-3.5-1.6c-0.8,0-1.6,0.2-2.3,0.6c-0.7,0.4-1.3,0.9-1.8,1.6v12.5c0.4,0.1,0.8,0.2,1.3,0.3
	C348.2,253.4,348.7,253.4,349.2,253.4z M367.5,255.7c-1.7,0-3.1-0.5-4.1-1.5c-1-1-1.5-2.6-1.5-4.9v-12.9h2.7v12.8
	c0,1.5,0.3,2.5,0.9,3.1s1.5,0.9,2.6,0.9c0.8,0,1.7-0.2,2.6-0.6c0.9-0.4,1.6-1.1,2.1-1.9v-14.3h2.7v19h-2.3l-0.2-2h-0.2
	c-0.7,0.8-1.5,1.4-2.4,1.8C369.5,255.5,368.5,255.7,367.5,255.7z M387.9,253.3c0.6,0,1.3-0.1,2.1-0.3v2.3c-0.9,0.2-1.8,0.3-2.7,0.3
	c-1.9,0-3.3-0.5-4.3-1.5c-1-1-1.5-2.5-1.5-4.5v-11h-3.4v-2.3h3.4l0.4-6.9h2.3v6.9h5.4v2.3h-5.4v10.6c0,1.5,0.3,2.5,0.8,3.1
	C385.7,253,386.6,253.3,387.9,253.3z M397.9,236.1c1.6,0,2.9,0.2,3.9,0.6c1,0.4,1.8,1.1,2.3,2.1c0.5,1,0.8,2.3,0.8,4v12.5h-2.3
	l-0.2-2.1h-0.2c-0.6,0.8-1.3,1.4-2.2,1.8c-0.9,0.4-1.8,0.6-2.9,0.6c-1.1,0-2.1-0.2-2.9-0.6c-0.8-0.4-1.5-1-1.9-1.8s-0.7-1.7-0.7-2.8
	c0-1.7,0.5-3,1.6-3.9c1.1-0.9,2.7-1.5,5-1.7l3.9-0.4v-1.8c0-1.1-0.2-2-0.5-2.6c-0.3-0.6-0.8-1.1-1.5-1.3c-0.7-0.3-1.5-0.4-2.6-0.4
	c-0.7,0-1.5,0.1-2.3,0.2c-0.8,0.1-1.7,0.3-2.4,0.6v-2.3c0.7-0.2,1.6-0.4,2.5-0.6C396.2,236.2,397.1,236.1,397.9,236.1z M397.8,253.5
	c0.8,0,1.6-0.2,2.4-0.6s1.4-1,2-1.8v-4.8l-3.8,0.4c-1.4,0.1-2.4,0.5-3,1.1c-0.6,0.6-1,1.4-1,2.4c0,1.1,0.3,1.9,0.9,2.5
	C395.8,253.3,396.7,253.5,397.8,253.5z M409.5,236.4h2.3l0.2,2.5h0.2c0.6-0.9,1.3-1.6,2.2-2c0.9-0.5,1.9-0.7,2.9-0.7
	c0.5,0,0.9,0,1.3,0.1v2.6c-0.4-0.1-0.9-0.1-1.4-0.1c-1,0-1.9,0.2-2.8,0.7c-0.9,0.5-1.6,1.2-2.1,2v13.8h-2.7V236.4z M421.4,255.4v-19
	h2.7v19H421.4z M422.7,232.2c-0.6,0-1.1-0.2-1.4-0.5c-0.3-0.3-0.5-0.7-0.5-1.3c0-0.5,0.2-1,0.5-1.3c0.3-0.3,0.8-0.5,1.4-0.5
	c0.6,0,1.1,0.2,1.4,0.5c0.3,0.3,0.5,0.7,0.5,1.3c0,0.5-0.2,1-0.5,1.3C423.8,232.1,423.3,232.2,422.7,232.2z M434.2,236.1
	c1.6,0,2.9,0.2,3.9,0.6c1,0.4,1.8,1.1,2.3,2.1c0.5,1,0.8,2.3,0.8,4v12.5h-2.3l-0.2-2.1h-0.2c-0.6,0.8-1.3,1.4-2.2,1.8
	c-0.9,0.4-1.8,0.6-2.9,0.6c-1.1,0-2.1-0.2-2.9-0.6c-0.8-0.4-1.5-1-1.9-1.8c-0.4-0.8-0.7-1.7-0.7-2.8c0-1.7,0.5-3,1.6-3.9
	c1.1-0.9,2.7-1.5,5-1.7l3.9-0.4v-1.8c0-1.1-0.2-2-0.5-2.6c-0.3-0.6-0.8-1.1-1.5-1.3c-0.7-0.3-1.5-0.4-2.6-0.4
	c-0.7,0-1.5,0.1-2.3,0.2c-0.8,0.1-1.7,0.3-2.5,0.6v-2.3c0.7-0.2,1.6-0.4,2.5-0.6C432.5,236.2,433.4,236.1,434.2,236.1z M434.1,253.5
	c0.8,0,1.6-0.2,2.4-0.6c0.8-0.4,1.4-1,2-1.8v-4.8l-3.8,0.4c-1.4,0.1-2.4,0.5-3,1.1c-0.6,0.6-1,1.4-1,2.4c0,1.1,0.3,1.9,0.9,2.5
	C432.1,253.3,433,253.5,434.1,253.5z M447.2,255.6c-0.6,0-1.1-0.2-1.4-0.5c-0.4-0.3-0.5-0.8-0.5-1.4s0.2-1,0.5-1.4
	c0.4-0.3,0.8-0.5,1.4-0.5s1.1,0.2,1.4,0.5c0.4,0.4,0.5,0.8,0.5,1.4c0,0.6-0.2,1-0.5,1.4C448.3,255.4,447.8,255.6,447.2,255.6z"/>
<path class="st0" d="M124.4,308.6c-1.8,0-3.6-0.1-5.5-0.3v-25.4c2.2-0.4,4.3-0.6,6.2-0.6c4.1,0,7.1,1.1,9.2,3.2c2,2.2,3,5.5,3,10
	c0,3.1-0.5,5.6-1.4,7.5c-1,1.9-2.4,3.4-4.3,4.3C129.6,308.1,127.2,308.6,124.4,308.6z M124.9,306.2c2.1,0,3.9-0.4,5.3-1.1
	c1.4-0.7,2.4-1.9,3.1-3.5c0.7-1.6,1.1-3.7,1.1-6.2c0-2.5-0.3-4.6-1-6.2c-0.7-1.6-1.7-2.8-3-3.5c-1.4-0.7-3.1-1.1-5.2-1.1
	c-1,0-2.2,0.1-3.5,0.3V306C122.6,306.1,123.6,306.2,124.9,306.2z M154.5,299.8h-11.3c0,1.7,0.3,3,0.7,3.9c0.4,1,1.1,1.7,1.9,2.1
	c0.9,0.4,2,0.6,3.4,0.6c1.3,0,2.7-0.2,4.4-0.7v2.3c-1.6,0.5-3.2,0.7-4.7,0.7c-1.9,0-3.5-0.3-4.7-1c-1.2-0.7-2.2-1.7-2.8-3.2
	c-0.6-1.4-0.9-3.3-0.9-5.7c0-3.3,0.6-5.8,1.9-7.4c1.3-1.6,3-2.4,5.3-2.4c2.2,0,3.9,0.8,5.1,2.4c1.2,1.6,1.8,4.1,1.8,7.5V299.8z
	 M147.6,291.1c-1.4,0-2.4,0.5-3.2,1.6c-0.8,1-1.2,2.8-1.2,5.3h8.6c0-1.7-0.2-3-0.6-4c-0.3-1-0.8-1.7-1.4-2.1
	C149.3,291.3,148.5,291.1,147.6,291.1z M165.2,308.7c-2.6,0-4.6-0.8-5.9-2.3c-1.3-1.6-2-4.1-2-7.5c0-3.4,0.7-5.9,2.2-7.5
	c1.4-1.6,3.6-2.3,6.5-2.3c1.3,0,2.5,0.1,3.6,0.4v2.3c-1.1-0.3-2.2-0.4-3.2-0.4c-1.4,0-2.6,0.2-3.5,0.7c-0.9,0.5-1.6,1.2-2,2.3
	c-0.4,1.1-0.6,2.5-0.6,4.4c0,1.9,0.2,3.4,0.6,4.5c0.4,1.1,1,1.9,1.8,2.4c0.8,0.5,1.8,0.7,3.1,0.7c1.1,0,2.4-0.2,3.9-0.7v2.3
	C168,308.4,166.6,308.7,165.2,308.7z M172.5,308.4v-28.3h2.7v28.3H172.5z M185.3,289.1c1.6,0,2.9,0.2,3.9,0.6c1,0.4,1.8,1.1,2.3,2.1
	c0.5,1,0.8,2.3,0.8,4v12.5h-2.3l-0.2-2.1h-0.2c-0.6,0.8-1.3,1.4-2.2,1.8c-0.9,0.4-1.8,0.6-2.9,0.6c-1.1,0-2.1-0.2-2.9-0.6
	c-0.8-0.4-1.5-1-1.9-1.8c-0.4-0.8-0.7-1.7-0.7-2.8c0-1.7,0.5-3,1.6-3.9c1.1-0.9,2.7-1.5,5-1.7l3.9-0.4v-1.8c0-1.1-0.2-2-0.5-2.6
	c-0.3-0.6-0.8-1.1-1.5-1.3c-0.7-0.3-1.5-0.4-2.6-0.4c-0.7,0-1.5,0.1-2.3,0.2c-0.8,0.1-1.7,0.3-2.4,0.6v-2.3c0.7-0.2,1.6-0.4,2.5-0.6
	C183.6,289.2,184.5,289.1,185.3,289.1z M185.2,306.5c0.8,0,1.6-0.2,2.4-0.6c0.8-0.4,1.4-1,2-1.8v-4.8l-3.8,0.4
	c-1.4,0.1-2.4,0.5-3,1.1c-0.6,0.6-1,1.4-1,2.4c0,1.1,0.3,1.9,0.9,2.5C183.2,306.3,184.1,306.5,185.2,306.5z M196.9,289.4h2.3
	l0.2,2.5h0.2c0.6-0.9,1.3-1.6,2.2-2c0.9-0.5,1.9-0.7,2.9-0.7c0.5,0,0.9,0,1.3,0.1v2.6c-0.4-0.1-0.9-0.1-1.4-0.1
	c-1,0-1.9,0.2-2.8,0.7c-0.9,0.5-1.6,1.2-2.1,2v13.8h-2.7V289.4z M213.4,289.1c1.6,0,2.9,0.2,3.9,0.6c1,0.4,1.8,1.1,2.3,2.1
	c0.5,1,0.8,2.3,0.8,4v12.5H218l-0.2-2.1h-0.2c-0.6,0.8-1.3,1.4-2.2,1.8c-0.9,0.4-1.8,0.6-2.9,0.6c-1.1,0-2.1-0.2-2.9-0.6
	c-0.8-0.4-1.5-1-1.9-1.8c-0.4-0.8-0.7-1.7-0.7-2.8c0-1.7,0.5-3,1.6-3.9c1.1-0.9,2.7-1.5,5-1.7l3.9-0.4v-1.8c0-1.1-0.2-2-0.5-2.6
	c-0.3-0.6-0.8-1.1-1.5-1.3c-0.7-0.3-1.5-0.4-2.6-0.4c-0.7,0-1.5,0.1-2.3,0.2c-0.8,0.1-1.7,0.3-2.4,0.6v-2.3c0.7-0.2,1.6-0.4,2.5-0.6
	C211.6,289.2,212.5,289.1,213.4,289.1z M213.2,306.5c0.8,0,1.6-0.2,2.4-0.6c0.8-0.4,1.4-1,2-1.8v-4.8l-3.8,0.4
	c-1.4,0.1-2.4,0.5-3,1.1c-0.6,0.6-1,1.4-1,2.4c0,1.1,0.3,1.9,0.9,2.5C211.3,306.3,212.1,306.5,213.2,306.5z M231.9,308.7
	c-2.6,0-4.6-0.8-5.9-2.3c-1.3-1.6-2-4.1-2-7.5c0-3.4,0.7-5.9,2.2-7.5c1.4-1.6,3.6-2.3,6.5-2.3c1.3,0,2.5,0.1,3.6,0.4v2.3
	c-1.1-0.3-2.2-0.4-3.2-0.4c-1.4,0-2.6,0.2-3.5,0.7c-0.9,0.5-1.6,1.2-2,2.3c-0.4,1.1-0.6,2.5-0.6,4.4c0,1.9,0.2,3.4,0.6,4.5
	c0.4,1.1,1,1.9,1.8,2.4c0.8,0.5,1.8,0.7,3.1,0.7c1.1,0,2.4-0.2,3.9-0.7v2.3C234.8,308.4,233.4,308.7,231.9,308.7z M239.3,308.4v-19
	h2.7v19H239.3z M240.6,285.2c-0.6,0-1.1-0.2-1.4-0.5c-0.3-0.3-0.5-0.7-0.5-1.3c0-0.5,0.2-1,0.5-1.3c0.3-0.3,0.8-0.5,1.4-0.5
	c0.6,0,1.1,0.2,1.4,0.5c0.3,0.3,0.5,0.7,0.5,1.3c0,0.5-0.2,1-0.5,1.3C241.7,285.1,241.2,285.2,240.6,285.2z M253.5,308.7
	c-2.4,0-4.3-0.8-5.6-2.4c-1.3-1.6-2-4.1-2-7.4c0-3.4,0.7-5.8,2-7.4c1.3-1.6,3.2-2.4,5.6-2.4c2.4,0,4.3,0.8,5.6,2.4
	c1.3,1.6,2,4.1,2,7.4c0,3.3-0.7,5.8-2,7.4C257.7,307.9,255.9,308.7,253.5,308.7z M253.5,306.5c1,0,1.9-0.2,2.6-0.7
	c0.7-0.5,1.3-1.3,1.6-2.4c0.4-1.1,0.6-2.6,0.6-4.5c0-1.9-0.2-3.4-0.6-4.5c-0.4-1.1-0.9-1.9-1.6-2.4c-0.7-0.5-1.6-0.7-2.6-0.7
	c-1,0-1.9,0.2-2.6,0.7c-0.7,0.5-1.2,1.3-1.6,2.4c-0.4,1.1-0.6,2.6-0.6,4.4c0,1.9,0.2,3.4,0.6,4.6c0.4,1.1,0.9,1.9,1.6,2.4
	C251.6,306.2,252.4,306.5,253.5,306.5z M265,289.4h2.3l0.2,2.1h0.2c0.7-0.8,1.5-1.4,2.5-1.8c0.9-0.4,2-0.6,3-0.6
	c1.8,0,3.1,0.5,4.1,1.5c1,1,1.5,2.6,1.5,4.9v12.9H276v-12.8c0-1.5-0.3-2.5-0.9-3.1c-0.6-0.6-1.5-0.9-2.6-0.9c-0.9,0-1.8,0.2-2.6,0.6
	c-0.9,0.4-1.6,1.1-2.2,1.9v14.3H265V289.4z M296.6,299.8h-11.3c0,1.7,0.3,3,0.7,3.9c0.4,1,1.1,1.7,1.9,2.1c0.9,0.4,2,0.6,3.4,0.6
	c1.3,0,2.7-0.2,4.4-0.7v2.3c-1.6,0.5-3.2,0.7-4.7,0.7c-1.9,0-3.5-0.3-4.7-1c-1.2-0.7-2.2-1.7-2.8-3.2c-0.6-1.4-0.9-3.3-0.9-5.7
	c0-3.3,0.6-5.8,1.9-7.4s3-2.4,5.3-2.4c2.2,0,3.9,0.8,5.1,2.4c1.2,1.6,1.8,4.1,1.8,7.5V299.8z M289.7,291.1c-1.4,0-2.5,0.5-3.2,1.6
	c-0.8,1-1.2,2.8-1.2,5.3h8.6c0-1.7-0.2-3-0.6-4c-0.3-1-0.8-1.7-1.4-2.1C291.3,291.3,290.6,291.1,289.7,291.1z M304.4,308.7
	c-1.8,0-3.4-0.2-4.8-0.7v-2.2c1.7,0.5,3.3,0.8,4.8,0.8c1.4,0,2.5-0.3,3.3-0.8c0.7-0.6,1.1-1.4,1.1-2.4c0-0.9-0.2-1.5-0.7-2
	c-0.4-0.5-1.1-0.8-2.1-1.1l-2.2-0.5c-1.6-0.4-2.8-1-3.5-1.8c-0.7-0.8-1.1-1.9-1.1-3.3c0-1.1,0.3-2,0.8-2.8c0.5-0.8,1.3-1.5,2.4-1.9
	c1.1-0.5,2.4-0.7,3.9-0.7c1.4,0,2.8,0.2,4.1,0.5v2.2c-1.3-0.3-2.6-0.5-4-0.5c-1.6,0-2.7,0.3-3.5,0.9c-0.7,0.6-1.1,1.3-1.1,2.3
	c0,0.8,0.2,1.4,0.6,1.9c0.4,0.5,1.1,0.8,2,1.1l2.2,0.5c1.7,0.4,2.9,1,3.6,1.9c0.7,0.8,1.1,1.9,1.1,3.4c0,1.1-0.3,2.1-0.8,3
	c-0.5,0.8-1.3,1.5-2.4,1.9C307.1,308.5,305.8,308.7,304.4,308.7z M328.6,308.6c-1.8,0-3.6-0.1-5.5-0.3v-25.4
	c2.2-0.4,4.3-0.6,6.2-0.6c4.1,0,7.1,1.1,9.2,3.2c2,2.2,3,5.5,3,10c0,3.1-0.5,5.6-1.4,7.5c-1,1.9-2.4,3.4-4.3,4.3
	C333.9,308.1,331.5,308.6,328.6,308.6z M329.2,306.2c2.1,0,3.9-0.4,5.3-1.1c1.4-0.7,2.4-1.9,3.1-3.5c0.7-1.6,1-3.7,1-6.2
	c0-2.5-0.3-4.6-1-6.2c-0.7-1.6-1.7-2.8-3-3.5c-1.4-0.7-3.1-1.1-5.2-1.1c-1,0-2.2,0.1-3.5,0.3V306
	C326.8,306.1,327.9,306.2,329.2,306.2z M358.7,299.8h-11.3c0,1.7,0.3,3,0.7,3.9c0.4,1,1.1,1.7,1.9,2.1c0.9,0.4,2,0.6,3.4,0.6
	c1.3,0,2.7-0.2,4.4-0.7v2.3c-1.6,0.5-3.2,0.7-4.7,0.7c-1.9,0-3.5-0.3-4.7-1c-1.2-0.7-2.2-1.7-2.8-3.2s-0.9-3.3-0.9-5.7
	c0-3.3,0.6-5.8,1.9-7.4c1.3-1.6,3-2.4,5.3-2.4c2.2,0,3.9,0.8,5.1,2.4c1.2,1.6,1.8,4.1,1.8,7.5V299.8z M351.9,291.1
	c-1.4,0-2.5,0.5-3.2,1.6c-0.8,1-1.2,2.8-1.2,5.3h8.6c0-1.7-0.2-3-0.6-4c-0.3-1-0.8-1.7-1.4-2.1C353.5,291.3,352.8,291.1,351.9,291.1
	z M370.7,308.4v-25.9h2.8v25.9H370.7z M396.6,289.1c1.6,0,3,0.5,3.9,1.5c1,1,1.5,2.6,1.5,4.9v12.8h-2.7v-12.7c0-2.7-1.1-4.1-3.3-4.1
	c-0.8,0-1.5,0.2-2.3,0.6c-0.8,0.4-1.4,1-2,1.9c0,0.4,0.1,0.9,0.1,1.4v12.9H389v-12.7c0-1.5-0.3-2.5-0.9-3.2
	c-0.6-0.6-1.4-0.9-2.4-0.9c-0.8,0-1.6,0.2-2.4,0.6c-0.8,0.4-1.5,1.1-2,2v14.2h-2.7v-19h2.3l0.2,2.1h0.2c0.7-0.8,1.5-1.4,2.3-1.8
	c0.9-0.4,1.8-0.6,2.9-0.6c2.2,0,3.7,0.9,4.5,2.7c0.8-0.9,1.6-1.6,2.6-2C394.6,289.3,395.6,289.1,396.6,289.1z M406.7,289.4h2.3
	l0.2,2h0.2c0.5-0.7,1.2-1.2,2-1.6c0.8-0.4,1.8-0.6,2.8-0.6c2.1,0,3.8,0.7,5,2.2c1.3,1.5,1.9,3.9,1.9,7.2c0,3.4-0.8,6-2.3,7.7
	c-1.5,1.7-3.8,2.5-6.7,2.5c-0.8,0-1.7-0.1-2.6-0.2v7.6h-2.7V289.4z M412.1,306.4c2.1,0,3.6-0.6,4.7-1.8c1-1.2,1.6-3.2,1.6-5.9
	c0-2.7-0.4-4.6-1.3-5.7c-0.8-1.1-2-1.6-3.5-1.6c-0.8,0-1.6,0.2-2.3,0.6c-0.7,0.4-1.3,1-1.8,1.7v12.5c0.4,0.1,0.8,0.1,1.3,0.2
	C411.2,306.4,411.7,306.4,412.1,306.4z M430.5,308.7c-1.7,0-3.1-0.5-4.1-1.5c-1-1-1.5-2.6-1.5-4.9v-12.9h2.7v12.8
	c0,1.5,0.3,2.5,0.9,3.1c0.6,0.6,1.5,0.9,2.6,0.9c0.8,0,1.7-0.2,2.6-0.6c0.9-0.4,1.6-1.1,2.1-1.9v-14.3h2.7v19h-2.3l-0.2-2h-0.2
	c-0.7,0.8-1.5,1.4-2.4,1.8C432.4,308.5,431.5,308.7,430.5,308.7z M456.5,299.8h-11.3c0,1.7,0.3,3,0.7,3.9c0.4,1,1.1,1.7,1.9,2.1
	c0.9,0.4,2,0.6,3.4,0.6c1.3,0,2.7-0.2,4.4-0.7v2.3c-1.6,0.5-3.2,0.7-4.7,0.7c-1.9,0-3.5-0.3-4.7-1c-1.2-0.7-2.2-1.7-2.8-3.2
	s-0.9-3.3-0.9-5.7c0-3.3,0.6-5.8,1.9-7.4c1.3-1.6,3-2.4,5.3-2.4c2.2,0,3.9,0.8,5.1,2.4c1.2,1.6,1.8,4.1,1.8,7.5V299.8z M449.6,291.1
	c-1.4,0-2.5,0.5-3.2,1.6c-0.8,1-1.2,2.8-1.2,5.3h8.6c0-1.7-0.2-3-0.6-4c-0.3-1-0.8-1.7-1.4-2.1S450.5,291.1,449.6,291.1z
	 M464.3,308.7c-1.8,0-3.4-0.2-4.8-0.7v-2.2c1.7,0.5,3.3,0.8,4.8,0.8c1.4,0,2.5-0.3,3.3-0.8c0.7-0.6,1.1-1.4,1.1-2.4
	c0-0.9-0.2-1.5-0.7-2c-0.4-0.5-1.1-0.8-2.1-1.1l-2.2-0.5c-1.6-0.4-2.8-1-3.5-1.8c-0.7-0.8-1.1-1.9-1.1-3.3c0-1.1,0.3-2,0.8-2.8
	c0.5-0.8,1.3-1.5,2.4-1.9c1.1-0.5,2.4-0.7,3.9-0.7c1.4,0,2.8,0.2,4.1,0.5v2.2c-1.3-0.3-2.6-0.5-4-0.5c-1.6,0-2.7,0.3-3.5,0.9
	c-0.7,0.6-1.1,1.3-1.1,2.3c0,0.8,0.2,1.4,0.6,1.9c0.4,0.5,1.1,0.8,2,1.1l2.2,0.5c1.7,0.4,2.9,1,3.6,1.9c0.7,0.8,1.1,1.9,1.1,3.4
	c0,1.1-0.3,2.1-0.8,3c-0.5,0.8-1.3,1.5-2.4,1.9C467,308.5,465.7,308.7,464.3,308.7z M481.9,306.3c0.6,0,1.3-0.1,2.1-0.3v2.3
	c-0.9,0.2-1.8,0.3-2.7,0.3c-1.9,0-3.3-0.5-4.3-1.5c-1-1-1.5-2.5-1.5-4.5v-11h-3.4v-2.3h3.4l0.4-6.9h2.3v6.9h5.4v2.3h-5.4v10.6
	c0,1.5,0.3,2.5,0.8,3.1C479.8,306,480.7,306.3,481.9,306.3z M493.1,308.7c-2.4,0-4.3-0.8-5.6-2.4c-1.3-1.6-2-4.1-2-7.4
	c0-3.4,0.7-5.8,2-7.4c1.3-1.6,3.2-2.4,5.6-2.4c2.4,0,4.3,0.8,5.6,2.4c1.3,1.6,2,4.1,2,7.4c0,3.3-0.7,5.8-2,7.4
	C497.4,307.9,495.5,308.7,493.1,308.7z M493.1,306.5c1,0,1.9-0.2,2.6-0.7c0.7-0.5,1.3-1.3,1.6-2.4c0.4-1.1,0.6-2.6,0.6-4.5
	c0-1.9-0.2-3.4-0.6-4.5c-0.4-1.1-0.9-1.9-1.6-2.4c-0.7-0.5-1.6-0.7-2.6-0.7c-1,0-1.9,0.2-2.6,0.7c-0.7,0.5-1.2,1.3-1.6,2.4
	c-0.4,1.1-0.6,2.6-0.6,4.4c0,1.9,0.2,3.4,0.6,4.6c0.4,1.1,0.9,1.9,1.6,2.4C491.2,306.2,492.1,306.5,493.1,306.5z M508.7,308.7
	c-1.8,0-3.4-0.2-4.8-0.7v-2.2c1.7,0.5,3.3,0.8,4.8,0.8c1.4,0,2.5-0.3,3.3-0.8c0.7-0.6,1.1-1.4,1.1-2.4c0-0.9-0.2-1.5-0.7-2
	c-0.4-0.5-1.1-0.8-2.1-1.1l-2.2-0.5c-1.6-0.4-2.8-1-3.5-1.8c-0.7-0.8-1.1-1.9-1.1-3.3c0-1.1,0.3-2,0.8-2.8c0.5-0.8,1.3-1.5,2.4-1.9
	c1.1-0.5,2.4-0.7,3.9-0.7c1.4,0,2.8,0.2,4.1,0.5v2.2c-1.3-0.3-2.6-0.5-4-0.5c-1.6,0-2.7,0.3-3.5,0.9c-0.7,0.6-1.1,1.3-1.1,2.3
	c0,0.8,0.2,1.4,0.6,1.9c0.4,0.5,1.1,0.8,2,1.1l2.2,0.5c1.7,0.4,2.9,1,3.6,1.9c0.7,0.8,1.1,1.9,1.1,3.4c0,1.1-0.3,2.1-0.8,3
	c-0.5,0.8-1.3,1.5-2.4,1.9C511.4,308.5,510.2,308.7,508.7,308.7z M544.5,282.5l-8.7,14.3v11.6H533v-11.5l-8.9-14.4h3l7.3,11.9
	l7.2-11.9H544.5z M571,308.4l-2.8-8.4H558l-2.8,8.4h-2.8l8.7-25.9h3.9l8.7,25.9H571z M558.8,297.6h8.6l-4.3-13.1L558.8,297.6z
	 M576.6,289.4h2.3l0.2,2.1h0.2c0.7-0.8,1.5-1.4,2.4-1.8c0.9-0.4,2-0.6,3-0.6c1.8,0,3.1,0.5,4.1,1.5c1,1,1.5,2.6,1.5,4.9v12.9h-2.7
	v-12.8c0-1.5-0.3-2.5-0.9-3.1c-0.6-0.6-1.5-0.9-2.6-0.9c-0.9,0-1.8,0.2-2.6,0.6c-0.9,0.4-1.6,1.1-2.2,1.9v14.3h-2.7V289.4z
	 M608.2,299.8H597c0,1.7,0.3,3,0.7,3.9c0.4,1,1.1,1.7,1.9,2.1c0.9,0.4,2,0.6,3.4,0.6c1.3,0,2.7-0.2,4.4-0.7v2.3
	c-1.6,0.5-3.2,0.7-4.7,0.7c-1.9,0-3.5-0.3-4.7-1c-1.2-0.7-2.2-1.7-2.8-3.2s-0.9-3.3-0.9-5.7c0-3.3,0.6-5.8,1.9-7.4
	c1.3-1.6,3-2.4,5.3-2.4c2.2,0,3.9,0.8,5.1,2.4c1.2,1.6,1.8,4.1,1.8,7.5V299.8z M601.4,291.1c-1.4,0-2.5,0.5-3.2,1.6
	c-0.8,1-1.2,2.8-1.2,5.3h8.6c0-1.7-0.2-3-0.6-4c-0.3-1-0.8-1.7-1.4-2.1S602.3,291.1,601.4,291.1z M618.8,298.7l6.4,9.6h-3.1l-5-7.6
	l-4.9,7.6h-3l6.4-9.6l-6.3-9.4h3.1l4.8,7.3l4.8-7.3h3L618.8,298.7z M633.8,308.7c-2.4,0-4.3-0.8-5.6-2.4c-1.3-1.6-2-4.1-2-7.4
	c0-3.4,0.7-5.8,2-7.4c1.3-1.6,3.2-2.4,5.6-2.4c2.4,0,4.3,0.8,5.6,2.4c1.3,1.6,2,4.1,2,7.4c0,3.3-0.7,5.8-2,7.4
	C638.1,307.9,636.2,308.7,633.8,308.7z M633.8,306.5c1,0,1.9-0.2,2.6-0.7c0.7-0.5,1.3-1.3,1.6-2.4c0.4-1.1,0.6-2.6,0.6-4.5
	c0-1.9-0.2-3.4-0.6-4.5c-0.4-1.1-0.9-1.9-1.6-2.4c-0.7-0.5-1.6-0.7-2.6-0.7c-1,0-1.9,0.2-2.6,0.7c-0.7,0.5-1.2,1.3-1.6,2.4
	c-0.4,1.1-0.6,2.6-0.6,4.4c0,1.9,0.2,3.4,0.6,4.6c0.4,1.1,0.9,1.9,1.6,2.4C631.9,306.2,632.8,306.5,633.8,306.5z M649.4,308.7
	c-1.8,0-3.4-0.2-4.8-0.7v-2.2c1.7,0.5,3.3,0.8,4.8,0.8c1.4,0,2.5-0.3,3.3-0.8c0.7-0.6,1.1-1.4,1.1-2.4c0-0.9-0.2-1.5-0.7-2
	c-0.4-0.5-1.1-0.8-2.1-1.1l-2.2-0.5c-1.6-0.4-2.8-1-3.5-1.8c-0.7-0.8-1.1-1.9-1.1-3.3c0-1.1,0.3-2,0.8-2.8c0.5-0.8,1.3-1.5,2.4-1.9
	c1.1-0.5,2.4-0.7,3.9-0.7c1.4,0,2.8,0.2,4.1,0.5v2.2c-1.3-0.3-2.6-0.5-4-0.5c-1.6,0-2.7,0.3-3.5,0.9c-0.7,0.6-1.1,1.3-1.1,2.3
	c0,0.8,0.2,1.4,0.6,1.9c0.4,0.5,1.1,0.8,2,1.1l2.2,0.5c1.7,0.4,2.9,1,3.6,1.9c0.7,0.8,1.1,1.9,1.1,3.4c0,1.1-0.3,2.1-0.8,3
	c-0.5,0.8-1.3,1.5-2.4,1.9C652.1,308.5,650.8,308.7,649.4,308.7z M661.1,308.6c-0.6,0-1.1-0.2-1.4-0.5c-0.4-0.3-0.5-0.8-0.5-1.4
	s0.2-1,0.5-1.4c0.4-0.3,0.8-0.5,1.4-0.5c0.6,0,1.1,0.2,1.4,0.5c0.4,0.4,0.5,0.8,0.5,1.4c0,0.6-0.2,1-0.5,1.4
	C662.2,308.4,661.7,308.6,661.1,308.6z"/>
<path class="st0" d="M124.5,361.4v-23.5h-8.1v-2.4h19v2.4h-8.1v23.5H124.5z M135.8,342.4h2.3l0.2,2.5h0.2c0.6-0.9,1.3-1.6,2.2-2
	c0.9-0.5,1.9-0.7,2.9-0.7c0.5,0,0.9,0,1.3,0.1v2.6c-0.4-0.1-0.9-0.1-1.4-0.1c-1,0-1.9,0.2-2.8,0.7c-0.9,0.5-1.6,1.2-2.1,2v13.8h-2.7
	V342.4z M152.2,342.1c1.6,0,2.9,0.2,3.9,0.6c1,0.4,1.8,1.1,2.3,2.1c0.5,1,0.8,2.3,0.8,4v12.5h-2.3l-0.2-2.1h-0.2
	c-0.6,0.8-1.3,1.4-2.2,1.8c-0.9,0.4-1.8,0.6-2.9,0.6c-1.1,0-2.1-0.2-2.9-0.6c-0.8-0.4-1.5-1-1.9-1.8c-0.4-0.8-0.7-1.7-0.7-2.8
	c0-1.7,0.5-3,1.6-3.9c1.1-0.9,2.7-1.5,5-1.7l3.9-0.4v-1.8c0-1.1-0.2-2-0.5-2.6c-0.3-0.6-0.8-1.1-1.5-1.3c-0.7-0.3-1.5-0.4-2.6-0.4
	c-0.7,0-1.5,0.1-2.3,0.2c-0.8,0.1-1.7,0.3-2.4,0.6v-2.3c0.7-0.2,1.6-0.4,2.5-0.6C150.5,342.2,151.4,342.1,152.2,342.1z M152.1,359.5
	c0.8,0,1.6-0.2,2.4-0.6c0.8-0.4,1.4-1,2-1.8v-4.8l-3.8,0.4c-1.4,0.1-2.4,0.5-3,1.1c-0.6,0.6-1,1.4-1,2.4c0,1.1,0.3,1.9,0.9,2.5
	C150.1,359.3,151,359.5,152.1,359.5z M151.7,339.4l3.2-6.4h2.9l-3.7,6.4H151.7z M181.8,342.1c1.6,0,3,0.5,3.9,1.5
	c1,1,1.5,2.6,1.5,4.9v12.8h-2.7v-12.7c0-2.7-1.1-4.1-3.3-4.1c-0.8,0-1.5,0.2-2.3,0.6c-0.8,0.4-1.4,1-2,1.9c0,0.4,0.1,0.9,0.1,1.4
	v12.9h-2.7v-12.7c0-1.5-0.3-2.5-0.9-3.2c-0.6-0.6-1.4-0.9-2.4-0.9c-0.8,0-1.6,0.2-2.4,0.6c-0.8,0.4-1.5,1.1-2,2v14.2h-2.7v-19h2.3
	l0.2,2.1h0.2c0.7-0.8,1.5-1.4,2.3-1.8c0.9-0.4,1.8-0.6,2.9-0.6c2.2,0,3.7,0.9,4.5,2.7c0.8-0.9,1.6-1.6,2.6-2
	C179.8,342.3,180.8,342.1,181.8,342.1z M191.8,361.4v-19h2.7v19H191.8z M193.2,338.2c-0.6,0-1.1-0.2-1.4-0.5
	c-0.3-0.3-0.5-0.7-0.5-1.3c0-0.5,0.2-1,0.5-1.3c0.3-0.3,0.8-0.5,1.4-0.5c0.6,0,1.1,0.2,1.4,0.5c0.3,0.3,0.5,0.7,0.5,1.3
	c0,0.5-0.2,1-0.5,1.3C194.3,338.1,193.8,338.2,193.2,338.2z M206.8,359.3c0.6,0,1.3-0.1,2.1-0.3v2.3c-0.9,0.2-1.8,0.3-2.7,0.3
	c-1.9,0-3.3-0.5-4.3-1.5c-1-1-1.5-2.5-1.5-4.5v-11h-3.4v-2.3h3.4l0.4-6.9h2.3v6.9h5.4v2.3h-5.4v10.6c0,1.5,0.3,2.5,0.8,3.1
	C204.7,359,205.6,359.3,206.8,359.3z M224.5,352.8h-11.3c0,1.7,0.3,3,0.7,3.9c0.4,1,1.1,1.7,1.9,2.1c0.9,0.4,2,0.6,3.4,0.6
	c1.3,0,2.7-0.2,4.4-0.7v2.3c-1.6,0.5-3.2,0.7-4.7,0.7c-1.9,0-3.5-0.3-4.7-1c-1.2-0.7-2.2-1.7-2.8-3.2c-0.6-1.4-0.9-3.3-0.9-5.7
	c0-3.3,0.6-5.8,1.9-7.4c1.3-1.6,3-2.4,5.3-2.4c2.2,0,3.9,0.8,5.1,2.4c1.2,1.6,1.8,4.1,1.8,7.5V352.8z M217.6,344.1
	c-1.4,0-2.4,0.5-3.2,1.6c-0.8,1-1.2,2.8-1.2,5.3h8.6c0-1.7-0.2-3-0.6-4c-0.3-1-0.8-1.7-1.4-2.1C219.3,344.3,218.5,344.1,217.6,344.1
	z M232.3,361.7c-1.8,0-3.4-0.2-4.8-0.7v-2.2c1.7,0.5,3.3,0.8,4.8,0.8c1.4,0,2.5-0.3,3.3-0.8c0.7-0.6,1.1-1.4,1.1-2.4
	c0-0.9-0.2-1.5-0.7-2c-0.4-0.5-1.1-0.8-2.1-1.1l-2.2-0.5c-1.6-0.4-2.8-1-3.5-1.8c-0.7-0.8-1.1-1.9-1.1-3.3c0-1.1,0.3-2,0.8-2.8
	c0.5-0.8,1.3-1.5,2.4-1.9c1.1-0.5,2.4-0.7,3.9-0.7c1.4,0,2.8,0.2,4.1,0.5v2.2c-1.3-0.3-2.6-0.5-4-0.5c-1.6,0-2.7,0.3-3.5,0.9
	c-0.7,0.6-1.1,1.3-1.1,2.3c0,0.8,0.2,1.4,0.6,1.9c0.4,0.5,1.1,0.8,2,1.1l2.2,0.5c1.7,0.4,2.9,1,3.6,1.9c0.7,0.8,1.1,1.9,1.1,3.4
	c0,1.1-0.3,2.1-0.8,3c-0.5,0.8-1.3,1.5-2.4,1.9C235,361.5,233.8,361.7,232.3,361.7z M256.6,361.6c-1.8,0-3.6-0.1-5.5-0.3v-25.4
	c2.2-0.4,4.3-0.6,6.2-0.6c4.1,0,7.1,1.1,9.2,3.2c2,2.2,3,5.5,3,10c0,3.1-0.5,5.6-1.4,7.5c-1,1.9-2.4,3.4-4.3,4.3
	C261.8,361.1,259.4,361.6,256.6,361.6z M257.1,359.2c2.1,0,3.9-0.4,5.3-1.1s2.4-1.9,3.1-3.5c0.7-1.6,1-3.7,1-6.2
	c0-2.5-0.3-4.6-1-6.2c-0.7-1.6-1.7-2.8-3-3.5s-3.1-1.1-5.2-1.1c-1,0-2.2,0.1-3.5,0.3V359C254.8,359.1,255.9,359.2,257.1,359.2z
	 M286.7,352.8h-11.3c0,1.7,0.3,3,0.7,3.9c0.4,1,1.1,1.7,1.9,2.1c0.9,0.4,2,0.6,3.4,0.6c1.3,0,2.7-0.2,4.4-0.7v2.3
	c-1.6,0.5-3.2,0.7-4.7,0.7c-1.9,0-3.5-0.3-4.7-1c-1.2-0.7-2.2-1.7-2.8-3.2c-0.6-1.4-0.9-3.3-0.9-5.7c0-3.3,0.6-5.8,1.9-7.4
	c1.3-1.6,3-2.4,5.3-2.4c2.2,0,3.9,0.8,5.1,2.4c1.2,1.6,1.8,4.1,1.8,7.5V352.8z M279.8,344.1c-1.4,0-2.5,0.5-3.2,1.6
	c-0.8,1-1.2,2.8-1.2,5.3h8.6c0-1.7-0.2-3-0.6-4c-0.3-1-0.8-1.7-1.4-2.1S280.7,344.1,279.8,344.1z M304.2,361.6
	c-1.8,0-3.6-0.1-5.5-0.3v-25.4c2.2-0.4,4.3-0.6,6.2-0.6c4.1,0,7.1,1.1,9.2,3.2c2,2.2,3,5.5,3,10c0,3.1-0.5,5.6-1.4,7.5
	c-1,1.9-2.4,3.4-4.3,4.3C309.4,361.1,307.1,361.6,304.2,361.6z M304.7,359.2c2.1,0,3.9-0.4,5.3-1.1c1.4-0.7,2.4-1.9,3.1-3.5
	c0.7-1.6,1-3.7,1-6.2c0-2.5-0.3-4.6-1-6.2c-0.7-1.6-1.7-2.8-3-3.5c-1.4-0.7-3.1-1.1-5.2-1.1c-1,0-2.2,0.1-3.5,0.3V359
	C302.4,359.1,303.5,359.2,304.7,359.2z M334.3,352.8H323c0,1.7,0.3,3,0.7,3.9c0.4,1,1.1,1.7,1.9,2.1c0.9,0.4,2,0.6,3.4,0.6
	c1.3,0,2.7-0.2,4.4-0.7v2.3c-1.6,0.5-3.2,0.7-4.7,0.7c-1.9,0-3.5-0.3-4.7-1c-1.2-0.7-2.2-1.7-2.8-3.2c-0.6-1.4-0.9-3.3-0.9-5.7
	c0-3.3,0.6-5.8,1.9-7.4s3-2.4,5.3-2.4c2.2,0,3.9,0.8,5.1,2.4c1.2,1.6,1.8,4.1,1.8,7.5V352.8z M327.4,344.1c-1.4,0-2.5,0.5-3.2,1.6
	c-0.8,1-1.2,2.8-1.2,5.3h8.6c0-1.7-0.2-3-0.6-4c-0.3-1-0.8-1.7-1.4-2.1C329.1,344.3,328.3,344.1,327.4,344.1z M349.8,342.4h2.8
	l-6.7,19h-3.5l-6.7-19h2.9l5.6,16.5L349.8,342.4z M361.7,361.7c-2.4,0-4.3-0.8-5.6-2.4c-1.3-1.6-2-4.1-2-7.4c0-3.4,0.7-5.8,2-7.4
	c1.3-1.6,3.2-2.4,5.6-2.4c2.4,0,4.3,0.8,5.6,2.4c1.3,1.6,2,4.1,2,7.4c0,3.3-0.7,5.8-2,7.4C366,360.9,364.1,361.7,361.7,361.7z
	 M361.7,359.5c1,0,1.9-0.2,2.6-0.7c0.7-0.5,1.3-1.3,1.6-2.4c0.4-1.1,0.6-2.6,0.6-4.5c0-1.9-0.2-3.4-0.6-4.5
	c-0.4-1.1-0.9-1.9-1.6-2.4c-0.7-0.5-1.6-0.7-2.6-0.7c-1,0-1.9,0.2-2.6,0.7c-0.7,0.5-1.2,1.3-1.6,2.4c-0.4,1.1-0.6,2.6-0.6,4.4
	c0,1.9,0.2,3.4,0.6,4.6c0.4,1.1,0.9,1.9,1.6,2.4C359.8,359.2,360.6,359.5,361.7,359.5z M373.2,361.4v-28.3h2.7v28.3H373.2z
	 M386.2,361.7c-1.7,0-3.1-0.5-4.1-1.5c-1-1-1.5-2.6-1.5-4.9v-12.9h2.7v12.8c0,1.5,0.3,2.5,0.9,3.1s1.5,0.9,2.6,0.9
	c0.8,0,1.7-0.2,2.6-0.6c0.9-0.4,1.6-1.1,2.1-1.9v-14.3h2.7v19h-2.3l-0.2-2h-0.2c-0.7,0.8-1.5,1.4-2.4,1.8
	C388.2,361.5,387.2,361.7,386.2,361.7z M406,361.7c-2.6,0-4.6-0.8-5.9-2.3c-1.3-1.6-2-4.1-2-7.5c0-3.4,0.7-5.9,2.2-7.5
	c1.4-1.6,3.6-2.3,6.5-2.3c1.3,0,2.5,0.1,3.6,0.4v2.3c-1.1-0.3-2.2-0.4-3.2-0.4c-1.4,0-2.6,0.2-3.5,0.7s-1.6,1.2-2,2.3
	c-0.4,1.1-0.6,2.5-0.6,4.4c0,1.9,0.2,3.4,0.6,4.5c0.4,1.1,1,1.9,1.8,2.4c0.8,0.5,1.8,0.7,3.1,0.7c1.1,0,2.4-0.2,3.9-0.7v2.3
	C408.9,361.4,407.5,361.7,406,361.7z M413.4,361.4v-19h2.7v19H413.4z M414.7,338.2c-0.6,0-1.1-0.2-1.4-0.5c-0.3-0.3-0.5-0.7-0.5-1.3
	c0-0.5,0.2-1,0.5-1.3c0.3-0.3,0.8-0.5,1.4-0.5c0.6,0,1.1,0.2,1.4,0.5c0.3,0.3,0.5,0.7,0.5,1.3c0,0.5-0.2,1-0.5,1.3
	C415.8,338.1,415.3,338.2,414.7,338.2z M427.6,361.7c-2.4,0-4.3-0.8-5.6-2.4c-1.3-1.6-2-4.1-2-7.4c0-3.4,0.7-5.8,2-7.4
	c1.3-1.6,3.2-2.4,5.6-2.4c2.4,0,4.3,0.8,5.6,2.4c1.3,1.6,2,4.1,2,7.4c0,3.3-0.7,5.8-2,7.4C431.9,360.9,430,361.7,427.6,361.7z
	 M427.6,359.5c1,0,1.9-0.2,2.6-0.7c0.7-0.5,1.3-1.3,1.6-2.4c0.4-1.1,0.6-2.6,0.6-4.5c0-1.9-0.2-3.4-0.6-4.5
	c-0.4-1.1-0.9-1.9-1.6-2.4c-0.7-0.5-1.6-0.7-2.6-0.7s-1.9,0.2-2.6,0.7c-0.7,0.5-1.2,1.3-1.6,2.4c-0.4,1.1-0.6,2.6-0.6,4.4
	c0,1.9,0.2,3.4,0.6,4.6c0.4,1.1,0.9,1.9,1.6,2.4C425.7,359.2,426.5,359.5,427.6,359.5z M439.1,342.4h2.3l0.2,2.1h0.2
	c0.7-0.8,1.5-1.4,2.4-1.8c0.9-0.4,2-0.6,3-0.6c1.8,0,3.1,0.5,4.1,1.5c1,1,1.5,2.6,1.5,4.9v12.9h-2.7v-12.8c0-1.5-0.3-2.5-0.9-3.1
	c-0.6-0.6-1.5-0.9-2.6-0.9c-0.9,0-1.8,0.2-2.6,0.6c-0.9,0.4-1.6,1.1-2.2,1.9v14.3h-2.7V342.4z M470.7,352.8h-11.3
	c0,1.7,0.3,3,0.7,3.9c0.4,1,1.1,1.7,1.9,2.1c0.9,0.4,2,0.6,3.4,0.6c1.3,0,2.7-0.2,4.4-0.7v2.3c-1.6,0.5-3.2,0.7-4.7,0.7
	c-1.9,0-3.5-0.3-4.7-1c-1.2-0.7-2.2-1.7-2.8-3.2s-0.9-3.3-0.9-5.7c0-3.3,0.6-5.8,1.9-7.4s3-2.4,5.3-2.4c2.2,0,3.9,0.8,5.1,2.4
	c1.2,1.6,1.8,4.1,1.8,7.5V352.8z M463.8,344.1c-1.4,0-2.5,0.5-3.2,1.6c-0.8,1-1.2,2.8-1.2,5.3h8.6c0-1.7-0.2-3-0.6-4
	c-0.3-1-0.8-1.7-1.4-2.1C465.4,344.3,464.7,344.1,463.8,344.1z M478.5,361.7c-1.8,0-3.4-0.2-4.8-0.7v-2.2c1.7,0.5,3.3,0.8,4.8,0.8
	c1.4,0,2.5-0.3,3.3-0.8c0.7-0.6,1.1-1.4,1.1-2.4c0-0.9-0.2-1.5-0.7-2c-0.4-0.5-1.1-0.8-2.1-1.1l-2.2-0.5c-1.6-0.4-2.8-1-3.5-1.8
	c-0.7-0.8-1.1-1.9-1.1-3.3c0-1.1,0.3-2,0.8-2.8c0.5-0.8,1.3-1.5,2.4-1.9c1.1-0.5,2.4-0.7,3.9-0.7c1.4,0,2.8,0.2,4.1,0.5v2.2
	c-1.3-0.3-2.6-0.5-4-0.5c-1.6,0-2.7,0.3-3.5,0.9c-0.7,0.6-1.1,1.3-1.1,2.3c0,0.8,0.2,1.4,0.6,1.9c0.4,0.5,1.1,0.8,2,1.1l2.2,0.5
	c1.7,0.4,2.9,1,3.6,1.9c0.7,0.8,1.1,1.9,1.1,3.4c0,1.1-0.3,2.1-0.8,3c-0.5,0.8-1.3,1.5-2.4,1.9C481.2,361.5,479.9,361.7,478.5,361.7
	z M502.7,361.6c-1.8,0-3.6-0.1-5.5-0.3v-25.4c2.2-0.4,4.3-0.6,6.2-0.6c4.1,0,7.1,1.1,9.2,3.2c2,2.2,3,5.5,3,10
	c0,3.1-0.5,5.6-1.4,7.5c-1,1.9-2.4,3.4-4.3,4.3C508,361.1,505.6,361.6,502.7,361.6z M503.3,359.2c2.1,0,3.9-0.4,5.3-1.1
	c1.4-0.7,2.4-1.9,3.1-3.5c0.7-1.6,1.1-3.7,1.1-6.2c0-2.5-0.3-4.6-1-6.2c-0.7-1.6-1.7-2.8-3-3.5c-1.4-0.7-3.1-1.1-5.2-1.1
	c-1,0-2.2,0.1-3.5,0.3V359C500.9,359.1,502,359.2,503.3,359.2z M532.8,352.8h-11.3c0,1.7,0.3,3,0.7,3.9c0.4,1,1.1,1.7,1.9,2.1
	c0.9,0.4,2,0.6,3.4,0.6c1.3,0,2.7-0.2,4.4-0.7v2.3c-1.6,0.5-3.2,0.7-4.7,0.7c-1.9,0-3.5-0.3-4.7-1c-1.2-0.7-2.2-1.7-2.8-3.2
	s-0.9-3.3-0.9-5.7c0-3.3,0.6-5.8,1.9-7.4c1.3-1.6,3-2.4,5.3-2.4c2.2,0,3.9,0.8,5.1,2.4c1.2,1.6,1.8,4.1,1.8,7.5V352.8z M526,344.1
	c-1.4,0-2.5,0.5-3.2,1.6c-0.8,1-1.2,2.8-1.2,5.3h8.6c0-1.7-0.2-3-0.6-4c-0.3-1-0.8-1.7-1.4-2.1C527.6,344.3,526.9,344.1,526,344.1z
	 M544.8,361.4v-25.9h2.8v25.9H544.8z M570.7,342.1c1.6,0,3,0.5,3.9,1.5c1,1,1.5,2.6,1.5,4.9v12.8h-2.7v-12.7c0-2.7-1.1-4.1-3.3-4.1
	c-0.8,0-1.5,0.2-2.3,0.6c-0.8,0.4-1.4,1-2,1.9c0,0.4,0.1,0.9,0.1,1.4v12.9h-2.7v-12.7c0-1.5-0.3-2.5-0.9-3.2
	c-0.6-0.6-1.4-0.9-2.4-0.9c-0.8,0-1.6,0.2-2.4,0.6c-0.8,0.4-1.5,1.1-2,2v14.2h-2.7v-19h2.3l0.2,2.1h0.2c0.7-0.8,1.5-1.4,2.3-1.8
	c0.9-0.4,1.8-0.6,2.9-0.6c2.2,0,3.7,0.9,4.5,2.7c0.8-0.9,1.6-1.6,2.6-2C568.7,342.3,569.7,342.1,570.7,342.1z M580.8,342.4h2.3
	l0.2,2h0.2c0.5-0.7,1.2-1.2,2-1.6c0.8-0.4,1.8-0.6,2.8-0.6c2.1,0,3.8,0.7,5,2.2c1.3,1.5,1.9,3.9,1.9,7.2c0,3.4-0.8,6-2.3,7.7
	c-1.5,1.7-3.8,2.5-6.7,2.5c-0.8,0-1.7-0.1-2.6-0.2v7.6h-2.7V342.4z M586.2,359.4c2.1,0,3.6-0.6,4.7-1.8c1-1.2,1.6-3.2,1.6-5.9
	c0-2.7-0.4-4.6-1.3-5.7c-0.8-1.1-2-1.6-3.5-1.6c-0.8,0-1.6,0.2-2.3,0.6c-0.7,0.4-1.3,1-1.8,1.7v12.5c0.4,0.1,0.8,0.1,1.3,0.2
	C585.3,359.4,585.8,359.4,586.2,359.4z M604.6,361.7c-1.7,0-3.1-0.5-4.1-1.5c-1-1-1.5-2.6-1.5-4.9v-12.9h2.7v12.8
	c0,1.5,0.3,2.5,0.9,3.1c0.6,0.6,1.5,0.9,2.6,0.9c0.8,0,1.7-0.2,2.6-0.6c0.9-0.4,1.6-1.1,2.1-1.9v-14.3h2.7v19h-2.3l-0.2-2h-0.2
	c-0.7,0.8-1.5,1.4-2.4,1.8C606.6,361.5,605.6,361.7,604.6,361.7z M630.6,352.8h-11.3c0,1.7,0.3,3,0.7,3.9c0.4,1,1.1,1.7,1.9,2.1
	c0.9,0.4,2,0.6,3.4,0.6c1.3,0,2.7-0.2,4.4-0.7v2.3c-1.6,0.5-3.2,0.7-4.7,0.7c-1.9,0-3.5-0.3-4.7-1c-1.2-0.7-2.2-1.7-2.8-3.2
	c-0.6-1.4-0.9-3.3-0.9-5.7c0-3.3,0.6-5.8,1.9-7.4c1.3-1.6,3-2.4,5.3-2.4c2.2,0,3.9,0.8,5.1,2.4c1.2,1.6,1.8,4.1,1.8,7.5V352.8z
	 M623.7,344.1c-1.4,0-2.5,0.5-3.2,1.6c-0.8,1-1.2,2.8-1.2,5.3h8.6c0-1.7-0.2-3-0.6-4c-0.3-1-0.8-1.7-1.4-2.1
	S624.6,344.1,623.7,344.1z M638.4,361.7c-1.8,0-3.4-0.2-4.8-0.7v-2.2c1.7,0.5,3.3,0.8,4.8,0.8c1.4,0,2.5-0.3,3.3-0.8
	c0.7-0.6,1.1-1.4,1.1-2.4c0-0.9-0.2-1.5-0.7-2c-0.4-0.5-1.1-0.8-2.1-1.1l-2.2-0.5c-1.6-0.4-2.8-1-3.5-1.8c-0.7-0.8-1.1-1.9-1.1-3.3
	c0-1.1,0.3-2,0.8-2.8c0.5-0.8,1.3-1.5,2.4-1.9c1.1-0.5,2.4-0.7,3.9-0.7c1.4,0,2.8,0.2,4.1,0.5v2.2c-1.3-0.3-2.6-0.5-4-0.5
	c-1.6,0-2.7,0.3-3.5,0.9c-0.7,0.6-1.1,1.3-1.1,2.3c0,0.8,0.2,1.4,0.6,1.9c0.4,0.5,1.1,0.8,2,1.1l2.2,0.5c1.7,0.4,2.9,1,3.6,1.9
	c0.7,0.8,1.1,1.9,1.1,3.4c0,1.1-0.3,2.1-0.8,3c-0.5,0.8-1.3,1.5-2.4,1.9C641.1,361.5,639.8,361.7,638.4,361.7z M656,359.3
	c0.6,0,1.3-0.1,2.1-0.3v2.3c-0.9,0.2-1.8,0.3-2.7,0.3c-1.9,0-3.3-0.5-4.3-1.5c-1-1-1.5-2.5-1.5-4.5v-11h-3.4v-2.3h3.4l0.4-6.9h2.3
	v6.9h5.4v2.3h-5.4v10.6c0,1.5,0.3,2.5,0.8,3.1C653.9,359,654.8,359.3,656,359.3z M667.2,361.7c-2.4,0-4.3-0.8-5.6-2.4
	c-1.3-1.6-2-4.1-2-7.4c0-3.4,0.7-5.8,2-7.4c1.3-1.6,3.2-2.4,5.6-2.4c2.4,0,4.3,0.8,5.6,2.4c1.3,1.6,2,4.1,2,7.4c0,3.3-0.7,5.8-2,7.4
	C671.5,360.9,669.6,361.7,667.2,361.7z M667.2,359.5c1,0,1.9-0.2,2.6-0.7c0.7-0.5,1.3-1.3,1.6-2.4c0.4-1.1,0.6-2.6,0.6-4.5
	c0-1.9-0.2-3.4-0.6-4.5c-0.4-1.1-0.9-1.9-1.6-2.4c-0.7-0.5-1.6-0.7-2.6-0.7c-1,0-1.9,0.2-2.6,0.7c-0.7,0.5-1.2,1.3-1.6,2.4
	c-0.4,1.1-0.6,2.6-0.6,4.4c0,1.9,0.2,3.4,0.6,4.6c0.4,1.1,0.9,1.9,1.6,2.4C665.3,359.2,666.2,359.5,667.2,359.5z M682.8,361.7
	c-1.8,0-3.4-0.2-4.8-0.7v-2.2c1.7,0.5,3.3,0.8,4.8,0.8c1.4,0,2.5-0.3,3.3-0.8c0.7-0.6,1.1-1.4,1.1-2.4c0-0.9-0.2-1.5-0.7-2
	c-0.4-0.5-1.1-0.8-2.1-1.1l-2.2-0.5c-1.6-0.4-2.8-1-3.5-1.8c-0.7-0.8-1.1-1.9-1.1-3.3c0-1.1,0.3-2,0.8-2.8c0.5-0.8,1.3-1.5,2.4-1.9
	c1.1-0.5,2.4-0.7,3.9-0.7c1.4,0,2.8,0.2,4.1,0.5v2.2c-1.3-0.3-2.6-0.5-4-0.5c-1.6,0-2.7,0.3-3.5,0.9c-0.7,0.6-1.1,1.3-1.1,2.3
	c0,0.8,0.2,1.4,0.6,1.9c0.4,0.5,1.1,0.8,2,1.1l2.2,0.5c1.7,0.4,2.9,1,3.6,1.9c0.7,0.8,1.1,1.9,1.1,3.4c0,1.1-0.3,2.1-0.8,3
	c-0.5,0.8-1.3,1.5-2.4,1.9C685.5,361.5,684.3,361.7,682.8,361.7z"/>
<rect y="19.4" class="st1" width="97" height="342"/>
<path class="st2" d="M62.9,338.9v-15.8H69v23H34.2v-22.8h6.1v15.6h7.8v-13.2h6.1v13.2H62.9z M34.2,297.5v-6.8H69v7.3l-23.1,14H69
	v6.9H34.2v-7.3l23.1-14H34.2z M69,277.3H40.6v10.3h-6.3v-27.9h6.3V270H69V277.3z M69,237.2l-12.8,8.4v0.4c0,0.8,0,2-0.1,3.5H69v7.2
	H34.9c-0.7-3.4-1.1-6.8-1.1-10.2c0-4.9,0.9-8.5,2.8-10.9c1.8-2.4,4.6-3.6,8.4-3.6c2.5,0,4.5,0.6,6.3,1.7c1.7,1.2,3,2.8,3.8,5l14-9.4
	V237.2z M50.4,249.5c0.1-1.1,0.2-2.3,0.2-3.5c0-2.4-0.4-4.2-1.3-5.4c-0.9-1.2-2.3-1.8-4.3-1.8c-1.9,0-3.3,0.6-4.3,1.7
	c-0.9,1.1-1.4,2.8-1.4,5.1c0,1.4,0.1,2.7,0.3,3.9H50.4z M62.9,218.8V203H69v23H34.2v-22.8h6.1v15.6h7.8v-13.2h6.1v13.2H62.9z
	 M52.1,173.6h16.6c0.5,3,0.7,5.7,0.7,8.1c0,6.3-1.4,10.9-4.3,14.1c-2.9,3.1-7.4,4.7-13.4,4.7c-6,0-10.5-1.6-13.4-4.7
	c-3-3.2-4.4-7.7-4.4-13.7c0-2.7,0.3-5.2,0.9-7.5h6.1c-0.6,2.4-0.9,4.7-0.9,6.8c0,2.7,0.4,4.8,1.2,6.5c0.8,1.7,2,2.9,3.8,3.8
	c1.7,0.8,4,1.2,6.9,1.2c2.7,0,5-0.4,6.7-1.2c1.7-0.8,2.9-1.9,3.7-3.5c0.8-1.5,1.2-3.4,1.2-5.8c0-0.7,0-1.4-0.1-2H52.1V173.6z
	 M69,146.6l-9.3,2.6V161l9.3,2.6v7.1l-34.8-10.3v-10.8L69,139.4V146.6z M53.7,159.3V151l-14.8,4.2L53.7,159.3z M51,117
	c0.5-2,1.4-3.6,2.7-4.7c1.4-1.1,3.2-1.7,5.5-1.7c3.4,0,5.9,1.3,7.6,3.9c1.7,2.6,2.5,6.8,2.5,12.5c0,1.4-0.1,3-0.2,4.7
	c-0.1,1.7-0.3,3.3-0.5,4.7H34.9c-0.3-1.6-0.6-3.3-0.8-5.1c-0.2-1.8-0.3-3.6-0.3-5.4c0-3.3,0.3-6,1-8.1c0.7-2.1,1.7-3.7,3.1-4.7
	c1.4-1,3.2-1.5,5.4-1.5c1.9,0,3.5,0.5,4.8,1.4C49.6,113.9,50.5,115.3,51,117z M39.3,124.8c0,1.5,0.1,3,0.4,4.5h8.6v-4.6
	c0-1.5-0.2-2.8-0.5-3.7c-0.3-0.9-0.8-1.6-1.5-2c-0.7-0.4-1.5-0.6-2.6-0.6c-1.1,0-2,0.2-2.6,0.6c-0.7,0.4-1.1,1.1-1.4,2
	C39.5,122,39.3,123.2,39.3,124.8z M63.9,125.1c0-1.9-0.2-3.4-0.5-4.5c-0.3-1.1-0.9-1.9-1.6-2.4c-0.7-0.5-1.7-0.7-2.8-0.7
	c-1.7,0-2.9,0.5-3.6,1.6c-0.8,1-1.2,2.7-1.2,5v5.2h9.5C63.8,127.7,63.9,126.3,63.9,125.1z M69,106.6H34.2v-7.3h28.4V84.5H69V106.6z
	 M62.9,74.3V58.5H69v23H34.2V58.7h6.1v15.6h7.8V61.1h6.1v13.2H62.9z M69.4,46.1c0,1.5-0.1,3.1-0.4,4.7c-0.3,1.6-0.6,3-1.1,4.3H62
	c0.4-1.4,0.8-2.9,1.1-4.4c0.3-1.6,0.4-3,0.4-4.4c0-4.1-1.3-6.2-4-6.2c-0.7,0-1.3,0.1-1.8,0.4c-0.5,0.3-0.9,0.8-1.3,1.5
	c-0.4,0.7-0.8,1.7-1.2,3l-0.8,2.5c-1.6,5.7-5,8.5-10,8.5c-2.2,0-4.1-0.5-5.7-1.5c-1.6-1-2.8-2.6-3.6-4.6c-0.8-2.1-1.3-4.6-1.3-7.6
	c0-1.4,0.1-2.8,0.3-4.1c0.2-1.3,0.4-2.5,0.7-3.6h6.1c-0.3,1-0.6,2.2-0.7,3.4c-0.2,1.2-0.3,2.5-0.3,3.7c0,2.5,0.4,4.3,1.1,5.4
	c0.7,1.1,1.7,1.6,3,1.6c0.7,0,1.3-0.1,1.8-0.4c0.5-0.3,0.9-0.7,1.2-1.3c0.4-0.6,0.7-1.5,1.1-2.7l0.7-2.5c0.9-3,2.1-5.3,3.7-6.8
	c1.6-1.5,3.7-2.3,6.4-2.3c2.2,0,4.1,0.5,5.7,1.6c1.6,1.1,2.8,2.6,3.7,4.6C69,40.9,69.4,43.3,69.4,46.1z"/>
</svg>
