<?xml version="1.0" encoding="utf-8"?>
<!-- Generator: Adobe Illustrator 23.0.3, SVG Export Plug-In . SVG Version: 6.00 Build 0)  -->
<svg version="1.1" id="Capa_1" xmlns="http://www.w3.org/2000/svg" xmlns:xlink="http://www.w3.org/1999/xlink" x="0px" y="0px"
	 viewBox="0 0 820 222" style="enable-background:new 0 0 820 222;" xml:space="preserve">
<style type="text/css">
	.st0{fill:#001B71;}
	.st1{fill:#009EFF;}
</style>
<path class="st0" d="M31.2,78.8h40.4v15.6H12.8V5.6H71v15.6H31.2v20h33.7v15.6H31.2V78.8z M137,5.6h17.5v88.8h-18.7l-35.6-58.9v58.9
	H82.6V5.6h18.7l35.7,59V5.6z M188.5,94.4V21.8h-26.2V5.6h71.2v16.2h-26.2v72.6H188.5z M291,94.4l-21.5-32.6h-1.1c-2,0-5-0.1-8.8-0.2
	v32.8h-18.4V7.3c8.7-1.9,17.4-2.8,26.1-2.8c12.4,0,21.7,2.4,27.8,7.1c6.2,4.7,9.2,11.8,9.2,21.5c0,6.3-1.4,11.6-4.4,16
	c-3,4.3-7.2,7.6-12.8,9.7l24,35.6H291z M259.5,46.9c2.9,0.3,5.9,0.4,8.9,0.4c6.2,0,10.8-1.1,13.8-3.4c3-2.2,4.5-5.9,4.5-10.9
	c0-4.9-1.4-8.5-4.3-10.9c-2.8-2.3-7.2-3.5-13-3.5c-3.6,0-7,0.3-10,0.8V46.9z M337.9,78.8h40.4v15.6h-58.8V5.6h58.2v15.6h-39.8v20
	h33.7v15.6h-33.7V78.8z M453.4,51.2v42.4c-7.6,1.2-14.5,1.8-20.8,1.8c-16,0-27.9-3.7-35.9-11c-7.9-7.4-11.9-18.8-11.9-34.3
	c0-15.4,4-26.8,12.1-34.3c8.1-7.6,19.8-11.3,35-11.3c6.8,0,13.2,0.8,19.1,2.3v15.7c-6.2-1.5-11.9-2.3-17.3-2.3c-6.8,0-12.4,1-16.7,3
	c-4.3,2-7.5,5.2-9.6,9.6c-2.1,4.4-3.2,10.3-3.2,17.6c0,7,1,12.7,3,17c2,4.3,4.9,7.5,8.8,9.5c3.9,2,8.8,2.9,14.7,2.9
	c1.8,0,3.5-0.1,5.2-0.2V51.2H453.4z M522.1,94.4l-6.7-23.7h-30l-6.7,23.7h-18.2l26.3-88.8h27.5l26.2,88.8H522.1z M489.8,55.2H511
	l-10.6-37.7L489.8,55.2z M617.1,5.6h22.9v88.8h-17.4V31.2l-20.8,50.3h-15.1l-20.8-48.8v61.6h-17.4V5.6h22.9l23.2,55.7L617.1,5.6z
	 M690.8,95.5c-7.9,0-14.8-1.6-20.6-4.8c-5.8-3.2-10.3-8.2-13.5-15c-3.2-6.8-4.7-15.4-4.7-25.7s1.6-18.9,4.8-25.7
	c3.2-6.8,7.7-11.8,13.4-15c5.8-3.2,12.7-4.9,20.6-4.9c7.9,0,14.8,1.6,20.5,4.9c5.8,3.2,10.3,8.3,13.4,15.1
	c3.2,6.8,4.8,15.3,4.8,25.6s-1.6,18.9-4.8,25.7c-3.2,6.8-7.7,11.8-13.5,15C705.5,93.9,698.6,95.5,690.8,95.5z M690.8,80.1
	c6.4,0,11.2-2.3,14.5-7c3.4-4.7,5-12.3,5-22.8c0-10.9-1.7-18.7-5-23.5c-3.3-4.8-8.2-7.1-14.6-7.1c-6.4,0-11.3,2.3-14.6,7
	c-3.3,4.6-5,12.2-5,22.7c0,10.9,1.7,18.8,5,23.5C679.4,77.8,684.3,80.1,690.8,80.1z M761.8,95.5c-3.8,0-7.8-0.3-11.9-1
	s-7.8-1.5-11.1-2.7V76.4c3.6,1.1,7.4,2,11.3,2.7c4,0.6,7.7,1,11.3,1c10.5,0,15.7-3.4,15.7-10.3c0-1.9-0.4-3.4-1.1-4.7
	c-0.8-1.3-2.1-2.4-3.9-3.4c-1.8-1-4.3-2-7.6-2.9l-6.4-1.9c-14.4-4.2-21.7-12.7-21.7-25.4c0-5.6,1.3-10.5,3.9-14.5
	c2.6-4,6.6-7.1,11.8-9.3c5.2-2.2,11.7-3.2,19.4-3.2c3.6,0,7.2,0.2,10.6,0.7c3.4,0.4,6.5,1,9.2,1.8v15.5c-2.7-0.8-5.6-1.4-8.8-1.9
	c-3.1-0.4-6.3-0.7-9.4-0.7c-6.4,0-10.9,0.9-13.7,2.7c-2.8,1.8-4.1,4.3-4.1,7.6c0,1.8,0.3,3.3,1,4.5c0.7,1.2,1.8,2.3,3.4,3.2
	c1.6,0.9,3.9,1.8,6.8,2.7l6.4,1.9c7.7,2.2,13.4,5.4,17.3,9.5c3.8,4.1,5.8,9.5,5.8,16.3c0,5.6-1.4,10.5-4.1,14.6
	c-2.7,4.1-6.6,7.2-11.7,9.4C775.1,94.4,769,95.5,761.8,95.5z"/>
<path class="st1" d="M208.4,198.2h47.1v18.2h-68.6V112.8h67.9V131h-46.4v23.3h39.3v18.2h-39.3V198.2z M348.6,112.8h26.7v103.6H355
	v-73.6l-24.2,58.7h-17.6L289,144.5v71.9h-20.3V112.8h26.7l27,65L348.6,112.8z M392.6,114.6c9.9-2.1,19.8-3.2,29.7-3.2
	c14.8,0,25.9,3,33.3,9.1c7.3,6.1,11,15.5,11,28.3c0,12.3-3.6,21.6-10.9,27.9c-7.2,6.3-17.9,9.5-32,9.5c-2.6,0-5.7-0.1-9.3-0.3v30.3
	h-21.8V114.6z M423.9,169.2c7.4,0,12.8-1.6,16.2-4.7c3.5-3.2,5.2-8.3,5.2-15.3c0-7.1-1.7-12.3-5.2-15.6c-3.4-3.3-8.7-4.9-15.9-4.9
	c-3.6,0-7,0.3-9.9,0.8v39.1C417.1,169,420.3,169.2,423.9,169.2z M537.7,216.4l-25.1-38h-1.3c-2.4,0-5.8-0.1-10.3-0.3v38.3h-21.4
	V114.8c10.1-2.2,20.3-3.3,30.5-3.3c14.5,0,25.3,2.8,32.5,8.3c7.2,5.5,10.8,13.8,10.8,25.1c0,7.3-1.7,13.5-5.2,18.6
	c-3.5,5-8.4,8.8-14.9,11.3l28,41.6H537.7z M500.9,161c3.4,0.3,6.9,0.5,10.4,0.5c7.3,0,12.6-1.3,16.1-3.9c3.5-2.6,5.3-6.8,5.3-12.7
	c0-5.7-1.7-10-5-12.7c-3.3-2.7-8.4-4.1-15.1-4.1c-4.2,0-8.1,0.3-11.7,1V161z M592.3,198.2h47.1v18.2h-68.6V112.8h67.9V131h-46.4
	v23.3h39.3v18.2h-39.3V198.2z M676.3,217.7c-4.5,0-9.1-0.4-13.9-1.1c-4.8-0.7-9.1-1.8-13-3.2v-18.1c4.2,1.3,8.6,2.4,13.2,3.1
	c4.6,0.7,9,1.1,13.2,1.1c12.2,0,18.3-4,18.3-12c0-2.2-0.4-4-1.3-5.5c-0.9-1.5-2.4-2.8-4.6-3.9c-2.1-1.2-5-2.3-8.8-3.4l-7.4-2.2
	c-16.8-4.9-25.3-14.8-25.3-29.7c0-6.6,1.5-12.2,4.6-16.9c3.1-4.7,7.7-8.3,13.7-10.8c6.1-2.5,13.7-3.8,22.6-3.8
	c4.2,0,8.4,0.3,12.3,0.8c4,0.5,7.5,1.2,10.7,2.1v18.1c-3.1-0.9-6.5-1.7-10.2-2.2c-3.6-0.5-7.3-0.8-11-0.8c-7.4,0-12.8,1-16,3.1
	c-3.2,2.1-4.8,5-4.8,8.8c0,2.1,0.4,3.8,1.2,5.3c0.8,1.4,2.1,2.6,4,3.7c1.9,1.1,4.5,2.1,7.9,3.2l7.4,2.2c9,2.6,15.7,6.3,20.2,11.1
	c4.5,4.8,6.7,11.1,6.7,19c0,6.6-1.6,12.3-4.8,17c-3.1,4.8-7.7,8.4-13.7,11C691.7,216.4,684.6,217.7,676.3,217.7z M791.4,216.4
	l-7.8-27.6h-35l-7.8,27.6h-21.3l30.7-103.6h32.1l30.6,103.6H791.4z M753.7,170.6h24.8l-12.4-44L753.7,170.6z"/>
<path class="st0" d="M52.2,188.4l-4.1-14.4H29.8l-4.1,14.4H14.7l16-54h16.8l16,54H52.2z M32.5,164.5h12.9l-6.5-23L32.5,164.5z
	 M97,188.4v-44.2H81.1v-9.9h43.3v9.9h-16v44.2H97z M150.2,189c-4.9,0-8.9-0.8-12-2.3c-3.1-1.6-5.5-4-7-7.3
	c-1.5-3.3-2.3-7.5-2.3-12.7v-32.4h11.4V168c0,4.1,0.8,7,2.4,8.9c1.7,1.8,4.2,2.7,7.6,2.7c3.4,0,5.9-0.9,7.5-2.7
	c1.7-1.8,2.5-4.8,2.5-8.9v-33.6h11.1v32.4c0,5.2-0.8,9.4-2.3,12.7c-1.5,3.3-3.8,5.7-6.9,7.3C159.1,188.3,155.1,189,150.2,189z"/>
</svg>
