<svg width="579" height="631" viewBox="0 0 579 631" fill="none" xmlns="http://www.w3.org/2000/svg">
<g clip-path="url(#clip0_105_391)">
<g opacity="0.7">
<path d="M171.46 630.21L373.19 513.95L263.92 450.86L62.2 567.13L171.46 630.21Z" fill="#619AF6"/>
</g>
<g opacity="0.7">
<path d="M179.25 607.68L380.97 491.42L271.71 428.34L69.99 544.6L179.25 607.68Z" fill="#619AF6"/>
</g>
<g opacity="0.7">
<path d="M450.75 427L295.54 337.54L423.66 263.1L578.87 352.55L450.75 427Z" fill="#619AF6"/>
</g>
<g opacity="0.7">
<path d="M202.78 362L265.69 398.32C282.04 407.76 283.83 422.17 269.67 430.34L186.89 478.13C172.73 486.3 147.77 485.27 131.42 475.83L68.51 439.51L202.78 362Z" fill="#619AF6"/>
</g>
<g opacity="0.7">
<path d="M370.08 567.5C353.81 567.5 340.23 574.35 336.84 583.49C330.6 578.74 320.95 575.68 310.09 575.68C291.27 575.68 276.02 584.83 276.02 596.12C276.02 607.41 291.27 616.56 310.09 616.56C326.36 616.56 339.94 609.71 343.33 600.57C349.57 605.32 359.22 608.38 370.08 608.38C388.9 608.38 404.15 599.23 404.15 587.94C404.15 576.65 388.9 567.5 370.08 567.5Z" fill="#619AF6"/>
</g>
<g opacity="0.7">
<path d="M540.86 526.39C536.07 518.58 523.59 513 508.92 513C490.1 513 474.85 522.15 474.85 533.44C474.85 539.53 479.32 544.98 486.36 548.73C491.15 556.54 503.63 562.12 518.3 562.12C537.12 562.12 552.37 552.97 552.37 541.68C552.38 535.59 547.91 530.14 540.86 526.39Z" fill="#619AF6"/>
</g>
<g opacity="0.7">
<path d="M400.96 536.12C397.24 541.88 402.53 547.81 410.94 550.5C419.35 553.19 424.11 546.34 431.18 542.48C438.24 538.62 452.57 536.11 452.89 528.51C453.2 520.91 440.86 515.55 431.18 511.96C421.51 508.36 417.49 515.48 410.94 522.52C404.39 529.57 404.61 530.47 400.96 536.12Z" fill="#619AF6"/>
</g>
<g opacity="0.7">
<path d="M349.94 409.76C343.24 414.98 339.68 417.84 344.68 424.71C349.68 431.58 361.88 430.54 374.87 440.31C387.86 450.08 390.38 456.14 402.7 453.31C415.02 450.47 426.13 438.59 421.3 430.34C416.47 422.08 405.21 423.5 395.36 416.13C385.51 408.76 382.43 404.17 371.92 404.3C361.14 404.44 354.62 406.12 349.94 409.76Z" fill="#619AF6"/>
</g>
<path d="M567.12 353.23L424.5 270.89V18.8198L567.12 101.16V353.23Z" fill="#778CFC"/>
<path d="M516.42 382.37L373.81 300.03V47.96L516.42 130.3V382.37Z" fill="#0080E8"/>
<path d="M516.42 130.3L567.12 101.16V353.23L516.42 382.37V130.3Z" fill="#009EE8"/>
<path d="M526.96 140.22V156.9L559.24 138.35V121.67L526.96 140.22Z" fill="#302F2E"/>
<path d="M526.96 300.7L559.24 282.15V138.35L526.96 156.9V300.7Z" fill="#F9F9F9"/>
<path d="M538.19 156.13L534.2 158.43V289.59L538.19 287.29V156.13Z" fill="#302F2E"/>
<path d="M553.86 107.7L422.48 31.79L384.64 53.54L516.42 128.93L553.86 107.7Z" fill="white"/>
<path d="M424.5 18.8198L422.48 19.9898L562.77 101.05L517.05 127.36L376.73 46.2898L373.81 47.9598L516.42 130.3L567.12 101.16L424.5 18.8198Z" fill="#FF82C0"/>
<path d="M422.48 19.9897V31.7897L552.54 106.93L562.77 101.05L422.48 19.9897Z" fill="#0080E8"/>
<path d="M464.06 90.1897C444.81 75.8497 423.69 62.8897 402.02 52.5697C401.86 52.4997 401.74 52.7097 401.89 52.7997C422.71 65.2097 443.32 77.6997 463.74 90.7597C464.1 90.9997 464.39 90.4297 464.06 90.1897Z" fill="#DFD6DB"/>
<path d="M513.75 93.0598C494.5 78.7198 473.38 65.7598 451.71 55.4398C451.55 55.3698 451.43 55.5798 451.58 55.6698C472.4 68.0798 493.01 80.5698 513.43 93.6298C513.79 93.8798 514.08 93.3098 513.75 93.0598Z" fill="#DFD6DB"/>
<path d="M531.79 110.43C524.85 105.4 517.08 101.5 509.69 97.1897C502.28 92.8597 494.98 88.3197 487.49 84.1197C486.99 83.8397 486.6 84.5497 487.05 84.8697C500.57 94.6097 515.99 104.89 531.63 110.81C531.87 110.9 531.97 110.55 531.79 110.43Z" fill="#DFD6DB"/>
<path d="M532.61 327.43C532.61 336.41 538.07 340.54 544.81 336.65C551.55 332.76 557.01 322.32 557.01 313.34C557.01 304.36 551.55 300.23 544.81 304.12C538.07 308.01 532.61 318.44 532.61 327.43Z" fill="#F9F9F9"/>
<path d="M552.39 306.64C553.4 308.16 554 310.31 554 313C554 320.46 549.46 329.13 543.86 332.37C541.1 333.96 538.61 333.93 536.78 332.6C538.58 335.3 541.72 335.98 545.31 333.91C550.91 330.68 555.45 322.01 555.45 314.54C555.45 310.74 554.28 308 552.39 306.64Z" fill="#DFD6DB"/>
<path d="M543.86 332.36C549.46 329.13 554 320.46 554 312.99C554 310.31 553.41 308.15 552.39 306.63C550.56 305.3 548.06 305.27 545.31 306.86C539.71 310.09 535.17 318.76 535.17 326.23C535.17 328.91 535.76 331.07 536.78 332.59C538.61 333.92 541.11 333.95 543.86 332.36Z" fill="#8CA2FF"/>
<path d="M553.28 148.92V151.48L545.95 155.71V160.2L544.23 161.19V154.14L553.28 148.92Z" fill="#302F2E"/>
<path d="M546.15 161.44C547.59 160.61 548.38 161.59 548.66 164.84C549.27 164.44 549.66 163.85 549.66 162.91C549.66 162.18 549.43 161.6 549.04 160.99L550.38 159.29C550.91 160.08 551.28 161.1 551.28 162.46C551.28 164.67 550.28 166.46 548.17 167.68L544.23 169.95V167.86L544.94 167.28V167.21C544.42 166.78 544.07 166.19 544.07 165.21C544.07 163.63 544.99 162.11 546.15 161.44ZM546.24 166.24L547.45 165.54C547.25 163.84 546.84 163.49 546.31 163.8C545.87 164.06 545.66 164.56 545.66 165.17C545.65 165.75 545.87 166 546.24 166.24Z" fill="#302F2E"/>
<path d="M545.03 170.89L546.3 171.3C545.83 172.36 545.58 173.22 545.58 173.94C545.58 174.71 545.8 174.91 546.16 174.7C546.62 174.44 546.82 173.45 547.1 172.4C547.42 171.17 547.99 169.61 549.12 168.95C550.39 168.21 551.27 169.01 551.27 171.02C551.27 172.34 550.84 173.56 550.4 174.57L549.18 174.13C549.54 173.29 549.76 172.57 549.76 171.97C549.76 171.31 549.56 171.11 549.22 171.31C548.78 171.57 548.61 172.46 548.35 173.5C548.03 174.78 547.55 176.3 546.28 177.02C545.03 177.74 544.06 177.07 544.06 174.75C544.07 173.62 544.46 172.09 545.03 170.89Z" fill="#302F2E"/>
<path d="M546.74 178.38L549.53 176.77V175.59L551.04 174.72L551.12 175.99L552.95 175.23V177.35L551.12 178.41V180.48L549.52 181.4V179.33L546.76 180.92C545.99 181.37 545.67 181.99 545.67 182.66C545.67 182.94 545.74 183.21 545.81 183.4L544.33 184.66C544.22 184.27 544.08 183.73 544.08 182.89C544.07 180.75 545.14 179.3 546.74 178.38Z" fill="#302F2E"/>
<path d="M551.12 185.64V187.73L550.23 188.42V188.49C550.8 188.87 551.28 189.36 551.28 190.49C551.28 191.71 550.86 192.68 550.13 193.54C550.76 193.94 551.28 194.44 551.28 195.59C551.28 197.45 550.23 198.9 548.51 199.89L544.24 202.36V199.8L548.25 197.48C549.25 196.9 549.55 196.4 549.55 195.67C549.55 195.24 549.33 194.88 548.89 194.57L544.24 197.25V194.69L548.25 192.37C549.25 191.79 549.55 191.29 549.55 190.56C549.55 190.14 549.33 189.77 548.89 189.48L544.24 192.16V189.6L551.12 185.64Z" fill="#302F2E"/>
<path d="M547.68 202.03C549.97 200.71 551.29 201.97 551.29 204.16C551.29 206.34 549.97 209.12 547.68 210.44C545.39 211.76 544.07 210.51 544.07 208.33C544.07 206.13 545.39 203.35 547.68 202.03ZM547.68 207.82C548.87 207.13 549.63 206.15 549.63 205.11C549.63 204.05 548.87 203.97 547.68 204.65C546.49 205.34 545.72 206.31 545.72 207.36C545.72 208.41 546.49 208.51 547.68 207.82Z" fill="#302F2E"/>
<path d="M551.12 210.2V212.29L550.25 212.97V213.04C550.81 213.45 551.29 214.04 551.29 215.21C551.29 217.09 550.24 218.5 548.52 219.49L544.25 221.96V219.4L548.26 217.08C549.26 216.5 549.56 216 549.56 215.27C549.56 214.63 549.32 214.36 548.9 214.05L544.25 216.73V214.17L551.12 210.2Z" fill="#302F2E"/>
<path d="M546.74 223.03L549.53 221.42V220.24L551.04 219.37L551.12 220.64L552.95 219.88V222L551.12 223.06V225.13L549.52 226.05V223.98L546.76 225.57C545.99 226.02 545.67 226.64 545.67 227.32C545.67 227.6 545.74 227.87 545.81 228.06L544.33 229.32C544.22 228.93 544.08 228.39 544.08 227.55C544.07 225.41 545.14 223.95 546.74 223.03Z" fill="#302F2E"/>
<path d="M553.96 225.17V227.73L551.57 229.11L550.34 229.7C550.8 230.08 551.28 230.66 551.28 231.82C551.28 233.7 550.23 235.11 548.51 236.1L544.24 238.57V236.01L548.25 233.69C549.25 233.11 549.55 232.61 549.55 231.88C549.55 231.24 549.31 230.97 548.89 230.66L544.24 233.34V230.78L553.96 225.17Z" fill="#302F2E"/>
<path d="M546.74 243.11L549.53 241.5V240.32L551.04 239.45L551.12 240.72L552.95 239.96V242.08L551.12 243.14V245.21L549.52 246.13V244.06L546.76 245.65C545.99 246.1 545.67 246.72 545.67 247.4C545.67 247.68 545.74 247.95 545.81 248.14L544.33 249.4C544.22 249.01 544.08 248.47 544.08 247.63C544.07 245.48 545.14 244.03 546.74 243.11Z" fill="#302F2E"/>
<path d="M546.15 249.01C547.59 248.18 548.38 249.17 548.66 252.42C549.27 252.02 549.66 251.42 549.66 250.48C549.66 249.75 549.43 249.17 549.04 248.56L550.38 246.86C550.91 247.65 551.28 248.67 551.28 250.03C551.28 252.24 550.28 254.03 548.17 255.25L544.23 257.53V255.44L544.94 254.86V254.79C544.42 254.35 544.07 253.76 544.07 252.79C544.07 251.2 544.99 249.68 546.15 249.01ZM546.24 253.82L547.45 253.12C547.25 251.43 546.84 251.07 546.31 251.38C545.87 251.64 545.66 252.14 545.66 252.75C545.65 253.31 545.87 253.57 546.24 253.82Z" fill="#302F2E"/>
<path d="M547.82 259.37L551.12 254.98V257.73L550.01 259.14C549.62 259.59 549.22 260.09 548.83 260.55V260.62C549.22 260.57 549.62 260.56 550.01 260.53L551.12 260.48V263.12L547.58 262.66L544.24 267.25V264.5L545.38 263.01C545.77 262.51 546.18 262.01 546.57 261.5V261.43C546.18 261.45 545.78 261.44 545.38 261.46L544.24 261.44V258.79L547.82 259.37Z" fill="#302F2E"/>
<path d="M547.68 265.68C549.91 264.39 551.29 265.6 551.29 267.67C551.29 270.12 549.86 272.16 547.99 273.25C547.63 273.46 547.25 273.62 547.09 273.67V268.5C546.09 269.3 545.63 270.44 545.63 271.58C545.63 272.22 545.78 272.73 546.09 273.18L544.85 274.74C544.36 274.13 544.07 273.15 544.07 272.13C544.07 269.66 545.4 266.99 547.68 265.68ZM548.43 270.81C549.19 270.37 549.73 269.64 549.73 268.61C549.73 267.81 549.3 267.36 548.43 267.69V270.81Z" fill="#302F2E"/>
<path d="M545.03 275.96L546.3 276.37C545.83 277.43 545.58 278.29 545.58 279.01C545.58 279.78 545.8 279.98 546.16 279.77C546.62 279.51 546.82 278.52 547.1 277.47C547.42 276.24 547.99 274.68 549.12 274.02C550.39 273.28 551.27 274.08 551.27 276.09C551.27 277.41 550.84 278.63 550.4 279.64L549.18 279.2C549.54 278.36 549.76 277.64 549.76 277.04C549.76 276.38 549.56 276.18 549.22 276.38C548.78 276.64 548.61 277.54 548.35 278.57C548.03 279.85 547.55 281.37 546.28 282.09C545.03 282.81 544.06 282.14 544.06 279.82C544.07 278.69 544.46 277.16 545.03 275.96Z" fill="#302F2E"/>
<path d="M447.18 72.8396L433.97 65.2096C433.97 65.2096 433.97 48.8196 433.97 43.3596C433.97 30.1496 438.45 23.0796 438.45 23.0796L451.66 30.7096C451.66 30.7096 447.18 39.9396 447.18 57.0996C447.18 61.0296 447.18 72.8396 447.18 72.8396Z" fill="#8CA2FF"/>
<path d="M516.06 116.28L505.14 109.98V71.1099L516.06 77.4099V116.28Z" fill="#A298FF"/>
<path d="M533.44 102.7L522.52 96.4C522.52 96.4 522.52 78.16 522.52 72.08C522.52 68.44 523.99 61.46 523.99 61.46L534.91 67.76C534.91 67.76 533.44 74.09 533.44 77.51C533.44 83.81 533.44 102.7 533.44 102.7Z" fill="#FFB73B"/>
<path d="M500.56 391.19L357.95 308.86V56.7896L500.56 139.13V391.19Z" fill="#778CFC"/>
<path d="M449.87 420.33L307.25 337.99V85.9297L449.87 168.26V420.33Z" fill="#8CA2FF"/>
<path d="M449.87 168.259L500.56 139.129V391.189L449.87 420.329V168.259Z" fill="#0080E8"/>
<path d="M460.41 178.19V194.86L492.68 176.31V159.64L460.41 178.19Z" fill="#302F2E"/>
<path d="M460.41 338.67L492.68 320.12V176.31L460.41 194.86V338.67Z" fill="#F9F9F9"/>
<path d="M471.64 194.1L467.65 196.39V327.55L471.64 325.26V194.1Z" fill="#302F2E"/>
<path d="M487.3 145.66L355.92 69.7598L318.08 91.5098L449.87 166.89L487.3 145.66Z" fill="white"/>
<path d="M357.95 56.7896L355.92 57.9496L496.21 139.01L450.49 165.33L310.17 84.2495L307.25 85.9296L449.87 168.26L500.56 139.13L357.95 56.7896Z" fill="#A5BAFF"/>
<path d="M355.92 57.9497V69.7597L485.98 144.9L496.21 139.01L355.92 57.9497Z" fill="#778CFC"/>
<path d="M397.5 128.15C378.25 113.81 357.13 100.85 335.46 90.5297C335.3 90.4597 335.18 90.6697 335.33 90.7597C356.15 103.17 376.76 115.66 397.18 128.72C397.54 128.97 397.83 128.4 397.5 128.15Z" fill="#DFD6DB"/>
<path d="M447.19 131.03C427.94 116.69 406.82 103.73 385.15 93.4095C384.99 93.3395 384.87 93.5495 385.02 93.6395C405.84 106.05 426.45 118.54 446.87 131.6C447.23 131.84 447.53 131.28 447.19 131.03Z" fill="#DFD6DB"/>
<path d="M465.24 148.39C458.3 143.36 450.53 139.46 443.14 135.15C435.72 130.82 428.43 126.28 420.94 122.08C420.44 121.8 420.05 122.51 420.5 122.83C434.02 132.57 449.44 142.85 465.08 148.77C465.31 148.86 465.41 148.52 465.24 148.39Z" fill="#DFD6DB"/>
<path d="M466.05 365.39C466.05 374.37 471.51 378.5 478.25 374.61C484.99 370.72 490.45 360.28 490.45 351.3C490.45 342.32 484.99 338.19 478.25 342.08C471.51 345.97 466.05 356.41 466.05 365.39Z" fill="#F9F9F9"/>
<path d="M485.84 344.6C486.85 346.12 487.45 348.27 487.45 350.95C487.45 358.41 482.91 367.08 477.31 370.32C474.55 371.91 472.05 371.88 470.23 370.55C472.03 373.25 475.17 373.93 478.76 371.86C484.36 368.63 488.9 359.96 488.9 352.49C488.89 348.71 487.72 345.97 485.84 344.6Z" fill="#DFD6DB"/>
<path d="M477.31 370.319C482.91 367.089 487.45 358.419 487.45 350.949C487.45 348.269 486.86 346.109 485.84 344.599C484.01 343.269 481.52 343.239 478.76 344.829C473.16 348.059 468.62 356.729 468.62 364.199C468.62 366.879 469.21 369.039 470.23 370.559C472.05 371.879 474.55 371.919 477.31 370.319Z" fill="#5E79E5"/>
<path d="M485 190.09V186.98L486.72 185.99V194.79L485 195.78V192.67L477.68 196.9V194.33L485 190.09Z" fill="#302F2E"/>
<path d="M487.4 195.96V198.52L485.01 199.9L483.78 200.49C484.24 200.87 484.72 201.44 484.72 202.61C484.72 204.49 483.67 205.9 481.95 206.89L477.68 209.36V206.8L481.69 204.48C482.69 203.9 482.99 203.4 482.99 202.67C482.99 202.03 482.75 201.76 482.33 201.45L477.68 204.13V201.58L487.4 195.96Z" fill="#302F2E"/>
<path d="M484.56 207.53V210.09L477.68 214.06V211.5L484.56 207.53ZM486.64 206.12C487.26 205.76 487.69 206.14 487.69 206.99C487.69 207.86 487.26 208.72 486.64 209.08C486.01 209.44 485.57 209.08 485.57 208.22C485.57 207.37 486.02 206.48 486.64 206.12Z" fill="#302F2E"/>
<path d="M478.47 215.09L479.74 215.5C479.27 216.55 479.02 217.41 479.02 218.14C479.02 218.91 479.24 219.11 479.6 218.9C480.06 218.64 480.26 217.65 480.54 216.6C480.86 215.37 481.43 213.81 482.56 213.15C483.83 212.42 484.71 213.22 484.71 215.22C484.71 216.54 484.28 217.77 483.84 218.77L482.62 218.33C482.98 217.49 483.2 216.77 483.2 216.17C483.2 215.51 483 215.31 482.66 215.51C482.22 215.77 482.05 216.67 481.79 217.71C481.47 218.99 480.99 220.51 479.72 221.23C478.47 221.95 477.5 221.28 477.5 218.96C477.51 217.81 477.9 216.28 478.47 215.09Z" fill="#302F2E"/>
<path d="M484.56 223.52V225.61L483.67 226.3V226.37C484.24 226.76 484.72 227.24 484.72 228.37C484.72 229.59 484.3 230.56 483.57 231.42C484.2 231.82 484.72 232.32 484.72 233.47C484.72 235.33 483.67 236.77 481.95 237.77L477.68 240.24V237.68L481.69 235.36C482.69 234.78 482.99 234.28 482.99 233.55C482.99 233.11 482.77 232.76 482.33 232.45L477.68 235.13V232.57L481.69 230.25C482.69 229.67 482.99 229.17 482.99 228.44C482.99 228.02 482.77 227.65 482.33 227.36L477.68 230.04V227.49L484.56 223.52Z" fill="#302F2E"/>
<path d="M481.12 239.91C483.41 238.59 484.73 239.85 484.73 242.04C484.73 244.21 483.41 246.99 481.12 248.32C478.83 249.64 477.51 248.39 477.51 246.21C477.51 244.01 478.83 241.23 481.12 239.91ZM481.12 245.7C482.31 245.01 483.07 244.03 483.07 242.99C483.07 241.93 482.31 241.85 481.12 242.54C479.93 243.23 479.16 244.19 479.16 245.25C479.16 246.29 479.93 246.39 481.12 245.7Z" fill="#302F2E"/>
<path d="M484.56 248.08V250.17L483.69 250.85V250.92C484.25 251.33 484.73 251.92 484.73 253.08C484.73 254.96 483.68 256.37 481.96 257.36L477.69 259.83V257.27L481.7 254.95C482.7 254.37 483 253.87 483 253.14C483 252.5 482.76 252.23 482.34 251.92L477.69 254.6V252.05L484.56 248.08Z" fill="#302F2E"/>
<path d="M480.18 260.91L482.97 259.299V258.12L484.48 257.25L484.56 258.52L486.39 257.76V259.88L484.56 260.94V263.01L482.96 263.93V261.859L480.2 263.45C479.43 263.9 479.11 264.52 479.11 265.2C479.11 265.48 479.18 265.75 479.25 265.94L477.77 267.2C477.66 266.81 477.52 266.27 477.52 265.43C477.51 263.28 478.58 261.83 480.18 260.91Z" fill="#302F2E"/>
<path d="M487.4 263.06V265.61L485.01 266.99L483.78 267.58C484.24 267.96 484.72 268.54 484.72 269.7C484.72 271.58 483.67 272.99 481.95 273.98L477.68 276.45V273.9L481.69 271.58C482.69 271 482.99 270.5 482.99 269.76C482.99 269.12 482.75 268.85 482.33 268.55L477.68 271.23V268.67L487.4 263.06Z" fill="#302F2E"/>
<path d="M480.18 280.98L482.97 279.37V278.19L484.48 277.32L484.56 278.59L486.39 277.83V279.95L484.56 281.01V283.08L482.96 284V281.93L480.2 283.52C479.43 283.97 479.11 284.59 479.11 285.27C479.11 285.55 479.18 285.82 479.25 286.01L477.77 287.27C477.66 286.88 477.52 286.34 477.52 285.5C477.51 283.36 478.58 281.91 480.18 280.98Z" fill="#302F2E"/>
<path d="M479.6 286.89C481.04 286.06 481.83 287.05 482.11 290.29C482.72 289.89 483.11 289.3 483.11 288.36C483.11 287.63 482.88 287.05 482.49 286.44L483.83 284.74C484.36 285.53 484.73 286.55 484.73 287.91C484.73 290.12 483.73 291.91 481.62 293.13L477.68 295.41V293.32L478.39 292.74V292.67C477.87 292.23 477.52 291.64 477.52 290.67C477.51 289.08 478.43 287.56 479.6 286.89ZM479.68 291.69L480.89 290.99C480.69 289.29 480.28 288.94 479.75 289.25C479.31 289.5 479.1 290.01 479.1 290.62C479.09 291.2 479.32 291.45 479.68 291.69Z" fill="#302F2E"/>
<path d="M481.26 297.25L484.56 292.85V295.6L483.45 297.01C483.06 297.46 482.66 297.95 482.27 298.42V298.49C482.66 298.44 483.06 298.43 483.45 298.4L484.56 298.35V301L481.02 300.54L477.68 305.13V302.38L478.82 300.89C479.21 300.39 479.62 299.89 480.01 299.38V299.31C479.62 299.32 479.22 299.32 478.82 299.34L477.68 299.32V296.67L481.26 297.25Z" fill="#302F2E"/>
<path d="M481.12 303.56C483.35 302.27 484.73 303.48 484.73 305.55C484.73 308 483.3 310.05 481.43 311.13C481.07 311.34 480.69 311.5 480.53 311.55V306.38C479.53 307.18 479.07 308.32 479.07 309.47C479.07 310.11 479.22 310.62 479.53 311.07L478.29 312.64C477.8 312.03 477.51 311.05 477.51 310.02C477.51 307.54 478.84 304.87 481.12 303.56ZM481.87 308.69C482.63 308.25 483.17 307.52 483.17 306.49C483.17 305.69 482.74 305.24 481.87 305.57V308.69Z" fill="#302F2E"/>
<path d="M478.47 313.84L479.74 314.25C479.27 315.31 479.02 316.17 479.02 316.89C479.02 317.66 479.24 317.86 479.6 317.65C480.06 317.39 480.26 316.39 480.54 315.35C480.86 314.12 481.43 312.56 482.56 311.9C483.83 311.16 484.71 311.96 484.71 313.97C484.71 315.29 484.28 316.51 483.84 317.52L482.62 317.08C482.98 316.24 483.2 315.52 483.2 314.92C483.2 314.26 483 314.06 482.66 314.26C482.22 314.51 482.05 315.41 481.79 316.45C481.47 317.73 480.99 319.25 479.72 319.97C478.47 320.69 477.5 320.01 477.5 317.7C477.51 316.57 477.9 315.04 478.47 313.84Z" fill="#302F2E"/>
<path d="M469.58 143.6L456.37 135.97C456.37 135.97 456.37 119.58 456.37 114.12C456.37 100.91 460.85 93.8398 460.85 93.8398L474.06 101.47C474.06 101.47 469.58 110.7 469.58 127.86C469.58 131.79 469.58 143.6 469.58 143.6Z" fill="#8CA2FF"/>
<path d="M377.37 96.1798L366.45 89.8798V51.0098L377.37 57.3198V96.1798Z" fill="#A298FF"/>
<path d="M402.44 124.01L391.52 117.71C391.52 117.71 391.52 99.4695 391.52 93.3895C391.52 89.7495 392.99 82.7695 392.99 82.7695L403.91 89.0695C403.91 89.0695 402.44 95.3995 402.44 98.8195C402.44 105.12 402.44 124.01 402.44 124.01Z" fill="#FFB73B"/>
<path d="M269.54 400.96L202.17 369.23L83.0801 424.57V437.98L138.88 470.2C153.38 478.57 175.52 479.49 188.07 472.24L261.49 429.85C264.86 427.9 267.18 425.55 268.54 423C268.55 422.98 268.58 422.97 268.59 422.94C274.61 411.29 269.54 400.96 269.54 400.96Z" fill="#1F1B1A"/>
<path d="M202.17 355.81L257.97 388.03C272.47 396.4 274.06 409.18 261.5 416.43L188.08 458.82C175.52 466.07 153.39 465.15 138.89 456.78L83.0901 424.56L202.17 355.81Z" fill="#302F2E"/>
<path d="M201.19 315.09C201.39 312.37 141.12 319.68 128.85 333.77C117.01 347.37 118.14 405.09 118.14 405.09C118.14 405.09 155.76 433.14 192.17 407.65C209.61 395.44 205.34 384.86 203.93 376.71C201.29 361.39 200.03 330.64 201.19 315.09Z" fill="#232221"/>
<path d="M145.98 366.37C145.98 366.37 155.86 372.83 165.08 372.08C174.3 371.33 166.14 356.8 166.14 356.8L145.98 366.37Z" fill="#1F1B1A"/>
<path d="M309.51 258.96L0 437.66V178.7L309.51 0V258.96Z" fill="#353433"/>
<path d="M326.36 268.71L16.8501 447.4V188.44L326.36 9.74023V268.71Z" fill="#3F3E3C"/>
<path d="M317.54 234L25.6702 402.5V194.8L317.54 26.29V234Z" fill="#778CFC"/>
<path d="M138.35 138.55L32.52 199.65V390.91L138.35 329.81V138.55Z" fill="#8CA2FF"/>
<path d="M132.47 149.92L40.6902 202.91V233.47L132.47 180.48V149.92Z" fill="white"/>
<path d="M104.68 205.66L40.6902 242.61V248.15L104.68 211.2V205.66Z" fill="#5E79E5"/>
<path d="M113.41 200.62V206.16L132.47 195.16V189.62L113.41 200.62Z" fill="#778CFC"/>
<path d="M104.68 216.05L40.6902 253V258.54L104.68 221.59V216.05Z" fill="#5E79E5"/>
<path d="M113.41 211.01V216.55L132.47 205.55V200.01L113.41 211.01Z" fill="#778CFC"/>
<path d="M104.68 226.54L40.6902 263.49V269.03L104.68 232.08V226.54Z" fill="#5E79E5"/>
<path d="M113.41 221.5V227.04L132.47 216.04V210.5L113.41 221.5Z" fill="#778CFC"/>
<path d="M104.68 236.93L40.6902 273.88V279.42L104.68 242.47V236.93Z" fill="#5E79E5"/>
<path d="M113.41 231.89V237.43L132.47 226.43V220.89L113.41 231.89Z" fill="#778CFC"/>
<path d="M104.68 255.67L40.6902 292.62V298.16L104.68 261.21V255.67Z" fill="#5E79E5"/>
<path d="M113.41 250.63V256.17L132.47 245.17V239.63L113.41 250.63Z" fill="#778CFC"/>
<path d="M104.68 266.07L40.6902 303.02V308.55L104.68 271.61V266.07Z" fill="#5E79E5"/>
<path d="M113.41 261.03V266.57L132.47 255.57V250.03L113.41 261.03Z" fill="#778CFC"/>
<path d="M104.68 276.14L40.6902 313.09V318.63L104.68 281.68V276.14Z" fill="#5E79E5"/>
<path d="M113.41 271.1V276.64L132.47 265.64V260.1L113.41 271.1Z" fill="#778CFC"/>
<path d="M104.68 286.53L40.6902 323.48V329.02L104.68 292.07V286.53Z" fill="#5E79E5"/>
<path d="M78.1201 322.48V328.02L132.47 296.78V291.24L78.1201 322.48Z" fill="#5E79E5"/>
<path d="M93.1802 324.61V330.15L132.47 307.57V302.03L93.1802 324.61Z" fill="#5E79E5"/>
<path d="M148.33 132.79V324.05L309.51 231.08V39.8203L148.33 132.79Z" fill="#8CA2FF"/>
<path d="M297.43 103.31L163.17 180.75V212.07L297.43 134.63V103.31Z" fill="#2C2B29"/>
<path d="M250.18 137.38L168.46 184.52V203.58L250.18 156.44V137.38Z" fill="#494847"/>
<path d="M194.409 360.086C208.129 348.678 215.05 334.377 209.867 328.143C204.684 321.909 189.359 326.103 175.639 337.511C161.918 348.919 154.997 363.221 160.181 369.454C165.364 375.688 180.688 371.494 194.409 360.086Z" fill="#3F3E3C"/>
<path d="M201.7 338.79C201.7 344.42 194.92 352.9 186.55 357.73C178.18 362.56 171.4 361.92 171.4 356.29C171.4 350.66 178.18 342.18 186.55 337.35C194.92 332.52 201.7 333.16 201.7 338.79Z" fill="white"/>
<path d="M16.85 188.44L0 178.7V437.66L16.85 447.4V188.44Z" fill="#1F1B1A"/>
<path d="M326.36 9.74L309.51 0L0 178.7L16.85 188.44L326.36 9.74Z" fill="#353433"/>
<path d="M139.38 116.32C98.9 139.44 56.82 165.13 16.22 188.08C15.79 188.33 15.52 245.23 16.15 257.27C16.21 258.46 17.23 258.54 17.32 257.37C18.25 245.85 18.78 200.52 17.93 189.38C53.96 169.23 101.52 142.23 140.11 117.58C140.89 117.07 140.2 115.85 139.38 116.32Z" fill="white"/>
<path d="M17.2899 278.51C17.2599 278.29 16.9599 278.38 16.9399 278.56C15.6199 290.23 14.7799 338.27 16.1599 350C16.2599 350.87 17.4599 350.89 17.5299 350C18.6099 337.72 18.8799 289.64 17.2899 278.51Z" fill="white"/>
<path d="M237.21 60.7501C225.57 66.9501 213.78 74.3201 202.77 80.5001C194.52 85.1301 183.67 91.2001 176.25 95.8901C174.57 96.9501 175.11 97.7401 176.93 97.0401C185.91 93.6201 195.06 87.7401 203.59 83.0001C214.17 77.1301 226.02 70.1101 237.61 61.9701C238.29 61.4901 237.86 60.4101 237.21 60.7501Z" fill="white"/>
<path d="M30.3901 417.8C28.9601 415.9 28.2901 413.69 27.0301 411.71C26.8401 411.41 26.2501 411.4 26.1901 411.82C25.8501 414.3 27.0401 416.93 28.3501 418.99C29.4501 420.72 31.5501 423.7 33.8601 423.51C34.2701 423.48 34.5901 423.13 34.4701 422.7C33.9901 420.8 31.5601 419.35 30.3901 417.8Z" fill="#1F1B1A"/>
<path d="M51.4601 415.04C47.7401 412.97 40.3201 414.15 37.2201 417.02C36.9701 417.25 37.1801 417.6 37.4701 417.63C39.8601 417.86 42.2101 417.24 44.6001 417.14C46.8101 417.04 49.0501 417.54 51.2001 417C52.0901 416.77 52.2601 415.48 51.4601 415.04Z" fill="#1F1B1A"/>
<path d="M200.22 318.43C199.71 318.51 199.75 319.19 200.09 319.43C201.66 320.5 203.44 321.23 205.02 322.28C206.58 323.32 207.86 324.96 209.52 325.8C210.32 326.2 211.37 325.54 211.09 324.59C209.94 320.76 204 317.87 200.22 318.43Z" fill="#1F1B1A"/>
<path d="M165.21 338.82C159.17 341.04 153.32 350.89 155.94 357.21C156.15 357.73 157.01 358.05 157.31 357.39C158.66 354.45 158.84 351.12 160.08 348.12C161.43 344.84 163.67 342.18 165.46 339.15C165.54 338.99 165.39 338.76 165.21 338.82Z" fill="#1F1B1A"/>
<path d="M147.57 360.05C145.52 361.34 144.16 363.19 141.78 364.06C139.86 364.76 137.66 364.49 135.82 365.31C135.67 365.38 135.6 365.63 135.7 365.76C138.89 369.93 148.37 365.82 149.25 361.33C149.43 360.41 148.47 359.48 147.57 360.05Z" fill="#1F1B1A"/>
<path d="M150.49 353.13C148.95 351.86 146.59 352.15 144.71 351.71C142.9 351.29 140.85 350.01 139 350.43C138.68 350.5 138.45 350.9 138.56 351.21C139.22 353.26 142.03 354.1 143.92 354.63C145.94 355.2 148.78 355.95 150.5 354.42C150.84 354.12 150.86 353.44 150.49 353.13Z" fill="#1F1B1A"/>
<path d="M292.76 274.31C290.63 276.52 288.75 279 286.34 280.92C284.02 282.78 280.73 283.52 278.65 285.55C278.43 285.76 278.54 286.13 278.82 286.21C281.83 287.08 285.61 284.71 287.95 283.02C290.76 280.98 293.11 278.45 293.99 275.02C294.17 274.33 293.28 273.77 292.76 274.31Z" fill="#1F1B1A"/>
<path d="M311.77 251.25C310.56 253.23 309.74 255.43 308.48 257.42C307.23 259.39 305.25 260.91 304.25 263.01C303.88 263.78 304.5 264.9 305.46 264.58C309.83 263.11 313.34 255.99 312.96 251.58C312.9 250.96 312.11 250.68 311.77 251.25Z" fill="#1F1B1A"/>
<path d="M321.19 262.08C320.25 260.55 317.43 261.66 316.14 262.12C314.02 262.88 311.99 263.88 310.68 265.78C310.15 266.55 311.03 267.28 311.76 267.18C313.1 267 322.31 263.91 321.19 262.08Z" fill="#1F1B1A"/>
<path d="M160.81 452.97C157.92 452.71 154.91 452.59 152.09 451.87C149.48 451.2 147.25 449.65 144.67 449.01C144.26 448.91 144.02 449.32 144.17 449.66C146.67 455.48 156.1 457.01 161.22 454.46C161.99 454.07 161.53 453.03 160.81 452.97Z" fill="#1F1B1A"/>
<path d="M175.25 450.79C171.76 447.59 165.11 446.87 160.75 448.26C160.42 448.37 160.4 448.85 160.75 448.95C162.97 449.57 165.23 449.98 167.46 450.57C169.71 451.16 171.81 452.41 174.08 452.81C175.17 453 176.21 451.67 175.25 450.79Z" fill="#1F1B1A"/>
<path d="M256.34 398.78C255.26 396.58 252.6 395.04 250.54 393.84C248.44 392.61 246.08 391.39 243.59 391.58C243.18 391.61 243 392.05 243.27 392.36C244.82 394.16 247.02 395.21 248.96 396.55C250.9 397.89 252.68 399.82 254.89 400.66C256.03 401.1 256.79 399.69 256.34 398.78Z" fill="#1F1B1A"/>
<path d="M260.46 401.03C260.18 400.57 259.45 400.72 259.26 401.16C258.47 402.98 258.37 404.8 257.04 406.41C256.44 407.14 255.68 407.81 254.91 408.35C254.09 408.93 253.13 409.11 252.33 409.69C251.51 410.29 251.91 411.5 252.83 411.7C257.52 412.7 262.9 405.12 260.46 401.03Z" fill="#1F1B1A"/>
<path d="M70.9199 194.61L66.6299 197.08V193.12L78.7399 186.13V190.09L74.4499 192.56V209.42L70.9099 211.47V194.61H70.9199Z" fill="#FF66A5"/>
<path d="M83.13 183.6L87.37 181.15L92.26 199.15L88.52 201.31L87.56 196.91L82.79 199.66L81.83 205.16L78.24 207.24L83.13 183.6ZM83.51 195.58L86.84 193.66L86.48 191.95C86.05 190.12 85.62 187.92 85.21 185.98L85.11 186.03C84.73 188.45 84.32 191.12 83.89 193.44L83.51 195.58Z" fill="#FF66A5"/>
<path d="M96.57 185.96L92.5 178.19L96.43 175.92L97.79 179.06C98.15 179.81 98.48 180.7 98.92 181.76L99.02 181.7C99.38 180.19 99.71 178.9 100.02 177.77L101.27 173.12L105.03 170.95L100.98 183.63L105.29 191.61L101.36 193.88L99.8 190.53C99.42 189.66 99.06 188.82 98.63 187.79L98.53 187.84C98.17 189.32 97.81 190.59 97.48 191.87L96.02 196.96L92.24 199.14L96.57 185.96Z" fill="#FF66A5"/>
<path d="M174.42 189.22L242.42 149.92C242.42 149.92 248.1 250.08 248.65 274.09C249.2 298.11 236.65 336.91 223.39 339.95C210.13 343 202.34 327.78 199.44 322.5C196.54 317.22 193.22 284.71 193.22 274.09C193.22 263.46 192.67 236.44 192.11 226.53C191.56 216.63 190.15 207.48 185.03 201.66C179.92 195.85 174.42 189.22 174.42 189.22Z" fill="white"/>
<path d="M326.21 65.8901L237.45 117.13C235.58 142.74 235.59 178.27 235.36 187.2C235.06 198.89 239.86 264.88 238.85 279.41C237.83 293.95 234.96 318.23 232.57 325.24C230.17 332.25 224.93 341.26 224.93 341.26L309.38 293.08L312.06 291.55C322.97 285.25 327.22 257.87 327.22 193.91C327.22 181.53 326.76 167.11 326.27 151.84C325.36 123.54 324.35 91.6401 326.21 65.8901Z" fill="white"/>
<path d="M334.85 25.1499C333.56 25.2499 332.28 25.3899 331 25.5399C329.32 29.0999 327.92 32.0599 327.92 32.0599C327.92 32.0599 260.02 61.1599 254.48 65.5899C248.94 70.0199 244.03 76.3899 239.79 97.2999C239.18 100.32 238.66 104.12 238.22 108.41C237.94 111.13 237.69 114.06 237.47 117.12L326.23 65.8799C327.47 48.5199 330.04 33.9399 334.85 25.1499Z" fill="#EEE7EA"/>
<path d="M359.49 16.7099C351.97 12.3699 345.45 11.7099 340.08 14.6799H340.04L339.68 14.8799C339.66 14.8899 339.64 14.8999 339.62 14.9099C339.61 14.9199 339.6 14.9199 339.59 14.9299L252.5 64.6099L272.37 66.4099L356.07 18.6599C356.65 18.9499 357.23 19.2399 357.83 19.5899L359.49 16.7099Z" fill="white"/>
<path d="M219.97 342.61C217.62 342.61 215.07 341.82 212.36 340.26C191.01 327.94 191.01 289.77 191.01 236.94C191.01 202.92 174.59 193.25 174.42 193.16V189.24C175.78 189.89 176.82 190.7 177.79 191.46C182.39 195.02 194.33 207.14 194.33 236.95C194.33 288.66 194.33 326.02 214.02 337.39C217.73 339.53 220.75 339.86 223.27 338.41C235.16 331.54 236.77 286.65 236.77 243.65C236.77 231.32 236.31 216.93 235.82 201.69C233.95 143.25 231.83 77.0097 252.5 64.6297C257.95 61.3597 264.64 61.9697 272.37 66.4297L270.71 69.3097C264.01 65.4397 258.61 64.8397 254.21 67.4797C235.22 78.8497 237.4 146.9 239.15 201.58C239.64 216.84 240.1 231.26 240.1 243.65C240.1 307.62 235.85 334.99 224.94 341.29C223.4 342.16 221.74 342.61 219.97 342.61Z" fill="#DFD6DB"/>
<path d="M357.83 19.59L359.49 16.71L272.37 66.42L270.71 69.3L357.83 19.59Z" fill="#CBB9B9"/>
<path d="M257.8 278.56C257.68 280.55 257.56 282.46 257.42 284.32L312.94 252.23C313.09 250.34 313.23 248.42 313.35 246.45L257.8 278.56Z" fill="#CBB9B9"/>
<path d="M256.96 125.51C256.92 127.36 256.89 129.22 256.87 131.1L312.45 99.0097C312.47 97.1297 312.49 95.2697 312.52 93.4297L256.96 125.51Z" fill="#CBB9B9"/>
<path d="M256.85 144.76C256.86 146.59 256.88 148.43 256.9 150.27L312.52 118.16C312.49 116.32 312.47 114.49 312.45 112.66L256.85 144.76Z" fill="#CBB9B9"/>
<path d="M257.15 163.77C257.19 165.59 257.24 167.41 257.29 169.23L312.94 137.1C312.89 135.28 312.84 133.46 312.8 131.64L257.15 163.77Z" fill="#CBB9B9"/>
<path d="M257.67 182.65C257.73 184.48 257.78 186.29 257.84 188.09L313.5 156.01C313.44 154.19 313.38 152.35 313.33 150.52L257.67 182.65Z" fill="#CBB9B9"/>
<path d="M258.27 201.49C258.33 203.32 258.38 205.14 258.43 206.94L314.09 174.84C314.04 173.08 313.99 171.29 313.93 169.49L258.27 201.49Z" fill="#CBB9B9"/>
<path d="M258.75 220.39C258.78 222.25 258.81 224.08 258.83 225.88L314.46 193.72C314.44 191.96 314.42 190.17 314.39 188.34L258.75 220.39Z" fill="#CBB9B9"/>
<path d="M258.86 239.51C258.85 241.4 258.84 243.25 258.82 245.07L314.43 212.96C314.45 211.12 314.46 209.27 314.47 207.42L258.86 239.51Z" fill="#CBB9B9"/>
<path d="M258.59 258.83C258.54 260.75 258.49 262.63 258.43 264.46L314.02 232.36C314.08 230.5 314.14 228.62 314.19 226.72L258.59 258.83Z" fill="#CBB9B9"/>
<path d="M256.02 298.66C255.75 300.79 255.45 302.81 255.14 304.71L310.42 272.74C310.78 270.8 311.11 268.76 311.41 266.63L256.02 298.66Z" fill="#CBB9B9"/>
<path d="M309.93 287.24L304.64 290.27L296.7 294.82L292.68 297.12L250.86 321.07C248.89 325.74 246.58 329.05 243.77 330.67C246.82 328.93 302.72 296.85 302.72 296.85C305.56 295.19 307.95 292.07 309.93 287.24Z" fill="#CBB9B9"/>
<path d="M271.01 88.19L266.72 90.66V86.7L278.83 79.71V83.67L274.54 86.14V103L271 105.05V88.19H271.01Z" fill="#2C2B29"/>
<path d="M283.23 77.1697L287.47 74.7197L292.35 92.7197L288.62 94.8797L287.66 90.4897L282.9 93.2397L281.94 98.7397L278.34 100.82L283.23 77.1697ZM283.61 89.1497L286.94 87.2297L286.58 85.5197C286.15 83.6897 285.72 81.4897 285.31 79.5497L285.22 79.5997C284.84 82.0197 284.43 84.6797 284 87.0097L283.61 89.1497Z" fill="#2C2B29"/>
<path d="M296.67 79.5398L292.6 71.7698L296.53 69.4998L297.9 72.6398C298.26 73.3898 298.59 74.2798 299.03 75.3398L299.13 75.2798C299.49 73.7698 299.82 72.4798 300.13 71.3498L301.37 66.6998L305.13 64.5298L301.08 77.2098L305.39 85.1898L301.47 87.4598L299.91 84.1098C299.53 83.2398 299.17 82.3998 298.74 81.3698L298.64 81.4198C298.28 82.8998 297.92 84.1698 297.59 85.4498L296.13 90.5398L292.35 92.7198L296.67 79.5398Z" fill="#2C2B29"/>
<path d="M354.6 291.79C354.18 290.22 353.63 288.71 353.05 287.22C349.27 289.19 345.47 291.23 345.47 291.23C343.56 291.2 342.42 290.08 340.51 290.24C336.5 290.57 336.1 290.64 334.82 291.01C333.54 291.39 334.02 293.12 334.99 293.23C335.76 293.32 338.08 292.21 339.55 294.16C340.1 294.89 337.52 295.93 334.44 297C331.37 298.08 327.51 298.63 326.41 299.39C325.32 300.16 327.5 304.25 333.52 304.26C339.54 304.27 342.8 302.99 345.12 301.36C346.79 300.19 347.67 297.86 349.64 296.29C350.67 296.02 352.78 295.42 355.21 294.76C355.06 293.77 354.86 292.78 354.6 291.79Z" fill="#FFC8B5"/>
<path d="M384.01 236.53C384.01 236.53 378.94 239.12 376.3 242.61C373.66 246.1 372.21 256.01 371.91 258.27C371.6 260.52 367.93 277.55 367.93 277.55C367.93 277.55 362.69 281.2 359.69 282.49C356.69 283.78 347.44 288.87 347.44 288.87C347.44 288.87 348.92 292.1 349.86 294.04C350.8 295.99 351.18 297.87 351.18 297.87C351.18 297.87 375.63 293.6 378.72 290.56C381.8 287.52 393.32 242.61 393.32 242.61L384.01 236.53Z" fill="#DFD6DB"/>
<path d="M375.59 292.19C375.59 292.19 367.49 312.86 366.23 321.22C364.97 329.58 362.45 342.25 360.94 352.78C359.43 363.32 359.45 373.59 360.15 383.87C360.43 387.96 361.92 398.63 361.13 404.43C362.02 408.2 370.85 408.67 371.9 404.29C372.55 401.57 379.33 377.5 380.02 369.93C380.71 362.36 378.92 356.93 378.92 356.93C378.92 356.93 389.96 333.3 393.83 324.01C397.7 314.71 395.07 303.19 395.07 303.19L375.59 292.19Z" fill="#1F1B1A"/>
<path d="M371.76 403.28C371.76 403.28 372.06 405.77 372.84 408.38C373.62 410.99 372.66 414.62 372.66 414.62C372.66 414.62 372.1 416.22 369.68 416.69C367.43 417.13 365.61 416.59 365.61 416.59C365.61 416.59 363.4 419.26 360.51 421.31C357.62 423.35 351.25 424.94 349.51 424.68C346.71 424.25 345.21 422.07 345.43 420.67C345.64 419.26 348.94 415.37 351.64 413.68C353.4 412.58 357.39 408.88 358.59 407.59C360.57 405.46 362.04 403.1 362.04 403.1L371.76 403.28Z" fill="#1F1B1A"/>
<path d="M413.35 424.49C413.35 424.49 414.85 430.04 414.66 433.25C414.47 436.46 413.71 437.23 412.74 438.31C411.77 439.39 410.63 438.93 410.63 438.93C410.63 438.93 410.18 445.55 407.04 448.23C403.9 450.91 398.21 451.16 395.59 450.19C392.98 449.22 394.69 444.48 397.25 439.83C399.81 435.18 403.07 430.18 403.89 425.97C410.15 425.11 413.35 424.49 413.35 424.49Z" fill="#1F1B1A"/>
<path d="M404.61 300.75C404.61 300.75 408.58 306.36 411.74 316.23C413.96 323.17 413.6 339.81 413.6 339.81C413.6 339.81 414.17 356.2 413.11 361.86C412.05 367.53 412.14 368.68 412.14 368.68C412.14 368.68 416.69 382.26 415.99 398.33C415.29 414.4 413.98 425.92 413.98 425.92C413.98 425.92 413.08 428.96 408.96 429.38C405.2 429.76 402.46 427.16 402.46 427.16C402.46 427.16 395.57 393.15 393.02 385.4C390.47 377.65 389.53 368.71 389.53 368.71L384.31 330.52C384.31 330.52 373.99 323.78 379.28 306.79C382.59 296.13 404.61 300.75 404.61 300.75Z" fill="#302F2E"/>
<path d="M416.39 257.34C411.27 247.17 397.5 239.83 386.45 241.43C381.15 245.65 378.7 248.47 376.79 253.52C375.06 258.09 374.33 263.5 374.88 268.28C376.55 282.64 373.14 296.61 371.9 302.08C377.76 308.21 385.55 312.19 394.14 313.68C398.8 314.49 402.21 312.74 406.75 311.05C407.42 310.8 407.71 310.35 407.8 309.67C409.34 298.07 413.33 288.34 417.35 277.49C419.5 271.7 419.31 263.14 416.39 257.34Z" fill="white"/>
<path d="M429.42 300.031L418 320.581L388.57 303.821L400 283.271L402.16 284.411L429.42 300.031Z" fill="#778CFC"/>
<path d="M431.58 301.17L420.14 321.75L390.69 305.03L402.16 284.41L431.58 301.17Z" fill="#8CA2FF"/>
<path d="M400.45 283.5L389.26 303.54L390.49 304.201L401.72 284.18L400.45 283.5Z" fill="white"/>
<path d="M400.62 284.39L396.95 291.01L392.65 288.68L396.16 282.05L400.62 284.39Z" fill="#DFD6DB"/>
<path d="M398.5 289.24L388.14 289.74L392.45 300.14L398.5 289.24Z" fill="#FF66A5"/>
<path d="M389.65 235.11C389.65 235.11 390.71 242.11 388.14 244.53C385.58 246.95 385.56 251.94 390.69 253.61C396.92 255.64 401.31 251.15 405.19 248.06C403.51 244.51 402.69 244.53 402.69 234.56C402.7 226.46 389.65 235.11 389.65 235.11Z" fill="#F8BAA6"/>
<path d="M406.05 309.6C406.05 309.6 402.86 309.6 400.62 310.67C399.45 309.82 396.98 308.62 396.98 308.62C396.98 308.62 395.32 313.5 398.5 316.9C401.67 320.3 405.69 318.36 408.12 316.29C410.55 314.22 406.05 309.6 406.05 309.6Z" fill="#FFC8B5"/>
<path d="M412.71 251.98C412.71 251.98 418.34 254.14 422.35 261.78C426.24 269.19 431.18 283.76 432.57 289.72C434.44 297.77 434.1 300.65 432.75 302.83C430.36 306.71 426.96 309.47 422.58 312.13C415.39 316.51 408.85 317.62 408.85 317.62C408.85 317.62 403.93 316.77 403.93 308.61C405.17 307.39 407.47 307.55 411.14 304.2C415.81 299.94 419.29 296.25 419.29 296.25C419.29 296.25 413.74 288.42 408.3 279.78C400.94 262.54 412.71 251.98 412.71 251.98Z" fill="#DFD6DB"/>
<path d="M402.92 241.21C402.92 241.21 401.72 245.44 398.5 247.86C394.62 250.78 387.31 251.26 387.31 253.26C389.43 253.26 389.84 253.38 389.84 254.91C389.84 257.78 390.68 258.43 390.68 258.43C390.68 258.43 395.95 256.93 399.75 255.35C404.51 253.37 406.67 246.78 406.67 246.78C406.67 246.78 405.75 240.94 402.92 241.21Z" fill="#DFD6DB"/>
<path d="M387.32 241.43C387.32 241.43 384.24 244.78 382.91 246.32C381.59 247.86 382.36 250.7 381.7 251.98C381.04 253.26 380.75 254.12 380.75 254.12C380.75 254.12 383.5 253.56 384.04 251.98C384.57 250.39 387.33 253.26 387.33 253.26L389.28 251.66C389.28 251.66 386.34 249.78 387.33 247.77C388.32 245.76 389.97 243.12 389.97 243.12L387.32 241.43Z" fill="#DFD6DB"/>
<path d="M400.92 217.85C397.06 213.58 386.89 211.83 383.25 218.08C380.51 222.79 380.39 231.16 381.14 235.01C382.7 243.09 389.34 247.91 396.98 241.69C404.27 235.78 407.58 225.22 400.92 217.85Z" fill="#FFC8B5"/>
<path d="M409.47 225.57C410.13 221.47 407.93 218.46 404.22 218.38C404.6 215.27 402.74 212.21 399.84 210.71C395.03 208.23 389.34 210.02 384.42 211.4C383 210.74 379.51 208.63 378.96 210.43C378.57 211.72 379.34 213 380.06 214.06C378.64 213.79 375.84 212.59 374.61 213.53C371.69 215.76 376.73 219.73 379.32 220.91C381.17 221.75 383.4 222.31 385.6 222.34C385.4 222.62 385.21 222.91 385.06 223.22C384.81 223.71 384.95 224.26 385.41 224.56C387.35 225.83 390.89 226.34 393.17 225.08C393.21 227.12 393.87 229.19 395.48 230.41C396.21 230.97 397.72 231.49 399.04 231.5C399.39 233.35 401.07 236.64 402.7 237.29C404.67 235.33 408.99 228.55 409.47 225.57Z" fill="#1F1B1A"/>
<path d="M396.93 232.27C396.93 232.27 399.16 228.89 401.14 231.46C403.12 234.03 399.06 236.53 399.06 236.53L396.93 232.27Z" fill="#FFC8B5"/>
<path d="M413.86 370.85C409.75 356.35 395.06 346.4 387.73 347.32C383.91 349.21 368.08 358.51 363.94 361.61C371.27 360.7 385.95 370.64 390.07 385.14C394.17 399.6 392.67 416.73 391.04 423.23C397.27 419.97 412.77 411.69 414.82 408.99C416.45 402.53 417.97 385.35 413.86 370.85Z" fill="white"/>
<path d="M390.62 349.34C385.81 351.47 379.37 355.44 374.5 359.04C374.14 359.31 374.52 359.83 374.9 359.6C380.15 356.44 384.44 353.97 390.96 349.99C391.32 349.77 391.01 349.17 390.62 349.34Z" fill="#CBB9B9"/>
<path d="M395.75 351.72C390.94 353.85 384.5 357.82 379.63 361.42C379.27 361.69 379.65 362.21 380.03 361.98C385.28 358.82 389.57 356.35 396.09 352.37C396.45 352.15 396.15 351.55 395.75 351.72Z" fill="#CBB9B9"/>
<path d="M399.97 355.36C395.16 357.49 388.72 361.46 383.85 365.06C383.49 365.33 383.87 365.85 384.25 365.62C389.5 362.46 393.79 359.99 400.31 356.01C400.67 355.79 400.36 355.18 399.97 355.36Z" fill="#CBB9B9"/>
<path d="M408.84 368.02C404.03 370.15 397.59 374.12 392.72 377.72C392.36 377.99 392.74 378.51 393.12 378.28C398.37 375.12 402.66 372.65 409.18 368.67C409.54 368.46 409.23 367.85 408.84 368.02Z" fill="#CBB9B9"/>
<path d="M403.34 358.99C398.53 361.12 392.09 365.09 387.22 368.69C386.86 368.96 387.24 369.48 387.62 369.25C392.87 366.09 397.16 363.62 403.68 359.64C404.04 359.42 403.73 358.81 403.34 358.99Z" fill="#CBB9B9"/>
<path d="M406.26 363.27C401.45 365.4 395.01 369.37 390.14 372.97C389.78 373.24 390.16 373.76 390.54 373.53C395.79 370.37 400.08 367.9 406.6 363.92C406.96 363.7 406.65 363.1 406.26 363.27Z" fill="#CBB9B9"/>
<path d="M413.68 377.45C408.87 379.58 402.43 383.55 397.56 387.15C397.2 387.42 397.58 387.94 397.96 387.71C403.21 384.55 407.5 382.08 414.02 378.1C414.38 377.88 414.07 377.28 413.68 377.45Z" fill="#CBB9B9"/>
<path d="M411.1 372.7C406.29 374.83 399.85 378.8 394.98 382.4C394.62 382.67 395 383.19 395.38 382.96C400.63 379.8 404.92 377.33 411.44 373.35C411.8 373.13 411.49 372.52 411.1 372.7Z" fill="#CBB9B9"/>
<path d="M413.01 404.8C408.2 406.93 401.76 410.9 396.89 414.5C396.53 414.77 396.91 415.29 397.29 415.06C402.54 411.9 406.83 409.43 413.35 405.45C413.71 405.23 413.4 404.62 413.01 404.8Z" fill="#CBB9B9"/>
<path d="M413.01 398.72C408.2 400.85 401.76 404.82 396.89 408.42C396.53 408.69 396.91 409.21 397.29 408.98C402.54 405.82 406.83 403.35 413.35 399.37C413.71 399.15 413.4 398.55 413.01 398.72Z" fill="#CBB9B9"/>
<path d="M422.08 373.82C422.08 372.4 416.98 365.54 414.09 364.94C412.33 364.57 410.13 364.55 407.85 364.13C405.87 363.77 405.84 364.94 407.4 366.3C409.27 367.93 413.13 368.62 413.13 368.62C413.13 368.62 411.88 370.49 414.5 374.29C417.12 378.09 422.08 375.14 422.08 373.82Z" fill="#FFC8B5"/>
<path d="M446.86 516.71C447.17 511.99 447.6 506.59 448.73 500.73C450.68 490.67 452.89 475.99 446.26 469.35C453.71 450.4 451.08 439.92 449.98 434.12C461.08 422.35 450.51 409.92 445.16 406.1C442.34 409.59 425.52 416.48 425.42 416.91C423.39 425.56 425.25 434.6 427.81 442.97C429.4 448.19 430.78 457 434.49 471.28C432.76 478.39 434.72 489.15 435.44 497.19C435.94 502.8 435.77 509.16 436.78 515.17C438.39 517.03 441.46 518.77 446.86 516.71Z" fill="#1F1B1A"/>
<path d="M427.44 515.87C423.64 517.38 422.55 518.75 423.57 521.19C425.08 524.78 428.91 527 432.3 527.71C437.42 528.77 441.25 535.84 446.72 530.21C448.12 528.77 446.89 524.97 446.41 522.97C446.51 521.58 446.76 518.26 446.87 516.71C441.48 518.76 438.4 517.02 436.78 515.18C437 516.48 437.25 517.78 437.6 519.03C435.64 518.44 429.98 514.86 427.44 515.87Z" fill="#FFB8A3"/>
<path d="M446.45 522.3C446.45 522.3 443.25 523.45 441.19 524.1C439.13 524.75 434.19 525.02 430.41 521.36C427.47 518.51 431.99 516.56 431.99 516.56C431.99 516.56 427.96 511.95 423.2 513.94C420.99 514.86 419.67 519.71 420.93 521.87C422.27 524.17 425.06 526.63 427.19 527.17C429.33 527.71 433.55 529.14 435.17 530.11C438.14 531.9 443.19 535 446.58 531.72C449.99 528.45 446.45 522.3 446.45 522.3Z" fill="#302F2E"/>
<path d="M450.23 355.53C445.28 353.76 439.26 356.58 439.01 361.66C436.28 366.28 438.96 373.06 443.22 376.15C448.17 379.75 455.82 376.11 457.47 370.54C459.17 364.79 456.01 357.6 450.23 355.53Z" fill="#DFD6DB"/>
<path d="M432.72 444.24C447.41 440.57 445.76 420.59 440.44 416.99C439.99 416.69 419.54 415.27 417.9 418.92C412.78 430.34 408.05 438.1 403.68 449.81C402.97 451.72 400.85 457.72 397.65 466.55C396.07 468.83 395.41 470.35 396.86 473.8C399.93 481.15 403.12 491.56 405.67 498.14C406.93 501.38 410.73 510.87 413.5 518.3C415.44 517.55 418.11 515.9 421.96 514.11C421.43 510.67 421.4 506.1 421.4 501.8C421.4 490.98 419.65 480.29 412.59 471.4C415.36 469.91 430.96 455.11 432.72 444.24Z" fill="#302F2E"/>
<path d="M415.44 523.42C415.63 523.91 413.88 531.64 413.15 533.82C412.58 535.52 412.44 536.52 410.8 537.04C407.43 537.24 407.27 537.83 406.48 539.52C405.79 541 410.57 543.97 413.82 543.55C414.69 543.44 418.61 543.34 419.89 541.28C421.76 538.24 419.72 535.58 420.86 532.08C422.14 528.15 427.25 528.3 425.72 524.12C425.26 522.87 423.88 520.35 423.27 519.3C422.87 518.62 422.33 516.39 421.87 513.45C418.26 515.13 414.91 516.48 413.09 517.18C413.96 519.52 414.78 521.69 415.44 523.42Z" fill="#FFC8B5"/>
<path d="M449.71 363.91C449.62 363.5 449.25 363.17 448.86 363.06C443.02 361.45 441.66 358.3 440.65 353.01C440.51 352.26 439.52 351.92 438.9 352.3C435.81 354.21 432.62 355.6 429.12 356.55C432.39 366.32 426.46 368.41 423.89 372.29C423.24 373.27 430 378.19 433.61 377.68C436.73 377.24 439.83 376.25 442.5 374.55C445.47 372.68 450.57 367.92 449.71 363.91Z" fill="#FFC8B5"/>
<path d="M441.42 341.5C440.87 336.47 436.75 329.77 431.11 330.2C425.36 330.63 421.45 339.17 421 343.14C420.24 349.89 420.83 362.62 431.49 358.53C439.8 355.35 442.23 349 441.42 341.5Z" fill="#FFC8B5"/>
<path d="M450.28 331.54C447.7 325.99 441.12 321.59 435.27 323.9C432.8 321.58 429.11 320.63 425.79 321.09C424.78 321.23 423.26 321.44 422.94 322.6C422.93 322.63 422.94 322.67 422.93 322.7C420.35 321.74 417.95 321.82 417.01 324.77C416.07 327.72 418.14 330.26 420.91 331.85C419.42 332.1 418.08 332.55 417.33 333.42C415.63 335.38 416.81 338.67 418.45 340.04C421.17 342.32 425.65 344.43 429.34 342.46C429.08 348.64 436.21 354.72 439.66 356.28C441.66 352.06 446.07 352 449.04 346.08C450.67 342.81 451.88 334.98 450.28 331.54Z" fill="#FF66A5"/>
<path d="M428.66 345.17C428.66 345.17 432.93 342.25 433.6 346.4C434.27 350.56 430.22 351.99 430.22 351.99L428.66 345.17Z" fill="#FFC8B5"/>
<path d="M448.21 326.07C444.68 324.52 442.39 324.29 439.37 326.56C436.24 328.9 437.39 338.6 442.44 339.75C445.69 340.49 449.87 339.62 451.6 336.75C453.81 333.09 453.43 328.36 448.21 326.07Z" fill="#1F1B1A"/>
<path d="M482.73 346.15C484.46 343.83 484.78 340.54 482.52 338.24C481.02 336.72 478.94 336.33 477.09 336.82C477.39 333.74 476.2 330.12 474.6 328.14C470.78 323.41 464.46 322.82 459.13 324.79C458.89 322.46 457.67 320.24 455.28 319.47C453.43 318.88 451.51 319.43 450.22 320.68C448.65 317.98 445.35 316.55 442.43 318.96C439.72 321.21 440.41 325.06 443.15 326.55C442.35 327.22 441.76 328.17 441.6 329.35C441.22 332.03 443.06 333.94 445.28 334.98C442.01 338.08 443.75 343.78 448.18 345.69C451.26 347.02 454.79 346.56 457.66 344.96C457.56 346.46 457.71 347.94 458.58 349.24C459.17 350.12 459.92 350.85 460.92 351.26C458.33 354.89 460.46 358.93 465.04 359.45C464.79 363.22 463.88 364.7 466.31 368.29C469.07 372.37 477.28 373.1 481 369.13C482.88 367.12 483.38 364.63 482.8 362.37C483.16 362.3 483.52 362.2 483.91 362.06C486.36 361.14 488.44 358.95 489.11 356.4C490.37 351.64 486.94 347.66 482.73 346.15Z" fill="#F1559C"/>
<path d="M452.98 383.95C456.67 372.53 454.42 364.93 451.15 361.2C449.81 359.66 446.62 356.5 443.14 359.63C444.27 364.83 435.29 366.5 428.78 366.5C423.85 370.18 419.43 372.75 416.61 377.72C413.63 382.99 412.2 388.34 418.56 392.18C416.61 397.96 419.68 403.94 417.98 418.71C423.92 423.43 435.35 423.38 441.68 419.54C446.62 416.55 449.24 413.21 448.99 409.6C447.35 406.09 444.96 405.27 445.14 400.9C445.38 395.4 451.28 389.19 452.98 383.95Z" fill="white"/>
<path d="M418.79 539.83C419.2 537.04 419.2 531.25 420.55 529.08C421.64 527.32 424.26 524.77 427.11 523.69C425.21 520.65 423.26 519.29 423.26 519.29C423.26 519.29 418.06 522.98 417.44 527.89C416.82 532.8 416.88 539.03 413.4 539.45C409.93 539.86 411.5 536.73 411.5 536.73C411.5 536.73 405.75 533.94 405.1 539.52C404.87 541.46 405.71 543.03 409.08 544.59C410.78 545.38 412.74 545.81 414.66 545.69C416.73 544.82 418.37 542.62 418.79 539.83Z" fill="#302F2E"/>
<path d="M422.43 533.13C422.82 530.32 430.14 528.66 427.25 523.91C427.2 523.83 427.15 523.77 427.11 523.69C424.26 524.77 421.64 527.32 420.55 529.08C419.21 531.25 419.21 537.04 418.79 539.83C418.38 542.62 416.74 544.82 414.67 545.68C416.54 545.56 418.37 544.94 419.9 543.61C422.99 540.93 422.03 535.94 422.43 533.13Z" fill="#1F1B1A"/>
<path d="M417.33 374.21C414.68 375.77 411.43 377.96 409.46 380.35C406.92 383.43 403.86 386.19 401.62 389.52C397.97 385.04 392.86 383.04 388.22 379.93C386.69 378.91 385.07 377 384.09 375.31C382.75 373 384.11 373.42 384.55 370.85C385.05 367.94 386.01 365.75 385.58 365.37C384.22 364.16 382.04 366.56 380.72 369.42C379.58 367.96 376.94 366.73 374.48 364.94C371.38 369.54 377.02 375.57 380.44 380.38C384.65 386.3 391.74 393.16 396.16 398.82C398.46 401.77 399.68 403.18 402.47 401.92C406.13 400.26 407.97 399.89 414.97 395.08C420.11 391.56 423.15 390.22 426.51 384.67C430.22 378.58 420.34 372.44 417.33 374.21Z" fill="#FFC8B5"/>
<path d="M424.74 369.14C417.27 366.36 410.23 375.24 408.37 381.63C405.91 383.34 412.72 394.26 416.05 394.36C422.53 397.61 429.32 395.04 432.89 388.33C436.35 381.82 431.37 371.61 424.74 369.14Z" fill="#DFD6DB"/>
<path d="M408.37 381.63L406.14 384.08C406.14 384.08 404.91 386.26 407.41 390.32C409.91 394.38 413.99 395.76 413.99 395.76L416.06 394.36C416.06 394.36 412.15 391.9 410.12 388.69C408.07 385.49 408.37 381.63 408.37 381.63Z" fill="white"/>
<path d="M521.24 532.34V557.59C522.5 557.52 523.74 557.39 524.95 557.23V532.34H521.24Z" fill="#FFB73B"/>
<path d="M516.14 532.34V557.61C516.86 557.64 517.57 557.68 518.31 557.68C518.66 557.68 519 557.66 519.35 557.65V532.34H516.14V532.34Z" fill="#FFB73B"/>
<path d="M488.03 532.34V539.52C488.03 541.94 488.84 544.25 490.27 546.37V532.35H488.03V532.34Z" fill="#FFB73B"/>
<path d="M526.85 532.34V556.93C528.12 556.71 529.36 556.43 530.56 556.11V532.33H526.85V532.34Z" fill="#FFB73B"/>
<path d="M532.45 532.34V555.57C533.39 555.27 534.3 554.95 535.18 554.6V532.34H532.45Z" fill="#FFB73B"/>
<path d="M496.8 532.34V552.3C497.66 552.82 498.57 553.3 499.53 553.75V532.34H496.8V532.34Z" fill="#FFB73B"/>
<path d="M511.04 532.34V557.13C512.09 557.29 513.15 557.41 514.24 557.5V532.34H511.04Z" fill="#FFB73B"/>
<path d="M501.43 532.34V554.6C502.31 554.95 503.22 555.27 504.16 555.57V532.34H501.43Z" fill="#FFB73B"/>
<path d="M506.06 532.34V556.12C507.06 556.39 508.09 556.63 509.14 556.83V532.34H506.06Z" fill="#FFB73B"/>
<path d="M492.17 532.34V548.66C492.98 549.5 493.88 550.3 494.9 551.04V532.34H492.17Z" fill="#FFB73B"/>
<path d="M548.58 532.34H546.34V546.36C547.78 544.25 548.58 541.94 548.58 539.51V532.34Z" fill="#FFB73B"/>
<path d="M541.71 532.34V551.04C542.73 550.3 543.63 549.5 544.44 548.66V532.34H541.71Z" fill="#FFB73B"/>
<path d="M537.08 532.34V553.75C538.03 553.3 538.95 552.82 539.81 552.3V532.34H537.08V532.34Z" fill="#FFB73B"/>
<path d="M490.28 532.34V546.36C490.82 547.16 491.46 547.92 492.18 548.65V532.33H490.28V532.34Z" fill="#FF9C27"/>
<path d="M494.9 532.34V551.04C495.5 551.48 496.13 551.9 496.8 552.3V532.34H494.9Z" fill="#FF9C27"/>
<path d="M499.53 532.34V553.75C500.15 554.04 500.77 554.33 501.43 554.6V532.34H499.53Z" fill="#FF9C27"/>
<path d="M504.16 532.34V555.57C504.78 555.77 505.41 555.95 506.06 556.12V532.34H504.16Z" fill="#FF9C27"/>
<path d="M509.14 532.34V556.83C509.76 556.95 510.4 557.04 511.04 557.13V532.34H509.14Z" fill="#FF9C27"/>
<path d="M514.24 532.34V557.5C514.87 557.55 515.5 557.59 516.14 557.62V532.35H514.24V532.34Z" fill="#FF9C27"/>
<path d="M519.34 532.34V557.65C519.98 557.64 520.61 557.63 521.24 557.59V532.34H519.34Z" fill="#FF9C27"/>
<path d="M524.95 532.34V557.23C525.59 557.14 526.22 557.05 526.85 556.94V532.35H524.95V532.34Z" fill="#FF9C27"/>
<path d="M544.44 532.34V548.66C545.16 547.93 545.8 547.16 546.34 546.37V532.35H544.44V532.34Z" fill="#FF9C27"/>
<path d="M539.81 532.34V552.3C540.47 551.9 541.11 551.48 541.71 551.04V532.34H539.81Z" fill="#FF9C27"/>
<path d="M535.18 532.34V554.6C535.84 554.34 536.46 554.05 537.08 553.75V532.34H535.18Z" fill="#FF9C27"/>
<path d="M530.56 532.34V556.12C531.2 555.95 531.84 555.77 532.46 555.57V532.34H530.56Z" fill="#FF9C27"/>
<path d="M518.31 514.17C501.59 514.17 488.04 522.3 488.04 532.33C488.04 542.36 501.59 550.49 518.31 550.49C535.03 550.49 548.58 542.36 548.58 532.33C548.58 522.31 535.03 514.17 518.31 514.17Z" fill="#FFE275"/>
<path d="M518.31 517.79C532.38 517.79 543.84 524.4 544.64 532.72C544.67 532.42 544.72 532.11 544.72 531.81C544.72 523.06 532.9 515.97 518.32 515.97C503.74 515.97 491.92 523.06 491.92 531.81C491.92 532.12 491.97 532.42 492 532.72C492.77 524.4 504.24 517.79 518.31 517.79Z" fill="#FF9C27"/>
<path opacity="0.5" d="M518.31 547.65C532.38 547.65 543.84 541.04 544.64 532.72C543.85 524.4 532.38 517.79 518.31 517.79C504.24 517.79 492.78 524.4 491.98 532.72C492.77 541.04 504.24 547.65 518.31 547.65Z" fill="#FF9C27"/>
<path d="M535.29 541.32C534.38 540.24 533.36 539.26 532.27 538.33C533.32 536.71 533.59 534.79 532.81 532.74C531.43 529.13 527 528.78 523.73 529.11C522.16 529.27 520.69 529.66 519.22 530.12C516.09 528.38 513.06 526.18 509.81 524.57C511.98 523.62 514.53 523.59 516.28 523.55C516.76 523.54 516.86 522.85 516.39 522.71C513.87 521.94 510.47 522.14 507.75 523.66C506.37 523.12 504.95 522.71 503.45 522.51C503.24 522.48 503.19 522.8 503.35 522.89C504.34 523.46 505.31 524.04 506.29 524.62C503.67 526.81 502.54 530.27 506.44 532.97C510.16 535.55 514.72 533.83 518.48 532.63C518.81 532.52 519.15 532.42 519.49 532.31C522.69 534.14 525.68 536.49 528.76 538.61C527.27 539.7 525.11 540.43 523.45 540.73C520.91 541.18 518.78 541.18 516.28 540.6C515.8 540.49 515.4 541.09 515.78 541.46C518.61 544.2 525.59 543.49 529.79 540.75C530.16 540.51 530.51 540.25 530.83 539.97C532.09 540.76 533.37 541.48 534.7 542.09C535.2 542.3 535.65 541.75 535.29 541.32ZM509.76 531.94C506.16 531.31 505.34 528.38 507.59 526.06C507.74 525.9 507.92 525.78 508.08 525.65C511.04 527.4 514.02 529.14 517 530.85C516.53 531.01 516.06 531.17 515.59 531.32C514.97 531.59 510.91 532.14 509.76 531.94ZM524.53 531.25C527.13 531.14 532.31 531.38 530.32 536.77V536.78C527.69 534.84 524.79 533.18 521.96 531.63C522.8 531.44 523.66 531.29 524.53 531.25Z" fill="#FF9C27"/>
<path d="M497.01 536.74C496.57 535.89 496 535.08 495.72 534.16C495.46 533.29 495.71 532.33 495.38 531.52C495.28 531.27 494.96 531.13 494.74 531.35C493.98 532.13 494.21 533.54 494.45 534.51C494.75 535.71 495.33 536.75 496.44 537.31C496.81 537.5 497.2 537.11 497.01 536.74Z" fill="#FF9C27"/>
<path d="M540.45 527.44C540.31 527.33 540.1 527.39 540.09 527.59C540.07 528.63 540.4 529.61 540.22 530.67C540.07 531.57 539.44 532.31 539.42 533.21C539.42 533.46 539.69 533.72 539.95 533.61C541.91 532.82 541.99 528.67 540.45 527.44Z" fill="#FF9C27"/>
<path d="M535.02 525.97C534.84 525.98 534.77 526.17 534.88 526.31C535.43 527 536.23 527.45 536.84 528.08C537.39 528.64 537.72 529.2 538.49 529.45C538.7 529.52 538.89 529.34 538.9 529.14C538.99 527.51 536.51 525.87 535.02 525.97Z" fill="#FF9C27"/>
<path d="M521.24 522.52V547.77C522.5 547.7 523.74 547.569 524.95 547.409V522.52H521.24Z" fill="#FFB73B"/>
<path d="M516.14 522.52V547.789C516.86 547.819 517.57 547.859 518.31 547.859C518.66 547.859 519 547.84 519.35 547.83V522.52H516.14V522.52Z" fill="#FFB73B"/>
<path d="M488.03 522.52V529.7C488.03 532.12 488.84 534.429 490.27 536.549V522.53H488.03V522.52Z" fill="#FFB73B"/>
<path d="M526.85 522.52V547.11C528.12 546.89 529.36 546.61 530.56 546.29V522.51H526.85V522.52Z" fill="#FFB73B"/>
<path d="M532.45 522.52V545.75C533.39 545.45 534.3 545.13 535.18 544.78V522.52H532.45Z" fill="#FFB73B"/>
<path d="M496.8 522.52V542.479C497.66 542.999 498.57 543.48 499.53 543.93V522.52H496.8V522.52Z" fill="#FFB73B"/>
<path d="M511.04 522.52V547.31C512.09 547.47 513.15 547.59 514.24 547.68V522.52H511.04Z" fill="#FFB73B"/>
<path d="M501.43 522.52V544.78C502.31 545.13 503.22 545.45 504.16 545.75V522.52H501.43Z" fill="#FFB73B"/>
<path d="M506.06 522.52V546.299C507.06 546.569 508.09 546.81 509.14 547.01V522.52H506.06Z" fill="#FFB73B"/>
<path d="M492.17 522.52V538.84C492.98 539.68 493.88 540.479 494.9 541.219V522.52H492.17Z" fill="#FFB73B"/>
<path d="M548.58 522.52H546.34V536.539C547.78 534.429 548.58 532.12 548.58 529.69V522.52Z" fill="#FFB73B"/>
<path d="M541.71 522.52V541.219C542.73 540.479 543.63 539.68 544.44 538.84V522.52H541.71Z" fill="#FFB73B"/>
<path d="M537.08 522.52V543.93C538.03 543.48 538.95 542.999 539.81 542.479V522.52H537.08V522.52Z" fill="#FFB73B"/>
<path d="M490.28 522.52V536.54C490.82 537.34 491.46 538.1 492.18 538.83V522.51H490.28V522.52Z" fill="#FF9C27"/>
<path d="M494.9 522.52V541.219C495.5 541.659 496.13 542.079 496.8 542.479V522.52H494.9Z" fill="#FF9C27"/>
<path d="M499.53 522.52V543.93C500.15 544.22 500.77 544.51 501.43 544.78V522.52H499.53Z" fill="#FF9C27"/>
<path d="M504.16 522.52V545.75C504.78 545.95 505.41 546.129 506.06 546.299V522.52H504.16Z" fill="#FF9C27"/>
<path d="M509.14 522.52V547.01C509.76 547.13 510.4 547.22 511.04 547.31V522.52H509.14Z" fill="#FF9C27"/>
<path d="M514.24 522.52V547.68C514.87 547.73 515.5 547.769 516.14 547.799V522.53H514.24V522.52Z" fill="#FF9C27"/>
<path d="M519.34 522.52V547.83C519.98 547.82 520.61 547.81 521.24 547.77V522.52H519.34Z" fill="#FF9C27"/>
<path d="M524.95 522.52V547.409C525.59 547.319 526.22 547.23 526.85 547.12V522.53H524.95V522.52Z" fill="#FF9C27"/>
<path d="M544.44 522.52V538.84C545.16 538.11 545.8 537.339 546.34 536.549V522.53H544.44V522.52Z" fill="#FF9C27"/>
<path d="M539.81 522.52V542.479C540.47 542.079 541.11 541.659 541.71 541.219V522.52H539.81Z" fill="#FF9C27"/>
<path d="M535.18 522.52V544.78C535.84 544.52 536.46 544.23 537.08 543.93V522.52H535.18Z" fill="#FF9C27"/>
<path d="M530.56 522.52V546.299C531.2 546.129 531.84 545.95 532.46 545.75V522.52H530.56Z" fill="#FF9C27"/>
<path d="M518.31 504.36C501.59 504.36 488.04 512.49 488.04 522.52C488.04 532.55 501.59 540.68 518.31 540.68C535.03 540.68 548.58 532.55 548.58 522.52C548.58 512.49 535.03 504.36 518.31 504.36Z" fill="#FFE275"/>
<path d="M518.31 507.98C532.38 507.98 543.84 514.59 544.64 522.91C544.67 522.61 544.72 522.3 544.72 522C544.72 513.25 532.9 506.16 518.32 506.16C503.74 506.16 491.92 513.25 491.92 522C491.92 522.31 491.97 522.61 492 522.91C492.77 514.59 504.24 507.98 518.31 507.98Z" fill="#FF9C27"/>
<path opacity="0.5" d="M518.31 537.83C532.38 537.83 543.84 531.22 544.64 522.9C543.85 514.58 532.38 507.97 518.31 507.97C504.24 507.97 492.78 514.58 491.98 522.9C492.77 531.23 504.24 537.83 518.31 537.83Z" fill="#FF9C27"/>
<path d="M535.29 531.51C534.38 530.43 533.36 529.45 532.27 528.52C533.32 526.9 533.59 524.98 532.81 522.93C531.43 519.33 527 518.97 523.73 519.3C522.16 519.46 520.69 519.85 519.22 520.31C516.09 518.57 513.06 516.37 509.81 514.76C511.98 513.81 514.53 513.78 516.28 513.74C516.76 513.73 516.86 513.04 516.39 512.9C513.87 512.13 510.47 512.33 507.75 513.85C506.37 513.3 504.95 512.9 503.45 512.7C503.24 512.67 503.19 512.99 503.35 513.08C504.34 513.65 505.31 514.23 506.29 514.81C503.67 517 502.54 520.46 506.44 523.16C510.16 525.74 514.72 524.02 518.48 522.82C518.81 522.71 519.15 522.61 519.49 522.5C522.69 524.33 525.68 526.68 528.76 528.8C527.27 529.89 525.11 530.62 523.45 530.92C520.91 531.37 518.78 531.36 516.28 530.79C515.8 530.68 515.4 531.28 515.78 531.65C518.61 534.39 525.59 533.68 529.79 530.94C530.16 530.7 530.51 530.44 530.83 530.16C532.09 530.95 533.37 531.67 534.7 532.28C535.2 532.49 535.65 531.94 535.29 531.51ZM509.76 522.13C506.16 521.5 505.34 518.57 507.59 516.25C507.74 516.09 507.92 515.97 508.08 515.84C511.04 517.59 514.02 519.33 517 521.04C516.53 521.2 516.06 521.36 515.59 521.51C514.97 521.78 510.91 522.33 509.76 522.13ZM524.53 521.44C527.13 521.33 532.31 521.57 530.32 526.96C530.32 526.96 530.32 526.96 530.32 526.97C527.69 525.03 524.79 523.37 521.96 521.82C522.8 521.63 523.66 521.48 524.53 521.44Z" fill="#FF9C27"/>
<path d="M497.01 526.93C496.57 526.08 496 525.27 495.72 524.35C495.46 523.48 495.71 522.52 495.38 521.71C495.28 521.46 494.96 521.32 494.74 521.54C493.98 522.32 494.21 523.73 494.45 524.7C494.75 525.9 495.33 526.94 496.44 527.5C496.81 527.69 497.2 527.3 497.01 526.93Z" fill="#FF9C27"/>
<path d="M540.45 517.63C540.31 517.52 540.1 517.58 540.09 517.78C540.07 518.82 540.4 519.8 540.22 520.86C540.07 521.76 539.44 522.5 539.42 523.4C539.42 523.65 539.69 523.91 539.95 523.8C541.91 523.01 541.99 518.86 540.45 517.63Z" fill="#FF9C27"/>
<path d="M535.02 516.16C534.84 516.17 534.77 516.36 534.88 516.5C535.43 517.19 536.23 517.64 536.84 518.27C537.39 518.83 537.72 519.39 538.49 519.64C538.7 519.71 538.89 519.53 538.9 519.33C538.99 517.7 536.51 516.06 535.02 516.16Z" fill="#FF9C27"/>
<path d="M512.42 508.03V533.28C513.68 533.21 514.92 533.08 516.13 532.92V508.03H512.42Z" fill="#FFB73B"/>
<path d="M507.32 508.03V533.3C508.04 533.33 508.75 533.37 509.48 533.37C509.83 533.37 510.17 533.35 510.52 533.34V508.03H507.32V508.03Z" fill="#FFB73B"/>
<path d="M479.21 508.03V515.21C479.21 517.63 480.02 519.94 481.45 522.06V508.04H479.21V508.03Z" fill="#FFB73B"/>
<path d="M518.03 508.03V532.62C519.3 532.4 520.54 532.12 521.74 531.8V508.02H518.03V508.03Z" fill="#FFB73B"/>
<path d="M523.63 508.03V531.26C524.57 530.96 525.48 530.64 526.36 530.29V508.03H523.63Z" fill="#FFB73B"/>
<path d="M487.98 508.03V527.99C488.84 528.51 489.75 528.99 490.71 529.44V508.03H487.98V508.03Z" fill="#FFB73B"/>
<path d="M502.22 508.03V532.82C503.27 532.98 504.34 533.1 505.42 533.19V508.03H502.22V508.03Z" fill="#FFB73B"/>
<path d="M492.61 508.03V530.29C493.49 530.64 494.4 530.96 495.34 531.26V508.03H492.61Z" fill="#FFB73B"/>
<path d="M497.23 508.03V531.81C498.23 532.08 499.26 532.32 500.31 532.52V508.03H497.23Z" fill="#FFB73B"/>
<path d="M483.35 508.03V524.35C484.16 525.19 485.06 525.99 486.08 526.73V508.03H483.35V508.03Z" fill="#FFB73B"/>
<path d="M539.76 508.03H537.52V522.05C538.96 519.94 539.76 517.63 539.76 515.2V508.03Z" fill="#FFB73B"/>
<path d="M532.89 508.03V526.73C533.91 525.99 534.81 525.19 535.62 524.35V508.03H532.89V508.03Z" fill="#FFB73B"/>
<path d="M528.26 508.03V529.44C529.21 528.99 530.13 528.51 530.99 527.99V508.03H528.26V508.03Z" fill="#FFB73B"/>
<path d="M481.45 508.03V522.05C481.99 522.85 482.63 523.61 483.35 524.34V508.02H481.45V508.03Z" fill="#FF9C27"/>
<path d="M486.08 508.03V526.73C486.68 527.17 487.31 527.59 487.98 527.99V508.03H486.08V508.03Z" fill="#FF9C27"/>
<path d="M490.71 508.03V529.44C491.33 529.73 491.95 530.02 492.61 530.29V508.03H490.71Z" fill="#FF9C27"/>
<path d="M495.33 508.03V531.26C495.95 531.46 496.58 531.64 497.23 531.81V508.03H495.33Z" fill="#FF9C27"/>
<path d="M500.32 508.03V532.52C500.94 532.64 501.58 532.73 502.22 532.82V508.03H500.32V508.03Z" fill="#FF9C27"/>
<path d="M505.42 508.03V533.19C506.05 533.24 506.68 533.28 507.32 533.31V508.04H505.42V508.03Z" fill="#FF9C27"/>
<path d="M510.52 508.03V533.34C511.16 533.33 511.79 533.32 512.42 533.28V508.03H510.52Z" fill="#FF9C27"/>
<path d="M516.13 508.03V532.92C516.77 532.83 517.4 532.74 518.03 532.63V508.04H516.13V508.03Z" fill="#FF9C27"/>
<path d="M535.61 508.03V524.35C536.33 523.62 536.97 522.85 537.51 522.06V508.04H535.61V508.03Z" fill="#FF9C27"/>
<path d="M530.99 508.03V527.99C531.65 527.59 532.29 527.17 532.89 526.73V508.03H530.99V508.03Z" fill="#FF9C27"/>
<path d="M526.36 508.03V530.29C527.02 530.03 527.64 529.74 528.26 529.44V508.03H526.36V508.03Z" fill="#FF9C27"/>
<path d="M521.73 508.03V531.81C522.37 531.64 523.01 531.46 523.63 531.26V508.03H521.73Z" fill="#FF9C27"/>
<path d="M509.48 489.87C492.76 489.87 479.21 498 479.21 508.03C479.21 518.06 492.76 526.19 509.48 526.19C526.2 526.19 539.75 518.06 539.75 508.03C539.76 498 526.2 489.87 509.48 489.87Z" fill="#FFE275"/>
<path d="M509.48 493.49C523.55 493.49 535.01 500.1 535.81 508.42C535.84 508.12 535.89 507.81 535.89 507.51C535.89 498.76 524.07 491.67 509.49 491.67C494.91 491.67 483.09 498.76 483.09 507.51C483.09 507.82 483.14 508.12 483.17 508.42C483.95 500.1 495.42 493.49 509.48 493.49Z" fill="#FF9C27"/>
<path opacity="0.5" d="M509.48 523.34C523.55 523.34 535.01 516.73 535.81 508.41C535.02 500.09 523.55 493.48 509.48 493.48C495.41 493.48 483.95 500.09 483.15 508.41C483.95 516.74 495.42 523.34 509.48 523.34Z" fill="#FF9C27"/>
<path d="M526.46 517.01C525.55 515.93 524.53 514.95 523.44 514.02C524.49 512.4 524.76 510.48 523.98 508.43C522.6 504.82 518.17 504.47 514.9 504.8C513.33 504.96 511.86 505.35 510.39 505.81C507.26 504.07 504.23 501.87 500.98 500.26C503.15 499.31 505.7 499.28 507.45 499.24C507.93 499.23 508.03 498.54 507.56 498.4C505.04 497.63 501.64 497.83 498.92 499.35C497.54 498.81 496.12 498.4 494.62 498.2C494.41 498.17 494.36 498.49 494.52 498.58C495.51 499.15 496.48 499.73 497.46 500.31C494.84 502.5 493.71 505.96 497.61 508.66C501.33 511.24 505.89 509.52 509.65 508.32C509.98 508.21 510.32 508.11 510.66 508C513.86 509.83 516.85 512.18 519.93 514.3C518.44 515.39 516.28 516.12 514.62 516.42C512.08 516.87 509.95 516.87 507.45 516.29C506.97 516.18 506.57 516.78 506.95 517.15C509.78 519.89 516.76 519.18 520.96 516.44C521.33 516.2 521.68 515.94 522 515.66C523.26 516.45 524.54 517.17 525.87 517.78C526.38 518 526.83 517.44 526.46 517.01ZM500.94 507.64C497.34 507.01 496.52 504.08 498.77 501.76C498.92 501.6 499.09 501.48 499.26 501.35C502.22 503.1 505.2 504.84 508.18 506.55C507.71 506.71 507.24 506.87 506.77 507.02C506.15 507.28 502.09 507.84 500.94 507.64ZM515.71 506.95C518.31 506.84 523.49 507.08 521.5 512.47C521.5 512.47 521.5 512.47 521.5 512.48C518.87 510.54 515.97 508.88 513.14 507.33C513.98 507.14 514.84 506.99 515.71 506.95Z" fill="#FF9C27"/>
<path d="M488.18 512.43C487.74 511.58 487.17 510.77 486.89 509.85C486.63 508.98 486.88 508.02 486.55 507.21C486.45 506.96 486.13 506.82 485.91 507.04C485.15 507.82 485.38 509.23 485.62 510.2C485.92 511.4 486.5 512.44 487.61 513C487.99 513.2 488.38 512.81 488.18 512.43Z" fill="#FF9C27"/>
<path d="M531.63 503.14C531.49 503.03 531.28 503.09 531.27 503.29C531.25 504.33 531.58 505.31 531.4 506.37C531.25 507.27 530.62 508.01 530.6 508.91C530.6 509.16 530.87 509.42 531.13 509.31C533.09 508.51 533.16 504.37 531.63 503.14Z" fill="#FF9C27"/>
<path d="M526.19 501.67C526.01 501.68 525.94 501.87 526.05 502.01C526.6 502.7 527.4 503.15 528.01 503.78C528.56 504.34 528.89 504.9 529.66 505.15C529.87 505.22 530.06 505.04 530.07 504.84C530.17 503.21 527.69 501.57 526.19 501.67Z" fill="#FF9C27"/>
<path d="M373.02 577.96V603.21C374.28 603.14 375.52 603.01 376.73 602.85V577.96H373.02Z" fill="#FFB73B"/>
<path d="M367.92 577.96V603.23C368.64 603.26 369.35 603.3 370.08 603.3C370.43 603.3 370.77 603.28 371.12 603.27V577.96H367.92V577.96Z" fill="#FFB73B"/>
<path d="M339.81 577.96V585.14C339.81 587.56 340.62 589.87 342.05 591.99V577.97H339.81V577.96Z" fill="#FFB73B"/>
<path d="M378.62 577.96V602.55C379.89 602.33 381.13 602.05 382.33 601.73V577.95H378.62V577.96Z" fill="#FFB73B"/>
<path d="M384.23 577.96V601.19C385.17 600.89 386.08 600.57 386.96 600.22V577.96H384.23Z" fill="#FFB73B"/>
<path d="M348.58 577.96V597.92C349.44 598.44 350.35 598.92 351.31 599.37V577.96H348.58V577.96Z" fill="#FFB73B"/>
<path d="M362.81 577.96V602.75C363.86 602.91 364.93 603.03 366.01 603.12V577.96H362.81Z" fill="#FFB73B"/>
<path d="M353.2 577.96V600.22C354.08 600.57 354.99 600.9 355.93 601.19V577.96H353.2Z" fill="#FFB73B"/>
<path d="M357.83 577.96V601.74C358.83 602.01 359.86 602.25 360.91 602.45V577.96H357.83Z" fill="#FFB73B"/>
<path d="M343.95 577.96V594.28C344.76 595.12 345.66 595.92 346.68 596.66V577.96H343.95Z" fill="#FFB73B"/>
<path d="M400.35 577.96H398.11V591.98C399.55 589.87 400.35 587.56 400.35 585.13V577.96Z" fill="#FFB73B"/>
<path d="M393.48 577.96V596.66C394.5 595.92 395.4 595.12 396.21 594.28V577.96H393.48Z" fill="#FFB73B"/>
<path d="M388.86 577.96V599.37C389.82 598.92 390.73 598.44 391.59 597.92V577.96H388.86V577.96Z" fill="#FFB73B"/>
<path d="M342.05 577.96V591.98C342.59 592.78 343.23 593.54 343.95 594.27V577.95H342.05V577.96Z" fill="#FF9C27"/>
<path d="M346.68 577.96V596.66C347.28 597.1 347.91 597.52 348.58 597.92V577.96H346.68Z" fill="#FF9C27"/>
<path d="M351.31 577.96V599.37C351.93 599.66 352.55 599.95 353.21 600.22V577.96H351.31Z" fill="#FF9C27"/>
<path d="M355.93 577.96V601.19C356.55 601.39 357.18 601.57 357.83 601.74V577.96H355.93Z" fill="#FF9C27"/>
<path d="M360.92 577.96V602.45C361.54 602.57 362.18 602.66 362.82 602.75V577.96H360.92Z" fill="#FF9C27"/>
<path d="M366.02 577.96V603.12C366.65 603.17 367.28 603.21 367.92 603.24V577.97H366.02V577.96Z" fill="#FF9C27"/>
<path d="M371.12 577.96V603.27C371.76 603.26 372.39 603.25 373.02 603.21V577.96H371.12Z" fill="#FF9C27"/>
<path d="M376.73 577.96V602.85C377.37 602.76 378 602.67 378.63 602.56V577.97H376.73V577.96Z" fill="#FF9C27"/>
<path d="M396.21 577.96V594.28C396.93 593.55 397.57 592.78 398.11 591.99V577.97H396.21V577.96Z" fill="#FF9C27"/>
<path d="M391.59 577.96V597.92C392.25 597.52 392.89 597.1 393.49 596.66V577.96H391.59Z" fill="#FF9C27"/>
<path d="M386.96 577.96V600.22C387.62 599.96 388.24 599.67 388.86 599.37V577.96H386.96Z" fill="#FF9C27"/>
<path d="M382.33 577.96V601.74C382.97 601.57 383.61 601.39 384.23 601.19V577.96H382.33Z" fill="#FF9C27"/>
<path d="M370.08 559.8C353.36 559.8 339.81 567.93 339.81 577.96C339.81 587.99 353.36 596.12 370.08 596.12C386.8 596.12 400.35 587.99 400.35 577.96C400.35 567.93 386.8 559.8 370.08 559.8Z" fill="#FFE275"/>
<path d="M370.08 563.42C384.15 563.42 395.61 570.03 396.41 578.35C396.44 578.05 396.49 577.74 396.49 577.44C396.49 568.69 384.67 561.6 370.09 561.6C355.51 561.6 343.69 568.69 343.69 577.44C343.69 577.75 343.74 578.05 343.77 578.35C344.55 570.03 356.01 563.42 370.08 563.42Z" fill="#FF9C27"/>
<path opacity="0.5" d="M370.08 593.27C384.15 593.27 395.61 586.66 396.41 578.34C395.62 570.02 384.15 563.41 370.08 563.41C356.01 563.41 344.55 570.02 343.75 578.34C344.55 586.67 356.01 593.27 370.08 593.27Z" fill="#FF9C27"/>
<path d="M387.06 586.94C386.15 585.86 385.13 584.88 384.04 583.95C385.09 582.33 385.36 580.41 384.58 578.36C383.2 574.75 378.77 574.4 375.5 574.73C373.93 574.89 372.46 575.28 370.99 575.74C367.86 574 364.83 571.8 361.58 570.19C363.75 569.24 366.3 569.21 368.05 569.17C368.53 569.16 368.63 568.47 368.16 568.33C365.64 567.56 362.24 567.76 359.52 569.28C358.14 568.74 356.72 568.33 355.22 568.13C355.01 568.1 354.96 568.42 355.12 568.51C356.11 569.08 357.08 569.66 358.06 570.24C355.44 572.43 354.31 575.89 358.21 578.59C361.93 581.17 366.49 579.45 370.25 578.25C370.58 578.14 370.92 578.04 371.26 577.93C374.46 579.76 377.45 582.11 380.53 584.23C379.04 585.32 376.88 586.05 375.22 586.35C372.68 586.8 370.55 586.8 368.05 586.22C367.57 586.11 367.17 586.71 367.55 587.08C370.38 589.82 377.36 589.11 381.56 586.37C381.93 586.13 382.28 585.87 382.6 585.59C383.86 586.38 385.14 587.1 386.47 587.71C386.98 587.93 387.42 587.37 387.06 586.94ZM361.54 577.57C357.94 576.94 357.12 574.01 359.37 571.69C359.52 571.53 359.69 571.41 359.86 571.28C362.82 573.03 365.8 574.77 368.78 576.48C368.31 576.64 367.84 576.8 367.37 576.95C366.75 577.21 362.68 577.77 361.54 577.57ZM376.31 576.88C378.91 576.77 384.09 577.01 382.1 582.4C382.1 582.4 382.1 582.4 382.1 582.41C379.47 580.47 376.57 578.81 373.74 577.26C374.58 577.07 375.44 576.92 376.31 576.88Z" fill="#FF9C27"/>
<path d="M348.78 582.36C348.34 581.51 347.77 580.7 347.49 579.78C347.23 578.91 347.48 577.95 347.15 577.14C347.05 576.89 346.73 576.75 346.51 576.97C345.75 577.75 345.98 579.16 346.22 580.13C346.52 581.33 347.1 582.37 348.21 582.93C348.59 583.13 348.98 582.74 348.78 582.36Z" fill="#FF9C27"/>
<path d="M392.23 573.07C392.09 572.96 391.88 573.02 391.87 573.22C391.85 574.26 392.18 575.24 392 576.3C391.85 577.2 391.22 577.94 391.2 578.84C391.2 579.09 391.47 579.35 391.73 579.24C393.69 578.44 393.76 574.3 392.23 573.07Z" fill="#FF9C27"/>
<path d="M386.79 571.6C386.61 571.61 386.54 571.8 386.65 571.94C387.2 572.63 388 573.08 388.61 573.71C389.16 574.27 389.49 574.83 390.26 575.08C390.47 575.15 390.66 574.97 390.67 574.77C390.77 573.14 388.29 571.5 386.79 571.6Z" fill="#FF9C27"/>
<path d="M312.95 586.78V612.03C314.21 611.96 315.45 611.83 316.66 611.67V586.78H312.95Z" fill="#FFB73B"/>
<path d="M307.84 586.78V612.05C308.56 612.08 309.27 612.12 310.01 612.12C310.36 612.12 310.7 612.1 311.05 612.09V586.78H307.84V586.78Z" fill="#FFB73B"/>
<path d="M279.74 586.78V593.96C279.74 596.38 280.55 598.69 281.98 600.81V586.79H279.74V586.78Z" fill="#FFB73B"/>
<path d="M318.55 586.78V611.37C319.82 611.15 321.06 610.87 322.26 610.55V586.77H318.55V586.78Z" fill="#FFB73B"/>
<path d="M324.16 586.78V610.01C325.1 609.71 326.01 609.39 326.89 609.04V586.78H324.16Z" fill="#FFB73B"/>
<path d="M288.51 586.78V606.74C289.37 607.26 290.28 607.74 291.24 608.19V586.78H288.51V586.78Z" fill="#FFB73B"/>
<path d="M302.74 586.78V611.57C303.79 611.73 304.85 611.85 305.94 611.94V586.78H302.74Z" fill="#FFB73B"/>
<path d="M293.13 586.78V609.04C294.01 609.39 294.92 609.71 295.86 610.01V586.78H293.13Z" fill="#FFB73B"/>
<path d="M297.76 586.78V610.56C298.76 610.83 299.79 611.07 300.84 611.27V586.78H297.76Z" fill="#FFB73B"/>
<path d="M283.88 586.78V603.1C284.69 603.94 285.59 604.74 286.61 605.48V586.78H283.88Z" fill="#FFB73B"/>
<path d="M340.28 586.78H338.04V600.8C339.48 598.69 340.28 596.38 340.28 593.95V586.78Z" fill="#FFB73B"/>
<path d="M333.41 586.78V605.48C334.43 604.74 335.33 603.94 336.14 603.1V586.78H333.41Z" fill="#FFB73B"/>
<path d="M328.79 586.78V608.19C329.74 607.74 330.66 607.26 331.52 606.74V586.78H328.79V586.78Z" fill="#FFB73B"/>
<path d="M281.98 586.78V600.8C282.52 601.6 283.16 602.36 283.88 603.09V586.77H281.98V586.78Z" fill="#FF9C27"/>
<path d="M286.61 586.78V605.48C287.21 605.92 287.84 606.34 288.51 606.74V586.78H286.61Z" fill="#FF9C27"/>
<path d="M291.23 586.78V608.19C291.85 608.48 292.47 608.77 293.13 609.04V586.78H291.23Z" fill="#FF9C27"/>
<path d="M295.86 586.78V610.01C296.48 610.21 297.11 610.39 297.76 610.56V586.78H295.86Z" fill="#FF9C27"/>
<path d="M300.85 586.78V611.27C301.47 611.39 302.11 611.48 302.75 611.57V586.78H300.85Z" fill="#FF9C27"/>
<path d="M305.95 586.78V611.94C306.58 611.99 307.21 612.03 307.85 612.06V586.79H305.95V586.78Z" fill="#FF9C27"/>
<path d="M311.05 586.78V612.09C311.69 612.08 312.32 612.07 312.95 612.03V586.78H311.05Z" fill="#FF9C27"/>
<path d="M316.65 586.78V611.67C317.29 611.58 317.92 611.49 318.55 611.38V586.79H316.65V586.78Z" fill="#FF9C27"/>
<path d="M336.14 586.78V603.1C336.86 602.37 337.5 601.6 338.04 600.81V586.79H336.14V586.78Z" fill="#FF9C27"/>
<path d="M331.51 586.78V606.74C332.17 606.34 332.81 605.92 333.41 605.48V586.78H331.51Z" fill="#FF9C27"/>
<path d="M326.89 586.78V609.04C327.55 608.78 328.17 608.49 328.79 608.19V586.78H326.89Z" fill="#FF9C27"/>
<path d="M322.26 586.78V610.56C322.9 610.39 323.54 610.21 324.16 610.01V586.78H322.26Z" fill="#FF9C27"/>
<path d="M310.01 568.62C293.29 568.62 279.74 576.75 279.74 586.78C279.74 596.81 293.29 604.94 310.01 604.94C326.73 604.94 340.28 596.81 340.28 586.78C340.28 576.75 326.73 568.62 310.01 568.62Z" fill="#FFE275"/>
<path d="M310.01 572.24C324.08 572.24 335.54 578.85 336.34 587.17C336.37 586.87 336.42 586.56 336.42 586.26C336.42 577.51 324.6 570.42 310.02 570.42C295.44 570.42 283.62 577.51 283.62 586.26C283.62 586.57 283.67 586.87 283.7 587.17C284.48 578.84 295.94 572.24 310.01 572.24Z" fill="#FF9C27"/>
<path opacity="0.5" d="M310.01 602.09C324.08 602.09 335.54 595.48 336.34 587.16C335.55 578.84 324.08 572.23 310.01 572.23C295.94 572.23 284.48 578.84 283.68 587.16C284.48 595.48 295.94 602.09 310.01 602.09Z" fill="#FF9C27"/>
<path d="M326.99 595.76C326.08 594.68 325.06 593.7 323.97 592.77C325.02 591.15 325.29 589.23 324.51 587.18C323.13 583.58 318.7 583.22 315.43 583.55C313.86 583.71 312.39 584.1 310.92 584.56C307.79 582.82 304.76 580.62 301.51 579.01C303.68 578.06 306.23 578.03 307.98 577.99C308.46 577.98 308.56 577.29 308.09 577.15C305.57 576.38 302.17 576.58 299.45 578.1C298.07 577.56 296.65 577.15 295.15 576.95C294.94 576.92 294.89 577.24 295.05 577.33C296.04 577.9 297.01 578.48 297.99 579.06C295.37 581.25 294.24 584.71 298.14 587.41C301.86 589.99 306.42 588.27 310.18 587.07C310.51 586.96 310.85 586.86 311.19 586.75C314.39 588.58 317.38 590.93 320.46 593.05C318.97 594.14 316.81 594.87 315.15 595.17C312.61 595.62 310.48 595.62 307.98 595.04C307.5 594.93 307.1 595.53 307.48 595.9C310.31 598.64 317.29 597.93 321.49 595.19C321.86 594.95 322.21 594.69 322.53 594.41C323.79 595.2 325.07 595.92 326.4 596.53C326.91 596.74 327.35 596.19 326.99 595.76ZM301.47 586.39C297.87 585.76 297.05 582.83 299.3 580.51C299.45 580.35 299.63 580.23 299.79 580.1C302.75 581.85 305.73 583.59 308.71 585.3C308.24 585.46 307.77 585.62 307.3 585.77C306.68 586.03 302.61 586.59 301.47 586.39ZM316.24 585.7C318.84 585.59 324.02 585.83 322.03 591.22C322.03 591.22 322.03 591.22 322.03 591.23C319.4 589.29 316.5 587.63 313.67 586.08C314.51 585.88 315.37 585.73 316.24 585.7Z" fill="#FF9C27"/>
<path d="M288.71 591.18C288.27 590.33 287.7 589.52 287.42 588.6C287.16 587.73 287.41 586.77 287.08 585.96C286.98 585.71 286.66 585.57 286.44 585.79C285.68 586.57 285.91 587.98 286.15 588.95C286.45 590.15 287.03 591.19 288.14 591.75C288.51 591.95 288.91 591.56 288.71 591.18Z" fill="#FF9C27"/>
<path d="M332.16 581.88C332.02 581.77 331.81 581.83 331.8 582.03C331.78 583.07 332.11 584.05 331.93 585.11C331.78 586.01 331.15 586.75 331.13 587.65C331.13 587.9 331.4 588.16 331.66 588.05C333.62 587.26 333.69 583.12 332.16 581.88Z" fill="#FF9C27"/>
<path d="M326.72 580.41C326.54 580.42 326.47 580.61 326.58 580.75C327.13 581.44 327.93 581.89 328.54 582.52C329.09 583.08 329.42 583.64 330.19 583.89C330.4 583.96 330.59 583.78 330.6 583.58C330.7 581.96 328.22 580.31 326.72 580.41Z" fill="#FF9C27"/>
<path d="M320.54 568V593.25C321.8 593.18 323.04 593.05 324.25 592.89V568H320.54Z" fill="#FFB73B"/>
<path d="M315.44 568V593.27C316.16 593.3 316.87 593.34 317.61 593.34C317.96 593.34 318.3 593.32 318.65 593.31V568H315.44Z" fill="#FFB73B"/>
<path d="M287.33 568V575.18C287.33 577.6 288.14 579.91 289.57 582.03V568H287.33Z" fill="#FFB73B"/>
<path d="M326.15 568V592.59C327.42 592.37 328.66 592.09 329.86 591.77V568H326.15Z" fill="#FFB73B"/>
<path d="M331.75 568V591.23C332.69 590.93 333.6 590.61 334.48 590.26V568H331.75Z" fill="#FFB73B"/>
<path d="M296.1 568V587.96C296.96 588.48 297.87 588.96 298.83 589.41V568H296.1Z" fill="#FFB73B"/>
<path d="M310.34 568V592.79C311.39 592.95 312.46 593.07 313.54 593.16V568H310.34Z" fill="#FFB73B"/>
<path d="M300.73 568V590.26C301.61 590.61 302.52 590.93 303.46 591.23V568H300.73Z" fill="#FFB73B"/>
<path d="M305.35 568V591.78C306.35 592.05 307.38 592.29 308.43 592.49V568H305.35Z" fill="#FFB73B"/>
<path d="M291.47 568V584.32C292.28 585.16 293.18 585.96 294.2 586.7V568H291.47Z" fill="#FFB73B"/>
<path d="M347.88 568H345.64V582.02C347.08 579.91 347.88 577.6 347.88 575.17V568Z" fill="#FFB73B"/>
<path d="M341.01 568V586.7C342.03 585.96 342.93 585.16 343.74 584.32V568H341.01Z" fill="#FFB73B"/>
<path d="M336.38 568V589.41C337.33 588.96 338.25 588.48 339.11 587.96V568H336.38Z" fill="#FFB73B"/>
<path d="M289.57 568V582.02C290.11 582.82 290.75 583.58 291.47 584.31V568H289.57Z" fill="#FF9C27"/>
<path d="M294.2 568V586.7C294.8 587.14 295.43 587.56 296.1 587.96V568H294.2Z" fill="#FF9C27"/>
<path d="M298.83 568V589.41C299.45 589.7 300.07 589.99 300.73 590.26V568H298.83Z" fill="#FF9C27"/>
<path d="M303.46 568V591.23C304.08 591.43 304.71 591.61 305.36 591.78V568H303.46Z" fill="#FF9C27"/>
<path d="M308.44 568V592.49C309.06 592.61 309.7 592.7 310.34 592.79V568H308.44Z" fill="#FF9C27"/>
<path d="M313.54 568V593.16C314.17 593.21 314.8 593.25 315.44 593.28V568H313.54Z" fill="#FF9C27"/>
<path d="M318.64 568V593.31C319.28 593.3 319.91 593.29 320.54 593.25V568H318.64Z" fill="#FF9C27"/>
<path d="M324.25 568V592.89C324.89 592.8 325.52 592.71 326.15 592.6V568H324.25Z" fill="#FF9C27"/>
<path d="M343.73 568V584.32C344.45 583.59 345.09 582.82 345.63 582.03V568H343.73Z" fill="#FF9C27"/>
<path d="M339.11 568V587.96C339.77 587.56 340.41 587.14 341.01 586.7V568H339.11Z" fill="#FF9C27"/>
<path d="M334.48 568V590.26C335.14 590 335.76 589.71 336.38 589.41V568H334.48Z" fill="#FF9C27"/>
<path d="M329.85 568V591.78C330.49 591.61 331.13 591.43 331.75 591.23V568H329.85Z" fill="#FF9C27"/>
<path d="M317.6 549.84C300.88 549.84 287.33 557.97 287.33 568C287.33 578.03 300.88 586.16 317.6 586.16C334.32 586.16 347.87 578.03 347.87 568C347.88 557.97 334.32 549.84 317.6 549.84Z" fill="#FFE275"/>
<path d="M317.6 553.46C331.67 553.46 343.13 560.07 343.93 568.39C343.96 568.09 344.01 567.78 344.01 567.48C344.01 558.73 332.19 551.64 317.61 551.64C303.03 551.64 291.21 558.73 291.21 567.48C291.21 567.79 291.26 568.09 291.29 568.39C292.07 560.07 303.54 553.46 317.6 553.46Z" fill="#FF9C27"/>
<path opacity="0.5" d="M317.6 583.31C331.67 583.31 343.13 576.7 343.93 568.38C343.14 560.06 331.67 553.45 317.6 553.45C303.53 553.45 292.07 560.06 291.27 568.38C292.07 576.71 303.54 583.31 317.6 583.31Z" fill="#FF9C27"/>
<path d="M334.58 576.99C333.67 575.91 332.65 574.93 331.56 574C332.61 572.38 332.88 570.46 332.1 568.41C330.72 564.81 326.29 564.45 323.02 564.78C321.45 564.94 319.98 565.33 318.51 565.79C315.38 564.05 312.35 561.85 309.1 560.24C311.27 559.29 313.82 559.26 315.57 559.22C316.05 559.21 316.15 558.52 315.68 558.38C313.16 557.61 309.76 557.81 307.04 559.33C305.66 558.78 304.24 558.38 302.74 558.18C302.53 558.15 302.48 558.47 302.64 558.56C303.63 559.13 304.6 559.71 305.58 560.29C302.96 562.48 301.83 565.94 305.73 568.64C309.45 571.22 314.01 569.5 317.77 568.3C318.1 568.19 318.44 568.09 318.78 567.98C321.98 569.81 324.97 572.16 328.05 574.28C326.56 575.37 324.4 576.1 322.74 576.4C320.2 576.85 318.07 576.85 315.57 576.27C315.09 576.16 314.69 576.76 315.07 577.13C317.9 579.87 324.88 579.16 329.08 576.42C329.45 576.18 329.8 575.92 330.12 575.64C331.38 576.43 332.66 577.15 333.99 577.76C334.5 577.97 334.95 577.42 334.58 576.99ZM309.06 567.61C305.46 566.98 304.64 564.05 306.89 561.73C307.04 561.57 307.21 561.45 307.38 561.32C310.34 563.07 313.32 564.81 316.3 566.52C315.83 566.68 315.36 566.84 314.89 566.99C314.27 567.26 310.21 567.81 309.06 567.61ZM323.83 566.92C326.43 566.81 331.61 567.05 329.62 572.44C329.62 572.44 329.62 572.44 329.62 572.45C326.99 570.51 324.09 568.85 321.26 567.3C322.1 567.11 322.96 566.96 323.83 566.92Z" fill="#FF9C27"/>
<path d="M296.3 572.41C295.86 571.56 295.29 570.75 295.01 569.83C294.75 568.96 295 568 294.67 567.19C294.57 566.94 294.25 566.8 294.03 567.02C293.27 567.8 293.5 569.21 293.74 570.18C294.04 571.38 294.62 572.42 295.73 572.98C296.11 573.17 296.5 572.78 296.3 572.41Z" fill="#FF9C27"/>
<path d="M339.75 563.11C339.61 563 339.4 563.06 339.39 563.26C339.37 564.3 339.7 565.28 339.52 566.34C339.37 567.24 338.74 567.98 338.72 568.88C338.72 569.13 338.99 569.39 339.25 569.28C341.21 568.49 341.28 564.34 339.75 563.11Z" fill="#FF9C27"/>
<path d="M334.31 561.64C334.13 561.65 334.06 561.84 334.17 561.98C334.72 562.67 335.52 563.12 336.13 563.75C336.68 564.31 337.01 564.87 337.78 565.12C337.99 565.19 338.18 565.01 338.19 564.81C338.29 563.18 335.81 561.54 334.31 561.64Z" fill="#FF9C27"/>
<path d="M171.47 602.79L362.25 492.64L263.66 435.72L72.8799 545.87L171.47 602.79Z" fill="white"/>
<path d="M170.69 598.2L354.3 492.19L264.44 440.31L80.8298 546.32L170.69 598.2Z" fill="#DFD6DB"/>
<path d="M110.29 539.92L253.36 457.32C263.61 463.24 279.11 463.88 287.98 458.76L292.92 461.61L296.8 463.85L322.35 478.6C313.48 483.72 314.59 492.67 324.84 498.59L181.77 581.19C171.52 575.27 156.02 574.63 147.15 579.75L121.6 565L117.72 562.76L112.78 559.91C121.65 554.79 120.53 545.84 110.29 539.92Z" fill="white"/>
<path d="M178.93 576.87L180.95 575.7L173.79 571.57L172.05 572.58L170.27 571.56C171.02 570.83 171.32 570.26 171.45 569.57L173.03 568.66L183.09 574.47L184.83 573.46L187.15 574.8L181.24 578.21L178.93 576.87Z" fill="#8CA2FF"/>
<path d="M182.25 570.43C178.04 568 177.21 565.98 179.2 564.83C181.19 563.68 184.68 564.16 188.89 566.6C193.1 569.03 194.03 571.1 192.04 572.25C190.06 573.4 186.46 572.86 182.25 570.43ZM186.86 567.77C183.47 565.81 182.15 565.69 181.42 566.12C180.7 566.53 180.89 567.3 184.28 569.26C187.66 571.21 189.1 571.38 189.82 570.97C190.55 570.54 190.23 569.72 186.86 567.77Z" fill="#8CA2FF"/>
<path d="M189.97 565.97C185.76 563.54 184.93 561.52 186.92 560.37C188.91 559.22 192.4 559.7 196.61 562.14C200.82 564.57 201.75 566.65 199.76 567.79C197.78 568.94 194.18 568.4 189.97 565.97ZM194.58 563.31C191.19 561.35 189.87 561.23 189.14 561.65C188.42 562.06 188.61 562.83 192 564.79C195.38 566.74 196.82 566.91 197.54 566.5C198.28 566.09 197.95 565.26 194.58 563.31Z" fill="#8CA2FF"/>
<path d="M295.08 509.33L297.1 508.16L289.94 504.03L288.2 505.04L286.42 504.02C287.17 503.29 287.47 502.72 287.6 502.03L289.18 501.12L299.24 506.93L300.98 505.92L303.3 507.26L297.39 510.67L295.08 509.33Z" fill="#8CA2FF"/>
<path d="M298.4 502.89C294.19 500.46 293.36 498.44 295.35 497.29C297.34 496.14 300.83 496.62 305.04 499.06C309.25 501.49 310.18 503.56 308.19 504.71C306.21 505.86 302.61 505.32 298.4 502.89ZM303.01 500.23C299.62 498.27 298.3 498.15 297.57 498.58C296.85 498.99 297.04 499.76 300.43 501.72C303.81 503.67 305.25 503.84 305.97 503.43C306.7 503 306.38 502.18 303.01 500.23Z" fill="#8CA2FF"/>
<path d="M306.12 498.43C301.91 496 301.08 493.98 303.07 492.83C305.06 491.68 308.55 492.16 312.76 494.6C316.97 497.03 317.9 499.11 315.91 500.25C313.93 501.4 310.33 500.86 306.12 498.43ZM310.73 495.77C307.34 493.81 306.02 493.69 305.29 494.11C304.57 494.52 304.76 495.29 308.15 497.25C311.53 499.2 312.97 499.37 313.69 498.96C314.43 498.54 314.1 497.72 310.73 495.77Z" fill="#8CA2FF"/>
<path d="M193.94 532.96C211.94 543.35 237.24 545.59 250.45 537.97C263.66 530.34 259.78 515.74 241.78 505.34C223.78 494.95 198.48 492.71 185.27 500.33C172.06 507.96 175.94 522.57 193.94 532.96Z" fill="#61BBB7"/>
<path d="M196.9 531.25C212.87 540.47 235.31 542.46 247.03 535.69C258.75 528.92 255.3 515.97 239.33 506.75C223.36 497.53 200.92 495.54 189.2 502.31C177.49 509.07 180.93 522.03 196.9 531.25Z" fill="#A298FF"/>
<path d="M260.07 491.25C267.69 495.65 279.22 496.13 285.82 492.32C292.42 488.51 291.59 481.85 283.97 477.45C276.35 473.05 264.82 472.57 258.22 476.38C251.62 480.19 252.45 486.85 260.07 491.25Z" fill="#8CA2FF"/>
<path d="M263.65 489.18C268.98 492.26 277.05 492.59 281.67 489.93C286.29 487.26 285.71 482.61 280.38 479.53C275.05 476.45 266.98 476.12 262.36 478.78C257.74 481.44 258.32 486.1 263.65 489.18Z" fill="#5E79E5"/>
<path d="M143.67 558.45C151.29 562.85 162.82 563.33 169.42 559.52C176.02 555.71 175.19 549.05 167.57 544.65C159.95 540.25 148.42 539.77 141.82 543.58C135.22 547.39 136.05 554.05 143.67 558.45Z" fill="#8CA2FF"/>
<path d="M147.24 556.39C152.57 559.47 160.64 559.8 165.26 557.14C169.88 554.47 169.3 549.82 163.97 546.74C158.64 543.66 150.57 543.33 145.95 545.99C141.32 548.65 141.9 553.31 147.24 556.39Z" fill="#5E79E5"/>
<path d="M218.06 483.51L256.72 461.19L254.83 460.11L216.18 482.42L218.06 483.51Z" fill="#8CA2FF"/>
<path d="M236.93 475.76L259.44 462.76L261.32 463.85L238.82 476.84L236.93 475.76Z" fill="#8CA2FF"/>
<path d="M279.75 500.37L302.26 487.37L304.14 488.46L281.64 501.45L279.75 500.37Z" fill="#8CA2FF"/>
<path d="M116.42 542.19L155.07 519.88L153.19 518.79L114.53 541.11L116.42 542.19Z" fill="#8CA2FF"/>
<path d="M119.14 543.76L141.64 530.77L143.53 531.86L121.02 544.85L119.14 543.76Z" fill="#8CA2FF"/>
<path d="M161.96 568.38L184.46 555.38L186.35 556.47L163.84 569.46L161.96 568.38Z" fill="#8CA2FF"/>
<path d="M362.25 492.64V513.06L171.47 623.21V602.79L362.25 492.64Z" fill="#EEE7EA"/>
<path d="M72.8799 545.87V566.29L171.47 623.21V602.79L72.8799 545.87Z" fill="#DFD6DB"/>
<path d="M179.9 609.46C185.6 605.53 192.11 602.6 198.26 599.45C203.74 596.64 209.22 593.61 215.03 591.56C215.17 591.51 215.25 591.72 215.13 591.8C209.34 595.62 202.88 598.52 196.73 601.72C191.26 604.57 185.9 607.82 180.17 610.13C179.78 610.28 179.59 609.67 179.9 609.46Z" fill="#DFD6DB"/>
<path d="M192.02 598.78C206.22 586.99 223.69 577.57 240.22 569.49C240.46 569.37 240.67 569.77 240.44 569.91C224.53 579.69 208.9 590.57 192.56 599.55C192.03 599.84 191.55 599.17 192.02 598.78Z" fill="#DFD6DB"/>
<path d="M310.49 535.53C318.17 530.07 326.4 525.43 334.57 520.75C342.03 516.48 349.51 511.92 357.42 508.53C357.7 508.41 357.88 508.83 357.64 508.99C350.18 513.98 342.06 518.06 334.29 522.56C326.49 527.08 318.84 531.89 310.84 536.07C310.48 536.27 310.14 535.78 310.49 535.53Z" fill="#DFD6DB"/>
<path d="M261.74 558.42C266.85 554.76 272.39 551.72 277.82 548.57C282.55 545.83 287.19 542.66 292.31 540.71C292.66 540.58 292.84 541.05 292.58 541.26C287.81 545.24 281.95 548.12 276.6 551.27C271.85 554.07 267.15 556.95 262.16 559.3C261.66 559.53 261.31 558.73 261.74 558.42Z" fill="#DFD6DB"/>
<path d="M330.73 516.45C334.59 513.82 339.02 512.06 343.16 509.92C347.32 507.77 351.39 505.37 355.68 503.48C355.88 503.39 356.14 503.65 355.93 503.81C348.91 509.24 339.64 514.81 331.07 517.27C330.57 517.41 330.32 516.73 330.73 516.45Z" fill="#DFD6DB"/>
<path d="M126.9 591.39C119.22 585.93 110.99 581.29 102.82 576.61C95.3598 572.34 87.8798 567.78 79.9698 564.39C79.6898 564.27 79.5098 564.69 79.7498 564.85C87.2098 569.84 95.3298 573.92 103.1 578.42C110.9 582.94 118.55 587.75 126.55 591.93C126.91 592.14 127.25 591.64 126.9 591.39Z" fill="#C5B9C0"/>
<path d="M106.66 572.32C102.8 569.7 98.3699 567.93 94.2299 565.79C90.0699 563.64 85.9999 561.24 81.7099 559.35C81.5099 559.26 81.2499 559.52 81.4599 559.68C88.4799 565.11 97.7499 570.68 106.32 573.14C106.82 573.28 107.06 572.59 106.66 572.32Z" fill="#C5B9C0"/>
<path d="M141.22 506.42L240.02 563.21L291.37 533.57L192.56 476.77L141.22 506.42Z" fill="#3A3939"/>
<path d="M146.49 503.37L245.3 560.17L287.21 535.97L188.4 479.17L146.49 503.37Z" fill="#FFB73B"/>
<path d="M240.02 563.21L291.37 533.57V553.99L240.02 583.63V563.21Z" fill="#302F2E"/>
<path d="M287.21 535.97V556.39L245.3 580.59V560.17L287.21 535.97Z" fill="#FF9C27"/>
<path d="M170.68 500.33L175.54 499.87C175.56 501.17 176.23 502.46 177.54 503.22C179.01 504.07 180.41 504.1 181.51 503.47C182.66 502.81 182.12 502.08 181.41 500.89L180.36 499.12C179.5 497.75 179.51 495.95 182.17 494.41C185.19 492.67 189.92 492.62 193.21 494.52C195.03 495.57 196.1 497.16 195.89 498.84L191.47 499.29C191.35 498.16 190.91 497.29 189.66 496.56C188.42 495.85 187.03 495.76 186 496.35C184.88 497 185.53 497.82 186.24 498.98L187.32 500.7C188.34 502.32 188.07 503.88 185.49 505.36C182.47 507.1 177.66 507.36 173.89 505.18C171.83 504.03 170.54 502.25 170.68 500.33Z" fill="white"/>
<path d="M204.03 501.18L208.31 503.65L195.01 517.03L191.23 514.85L194.6 511.79L189.78 509.01L184.47 510.95L180.84 508.85L204.03 501.18ZM193.74 507.57L197.11 509.51L198.42 508.33C199.8 507.03 201.52 505.53 203.01 504.2L202.91 504.14C200.59 505.03 198.06 506.02 195.8 506.82L193.74 507.57Z" fill="white"/>
<path d="M214.99 507.5L218.55 509.55L203.78 518.08L210.02 521.69L206.55 523.69L196.75 518.03L214.99 507.5Z" fill="white"/>
<path d="M230.31 516.35L234.6 518.82L221.3 532.2L217.52 530.02L220.89 526.96L216.07 524.18L210.76 526.12L207.13 524.02L230.31 516.35ZM220.02 522.74L223.38 524.68L224.69 523.5C226.07 522.2 227.79 520.7 229.28 519.37L229.18 519.31C226.86 520.2 224.33 521.19 222.07 521.99L220.02 522.74Z" fill="white"/>
<path d="M241.26 522.67L246.95 525.95C250.29 527.88 251.68 530.23 247.35 532.74C244.67 534.29 241.84 534.63 239.28 534.15L235.57 540.43L231.58 538.12L235.13 532.58L233.17 531.45L226.6 535.24L223.04 533.19L241.26 522.67ZM238.27 530.63C240.13 531.71 242.07 531.76 243.86 530.73C245.65 529.7 245.25 528.75 243.39 527.68L241.55 526.62L236.43 529.57L238.27 530.63Z" fill="white"/>
<path d="M246.71 539.38L253.69 529.84L257.52 532.05L254.73 535.28C253.8 536.32 252.95 537.28 251.99 538.35L252.09 538.41C253.95 537.87 255.64 537.39 257.45 536.85L263.07 535.25L266.8 537.4L250.28 541.43L243.79 545.18L240.23 543.13L246.71 539.38Z" fill="white"/>
<path d="M179.38 556.15L370.16 446L271.58 389.08L80.8 499.23L179.38 556.15Z" fill="white"/>
<path d="M178.61 551.56L362.22 445.55L272.35 393.67L88.74 499.68L178.61 551.56Z" fill="#DFD6DB"/>
<path d="M118.2 493.28L261.27 410.68C271.52 416.6 287.02 417.24 295.89 412.12L300.83 414.97L304.72 417.21L330.27 431.96C321.4 437.08 322.51 446.03 332.76 451.95L189.69 534.55C179.44 528.63 163.94 527.99 155.07 533.11L129.52 518.36L125.64 516.12L120.7 513.27C129.56 508.15 128.45 499.2 118.2 493.28Z" fill="white"/>
<path d="M186.85 530.23L188.87 529.06L181.71 524.93L179.97 525.93L178.19 524.91C178.94 524.18 179.24 523.61 179.37 522.92L180.95 522.01L191.01 527.82L192.75 526.81L195.07 528.15L189.16 531.56L186.85 530.23Z" fill="#8CA2FF"/>
<path d="M190.16 523.79C185.95 521.36 185.12 519.34 187.11 518.19C189.1 517.04 192.59 517.52 196.8 519.96C201.01 522.39 201.94 524.46 199.95 525.61C197.97 526.76 194.38 526.22 190.16 523.79ZM194.77 521.13C191.38 519.17 190.06 519.05 189.33 519.48C188.61 519.89 188.8 520.66 192.19 522.62C195.57 524.57 197.01 524.74 197.73 524.33C198.47 523.9 198.15 523.08 194.77 521.13Z" fill="#8CA2FF"/>
<path d="M197.89 519.33C193.68 516.9 192.85 514.88 194.84 513.73C196.83 512.58 200.32 513.06 204.53 515.5C208.74 517.93 209.67 520.01 207.68 521.15C205.69 522.3 202.1 521.76 197.89 519.33ZM202.49 516.67C199.1 514.71 197.78 514.59 197.05 515.01C196.33 515.42 196.52 516.19 199.91 518.15C203.29 520.1 204.73 520.27 205.45 519.86C206.19 519.45 205.87 518.62 202.49 516.67Z" fill="#8CA2FF"/>
<path d="M303 462.69L305.02 461.52L297.86 457.39L296.12 458.39L294.34 457.37C295.09 456.64 295.39 456.07 295.52 455.38L297.1 454.47L307.16 460.28L308.9 459.27L311.22 460.61L305.31 464.02L303 462.69Z" fill="#8CA2FF"/>
<path d="M306.31 456.25C302.1 453.82 301.27 451.8 303.26 450.65C305.25 449.5 308.74 449.98 312.95 452.42C317.16 454.85 318.09 456.92 316.1 458.07C314.12 459.22 310.53 458.68 306.31 456.25ZM310.92 453.59C307.53 451.63 306.21 451.51 305.48 451.94C304.76 452.35 304.95 453.12 308.34 455.08C311.72 457.03 313.16 457.2 313.88 456.79C314.62 456.36 314.3 455.54 310.92 453.59Z" fill="#8CA2FF"/>
<path d="M314.04 451.79C309.83 449.36 309 447.34 310.99 446.19C312.98 445.04 316.47 445.52 320.68 447.96C324.89 450.39 325.82 452.47 323.83 453.61C321.84 454.76 318.25 454.22 314.04 451.79ZM318.64 449.13C315.25 447.17 313.93 447.05 313.2 447.47C312.48 447.88 312.67 448.65 316.06 450.61C319.44 452.56 320.88 452.73 321.6 452.32C322.34 451.9 322.02 451.08 318.64 449.13Z" fill="#8CA2FF"/>
<path d="M201.86 486.32C219.86 496.71 245.16 498.95 258.37 491.33C271.58 483.7 267.69 469.1 249.69 458.7C231.69 448.31 206.39 446.07 193.18 453.69C179.97 461.32 183.86 475.93 201.86 486.32Z" fill="#61BBB7"/>
<path d="M204.81 484.61C220.78 493.83 243.22 495.82 254.94 489.05C266.66 482.28 263.21 469.33 247.24 460.11C231.27 450.89 208.83 448.9 197.11 455.67C185.4 462.43 188.85 475.39 204.81 484.61Z" fill="#A298FF"/>
<path d="M267.98 444.61C275.6 449.01 287.13 449.49 293.73 445.68C300.33 441.87 299.5 435.21 291.88 430.81C284.26 426.41 272.73 425.93 266.13 429.74C259.53 433.55 260.36 440.21 267.98 444.61Z" fill="#8CA2FF"/>
<path d="M271.57 442.54C276.9 445.62 284.97 445.95 289.59 443.29C294.21 440.62 293.63 435.97 288.3 432.89C282.97 429.81 274.9 429.48 270.28 432.14C265.66 434.8 266.24 439.46 271.57 442.54Z" fill="#5E79E5"/>
<path d="M151.58 511.81C159.2 516.21 170.73 516.69 177.33 512.88C183.93 509.07 183.1 502.41 175.48 498.01C167.86 493.61 156.33 493.13 149.73 496.94C143.13 500.76 143.96 507.41 151.58 511.81Z" fill="#8CA2FF"/>
<path d="M155.15 509.75C160.48 512.83 168.55 513.16 173.17 510.5C177.79 507.83 177.21 503.18 171.88 500.1C166.55 497.02 158.48 496.69 153.86 499.35C149.24 502.01 149.82 506.67 155.15 509.75Z" fill="#5E79E5"/>
<path d="M225.98 436.87L264.63 414.55L262.75 413.47L224.09 435.78L225.98 436.87Z" fill="#8CA2FF"/>
<path d="M244.85 429.12L267.35 416.12L269.23 417.21L246.73 430.2L244.85 429.12Z" fill="#8CA2FF"/>
<path d="M287.67 453.73L310.17 440.73L312.06 441.82L289.55 454.81L287.67 453.73Z" fill="#8CA2FF"/>
<path d="M124.33 495.56L162.99 473.24L161.1 472.15L122.45 494.47L124.33 495.56Z" fill="#8CA2FF"/>
<path d="M127.05 497.13L149.56 484.13L151.44 485.22L128.94 498.21L127.05 497.13Z" fill="#8CA2FF"/>
<path d="M169.87 521.74L192.38 508.74L194.26 509.83L171.76 522.82L169.87 521.74Z" fill="#8CA2FF"/>
<path d="M370.16 446V466.42L179.38 576.57V556.15L370.16 446Z" fill="#EEE7EA"/>
<path d="M80.8 499.23V519.65L179.38 576.57V556.15L80.8 499.23Z" fill="#DFD6DB"/>
<path d="M187.82 562.82C193.52 558.89 200.03 555.96 206.18 552.81C211.66 550 217.14 546.97 222.95 544.92C223.09 544.87 223.17 545.08 223.05 545.16C217.26 548.98 210.8 551.88 204.65 555.08C199.18 557.93 193.82 561.18 188.09 563.49C187.69 563.64 187.5 563.03 187.82 562.82Z" fill="#DFD6DB"/>
<path d="M199.93 552.14C214.13 540.35 231.6 530.93 248.13 522.85C248.37 522.73 248.58 523.13 248.35 523.27C232.44 533.05 216.81 543.93 200.47 552.91C199.94 553.2 199.46 552.53 199.93 552.14Z" fill="#DFD6DB"/>
<path d="M318.4 488.89C326.08 483.43 334.31 478.79 342.48 474.11C349.94 469.84 357.42 465.28 365.33 461.89C365.61 461.77 365.79 462.19 365.55 462.35C358.09 467.34 349.97 471.42 342.2 475.92C334.4 480.44 326.75 485.25 318.75 489.43C318.39 489.63 318.05 489.14 318.4 488.89Z" fill="#DFD6DB"/>
<path d="M269.66 511.78C274.77 508.12 280.31 505.08 285.74 501.93C290.47 499.19 295.11 496.02 300.23 494.07C300.58 493.94 300.76 494.41 300.5 494.62C295.73 498.6 289.87 501.48 284.52 504.63C279.77 507.43 275.07 510.31 270.08 512.66C269.57 512.89 269.22 512.09 269.66 511.78Z" fill="#DFD6DB"/>
<path d="M338.65 469.81C342.51 467.18 346.94 465.42 351.08 463.28C355.24 461.13 359.31 458.73 363.6 456.84C363.8 456.75 364.06 457.01 363.85 457.17C356.83 462.6 347.56 468.17 338.99 470.63C338.48 470.77 338.24 470.09 338.65 469.81Z" fill="#DFD6DB"/>
<path d="M134.82 544.75C127.14 539.29 118.91 534.65 110.74 529.97C103.28 525.7 95.8 521.14 87.89 517.75C87.61 517.63 87.43 518.05 87.67 518.21C95.13 523.2 103.25 527.28 111.02 531.78C118.82 536.3 126.47 541.11 134.47 545.29C134.83 545.5 135.17 545 134.82 544.75Z" fill="#C5B9C0"/>
<path d="M114.57 525.68C110.71 523.06 106.28 521.29 102.14 519.15C97.98 517 93.91 514.6 89.62 512.71C89.42 512.62 89.16 512.88 89.37 513.04C96.39 518.47 105.66 524.04 114.23 526.5C114.73 526.64 114.98 525.95 114.57 525.68Z" fill="#C5B9C0"/>
<path d="M149.13 459.78L247.93 516.57L299.28 486.93L200.48 430.13L149.13 459.78Z" fill="#3A3939"/>
<path d="M154.41 456.73L253.21 513.53L295.12 489.33L196.32 432.53L154.41 456.73Z" fill="#FFB73B"/>
<path d="M247.93 516.57L299.28 486.93V507.35L247.93 536.99V516.57Z" fill="#302F2E"/>
<path d="M295.12 489.33V509.75L253.21 533.95V513.53L295.12 489.33Z" fill="#FF9C27"/>
<path d="M178.59 453.69L183.45 453.23C183.47 454.53 184.14 455.82 185.45 456.58C186.92 457.43 188.32 457.46 189.42 456.83C190.57 456.17 190.03 455.44 189.32 454.25L188.27 452.48C187.41 451.11 187.42 449.31 190.08 447.77C193.1 446.03 197.83 445.98 201.12 447.88C202.94 448.93 204.01 450.52 203.8 452.2L199.38 452.65C199.26 451.52 198.82 450.65 197.57 449.92C196.33 449.21 194.94 449.12 193.91 449.71C192.79 450.36 193.44 451.18 194.15 452.34L195.23 454.06C196.25 455.68 195.98 457.24 193.4 458.72C190.38 460.46 185.57 460.72 181.8 458.54C179.74 457.39 178.46 455.61 178.59 453.69Z" fill="white"/>
<path d="M211.95 454.54L216.23 457.01L202.93 470.39L199.15 468.21L202.52 465.15L197.7 462.37L192.39 464.31L188.76 462.21L211.95 454.54ZM201.65 460.93L205.02 462.87L206.33 461.69C207.71 460.39 209.43 458.89 210.92 457.56L210.82 457.5C208.5 458.39 205.97 459.38 203.71 460.18L201.65 460.93Z" fill="white"/>
<path d="M222.9 460.86L226.46 462.91L211.69 471.44L217.93 475.05L214.46 477.05L204.66 471.39L222.9 460.86Z" fill="white"/>
<path d="M238.23 469.71L242.52 472.18L229.22 485.56L225.44 483.38L228.81 480.32L223.99 477.54L218.68 479.48L215.05 477.38L238.23 469.71ZM227.93 476.1L231.29 478.04L232.6 476.86C233.98 475.56 235.7 474.06 237.19 472.73L237.09 472.67C234.77 473.56 232.24 474.55 229.98 475.35L227.93 476.1Z" fill="white"/>
<path d="M249.18 476.03L254.87 479.31C258.21 481.24 259.6 483.59 255.27 486.1C252.59 487.65 249.76 487.99 247.2 487.51L243.49 493.79L239.5 491.48L243.05 485.94L241.09 484.81L234.52 488.6L230.96 486.55L249.18 476.03ZM246.19 483.99C248.05 485.07 249.99 485.12 251.78 484.09C253.57 483.06 253.17 482.11 251.31 481.04L249.47 479.98L244.35 482.93L246.19 483.99Z" fill="white"/>
<path d="M254.62 492.74L261.6 483.2L265.43 485.41L262.64 488.64C261.71 489.68 260.86 490.64 259.9 491.71L260 491.77C261.86 491.23 263.55 490.75 265.36 490.21L270.98 488.61L274.71 490.76L258.19 494.79L251.7 498.54L248.14 496.49L254.62 492.74Z" fill="white"/>
</g>
<defs>
<clipPath id="clip0_105_391">
<rect width="578.87" height="630.21" fill="white"/>
</clipPath>
</defs>
</svg>
