<?xml version="1.0" encoding="utf-8"?>
<!-- Generator: Adobe Illustrator 23.0.3, SVG Export Plug-In . SVG Version: 6.00 Build 0)  -->
<svg version="1.1" id="Capa_1" xmlns="http://www.w3.org/2000/svg" xmlns:xlink="http://www.w3.org/1999/xlink" x="0px" y="0px"
	 viewBox="0 0 1296 677" style="enable-background:new 0 0 1296 677;" xml:space="preserve">
<style type="text/css">
	.st0{clip-path:url(#SVGID_2_);}
	.st1{fill:#121258;}
	.st2{fill:#D2E9FF;}
	.st3{fill:#9DD3FF;}
	.st4{fill:#5E9AF2;}
	.st5{fill:#F0F8FF;}
	.st6{fill:#FF7469;}
	.st7{fill:#97C7FA;}
	.st8{fill:#FF7A70;}
	.st9{fill:#2E49D2;}
	.st10{fill:#5F89D3;}
	.st11{fill:#FF5549;}
	.st12{fill:#003261;}
	.st13{fill:#00448C;}
	.st14{fill:#FF9490;}
	.st15{fill:#FFA668;}
	.st16{fill:#FF8585;}
	.st17{fill:#E3F0FD;}
	.st18{fill:#E05344;}
	.st19{fill:#2776CE;}
	.st20{fill:#0F2B4E;}
	.st21{fill:#009EFF;}
	.st22{fill:#FFFFFF;}
	.st23{fill:none;}
	.st24{font-family:'Raleway';}
	.st25{font-size:25px;}
</style>
<g>
	<g>
		<defs>
			<rect id="SVGID_1_" x="32" y="9.4" width="1231" height="660"/>
		</defs>
		<clipPath id="SVGID_2_">
			<use xlink:href="#SVGID_1_"  style="overflow:visible;"/>
		</clipPath>
		<g class="st0">
			<path class="st1" d="M1054.3,669.4H214.1L32,306.6h1231L1054.3,669.4z"/>
			<path class="st2" d="M1177.3,145.8c-29.3-25-64.7-175.9-185.7-97.3c-62.5,40.6-168-34.9-255.3-8.8
				c-80.2,23.9-87.9,102.8-80.2,128.5c15.7,51.9-33.1,59.6-78.3,81.9c-71,35-18.8,157.9,48.3,158.5c67,0.6,473.2-1.2,473.2-1.2
				s97.4,0.2,137.9-53.5C1280.7,296.1,1253.1,210.5,1177.3,145.8z"/>
			<path class="st3" d="M1053.8,333.6h166.9V53h-166.9V333.6z"/>
			<path class="st4" d="M1215.5,53h-166.9v280.6h166.9V53z"/>
			<path class="st5" d="M1204.5,68.7h-144.6v97.7h144.6V68.7z"/>
			<path class="st5" d="M1202,258.1h-77.6v52.2h77.6V258.1z"/>
			<path class="st6" d="M1065.9,118.6c0,0,24.7-3.1,39.8,10.8c15.1,13.9,43.2,1.2,54.5,0c19.7-2.1,35.1,4.3,39.7,11.4V162H1066
				L1065.9,118.6L1065.9,118.6z"/>
			<path class="st7" d="M1086.1,84.4h-1v33.2h1V84.4z"/>
			<path class="st7" d="M1126.7,98.6h-1v33.2h1V98.6z"/>
			<path class="st7" d="M1168.6,91.1h-1v33.2h1V91.1z"/>
			<path class="st7" d="M1097.6,89.5h-7.9c-0.5,0-0.9-0.4-0.9-0.9s0.4-0.9,0.9-0.9h7.9c0.5,0,0.9,0.4,0.9,0.9
				S1098.1,89.5,1097.6,89.5z"/>
			<path class="st7" d="M1097.6,92.6h-7.9c-0.5,0-0.9-0.4-0.9-0.9s0.4-0.9,0.9-0.9h7.9c0.5,0,0.9,0.4,0.9,0.9
				C1098.5,92.2,1098.1,92.6,1097.6,92.6z"/>
			<path class="st7" d="M1137.6,106.4h-7.9c-0.5,0-0.9-0.4-0.9-0.9s0.4-0.9,0.9-0.9h7.9c0.5,0,0.9,0.4,0.9,0.9
				S1138.1,106.4,1137.6,106.4z"/>
			<path class="st7" d="M1137.6,109.4h-7.9c-0.5,0-0.9-0.4-0.9-0.9s0.4-0.9,0.9-0.9h7.9c0.5,0,0.9,0.4,0.9,0.9
				S1138.1,109.4,1137.6,109.4z"/>
			<path class="st7" d="M1180.2,93.9h-7.9c-0.5,0-0.9-0.4-0.9-0.9s0.4-0.9,0.9-0.9h7.9c0.5,0,0.9,0.4,0.9,0.9
				S1180.7,93.9,1180.2,93.9z"/>
			<path class="st7" d="M1180.2,96.9h-7.9c-0.5,0-0.9-0.4-0.9-0.9s0.4-0.9,0.9-0.9h7.9c0.5,0,0.9,0.4,0.9,0.9
				S1180.7,96.9,1180.2,96.9z"/>
			<path class="st5" d="M1204.3,193.7c1.3-7.8-4-15.1-11.8-16.4s-15.1,4-16.4,11.8s4,15.1,11.8,16.4
				C1195.8,206.8,1203.1,201.5,1204.3,193.7z"/>
			<path class="st6" d="M1203.3,191.4c0,7.2-5.9,13.1-13.1,13.1c-3.4,0-6.5-1.3-8.8-3.4l8.8-9.6v-13.1
				C1197.5,178.3,1203.3,184.2,1203.3,191.4z"/>
			<path class="st7" d="M1185.3,189.1h-4.7c-0.2,0-0.4-0.2-0.4-0.4c0-0.2,0.2-0.4,0.4-0.4h4.7c0.2,0,0.4,0.2,0.4,0.4
				S1185.5,189.1,1185.3,189.1z"/>
			<path class="st5" d="M1140.5,191.4c0-7.9,6.4-14.3,14.3-14.3s14.3,6.4,14.3,14.3s-6.4,14.3-14.3,14.3S1140.5,199.3,1140.5,191.4z
				"/>
			<path class="st8" d="M1154.8,191.4l8,10.3c-2.2,1.7-5,2.8-8,2.8c-7.2,0-13.1-5.8-13.1-13.1c0-7.2,5.8-13.1,13.1-13.1
				c6.8,0,12.4,5.2,13,11.9L1154.8,191.4z"/>
			<path class="st7" d="M1164.9,194.6h-3.3c-0.2,0-0.4-0.2-0.4-0.4c0-0.2,0.2-0.4,0.4-0.4h3.3c0.2,0,0.4,0.2,0.4,0.4
				S1165.1,194.6,1164.9,194.6z"/>
			<path class="st5" d="M1176,230.7c0-7.9,6.4-14.3,14.3-14.3s14.3,6.4,14.3,14.3c0,7.9-6.4,14.3-14.3,14.3S1176,238.6,1176,230.7z"
				/>
			<path class="st6" d="M1203.3,230.7c0,7.2-5.9,13.1-13.1,13.1c-3.4,0-6.5-1.3-8.8-3.4l8.8-9.6v-13.1
				C1197.5,217.7,1203.3,223.5,1203.3,230.7z"/>
			<path class="st7" d="M1185.3,228.4h-4.7c-0.2,0-0.4-0.2-0.4-0.4s0.2-0.4,0.4-0.4h4.7c0.2,0,0.4,0.2,0.4,0.4
				C1185.7,228.3,1185.5,228.4,1185.3,228.4z"/>
			<path class="st5" d="M1140.5,230.7c0-7.9,6.4-14.3,14.3-14.3s14.3,6.4,14.3,14.3c0,7.9-6.4,14.3-14.3,14.3
				S1140.5,238.6,1140.5,230.7z"/>
			<path class="st6" d="M1167.8,229.6c-0.6-6.7-6.2-11.9-13-11.9c-7.2,0-13.1,5.8-13.1,13.1c0,7.2,5.8,13.1,13.1,13.1
				c3,0,5.8-1,8-2.8l-8-10.3L1167.8,229.6z"/>
			<path class="st7" d="M1164.9,234h-3.3c-0.2,0-0.4-0.2-0.4-0.4s0.2-0.4,0.4-0.4h3.3c0.2,0,0.4,0.2,0.4,0.4S1165.1,234,1164.9,234z
				"/>
			<path class="st7" d="M1198.7,306.7h-71.2v-42.1h0.9v41.2h70.3L1198.7,306.7L1198.7,306.7z"/>
			<path class="st7" d="M1149.7,291.4c-8.7-6.9-18,0-18,0v11.9h65.2v-30.7C1179.2,273.1,1158.4,298.4,1149.7,291.4z"/>
			<path class="st7" d="M1132.5,267.8h30.4c0.4,0,0.7-0.3,0.7-0.7s-0.3-0.7-0.7-0.7h-30.4c-0.4,0-0.7,0.3-0.7,0.7
				C1131.7,267.4,1132.1,267.8,1132.5,267.8z"/>
			<path class="st7" d="M1132.5,271.4h30.4c0.4,0,0.7-0.3,0.7-0.7s-0.3-0.7-0.7-0.7h-30.4c-0.4,0-0.7,0.3-0.7,0.7
				S1132.1,271.4,1132.5,271.4z"/>
			<path class="st7" d="M1132.3,274.9h20.1c0.3,0,0.6-0.3,0.6-0.6V274c0-0.3-0.3-0.6-0.6-0.6h-20.1c-0.3,0-0.6,0.3-0.6,0.6v0.3
				C1131.7,274.6,1132,274.9,1132.3,274.9z"/>
			<path class="st4" d="M1021,9.4H792.6V354H1021V9.4z"/>
			<path class="st5" d="M998.5,28.7H814.7v205h183.9L998.5,28.7L998.5,28.7z"/>
			<path class="st5" d="M818.6,299.2c0-18.3,14.8-33.1,33.1-33.1s33.1,14.8,33.1,33.1s-14.8,33.1-33.1,33.1
				C833.4,332.3,818.6,317.5,818.6,299.2z"/>
			<path class="st6" d="M879.6,299.2c0-15.4-12.5-28-27.9-28s-27.9,12.5-27.9,28c0,15.4,12.5,28,27.9,28c6.4,0,12.3-2.1,17-5.7
				l-17-22.2l26.1,10C878.9,306.1,879.6,302.7,879.6,299.2z"/>
			<path class="st5" d="M931.2,299.2c0-18.3,14.8-33.1,33.1-33.1s33.1,14.8,33.1,33.1s-14.8,33.1-33.1,33.1
				C946,332.3,931.2,317.5,931.2,299.2z"/>
			<path class="st6" d="M964.3,271.3c-15.4,0-28,12.5-28,28c0,7.6,3.1,14.6,8,19.6l19.9-19.6l26.1,10c1.2-3.1,1.8-6.5,1.8-10
				C992.3,283.8,979.7,271.3,964.3,271.3z"/>
			<path class="st7" d="M960.2,285h-11.9c-0.5,0-0.9,0.4-0.9,0.9s0.4,0.9,0.9,0.9h11.9c0.5,0,0.9-0.4,0.9-0.9
				C961.1,285.4,960.7,285,960.2,285z"/>
			<path class="st7" d="M960.2,287.7h-11.9c-0.5,0-0.9,0.4-0.9,0.9s0.4,0.9,0.9,0.9h11.9c0.5,0,0.9-0.4,0.9-0.9
				C961.1,288.1,960.7,287.7,960.2,287.7z"/>
			<path class="st7" d="M953.2,290.4h-4.9c-0.5,0-0.9,0.4-0.9,0.9s0.4,0.9,0.9,0.9h4.9c0.5,0,0.9-0.4,0.9-0.9
				C954.1,290.8,953.7,290.4,953.2,290.4z"/>
			<path class="st7" d="M847.3,285h-11.9c-0.5,0-0.9,0.4-0.9,0.9s0.4,0.9,0.9,0.9h11.9c0.5,0,0.9-0.4,0.9-0.9S847.8,285,847.3,285z"
				/>
			<path class="st7" d="M847.3,287.7h-11.9c-0.5,0-0.9,0.4-0.9,0.9s0.4,0.9,0.9,0.9h11.9c0.5,0,0.9-0.4,0.9-0.9
				S847.8,287.7,847.3,287.7z"/>
			<path class="st7" d="M840.3,290.4h-4.9c-0.5,0-0.9,0.4-0.9,0.9s0.4,0.9,0.9,0.9h4.9c0.5,0,0.9-0.4,0.9-0.9
				S840.8,290.4,840.3,290.4z"/>
			<path class="st7" d="M850.4,102H831v120.9h19.4V102z"/>
			<path class="st7" d="M882.2,68.2h-19.4v154.6h19.4V68.2z"/>
			<path class="st7" d="M916.9,131.2h-19.4v91.7h19.4V131.2z"/>
			<path class="st7" d="M950.7,88.9h-19.4v134h19.4V88.9z"/>
			<path class="st7" d="M984.6,149.1h-19.4v73.7h19.4V149.1z"/>
			<path class="st7" d="M949.7,71.5h-16.4c-0.9,0-1.7,0.8-1.7,1.7c0,0.9,0.8,1.7,1.7,1.7h16.4c0.9,0,1.7-0.8,1.7-1.7
				C951.4,72.2,950.7,71.5,949.7,71.5z"/>
			<path class="st7" d="M937,77.6h-3.7c-0.9,0-1.7,0.8-1.7,1.7c0,0.9,0.8,1.7,1.7,1.7h3.7c0.9,0,1.7-0.8,1.7-1.7
				C938.8,78.4,938,77.6,937,77.6z"/>
			<path class="st7" d="M882,45.1h-16.4c-0.9,0-1.7,0.8-1.7,1.7c0,0.9,0.8,1.7,1.7,1.7H882c0.9,0,1.7-0.8,1.7-1.7S883,45.1,882,45.1
				z"/>
			<path class="st7" d="M869.3,51.3h-3.7c-0.9,0-1.7,0.8-1.7,1.7c0,0.9,0.8,1.7,1.7,1.7h3.7c0.9,0,1.7-0.8,1.7-1.7
				C871,52.1,870.3,51.3,869.3,51.3z"/>
			<path class="st7" d="M915.4,113.1H899c-0.9,0-1.7,0.8-1.7,1.7c0,0.9,0.8,1.7,1.7,1.7h16.4c0.9,0,1.7-0.8,1.7-1.7
				C917.1,113.9,916.4,113.1,915.4,113.1z"/>
			<path class="st7" d="M902.7,119.3H899c-0.9,0-1.7,0.8-1.7,1.7c0,0.9,0.8,1.7,1.7,1.7h3.7c0.9,0,1.7-0.8,1.7-1.7
				C904.4,120.1,903.7,119.3,902.7,119.3z"/>
			<path class="st7" d="M983.1,131.2h-16.4c-0.9,0-1.7,0.8-1.7,1.7c0,0.9,0.8,1.7,1.7,1.7h16.4c0.9,0,1.7-0.8,1.7-1.7
				C984.8,132,984,131.2,983.1,131.2z"/>
			<path class="st7" d="M970.4,137.4h-3.7c-0.9,0-1.7,0.8-1.7,1.7c0,0.9,0.8,1.7,1.7,1.7h3.7c0.9,0,1.7-0.8,1.7-1.7
				C972.1,138.2,971.3,137.4,970.4,137.4z"/>
			<path class="st3" d="M761.8,140H594.9v94h166.9L761.8,140L761.8,140z"/>
			<path class="st4" d="M767.2,140H600.3v94h166.9L767.2,140L767.2,140z"/>
			<path class="st5" d="M667.3,206.3c11.8-11.8,11.8-30.9,0-42.7c-11.8-11.8-30.9-11.8-42.7,0s-11.8,30.9,0,42.7
				C636.4,218,655.5,218,667.3,206.3z"/>
			<path class="st5" d="M748.4,168h-50c-1.8,0-3.3,1.5-3.3,3.3s1.5,3.3,3.3,3.3h50c1.8,0,3.3-1.5,3.3-3.3S750.3,168,748.4,168z"/>
			<path class="st5" d="M748.4,181.6h-50c-1.8,0-3.3,1.5-3.3,3.3s1.5,3.3,3.3,3.3h50c1.8,0,3.3-1.5,3.3-3.3S750.3,181.6,748.4,181.6
				z"/>
			<path class="st5" d="M748.4,195.2h-50c-1.8,0-3.3,1.5-3.3,3.3s1.5,3.3,3.3,3.3h50c1.8,0,3.3-1.5,3.3-3.3S750.3,195.2,748.4,195.2
				z"/>
			<path class="st9" d="M618.3,184.5h27.6v-27.6C630.7,156.8,618.3,169.2,618.3,184.5z"/>
			<path class="st9" d="M673.6,185.3H646h-27.6c0,15.3,12.4,27.6,27.6,27.6C661.2,213,673.6,200.6,673.6,185.3z"/>
			<path class="st10" d="M641.2,170.2h-15c-0.9,0-1.5,0.7-1.5,1.5s0.7,1.5,1.5,1.5h15c0.9,0,1.5-0.7,1.5-1.5S642,170.2,641.2,170.2z
				"/>
			<path class="st10" d="M629.6,175.9h-3.4c-0.9,0-1.5,0.7-1.5,1.5s0.7,1.5,1.5,1.5h3.4c0.9,0,1.5-0.7,1.5-1.5
				S630.4,175.9,629.6,175.9z"/>
			<path class="st7" d="M663.4,192.1h-15c-0.9,0-1.5,0.7-1.5,1.5c0,0.9,0.7,1.5,1.5,1.5h15c0.9,0,1.5-0.7,1.5-1.5
				C665,192.8,664.3,192.1,663.4,192.1z"/>
			<path class="st7" d="M651.9,197.8h-3.4c-0.9,0-1.5,0.7-1.5,1.5c0,0.9,0.7,1.6,1.5,1.6h3.4c0.9,0,1.5-0.7,1.5-1.6
				C653.4,198.5,652.7,197.8,651.9,197.8z"/>
			<path class="st3" d="M583.1,250.9V347H750v-96.1H583.1z"/>
			<path class="st4" d="M588.5,250.9V347h166.9v-96.1H588.5z"/>
			<path class="st5" d="M661.2,309.3c7.4-14.9,1.3-33.1-13.7-40.4c-14.9-7.4-33-1.3-40.4,13.7c-7.4,14.9-1.3,33.1,13.7,40.4
				C635.7,330.4,653.8,324.3,661.2,309.3z"/>
			<path class="st5" d="M686.7,285.7h50c1.8,0,3.3-1.5,3.3-3.3s-1.5-3.3-3.3-3.3h-50c-1.8,0-3.3,1.5-3.3,3.3
				S684.9,285.7,686.7,285.7z"/>
			<path class="st5" d="M736.7,292.7h-50c-1.8,0-3.3,1.5-3.3,3.3s1.5,3.3,3.3,3.3h50c1.8,0,3.3-1.5,3.3-3.3S738.5,292.7,736.7,292.7
				z"/>
			<path class="st5" d="M736.7,306.2h-50c-1.8,0-3.3,1.5-3.3,3.3s1.5,3.3,3.3,3.3h50c1.8,0,3.3-1.5,3.3-3.3S738.5,306.2,736.7,306.2
				z"/>
			<path class="st9" d="M634.2,296.5l-27.6-0.4c0,0.1,0,0.2,0,0.4c0,15.3,12.4,27.6,27.6,27.6c5.5,0,10.5-1.6,14.8-4.3L634.2,296.5z
				"/>
			<path class="st7" d="M635.2,305.2h-15c-0.9,0-1.5,0.7-1.5,1.5c0,0.9,0.7,1.5,1.5,1.5h15c0.9,0,1.5-0.7,1.5-1.5
				C636.8,305.9,636.1,305.2,635.2,305.2z"/>
			<path class="st7" d="M623.6,310.8h-3.4c-0.9,0-1.5,0.7-1.5,1.5c0,0.9,0.7,1.5,1.5,1.5h3.4c0.9,0,1.5-0.7,1.5-1.5
				C625.2,311.5,624.5,310.8,623.6,310.8z"/>
			<path class="st3" d="M750,37.5H583.1v87.1H750V37.5z"/>
			<path class="st4" d="M755.5,37.5h-167v87.1h166.9L755.5,37.5L755.5,37.5z"/>
			<path class="st5" d="M643.4,111.1c15.9-5.1,24.6-22.1,19.5-38S640.8,48.5,625,53.6c-15.9,5.1-24.6,22.1-19.5,38
				C610.5,107.4,627.5,116.2,643.4,111.1z"/>
			<path class="st9" d="M634.2,54.7c-15.3,0-27.6,12.4-27.6,27.6c0,10.5,5.8,19.6,14.4,24.3c4.4-8.2,13.3-24.3,13.3-24.3l13.1,24.4
				c8.7-4.7,14.5-13.8,14.5-24.4C661.8,67.1,649.5,54.7,634.2,54.7z"/>
			<path class="st5" d="M736.7,65.5h-50c-1.8,0-3.3,1.5-3.3,3.3s1.5,3.3,3.3,3.3h50c1.8,0,3.3-1.5,3.3-3.3
				C740,66.9,738.5,65.5,736.7,65.5z"/>
			<path class="st5" d="M736.7,79h-50c-1.8,0-3.3,1.5-3.3,3.3s1.5,3.3,3.3,3.3h50c1.8,0,3.3-1.5,3.3-3.3S738.5,79,736.7,79z"/>
			<path class="st5" d="M736.7,92.6h-50c-1.8,0-3.3,1.5-3.3,3.3s1.5,3.3,3.3,3.3h50c1.8,0,3.3-1.5,3.3-3.3S738.5,92.6,736.7,92.6z"
				/>
			<path class="st10" d="M635.2,69.1h-15c-0.9,0-1.5,0.7-1.5,1.5c0,0.9,0.7,1.5,1.5,1.5h15c0.9,0,1.5-0.7,1.5-1.5
				C636.8,69.8,636.1,69.1,635.2,69.1z"/>
			<path class="st10" d="M623.6,74.8h-3.4c-0.9,0-1.5,0.7-1.5,1.5c0,0.9,0.7,1.5,1.5,1.5h3.4c0.9,0,1.5-0.7,1.5-1.5
				C625.2,75.5,624.5,74.8,623.6,74.8z"/>
			<path class="st11" d="M794.2,188c0,0,19.5,20.1,20.4,27.7s-9.3,19.4-9.3,19.4L794.2,188z"/>
			<path class="st12" d="M785.8,396.6c0,0-0.7,10.7-2.7,10.8c-0.3,0-10.5,0-10.5,0l-13-0.1c0,0,0.1-3.1,3.9-3.8
				c3.8-0.7,10.2-3.3,12.5-8.4C778.4,389.9,785.8,396.6,785.8,396.6z"/>
			<path class="st12" d="M814.9,396.6c0,0-0.7,10.7-2.7,10.8c-0.3,0-10.5,0-10.5,0h-13.1c0,0,0.1-3.2,3.9-3.8
				c3.8-0.7,10.2-3.3,12.5-8.4C807.4,389.9,814.9,396.6,814.9,396.6z"/>
			<path class="st12" d="M771.4,281.9c0,0,3.4,21.8,16.1,60.5c12.7,38.7,14.5,55.5,14.5,55.5s3.4,0.5,7.1,0.5c2.3,0,6.6-0.9,6.6-0.9
				s0.1-42.3-5.7-61.8c-5.9-19.5-1.3-70.2-1.3-70.2L771.4,281.9z"/>
			<path class="st13" d="M764.8,266.8c0,0-0.5,32.9,5.2,73.2c5.7,40.4,3.8,57.5,3.8,57.5s4.7,0.8,6.3,0.9c1.8,0.1,7.3-0.4,7.3-0.4
				s8.1-40.4,5.8-60.6c-2.3-20.2,11.1-69.3,11.1-69.3L764.8,266.8z"/>
			<path class="st14" d="M791.1,189.9l-6.4,4.8l-9.3-2c0.1-0.8,0.7-4.4,1.3-7.5c0-0.2,0.1-0.4,0.1-0.6c0.5-2.7,0.9-5,0.9-5l8.7-4.3
				l3.2-1.6c0,0.1-0.3,3-0.3,3.4C788.7,184.7,791.1,189.9,791.1,189.9z"/>
			<path class="st11" d="M776.1,187.5c0.2-0.1,12.6-3.8,14-3.3c1.4,0.4,2.2,3.1,2.2,3.1l-20.3,4.6
				C771.9,191.8,773.5,188.5,776.1,187.5z"/>
			<path class="st6" d="M809.5,270.8c-2.1,9.6-37.1,10.7-46.2,2c-1-1-1.1-5.6-0.7-11.9c0.8-12.2,3.2-30.5,3.3-39.9
				c0-4.5,0.7-9.1,1.5-13.3c1.8-9,4.4-16,4.4-16s17.1-5.5,20.3-4.6C807.6,191.7,811.6,261.2,809.5,270.8z"/>
			<path class="st11" d="M762.7,261c0.8-12.2,3.2-30.5,3.3-39.9c0-4.5,0.7-9.1,1.5-13.3l10.3-1.8C777.7,206,787.8,247.1,762.7,261z"
				/>
			<path class="st14" d="M768.2,244c0,0,0.7,1.7-0.8,2.8s-2.4,3-2.1,4.3c0.3,1.3,3.6,3.5,4.7,3.2c1.1-0.4,3.4-2.1,3.2-2.8
				s1.5-6.2-1.2-8.3C769.3,241.1,768.2,244,768.2,244z"/>
			<path class="st6" d="M779.7,189.3c0,0-10,1.9-18,13.7s-13.3,20.6-11.8,24.8c1.5,4.3,14.9,19,17.2,19s6-1.7,6.3-5.5
				c0,0-9.5-14.2-7.6-16.3c0.8-0.9,12.3-10.2,13.9-6C782.4,226,779.7,189.3,779.7,189.3z"/>
			<path class="st15" d="M788.7,177.2c-1.9,3.6-9,6.8-11.9,8c0-0.2,0.1-0.4,0.1-0.6c0.5-2.7,0.9-5,0.9-5l8.7-4.3
				C788.3,175.2,789.5,175.7,788.7,177.2z"/>
			<path class="st14" d="M774.9,179.7c0,0,12.8,4,15.2-4s5.6-12.9-2.5-15.8s-10.6-0.3-12,2.2S771.6,178.5,774.9,179.7z"/>
			<path class="st12" d="M776.1,161.3c0,0,0.8,9.3,2.8,8.9c1.9-0.4,3.7-0.7,3.4,2.1c-0.3,2.8-3,6.1,3,6.6s14.5-14.9,12.9-17.8
				C793.4,152.7,769.3,151,776.1,161.3z"/>
			<path class="st14" d="M545.1,378.5L549,395h5.8l0.2-16.4L545.1,378.5L545.1,378.5z"/>
			<path class="st14" d="M594.3,379.2l11.1,15.8l4.3-5.6L603,377L594.3,379.2z"/>
			<path class="st12" d="M565.4,162.2c-2-1.2-4.4-1.3-6.1-1.2c0.4-0.5,1.3-0.6,1.3-0.6c-1-0.2-3.4,0.9-3.4,0.9
				c-14.6-5.6-16.9,15.9-16.6,20.9s-4.9,6.6-12.5,10.6c-14.5,7.5-15.8,17.6-15.8,17.6c0.1,0.1,0.2,0.1,0.4,0.2
				c0.7-1.2,2.2-3.5,3.4-3.9c0,0.1-1.5,3.2-2,4.9c4.3,3.3,12.3,10.5,17.9,15.6c0-1,0-2.4,0.4-3.2l0.7,4.2c3,2.7,5,4.7,5,4.7
				c-0.4-4,18.3-25.4,28-31.7c2.4-3.5,3.2-9.6,3.3-10.1c-0.4,4.9-1.2,7.6-2,9.2C575.6,192.6,570.8,165.3,565.4,162.2z"/>
			<path class="st14" d="M565.5,201.4c0,0-4.7,2.5-8.3,1.5c-3.4-0.9-5.5-5.3-5.5-5.3c1.4-0.3,1.8-2.2,1.8-10.6l0.6,0.1l10.8,2.1
				c0,0-0.2,3.4-0.3,6.6C564.7,198.6,564.9,201.1,565.5,201.4z"/>
			<path class="st8" d="M553.3,165.7c0,0,5.3-5.7,12-0.3C565.3,165.4,561.4,164.8,553.3,165.7z"/>
			<path class="st16" d="M565,189.3c0,0-0.2,3.4-0.3,6.6c-6-0.2-9.2-5.7-10.5-8.7L565,189.3z"/>
			<path class="st12" d="M553.1,186c0,0-3.2-5-3.9-9.3c-0.5-3.1,1-14.4,12.4-12.8c0,0,3.3,0.3,6.4,2.4c2.5,1.7,6,5.3,2,15.2l-1,3.3
				L553.1,186z"/>
			<path class="st6" d="M608,385.1l-5.7,0.2l-6.2,0.2c0,0-14.3-15.9-22.3-41.5c-0.2-0.6-0.4-1.2-0.6-1.8
				c-4.4-12.8-13.5-28.9-18.3-43.5c-0.8-2.3-1.4-4.5-2.1-6.6c-0.2-0.7-0.4-1.3-0.6-2c-3.5-12.3-4.6-20.4-5.5-29l34.7,0.3
				C581.4,261.4,587,320.3,608,385.1z"/>
			<path class="st17" d="M576.5,241.5c-0.1,16.5,2.4,23.6,2.4,23.6s-14.8,7.5-32.5,2c-0.2-0.1-14.6-3.4-14.6-3.4
				c0.3-0.7,2.9-11.8,3.2-12.4c3.7-8,6.5-11.5,7-14c0.8-4.6,0.8-9.3,0.4-13.8c-1.1-11.9-4.3-21.7-4.3-21.7c4.8-1.1,9.4-3,14.4-4.8
				c1.1,1.4,4.5,2.9,7.6,2.8c3.5-0.1,4.6-1.6,4.5-3.2c3.7,2.1,6.7,4.1,6.7,4.1c3.2,5.5,9.6,10.9,10.1,19.4
				C581.7,222.1,576.5,241.1,576.5,241.5z"/>
			<path class="st11" d="M546.7,243.4c-1.5,2.1-4.4,15.2-11.6,16.8c3.7-9.3,6.5-13.4,7-16.2c0.8-5.3,0.8-10.9,0.4-16.1
				c2.4-4.2,4.2-7.1,4.2-7.1c0.2-0.7,3.8-12,5-1.9C552.9,229,548.4,241,546.7,243.4z"/>
			<path class="st14" d="M567,192.3c0,0-14.3,0.2-14.3-8.7c0-8.9-1.9-14.9,7.3-15.4c9.1-0.5,10.9,2.9,11.6,5.8
				C572.3,177.1,570.7,192,567,192.3z"/>
			<path class="st12" d="M571.2,169.1c-2.2-2.7-3.9-2.1-4.8-1.3c-3.1-4.6-12.8,2.1-12.8,2.1c-1,6.4-5.6,10.1-5.6,10.1
				s2.6,1.6,8.6,0.1c4.7-1.2,8.2-7.9,9.4-10.8c0.9,0.8,2.6,2.5,3.2,4.2c0.7,2.3,1,6.9,2.4,6.8C571.5,180.3,574.5,173.1,571.2,169.1z
				"/>
			<path class="st14" d="M548.8,394c0,0,0.5,3.3-0.7,6.7c0,0-1,4.4,3.3,4.5s5.4-0.3,4.9-3s-1.4-7.3-1.4-7.3L548.8,394z"/>
			<path class="st18" d="M556.7,407.4L556.7,407.4h-8.9l0,0c-0.5-2.3,0.3-6.6,0.3-6.6c4.9,4.7,7.9-0.1,7.9-0.1
				C556.8,402.7,556.7,407.4,556.7,407.4z"/>
			<path class="st14" d="M620.1,402.9c0,0-7.9-9-10.4-13.5l-5.9,3l13.2,12.4l3.1-0.4L620.1,402.9L620.1,402.9z"/>
			<path class="st18" d="M625,407.4h-11c-1-0.9-1.9-2.6-3-4.9c-0.6-1.3-2.1-2-3.6-2.4v7.4h-2.3l-2.1-7.9c-1.4-2.6-0.4-5,0.6-7.1
				c1.1,0,4.5,0.8,10.3,7.6c1.9,2.2,4,3,6.2,2.9h0.1C623.6,404.4,624.6,406.3,625,407.4z"/>
			<path class="st8" d="M624.5,207.1c0,0-9.4,5.2-12.7,6.8c-1.2,0.5-3.4,1.5-5.6,2.6c-1.3,0.6-2.7,1.3-3.8,1.8
				c-2,0.9-4.3,0.4-5.7-1.2c-5.1-5.9-18.2-18.8-31.8-20.4l0,0l0,0l0,0l0.1,0.1c0.8,1.9,8.2,20.5,8.4,24.4c0.2,4.1,1,67.7,1,67.7
				s-0.5,2.9,5.1,1.7s7-2.4,7-2.4s-5.4-39.2-3.9-52.8c0.3-2.7,0-5.7-0.6-8.8c8.3,5,18,7.2,18,7.2s3.6-1.6,9.3-5.1
				c2.4-1.5,5.1-3.8,7.8-6.3c3.3-3,8.9-10.3,8.9-10.3L624.5,207.1z"/>
			<path class="st11" d="M602.3,385.2l-6.2,0.2c0,0-14.3-15.9-22.3-41.5c-0.2-0.6-0.4-1.2-0.6-1.8c-4.4-12.8-13.5-28.9-18.3-43.5
				c-0.8-2.3-1.4-4.5-2.1-6.6c-0.2-0.7-0.4-1.3-0.6-2l5.1-3.9c0,0,15.3,24.8,20.1,48.2C581.5,354.8,598,379.2,602.3,385.2z"/>
			<path class="st6" d="M557.9,336.6c0.1,11.4-0.5,37.5-2,48.3h-5.5c-3,0-4.5,0-4.5,0c-3.7-18.8-6.3-34.4-8.3-47.8
				c-1.6-11-3-20.4-4.1-28.5c-1.1-8.2-1.8-15-2.1-20.8c0-0.9-0.1-1.8-0.1-2.7s0-1.7,0-2.5l29.9-2.9
				C560.9,299.6,557.8,330,557.9,336.6z"/>
			<path class="st11" d="M550.4,384.9c-3,0-4.5,0-4.5,0c-3.7-18.8-6.3-34.4-8.3-47.8c-1.6-11-3-20.4-4.1-28.5
				c-1.1-8.2-1.8-15-2.1-20.8l11,6.5c0,0-7,2.5-4.3,21.2C540.8,334.2,546.7,382.3,550.4,384.9z"/>
			<path class="st8" d="M551.8,287.6c0,0-2.1,7.6-9.4,6.7c-7.3-1-17.7-5.4-17.7-5.4s3.1-9.9,7-22.8c4.7-15.7,10.5-35.9,13.2-48.6
				c0.8-3.6,1.3-6.6,1.5-8.7l6.2-11.8c0,0,8.9,20.3,9.4,25.4C562.5,227.5,551.8,287.6,551.8,287.6z"/>
			<path class="st14" d="M577.9,228.1c-3.5,0.5-4.9,2.3-5.3,4.8c-0.2,1.4-0.9,2.7-1.5,3.7c-3.5,0.2-11.8,0.6-18.8,1.1l-0.6,9.2
				c5.8-0.7,12.8-2.2,20.9-5c0.6-0.1,1.4-0.5,2.4-1.3c5-4.1,7.9-11,7.9-12C582.9,227.6,581.4,227.6,577.9,228.1z"/>
			<path class="st18" d="M551.5,233.1c-0.3,8.3-2.3,24.3-19.6,32.9c0,0-0.1,0-0.1,0.1c4.7-15.7,10.5-35.9,13.2-48.6
				C548.2,222.2,551.7,228.5,551.5,233.1z"/>
			<path class="st8" d="M552.7,197c0,0-14.8,1.1-18.4,9c-3.6,8-4.7,34.4-0.2,42.2c0,0,6.3,1.8,17.3-0.3c0.1,0,0.3-0.1,0.4-0.1
				c0,0,3.5-8.6,0.4-10.3c0,0-9.3,0.5-8.3-2.6C544.8,231.8,552.7,197,552.7,197z"/>
			<path class="st14" d="M634.5,200.9c-8-1-10,6.2-10,6.2l1.5,5c2.5,0.3,4.6-0.3,6.6-3.1c2-2.8,2.5-1.8,3.8-3.9
				C638.1,202.2,635.4,201.2,634.5,200.9z"/>
			<path class="st14" d="M611.7,213.9c-1.2,0.5-3.4,1.5-5.6,2.6c1.2,2.1,2.7,5.9,3,12.2c2.4-1.5,5.4-3.9,8.1-6.5
				c4.2-4.1,8.7-10.1,8.7-10.1l-1.5-5C624.5,207.1,615.1,212.4,611.7,213.9z"/>
			<path class="st14" d="M1035.3,271.7c0,0-5.7,1.5-9.3,0.4c-3.6-1.1-9.8,0.7-10.8,2s-0.6,1.8,1.2,2.3s8.1,3.2,12.3,1.6
				c4.2-1.6,9.6-1.6,9.6-1.6L1035.3,271.7z"/>
			<path class="st13" d="M1084.4,222.4c0,0-6.4,45.4-16.9,49.4c-5.2,2-28.2,6.5-35.1,7c0,0-1.7-1.4-1.3-6.9c0,0,24.1-8.9,27.6-13.7
				c5.1-7.2-3.2-29.3,3.2-36C1068.3,215.5,1079.1,212.6,1084.4,222.4z"/>
			<path class="st9" d="M1083.6,397.2v-9.9h15.6c0.4,0,0.8-0.3,0.8-0.8v-1.6c0-0.4-0.3-0.8-0.8-0.8h-15.6v-56.3
				c0-1.6-1.3-2.9-2.9-2.9h-3.1c-1.6,0-2.9,1.3-2.9,2.9v56.3h-15.6c-0.4,0-0.8,0.3-0.8,0.8v1.6c0,0.4,0.3,0.8,0.8,0.8h15.6v9.9
				c-11.3,0.9-20.3,4.9-22.8,10.2h54.4C1103.8,402.1,1094.8,398,1083.6,397.2z"/>
			<path class="st12" d="M1082.2,318c-1.9,3.2-4,6.1-6.2,8.9c-6.8,8.7-14.3,15.8-15.6,22.5c-0.3,1.3-0.7,2.8-1.2,4.3s-1.2,3.2-2,4.8
				c-2.9,6.3-7.3,13.4-11.6,19.8c-7.5,11.1-14.6,20.4-14.6,20.4l-13-0.6c0.5-1.3,6.2-16.7,13.7-35.4c3.1-7.6,6.3-15.7,9.5-23.6
				c0.4-1,0.8-2.1,1.3-3.1c1-2.4,1.9-4.7,2.8-7c7.1-17.6,12.8-31.7,12.8-31.7s28.3-10.7,31.3-3.8
				C1091.8,299.4,1089.8,305,1082.2,318z"/>
			<path class="st12" d="M1030.6,396.5c0,0-0.7,10.7-2.7,10.8c-0.3,0-10.5,0-10.5,0l-13-0.1c0,0,0.1-3.1,3.9-3.8
				c3.8-0.7,10.2-3.3,12.5-8.4C1023.2,389.8,1030.6,396.5,1030.6,396.5z"/>
			<path class="st12" d="M1060.6,366c0,0,9,5.8,8.1,7.7c-0.1,0.3-5.1,9.2-5.1,9.2l-6.4,11.3c0,0-2.7-1.6-1.4-5.3
				c1.3-3.7,2-10.5-1.2-15C1051.1,369.2,1060.6,366,1060.6,366z"/>
			<path class="st13" d="M1048.4,292.4c0,0-35.6,22.2-39.5,37.1c-4,14.9,47.3,46.7,47.3,46.7s5.6-5,6.6-8.6c0,0-23.2-27.8-28.2-34
				c-3.1-3.8,45.7-13.2,51.7-22.5s3.8-17.1,3.8-17.1L1048.4,292.4z"/>
			<path class="st6" d="M1115.6,320.8h-72.8c-1.5,0-2.7,1.2-2.7,2.7v14.6c0,1.5,1.2,2.7,2.7,2.7h72.8c1.5,0,2.6-1.2,2.6-2.7v-14.6
				C1118.2,322,1117,320.8,1115.6,320.8z"/>
			<path class="st14" d="M1064.8,214.6c-3.5,2.2-5.4,4.9-5.4,4.9c8.5,2.2,22.7-5.7,22.7-5.7s-5.5-3.7-7.5-11.8
				c-0.1-0.4-0.2-0.8-0.3-1.3c-0.3-1.4-0.4-2.8-0.5-4.4l-3.9,3.5l-6.5,5.8c0,0,0.2,2.4,1,6.6C1064.5,213,1064.7,213.8,1064.8,214.6z
				"/>
			<path class="st9" d="M1091.1,254.9c-1.2,16.4,0.8,41.4-0.6,45.7c-1.2,3.7-15.3,1.5-20.7,0.3c-2-0.5-4.5-1.1-7-1.9
				c-7-2.2-14.7-5.3-15.5-7.6c0-0.1-0.1-0.2-0.1-0.3c-0.1-0.3-0.1-0.6,0-1c0.3-1.2,1.3-2.4,1.5-5.4c0.1-3.3,0.1-7.1,0.2-11.2
				c0-0.5,0-1,0.1-1.4v-0.2c0-0.1,0-0.2,0-0.3c0.1-4.6,0.4-9.4,0.6-14.2c0.2-3,0.4-6,0.6-8.8c0.6-7.4,1.4-13.9,2.5-18
				c1.8-6.7,5.7-11.1,9.3-14.4l2.6-2.2c2.9,0.6,6.3,0.2,9.4-1.3c3.3-1.6,4.5-2.7,5.1-2.3C1086.9,216.5,1092.5,234.8,1091.1,254.9z"
				/>
			<path class="st13" d="M1062.9,299c-7-2.2-14.7-5.3-15.5-7.6c0-0.1-0.1-0.2-0.1-0.3c0-0.3,0-0.6,0-1c0.3-1.2,1.3-2.4,1.5-5.4
				c0.2-3.3,0.1-7.1,0.3-11.2c0-0.5,0-1,0.1-1.4v-0.2c0-0.1,0-0.2,0-0.3l26.5-12C1075.6,259.8,1077.2,281.1,1062.9,299z"/>
			<path class="st16" d="M1063.4,205.7c0,0,0.2,2.4,1,6.6c6.4-2.1,9.3-7.8,10.2-10.2c0.3-0.7,0.4-1.1,0.4-1.1s-0.3-0.1-0.7-0.1
				c-0.9-0.2-2.6-0.5-4.4-0.9L1063.4,205.7z"/>
			<path class="st14" d="M1060.8,205.6c0,0,14,1.6,14.8-7.1s3.2-14.4-5.7-15.8s-10.9,1.8-11.9,4.6
				C1057.1,190.2,1057.2,205,1060.8,205.6z"/>
			<path class="st9" d="M1075.6,199.1c0,0-0.9-11.6-13.6-12.8c-8.7-0.8-3.9-8.3-2.9-9.5c0,0,6.7,0.9,13.5,2
				C1086.9,181.2,1077,197.3,1075.6,199.1z"/>
			<path class="st19" d="M997.5,251.1l-1.2,0.4l10.4,32l1.2-0.4L997.5,251.1z"/>
			<path class="st19" d="M1042.1,280.6l-35.3,0.8l0.1,2.1l35.3-0.8L1042.1,280.6z"/>
			<path class="st14" d="M1038.2,278.7c0,0-5.5,2.1-9.2,1.4c-3.7-0.7-9.7,1.8-10.5,3.2s-0.4,1.9,1.4,2.1c1.8,0.3,8.4,2.2,12.4,0.2
				s9.3-2.7,9.3-2.7L1038.2,278.7z"/>
			<path class="st9" d="M1081.6,224.3c0,0-1.4,45.8-11.4,51c-5,2.6-27.3,9.6-34.1,10.8c0,0-1.8-1.2-2-6.7c0,0,23-11.5,25.9-16.6
				c4.3-7.7-6.4-28.8-0.8-36.2C1064.8,219.2,1075.2,215.1,1081.6,224.3z"/>
			<path class="st20" d="M1236.1,408.8H519.9c-0.4,0-0.7-0.3-0.7-0.7s0.3-0.7,0.7-0.7h716.3c0.4,0,0.7,0.3,0.7,0.7
				C1236.8,408.5,1236.5,408.8,1236.1,408.8z"/>
		</g>
	</g>
</g>
<path class="st1" d="M34.3,207.1c-4.8,0-9-1-12.5-2.9s-6.3-4.9-8.2-8.8c-1.9-4-2.9-8.9-2.9-14.9s1-10.9,2.9-14.9s4.7-6.9,8.2-8.8
	s7.7-2.9,12.5-2.9s9,1,12.5,2.9s6.3,4.9,8.2,8.8c1.9,4,2.9,8.9,2.9,14.9s-1,10.9-2.9,14.9s-4.7,6.9-8.2,8.8S39.1,207.1,34.3,207.1z
	 M34.3,196.6c3.4,0,6-1.2,7.8-3.7s2.7-6.5,2.7-12.1c0-5.8-0.9-10-2.7-12.5s-4.3-3.8-7.8-3.8s-6,1.2-7.8,3.7s-2.7,6.5-2.7,12.1
	c0,5.8,0.9,10,2.6,12.6C28.2,195.3,30.8,196.6,34.3,196.6z M85.3,207.1c-4.9,0-8.9-0.8-12.1-2.3c-3.1-1.6-5.5-4-7-7.2
	s-2.3-7.4-2.3-12.5v-30.4h12.8v31.7c0,3.6,0.7,6.1,2.1,7.7s3.6,2.4,6.5,2.4s5-0.8,6.4-2.4s2.1-4.2,2.1-7.7v-31.7h12.6v30.4
	c0,5.1-0.8,9.3-2.3,12.5s-3.8,5.6-6.9,7.2C94,206.3,90.1,207.1,85.3,207.1z M125.2,206.4v-40.8h-15v-11H153v11h-15v40.8H125.2z
	 M169.5,207.1c-2.4,0-4.8-0.2-7.2-0.6c-2.5-0.4-4.7-0.9-6.7-1.6v-10.5c2.1,0.7,4.3,1.2,6.8,1.6c2.4,0.4,4.8,0.6,7,0.6
	c2.9,0,4.9-0.4,6.2-1.2c1.3-0.8,1.9-2,1.9-3.6c0-0.8-0.2-1.6-0.6-2.1c-0.4-0.6-1-1.1-2-1.6c-0.9-0.5-2.2-1-3.9-1.5l-4.1-1.2
	c-4.1-1.2-7.3-3-9.5-5.5s-3.3-5.7-3.3-9.6c0-3.4,0.8-6.3,2.4-8.8c1.6-2.4,4-4.3,7.2-5.6c3.2-1.3,7.2-2,11.9-2c2.2,0,4.3,0.1,6.4,0.4
	c2.1,0.3,3.9,0.6,5.5,1v10.5c-1.5-0.5-3.2-0.8-5.1-1.1c-1.9-0.3-3.8-0.4-5.7-0.4c-3.5,0-6,0.4-7.5,1.3s-2.2,2.1-2.2,3.6
	c0,0.8,0.2,1.5,0.5,2s0.9,1,1.7,1.5c0.8,0.4,1.9,0.9,3.4,1.3l4.1,1.2c4.6,1.3,8,3.2,10.2,5.6c2.3,2.5,3.4,5.7,3.4,9.7
	c0,3.4-0.8,6.3-2.4,8.8c-1.6,2.5-4,4.3-7.1,5.7C177.6,206.4,173.9,207.1,169.5,207.1z M217.6,207.1c-4.8,0-9-1-12.5-2.9
	s-6.3-4.9-8.2-8.8s-2.9-8.9-2.9-14.9s1-10.9,2.9-14.9s4.7-6.9,8.2-8.8s7.7-2.9,12.5-2.9s9,1,12.5,2.9s6.3,4.9,8.2,8.8
	s2.9,8.9,2.9,14.9s-1,10.9-2.9,14.9s-4.7,6.9-8.2,8.8C226.5,206.1,222.4,207.1,217.6,207.1z M217.6,196.6c3.4,0,6-1.2,7.8-3.7
	s2.7-6.5,2.7-12.1c0-5.8-0.9-10-2.7-12.5s-4.3-3.8-7.8-3.8c-3.4,0-6,1.2-7.8,3.7s-2.7,6.5-2.7,12.1c0,5.8,0.9,10,2.6,12.6
	C211.5,195.3,214.1,196.6,217.6,196.6z M268.5,207.1c-4.9,0-8.9-0.8-12.1-2.3c-3.1-1.6-5.5-4-7-7.2s-2.3-7.4-2.3-12.5v-30.4h12.8
	v31.7c0,3.6,0.7,6.1,2.1,7.7s3.6,2.4,6.5,2.4s5-0.8,6.4-2.4s2.1-4.2,2.1-7.7v-31.7h12.6v30.4c0,5.1-0.8,9.3-2.3,12.5
	s-3.8,5.6-6.9,7.2C277.3,206.3,273.4,207.1,268.5,207.1z M325.7,206.4L314,188.2c-0.7,0-1.7,0-2.8-0.1c-0.7,0-1.2-0.1-1.6-0.1v18.4
	H297v-50.7c5.3-1.2,10.7-1.8,16-1.8c7.5,0,13.1,1.4,16.8,4.2c3.7,2.8,5.6,7.1,5.6,12.9c0,3.6-0.8,6.6-2.5,9.1
	c-1.6,2.5-3.9,4.5-6.9,5.8l13.4,20.4h-13.7V206.4z M309.6,178.2c1.7,0.2,3.2,0.3,4.7,0.3c3.1,0,5.3-0.6,6.8-1.7
	c1.5-1.2,2.2-3.1,2.2-5.7s-0.7-4.5-2.2-5.7c-1.4-1.2-3.6-1.8-6.5-1.8c-1.7,0-3.4,0.1-5,0.4V178.2z M366,207.1
	c-8.6,0-15.1-2.1-19.5-6.4c-4.5-4.3-6.7-11-6.7-20.1c0-8.9,2.3-15.5,6.9-20s11.3-6.7,19.9-6.7c3.7,0,7.1,0.4,10.4,1.2v10.6
	c-3.3-0.7-6.4-1-9.3-1c-3.3,0-6.1,0.5-8.2,1.6s-3.7,2.7-4.8,5.1c-1,2.3-1.6,5.4-1.6,9.2c0,3.9,0.5,7,1.5,9.4c1.1,2.3,2.6,4,4.7,5
	s4.8,1.5,8.2,1.5c2.8,0,5.9-0.5,9.5-1.6v10.5c-1.5,0.5-3.2,0.9-5.2,1.2C369.9,206.9,368,207.1,366,207.1z M382.3,206.4v-51.8h12.8
	v51.8H382.3z M434.4,154.6h12v51.8h-12.8L414.8,175v31.4h-12v-51.8h12.8l18.8,31.4V154.6z M494,181.2v24.7
	c-4.5,0.7-8.7,1.1-12.6,1.1c-9.7,0-16.9-2.2-21.7-6.5c-4.8-4.3-7.2-11-7.2-20c0-8.9,2.5-15.5,7.4-20s12.1-6.7,21.5-6.7
	c4,0,7.8,0.4,11.2,1.3v10.6c-3.6-0.8-6.9-1.2-9.9-1.2c-4,0-7.2,0.5-9.6,1.6c-2.4,1-4.2,2.8-5.4,5.1c-1.2,2.4-1.8,5.5-1.8,9.4
	c0,5.5,1.2,9.5,3.5,12c2.4,2.5,5.9,3.7,10.7,3.7c0.9,0,1.5,0,1.9,0v-15.2h12V181.2z"/>
<path class="st21" d="M78.2,289.3c-11,0-19.4-2.7-25.1-8.2s-8.6-14.1-8.6-25.8c0-11.4,3-20,8.9-25.7c6-5.8,14.5-8.6,25.7-8.6
	c4.7,0,9.2,0.5,13.3,1.5v13.6c-4.2-0.9-8.2-1.3-11.9-1.3c-4.3,0-7.8,0.7-10.5,2c-2.7,1.4-4.8,3.5-6.2,6.5c-1.4,3-2,7-2,11.9
	c0,5,0.7,9.1,2,12.1s3.4,5.1,6,6.4c2.7,1.3,6.2,1.9,10.5,1.9c3.6,0,7.6-0.7,12.2-2.1v13.7c-1.9,0.7-4.1,1.2-6.7,1.6
	C83.2,289.1,80.7,289.3,78.2,289.3z M126.3,289.3c-6.2,0-11.6-1.2-16.1-3.7s-8-6.2-10.5-11.3S96,262.8,96,255.1s1.2-14.1,3.7-19.2
	c2.5-5.1,6-8.9,10.5-11.3c4.6-2.5,9.9-3.7,16.1-3.7s11.5,1.2,16.1,3.7s8,6.2,10.5,11.3s3.7,11.5,3.7,19.2s-1.2,14.1-3.7,19.2
	c-2.5,5.1-6,8.9-10.5,11.3C137.8,288.1,132.5,289.3,126.3,289.3z M126.3,275.8c4.4,0,7.7-1.6,10-4.8s3.4-8.4,3.4-15.6
	c0-7.5-1.1-12.8-3.4-16.1c-2.3-3.3-5.6-4.9-10-4.9c-4.4,0-7.8,1.6-10,4.8c-2.3,3.2-3.4,8.4-3.4,15.6c0,7.5,1.1,12.9,3.4,16.2
	C118.4,274.2,121.8,275.8,126.3,275.8z M205.2,221.8h15.4v66.6h-16.5L180,248v40.4h-15.4v-66.6H181l24.2,40.4V221.8z M245.2,288.4
	v-52.5H226v-14.1h55v14.1h-19.3v52.5H245.2z M320.1,288.4l-4.4-16.5h-21.1l-4.4,16.5h-16l18.9-66.6h24.4l18.8,66.6H320.1z
	 M298.1,258.4h14l-7-26.3L298.1,258.4z M380.7,254.1c3.8,0.8,6.7,2.5,8.8,5.1c2.2,2.6,3.2,6.1,3.2,10.4c0,6.5-2.6,11.4-7.8,14.7
	c-5.2,3.3-13.5,4.9-24.9,4.9c-2.7,0-5.9-0.1-9.4-0.4c-3.5-0.3-6.6-0.6-9.4-1v-64.6c3.2-0.7,6.6-1.2,10.4-1.7
	c3.8-0.4,7.4-0.6,10.8-0.6c6.5,0,11.9,0.7,16.1,2s7.3,3.4,9.3,6.1c2,2.8,3,6.3,3,10.6c0,3.5-0.9,6.5-2.7,9.1
	C386.3,251.3,383.8,253.1,380.7,254.1z M365,233.2c-2.4,0-4.9,0.2-7.6,0.7V248h7.6c2.6,0,4.6-0.3,6.1-0.8s2.6-1.3,3.3-2.4
	c0.7-1.1,1-2.5,1-4.2c0-1.8-0.3-3.2-1-4.3s-1.8-1.9-3.3-2.4C369.5,233.5,367.5,233.2,365,233.2z M364.6,276.9c3.2,0,5.7-0.3,7.6-0.9
	c1.9-0.6,3.2-1.4,4-2.6s1.2-2.7,1.2-4.7c0-2.8-0.9-4.8-2.6-6.1s-4.6-1.9-8.5-1.9h-8.9v15.8C360,276.8,362.4,276.9,364.6,276.9z
	 M399.4,288.4v-66.6h16.5v52.5h27.6v14.1H399.4z M464.9,274.8h29.7v13.6h-46v-66.6h45.5v13.6h-29.3v12.2h24.6v13.6h-24.6
	L464.9,274.8L464.9,274.8z"/>
<path class="st22" d="M104.2,321.4H80.1v11.5h20.4v11.5H80.1v21H66.3v-55.5h37.9C104.2,309.9,104.2,321.4,104.2,321.4z M109.3,365.4
	v-55.5H123v55.5H109.3z M165.1,309.9H178v55.5h-13.7l-20.2-33.6v33.6h-12.9v-55.5H145l20.2,33.6L165.1,309.9L165.1,309.9z
	 M220.4,365.4l-3.7-13.7h-17.6l-3.6,13.7h-13.3l15.7-55.5h20.4l15.7,55.5H220.4z M202.1,340.4h11.7l-5.9-21.9L202.1,340.4z
	 M272,309.9h12.9v55.5h-13.7L251,331.8v33.6h-12.9v-55.5h13.7l20.2,33.6V309.9z M319.6,366.1c-9.2,0-16.1-2.3-20.9-6.9
	c-4.8-4.6-7.2-11.7-7.2-21.5c0-9.5,2.5-16.7,7.4-21.5c5-4.8,12.1-7.2,21.4-7.2c3.9,0,7.6,0.4,11.1,1.2v11.4
	c-3.5-0.8-6.8-1.1-9.9-1.1c-3.6,0-6.5,0.6-8.8,1.7c-2.3,1.1-4,2.9-5.1,5.4s-1.7,5.8-1.7,9.9c0,4.2,0.5,7.5,1.6,10s2.8,4.3,5,5.4
	c2.3,1.1,5.2,1.6,8.7,1.6c3,0,6.4-0.6,10.1-1.7v11.4c-1.6,0.5-3.4,1-5.5,1.3S321.7,366.1,319.6,366.1z M337.1,365.4v-55.5h13.7v55.5
	H337.1z M372.5,354h24.8v11.4H359v-55.5h38v11.4h-24.4v10.1H393v11.3h-20.5V354z M434.5,365.4L422,345.9c-0.8,0-1.8,0-3-0.1
	c-0.7,0-1.3-0.1-1.7-0.1v19.7h-13.5v-54.3c5.7-1.3,11.5-1.9,17.2-1.9c8,0,14,1.5,18,4.5s6,7.6,6,13.8c0,3.8-0.9,7.1-2.6,9.8
	s-4.2,4.8-7.4,6.2l14.4,21.9H434.5z M417.3,335.2c1.8,0.2,3.5,0.3,5,0.3c3.3,0,5.7-0.6,7.3-1.8c1.6-1.3,2.4-3.3,2.4-6.1
	s-0.8-4.8-2.4-6.1c-1.5-1.3-3.9-1.9-7-1.9c-1.8,0-3.6,0.1-5.4,0.4v15.2H417.3z M474.9,366.1c-5.1,0-9.6-1-13.4-3.1
	c-3.8-2-6.7-5.2-8.8-9.5c-2.1-4.3-3.1-9.6-3.1-16s1-11.7,3.1-16s5-7.4,8.8-9.5c3.8-2,8.3-3.1,13.4-3.1c5.2,0,9.6,1,13.4,3.1
	c3.8,2,6.7,5.2,8.8,9.5c2.1,4.3,3.1,9.6,3.1,16s-1,11.7-3.1,16s-5,7.4-8.8,9.5S480.1,366.1,474.9,366.1z M474.9,354.9
	c3.7,0,6.5-1.3,8.3-4c1.9-2.7,2.9-7,2.9-13c0-6.2-1-10.7-2.9-13.4s-4.6-4.1-8.3-4.1c-3.7,0-6.5,1.3-8.4,4c-1.9,2.6-2.9,7-2.9,13
	c0,6.3,0.9,10.7,2.8,13.5C468.4,353.5,471.2,354.9,474.9,354.9z"/>
<line class="st23" x1="0" y1="-112.8" x2="1296" y2="-112.8"/>
<text transform="matrix(1 0 0 1 17.1527 0)" class="st24 st25"> </text>
</svg>
